<svg width="61" height="53" viewBox="0 0 61 53" fill="none" xmlns="http://www.w3.org/2000/svg">
<g clip-path="url(#clip0_673_17302)">
<path d="M5.54648 50.21H7.98396C8.35171 50.21 8.70437 50.357 8.9644 50.6186C9.22444 50.8802 9.37053 51.235 9.37053 51.605C9.37053 51.9749 9.22444 52.3297 8.9644 52.5913C8.70437 52.8529 8.35171 52.9999 7.98396 52.9999H5.54511C4.44224 52.9999 3.38454 52.5592 2.60469 51.7746C1.82485 50.99 1.38672 49.926 1.38672 48.8164V30.6848C1.38672 29.8467 1.94164 29.2898 2.77332 29.2898C3.60499 29.2898 4.15988 29.8412 4.15988 30.6848V48.815C4.15988 49.185 4.30597 49.5398 4.56601 49.8014C4.82604 50.063 5.17873 50.21 5.54648 50.21Z" fill="#9BE500"/>
<path d="M59.6125 30.6848V48.815C59.6125 49.9249 59.1743 50.9894 58.3942 51.7742C57.6141 52.559 56.556 52.9999 55.4528 52.9999H36.5038C36.136 52.9999 35.7833 52.8529 35.5233 52.5913C35.2632 52.3297 35.1172 51.9749 35.1172 51.605C35.1172 51.235 35.2632 50.8802 35.5233 50.6186C35.7833 50.357 36.136 50.21 36.5038 50.21H55.4501C55.8178 50.21 56.1705 50.063 56.4305 49.8014C56.6906 49.5398 56.8366 49.185 56.8366 48.815V30.6848C56.8366 29.8467 57.3915 29.2898 58.2232 29.2898C59.0549 29.2898 59.6125 29.8467 59.6125 30.6848Z" fill="#9BE500"/>
<path d="M56.8402 9.76333H54.1356C53.7678 9.76333 53.4152 9.9103 53.1551 10.1719C52.8951 10.4335 52.749 10.7883 52.749 11.1583C52.7505 11.5273 52.8972 11.8807 53.1571 12.1411C53.417 12.4015 53.7688 12.5477 54.1356 12.5477H56.8402C57.208 12.5477 57.5607 12.6947 57.8207 12.9563C58.0807 13.2179 58.2268 13.5727 58.2268 13.9427V22.8679C58.2406 23.1961 58.1358 23.5182 57.9318 23.7746C57.7278 24.0311 57.4383 24.2045 57.117 24.2629L36.0457 29.0046V27.8895C36.0457 27.5195 35.8996 27.1647 35.6395 26.9031C35.3795 26.6415 35.0268 26.4945 34.6591 26.4945H26.3409C25.9732 26.4945 25.6205 26.6415 25.3605 26.9031C25.1004 27.1647 24.9543 27.5195 24.9543 27.8895V29.0046L3.88162 24.2629C3.56043 24.2045 3.27113 24.031 3.06733 23.7745C2.86353 23.518 2.75902 23.196 2.77316 22.8679V13.9427C2.77316 13.1046 3.3212 12.5477 4.15973 12.5477H25.1955C25.5632 12.5477 25.9159 12.4007 26.176 12.1391C26.436 11.8775 26.5821 11.5227 26.5821 11.1527C26.5821 10.7828 26.436 10.428 26.176 10.1664C25.9159 9.90478 25.5632 9.75781 25.1955 9.75781H4.15973C3.05649 9.75781 1.99844 10.1987 1.21834 10.9835C0.438237 11.7684 0 12.8328 0 13.9427V22.8679C0.00570799 23.8037 0.322802 24.7106 0.900693 25.4439C1.47858 26.1771 2.28397 26.6946 3.18832 26.9135L24.9543 31.7945V36.2578C24.9543 36.6278 25.1004 36.9826 25.3605 37.2442C25.6205 37.5058 25.9732 37.6528 26.3409 37.6528H34.6591C35.0268 37.6528 35.3795 37.5058 35.6395 37.2442C35.8996 36.9826 36.0457 36.6278 36.0457 36.2578V31.7945L57.8103 26.9135C58.7149 26.6948 59.5206 26.1775 60.0988 25.4442C60.6769 24.7109 60.9942 23.8039 61 22.8679V13.9427C61 11.5828 59.1969 9.76333 56.8402 9.76333ZM33.2738 34.8684H27.7289V29.2899H33.2738V34.8684Z" fill="#9BE500"/>
<path d="M37.433 0.00415039H23.5685C21.2119 0.00415039 19.4102 1.81816 19.4102 4.18903V5.58397C19.4102 6.42066 19.9582 6.97756 20.7968 6.97756C21.6353 6.97756 22.1819 6.42618 22.1819 5.58397V4.18903C22.1819 3.35233 22.7369 2.79406 23.5685 2.79406H37.4316C38.2647 2.79406 38.8182 3.35233 38.8182 4.18903V5.58397C38.8182 6.42066 39.3731 6.97756 40.2048 6.97756C41.0364 6.97756 41.5914 6.42618 41.5914 5.58397V4.18903C41.5914 1.81402 39.7896 0.00415039 37.433 0.00415039Z" fill="#9BE500"/>
<path d="M37.3301 51.7677V51.4851H8.78186V51.7677H37.3301Z" fill="#9BE500"/>
<path d="M54.0762 11.3182V11.0356L25.5279 11.0356V11.3182L54.0762 11.3182Z" fill="#9BE500"/>
</g>
<defs>
<clipPath id="clip0_673_17302">
<rect width="61" height="53" fill="white"/>
</clipPath>
</defs>
</svg>
