<svg width="42" height="52" viewBox="0 0 42 52" fill="none" xmlns="http://www.w3.org/2000/svg">
<g clip-path="url(#clip0_673_17315)">
<path d="M25.5744 28.2751H16.4256C12.0693 28.2751 7.89136 30.0073 4.81096 33.0906C1.73056 36.1739 0 40.3558 0 44.7162V46.9694C0 48.3022 0.529007 49.5805 1.47061 50.523C2.41221 51.4655 3.68931 51.995 5.02093 51.995H5.12641C5.43549 51.995 5.73191 51.8721 5.95046 51.6533C6.16901 51.4346 6.29179 51.1379 6.29179 50.8285C6.29179 50.5192 6.16901 50.2225 5.95046 50.0037C5.73191 49.785 5.43549 49.6621 5.12641 49.6621H5.02093C4.30746 49.6621 3.6232 49.3784 3.1187 48.8734C2.61419 48.3684 2.33074 47.6835 2.33074 46.9694V44.7162C2.33107 40.9744 3.81633 37.3859 6.45983 34.7402C9.10332 32.0944 12.6886 30.6081 16.4269 30.6081H25.5756C29.3141 30.6081 32.8995 32.0946 35.5431 34.7406C38.1866 37.3866 39.6717 40.9754 39.6717 44.7174V46.9706C39.6717 47.6847 39.3883 48.3696 38.8838 48.8746C38.3793 49.3796 37.695 49.6633 36.9816 49.6633H31.01C30.7009 49.6633 30.4045 49.7862 30.1859 50.0049C29.9674 50.2237 29.8446 50.5204 29.8446 50.8298C29.8446 51.1391 29.9674 51.4358 30.1859 51.6546C30.4045 51.8733 30.7009 51.9962 31.01 51.9962H36.9816C38.3121 51.9933 39.5872 51.4628 40.5278 50.5209C41.4684 49.5789 41.9977 48.3024 42 46.9706V44.7174C42.0002 42.5583 41.5754 40.4202 40.75 38.4253C39.9246 36.4305 38.7148 34.6179 37.1895 33.0911C35.6642 31.5642 33.8534 30.3531 31.8605 29.5268C29.8676 28.7005 27.7315 28.2751 25.5744 28.2751Z" fill="#9BE500"/>
<path d="M29.9084 19.2995C28.9063 20.7475 27.5655 21.9282 26.0029 22.7385C24.4403 23.5487 22.7034 23.9641 20.9436 23.9482C15.2112 23.8954 10.4762 19.302 10.2529 13.5679C10.197 12.1137 10.4347 10.6631 10.9519 9.30298C11.4692 7.94287 12.2552 6.70117 13.2631 5.65225C14.2709 4.60332 15.4799 3.76872 16.8175 3.19838C18.1551 2.62804 19.594 2.33368 21.0479 2.33294C22.6295 2.3325 24.1918 2.68056 25.6239 3.3524C27.056 4.02424 28.3228 5.00338 29.3343 6.22034C29.4438 6.35299 29.5812 6.45992 29.7365 6.53354C29.8919 6.60717 30.0616 6.64573 30.2335 6.64644C30.4544 6.64695 30.6709 6.58453 30.8576 6.46652C31.0444 6.3485 31.1938 6.17974 31.2883 5.97993C31.3829 5.78011 31.4187 5.5575 31.3915 5.33809C31.3644 5.11867 31.2755 4.91151 31.1351 4.74079C29.9051 3.25721 28.3635 2.06324 26.62 1.24384C24.8765 0.424442 22.974 -0.000254471 21.0479 1.14391e-07C19.2801 0.00148619 17.5308 0.359919 15.9047 1.05385C14.2785 1.74777 12.8089 2.76293 11.5838 4.03858C10.3587 5.31422 9.40333 6.82415 8.77479 8.47798C8.14626 10.1318 7.85752 11.8955 7.92583 13.6637C8.19448 20.4808 13.7134 26.0012 20.5241 26.2664C22.7262 26.3528 24.9145 25.8824 26.887 24.8987C28.8595 23.915 30.5526 22.4496 31.8098 20.6379C31.9312 20.463 32.0025 20.2581 32.0158 20.0455C32.0291 19.8329 31.9841 19.6208 31.8855 19.432C31.7869 19.2432 31.6385 19.0851 31.4565 18.9747C31.2745 18.8644 31.0658 18.806 30.853 18.8059C30.6675 18.8062 30.4848 18.8512 30.3204 18.9371C30.156 19.0231 30.0147 19.1474 29.9084 19.2995Z" fill="#9BE500"/>
<path d="M30.8477 50.9748V50.7231H5.28797V50.9748H30.8477Z" fill="#9BE500"/>
<path d="M21.3406 24.992C18.1893 24.9885 15.168 23.7337 12.9398 21.5032C10.7116 19.2726 9.45832 16.2484 9.45508 13.094C9.45865 9.93993 10.712 6.91601 12.9402 4.6857C15.1684 2.4554 18.1895 1.20084 21.3406 1.19727C24.492 1.20052 27.5134 2.45492 29.7419 4.68525C31.9703 6.91559 33.2239 9.93971 33.2274 13.094C33.2242 16.2486 31.9708 19.273 29.7423 21.5036C27.5138 23.7342 24.4922 24.9888 21.3406 24.992ZM21.3406 1.36918C18.2352 1.37276 15.2579 2.60922 13.0621 4.80732C10.8663 7.00542 9.63128 9.98563 9.62803 13.094C9.63128 16.2025 10.8663 19.1826 13.0621 21.3807C15.2579 23.5788 18.2352 24.8153 21.3406 24.8189C24.4462 24.8153 27.4236 23.5789 29.6196 21.3808C31.8156 19.1827 33.0509 16.2026 33.0545 13.094C33.0509 9.98552 31.8156 7.00532 29.6196 4.80726C27.4236 2.6092 24.4462 1.37276 21.3406 1.36918Z" fill="#9BE500"/>
</g>
<defs>
<clipPath id="clip0_673_17315">
<rect width="42" height="52" fill="white"/>
</clipPath>
</defs>
</svg>
