<svg width="65" height="58" viewBox="0 0 65 58" fill="none" xmlns="http://www.w3.org/2000/svg">
<g clip-path="url(#clip0_673_17343)">
<path d="M51.6294 4.94224C51.5949 4.91709 51.5586 4.89439 51.5209 4.87435C46.6675 1.69018 40.9798 -0.00488329 35.1652 6.91018e-06C30.7593 -0.0181542 26.4056 0.949241 22.4265 2.83056C22.0876 2.98087 21.7633 3.14331 21.4366 3.31545C21.1845 3.45061 20.9965 3.67937 20.9134 3.95186C20.8302 4.22436 20.8588 4.51849 20.9929 4.77011C21.1286 5.02098 21.3586 5.20822 21.6327 5.2909C21.9069 5.37359 22.2028 5.34498 22.4558 5.21135C22.607 5.13134 22.7703 5.05741 22.9264 4.98104C24.5113 5.57018 26.1875 6.1775 27.4201 6.61147C27.454 6.62293 27.4844 6.64288 27.5083 6.66942C27.5323 6.69596 27.5489 6.7282 27.5566 6.763C27.5669 6.80263 27.5669 6.8442 27.5567 6.88384C27.5464 6.92348 27.5263 6.95987 27.4981 6.98967L24.7989 9.9851C24.7533 10.0347 24.6898 10.0643 24.6222 10.0675H24.3674C24.0879 10.0637 23.8174 10.1649 23.6098 10.3511C23.4023 10.5372 23.2731 10.7944 23.2483 11.0712C23.2382 11.2186 23.2588 11.3663 23.3086 11.5054C23.3584 11.6445 23.4364 11.772 23.5378 11.8798C23.6392 11.9877 23.7618 12.0737 23.898 12.1325C24.0342 12.1913 24.1811 12.2216 24.3296 12.2216H24.6222C24.9577 12.2198 25.2892 12.1488 25.5958 12.0132C25.9023 11.8776 26.1773 11.6803 26.4033 11.4337L29.1134 8.42617C29.378 8.13253 29.5658 7.7787 29.6604 7.39587C29.755 7.01303 29.7535 6.61292 29.656 6.23082C29.5596 5.85405 29.3715 5.50662 29.1083 5.21913C28.8451 4.93164 28.5149 4.71292 28.1467 4.58221C27.4786 4.34704 26.6776 4.05974 25.8303 3.75304C28.8235 2.68557 31.9805 2.14373 35.1603 2.1517C39.9115 2.14768 44.5826 3.36805 48.7182 5.69381L48.2964 5.91445C47.677 6.00294 46.9785 6.1084 46.4677 6.18598L46.03 6.25387C45.5573 6.34233 45.1326 6.5976 44.8341 6.97271L42.9066 9.42504C42.5579 9.86894 42.3361 10.3982 42.2647 10.9569C42.1932 11.5157 42.2748 12.0833 42.5006 12.5998C42.7208 13.123 43.0792 13.5773 43.5378 13.9145C43.9965 14.2516 44.5383 14.4592 45.1059 14.5152L47.6185 14.7576C47.9063 14.788 48.1727 14.923 48.3666 15.1366C48.5605 15.3502 48.6683 15.6275 48.6694 15.9153V17.5724C48.6673 17.748 48.6013 17.9169 48.4836 18.0479C48.366 18.179 48.2046 18.2632 48.0294 18.2852L46.0788 18.4779C45.6012 18.5484 45.1645 18.7861 44.8475 19.1483L44.1087 19.9968C44.0267 20.0935 43.9247 20.1713 43.8095 20.2249C43.6944 20.2785 43.5689 20.3065 43.4418 20.3072C43.3112 20.306 43.1822 20.2786 43.0625 20.2265C42.9429 20.1744 42.8351 20.0988 42.7457 20.0041L41.568 18.6634C41.3842 18.4581 41.1589 18.2937 40.9068 18.1809C40.6547 18.0681 40.3815 18.0095 40.1051 18.0088H34.3935C33.8344 18.0096 33.2817 18.1267 32.7709 18.3526C32.26 18.5785 31.8024 18.9082 31.4273 19.3204L31.3517 19.4041C31.2993 19.4635 31.2444 19.5253 31.1896 19.5859C31.0747 19.7136 30.9995 19.8716 30.973 20.0409C30.9465 20.2102 30.9698 20.3835 31.0402 20.5399C31.1106 20.6963 31.225 20.8291 31.3697 20.9222C31.5143 21.0154 31.683 21.0649 31.8553 21.0648H32.3685C32.4945 21.0649 32.619 21.0385 32.7339 20.9873C32.8488 20.9361 32.9516 20.8613 33.0354 20.7678C33.2068 20.5783 33.4162 20.4264 33.65 20.322C33.8839 20.2177 34.1371 20.1631 34.3935 20.1617H40.0014L41.1145 21.4273C41.4129 21.7507 41.7752 22.0094 42.1788 22.1872C42.5825 22.3649 43.0187 22.4578 43.4601 22.4601C43.896 22.455 44.3257 22.3575 44.7205 22.1739C45.1154 21.9904 45.4662 21.725 45.7496 21.3957L46.4372 20.6005L48.2476 20.4211C48.9567 20.3465 49.6128 20.0136 50.0896 19.4864C50.5664 18.9593 50.83 18.2753 50.8297 17.5663V15.9092C50.828 15.0896 50.522 14.2994 49.9703 13.6904C49.4186 13.0814 48.66 12.6965 47.8404 12.6095L45.3229 12.3671C45.1404 12.349 44.9663 12.2819 44.8192 12.173C44.6721 12.0641 44.5576 11.9175 44.4878 11.7489C44.4147 11.5853 44.3874 11.405 44.4089 11.2273C44.4303 11.0495 44.4997 10.8808 44.6097 10.7391L46.4835 8.35463L46.7822 8.3098C47.3381 8.22615 48.1135 8.10858 48.7669 8.01524C48.8051 8.01031 48.843 8.003 48.8803 7.99339C48.9827 7.96673 49.4919 7.71256 50.4079 7.2309L50.8346 7.00666C55.6553 10.3143 59.3021 15.0515 61.2544 20.5423L54.0153 20.1484C53.6953 20.1366 53.3774 20.2033 53.0895 20.3426C52.8016 20.4819 52.5527 20.6896 52.3646 20.9472L51.4514 22.1752C51.2561 22.4588 51.1398 22.7888 51.1143 23.1316C51.0888 23.4744 51.1551 23.8178 51.3064 24.1269L53.3679 28.4048C53.5255 28.7512 53.784 29.0426 54.1101 29.2413C54.4361 29.4399 54.8146 29.5366 55.1966 29.5188L57.2776 29.4485V31.5687C57.2797 31.6512 57.2642 31.7332 57.232 31.8092C57.1998 31.8853 57.1518 31.9537 57.0911 32.01C56.3145 32.7373 54.854 34.1362 53.7568 35.1957C53.4407 35.5007 53.1893 35.8656 53.0175 36.2689C52.8458 36.6723 52.7573 37.1058 52.7571 37.5437C52.7585 38.2483 52.9819 38.9346 53.3959 39.5063C53.5378 39.6967 53.6093 39.93 53.5984 40.1667C53.5875 40.4034 53.4949 40.6291 53.3362 40.8059L46.5469 48.6695C46.3609 48.8764 46.133 49.0418 45.8781 49.1548C45.6232 49.2679 45.3472 49.326 45.0681 49.3253C44.7897 49.3224 44.5153 49.2591 44.2641 49.1397C44.0129 49.0204 43.7909 48.8479 43.6137 48.6344L41.8898 46.5372C41.2489 45.7579 40.9003 44.7813 40.9036 43.7746C40.9011 43.0742 41.0662 42.3832 41.3852 41.7586C41.6901 41.1968 41.8485 40.5679 41.846 39.9294C41.8456 39.1736 41.625 38.4341 41.2106 37.8005C40.7963 37.1669 40.206 36.6663 39.5113 36.3594C39.3977 36.3093 39.2988 36.2313 39.2239 36.1327C39.1491 36.034 39.1007 35.9181 39.0834 35.7957L38.8945 34.6914C38.7466 33.8215 38.2931 33.032 37.6146 32.4635C36.9362 31.895 36.0768 31.5843 35.1895 31.5869H31.9808C31.5516 31.5872 31.1294 31.4777 30.755 31.269C30.3805 31.0604 30.0663 30.7595 29.8425 30.3953C29.7455 30.2394 29.61 30.1107 29.4489 30.0216C29.2878 29.9325 29.1064 29.8858 28.9221 29.8861C28.7299 29.8856 28.541 29.936 28.3748 30.0321C28.2087 30.1282 28.0712 30.2665 27.9766 30.4329C27.8821 30.5992 27.8337 30.7876 27.8366 30.9787C27.8395 31.1698 27.8935 31.3567 27.9931 31.5202C28.4107 32.1989 28.9966 32.7595 29.6946 33.1483C30.3927 33.5372 31.1795 33.7413 31.9796 33.741H35.2017C35.576 33.7432 35.9378 33.8753 36.2245 34.1146C36.5113 34.3539 36.7049 34.6852 36.772 35.0514L36.9585 36.1485C37.0333 36.6241 37.2275 37.0734 37.523 37.4548C37.8185 37.8361 38.206 38.1373 38.6495 38.3305C38.9599 38.4685 39.2234 38.693 39.4084 38.9767C39.5933 39.2604 39.6918 39.5913 39.6918 39.9294C39.6944 40.2162 39.6226 40.4989 39.4833 40.7501C38.9997 41.6855 38.7489 42.7228 38.7518 43.7746C38.7536 45.2756 39.2735 46.7305 40.2245 47.8961L41.952 49.9981C42.3292 50.4552 42.8023 50.8247 43.3383 51.0806C43.8743 51.3365 44.4602 51.4726 45.0547 51.4795H45.1108C45.6973 51.4799 46.2769 51.3548 46.8104 51.1126C47.3439 50.8703 47.8187 50.5167 48.2025 50.0757L54.9918 42.2132C55.4736 41.6687 55.7531 40.9764 55.7837 40.2517C55.8143 39.5271 55.5942 38.8139 55.16 38.2311C55.0154 38.0304 54.9382 37.7894 54.9394 37.5425C54.9399 37.392 54.9709 37.2431 55.0303 37.1046C55.0898 36.9661 55.1766 36.841 55.2856 36.7364C56.373 35.6842 57.8274 34.2986 58.5772 33.5846C58.8565 33.327 59.0789 33.0144 59.2302 32.6667C59.3815 32.3191 59.4585 31.9439 59.4562 31.5651V29.2182C59.4571 28.9619 59.4059 28.708 59.3057 28.4718C59.2056 28.2356 59.0586 28.0219 58.8735 27.8435C58.486 27.4755 57.9682 27.2742 57.4325 27.2835L55.2783 27.3574L53.3191 23.2953L54.0579 22.3049L61.5848 22.7134C61.7 22.7138 61.8147 22.697 61.9249 22.6637C62.5278 24.9444 62.8326 27.2928 62.832 29.651C62.832 41.9247 54.7077 52.3474 43.5259 55.881C43.3066 55.9496 43.115 56.0858 42.9788 56.27C42.8427 56.4542 42.7692 56.6768 42.7689 56.9054C42.7685 57.074 42.808 57.2405 42.8843 57.3911C42.9606 57.5418 43.0715 57.6725 43.2079 57.7727C43.3444 57.8729 43.5027 57.9397 43.6699 57.9679C43.8372 57.996 44.0089 57.9846 44.1709 57.9345C56.2329 54.1282 64.9971 42.8885 64.9971 29.651C64.9996 19.3556 59.6805 10.2615 51.6294 4.94224ZM17.3721 26.9392C17.1995 26.7109 16.9428 26.5601 16.6584 26.5199C16.3741 26.4797 16.0853 26.5533 15.8555 26.7247C15.6259 26.8963 15.4742 27.1515 15.4337 27.4343C15.3933 27.717 15.4674 28.0042 15.6397 28.2327L16.9807 30.0074C17.3008 30.4418 17.4566 30.9744 17.4208 31.5117L17.2355 33.6574C17.2135 33.9485 17.1336 34.2325 17.0005 34.4928C16.8675 34.7531 16.6838 34.9846 16.4602 35.1738L15.8506 35.6794C14.9789 36.4119 14.4263 37.4515 14.3084 38.5802L13.6257 45.1056C13.6046 45.3546 13.5359 45.5974 13.4233 45.8208L13.1795 46.3336C9.48969 41.5506 7.48672 35.6924 7.48008 29.6643C7.48008 29.3212 7.48983 28.9879 7.51055 28.6533C7.5193 28.5121 7.50002 28.3705 7.45371 28.2367C7.40739 28.103 7.33498 27.9796 7.24066 27.8736C7.14634 27.7677 7.03191 27.6812 6.90397 27.6193C6.77603 27.5574 6.63712 27.5211 6.49507 27.5126C6.20851 27.497 5.92731 27.5944 5.71253 27.7837C5.49774 27.9729 5.36669 28.2388 5.34786 28.5236C5.3247 28.9006 5.3125 29.2776 5.3125 29.6655C5.31076 36.7498 7.86267 43.6001 12.5053 48.9738C12.5281 49.0079 12.5534 49.0404 12.5809 49.0708C13.8579 50.539 15.2768 51.8789 16.8174 53.0711C16.9778 53.1955 17.1701 53.2727 17.3725 53.2939C17.5748 53.3151 17.7791 53.2795 17.9621 53.1912C18.1451 53.1028 18.2996 52.9653 18.408 52.794C18.5164 52.6228 18.5744 52.4249 18.5753 52.2226C18.5756 52.059 18.5383 51.8975 18.4662 51.7504C18.3942 51.6034 18.2893 51.4746 18.1596 51.374C16.9134 50.4085 15.7526 49.3386 14.69 48.1761L15.3666 46.7712C15.5949 46.3164 15.7347 45.8229 15.7787 45.3165L16.4614 38.8081C16.5201 38.2362 16.7988 37.7089 17.2392 37.3365L17.8488 36.8298C18.2923 36.457 18.657 36.0003 18.9217 35.4863C19.1864 34.9724 19.3459 34.4113 19.3909 33.8356L19.5774 31.6827C19.6515 30.625 19.3448 29.5757 18.7119 28.7224L17.3721 26.9392Z" fill="#9BE500"/>
<path d="M11.0947 6.77026C9.74401 6.77187 8.44906 7.30611 7.49396 8.2558C6.53887 9.20549 6.00161 10.4931 6 11.8361C6.00129 13.1793 6.53844 14.4671 7.4936 15.4168C8.44877 16.3666 9.74392 16.9007 11.0947 16.902C12.4456 16.9007 13.7408 16.3666 14.6962 15.4169C15.6516 14.4672 16.189 13.1794 16.1906 11.8361C16.189 10.4928 15.6516 9.20508 14.6962 8.25535C13.7408 7.30563 12.4456 6.77155 11.0947 6.77026ZM11.0947 14.7479C10.3187 14.7479 9.5745 14.4414 9.02578 13.8958C8.47707 13.3502 8.16883 12.6101 8.16883 11.8385C8.16883 11.0669 8.47707 10.327 9.02578 9.78135C9.5745 9.23574 10.3187 8.92921 11.0947 8.92921C11.8707 8.92921 12.6149 9.23574 13.1636 9.78135C13.7123 10.327 14.0206 11.0669 14.0206 11.8385C14.0206 12.6101 13.7123 13.3502 13.1636 13.8958C12.6149 14.4414 11.8707 14.7479 11.0947 14.7479Z" fill="#9BE500"/>
<path d="M11.096 0.80249C8.15495 0.806659 5.33553 1.9702 3.25591 4.03805C1.17628 6.10591 0.00614562 8.90933 0.00195312 11.8337V11.8458C0.00195312 12.2095 0.251852 12.4168 0.559071 12.498C0.702655 12.5329 0.852 12.5375 0.997491 12.5116C1.14298 12.4857 1.28143 12.4299 1.40394 12.3477H1.41246C1.63389 12.2069 1.82012 12.0178 1.95702 11.7947C2.09391 11.5717 2.17785 11.3205 2.20245 11.0603C2.40149 8.84938 3.42503 6.79246 5.07185 5.29381C6.71867 3.79517 8.86965 2.96319 11.102 2.96144C13.4694 2.964 15.7392 3.90019 17.4133 5.56461C19.0874 7.22902 20.0292 9.48575 20.0321 11.8398C20.0321 15.6486 14.1986 23.6626 11.102 27.4993C10.7436 27.0544 10.3486 26.5537 9.92924 26.0107C9.76879 25.8029 9.53791 25.6602 9.27955 25.6092C9.02119 25.5581 8.75295 25.6021 8.5248 25.733C8.39091 25.8103 8.27516 25.915 8.18526 26.0403C8.09536 26.1656 8.03341 26.3085 8.00352 26.4596C7.97363 26.6106 7.97646 26.7662 8.01192 26.916C8.04737 27.0659 8.1146 27.2064 8.20907 27.3283C9.22948 28.6436 10.0097 29.577 10.2731 29.8898C10.3747 30.0102 10.5015 30.1071 10.6447 30.1737C10.7879 30.2403 10.944 30.2749 11.102 30.2752C11.2603 30.2751 11.4167 30.2405 11.5601 30.1739C11.7035 30.1073 11.8305 30.0103 11.9323 29.8898C12.9832 28.6448 22.1985 17.5627 22.1985 11.8385C22.1956 8.91185 21.0248 6.10592 18.9432 4.03678C16.8616 1.96764 14.0393 0.804416 11.096 0.80249Z" fill="#9BE500"/>
<path d="M9.17008 26.732C1.73343 18.9507 1.00927 11.8943 1.00195 11.8216L1.24578 11.7998C1.24578 11.8689 1.97722 18.8477 9.34682 26.5635L9.17008 26.732Z" fill="#9BE500"/>
<path d="M36.821 57.5067C31.541 57.5067 27.3581 56.6096 24.4554 55.6883C19.8581 54.2337 17.3845 52.3923 17.3613 52.3741L17.5076 52.1802C17.532 52.1984 19.98 54.0155 24.542 55.4617C28.7516 56.7951 35.6738 58.0801 44.744 56.6145L44.783 56.8569C42.1509 57.286 39.4883 57.5032 36.821 57.5067Z" fill="#9BE500"/>
<path d="M29.1392 31.1542C27.3946 29.5843 27.8835 27.8096 28.3162 26.2435C28.5442 25.4167 28.7588 24.636 28.6039 23.9948C28.1321 22.0286 31.9078 19.9835 32.0687 19.8975L32.1845 20.112C32.1467 20.1314 28.4126 22.1522 28.8417 23.9378C29.0099 24.6409 28.7868 25.4507 28.5516 26.3077C28.1176 27.8836 27.6689 29.5056 29.3025 30.9748L29.1392 31.1542Z" fill="#9BE500"/>
</g>
<defs>
<clipPath id="clip0_673_17343">
<rect width="65" height="58" fill="white"/>
</clipPath>
</defs>
</svg>
