<svg width="58" height="57" viewBox="0 0 58 57" fill="none" xmlns="http://www.w3.org/2000/svg">
<g clip-path="url(#clip0_673_17309)">
<path d="M31.9582 56.8427C31.6931 56.8425 31.4367 56.7482 31.2351 56.577C31.0335 56.4056 30.8999 56.1685 30.8582 55.908C30.7533 55.2591 30.6267 54.3948 30.4797 53.3923C30.0358 50.3687 29.3646 45.7979 28.5369 41.9249C27.5975 37.5248 26.8324 35.8206 26.4158 35.169C24.8597 36.5319 23.0725 37.6085 21.1375 38.3485C17.4711 39.7289 13.527 39.7289 9.41413 38.3485C9.21104 38.2805 9.03198 38.1556 8.89844 37.9888C8.7649 37.822 8.68254 37.6205 8.66125 37.4083C8.60135 36.8258 8.72523 36.101 8.88315 35.1825C9.45223 31.8595 10.314 26.8363 3.78593 24.2095C3.36797 24.0429 2.93911 23.8763 2.51979 23.7165C2.12906 23.5661 1.72607 23.4117 1.32581 23.2518C1.18982 23.1977 1.06589 23.1174 0.961082 23.0156C0.856279 22.9137 0.772671 22.7924 0.715019 22.6584C0.657367 22.5244 0.626795 22.3805 0.625077 22.2347C0.623358 22.089 0.650538 21.9443 0.705015 21.809C0.815481 21.5359 1.03029 21.3175 1.30234 21.2017C1.57439 21.0859 1.88148 21.0822 2.1563 21.1913C2.54158 21.3458 2.93777 21.4975 3.3217 21.6451C3.74919 21.809 4.1903 21.977 4.62188 22.1504C8.15345 23.5701 10.3481 25.823 11.1459 28.8467C11.8048 31.338 11.3869 33.771 11.0819 35.5524C11.0261 35.8762 10.9702 36.2067 10.9294 36.4926C16.239 38.0234 21.0681 36.9166 25.2817 33.1979C25.7187 32.8119 26.0986 32.4799 26.7099 32.6425C27.6697 32.8999 28.4212 33.8522 29.1441 35.7326C29.6478 37.0425 30.1352 38.7847 30.6335 41.0633C31.5171 45.0948 32.2209 49.8878 32.6866 53.0632C32.8322 54.0561 32.9588 54.915 33.061 55.549C33.1072 55.8396 33.0358 56.1366 32.8622 56.3749C32.6886 56.6131 32.4271 56.7731 32.1352 56.8197C32.0767 56.8294 32.0175 56.8343 31.9582 56.8346V56.8427Z" fill="#9BE500"/>
<path d="M29.0876 19.4616C28.804 19.4623 28.5211 19.4337 28.2435 19.3762C26.0829 18.9251 24.9284 16.9161 24.3062 15.8391L21.8828 11.626C21.7766 11.4445 21.6323 11.1939 21.5248 11.1316C21.3097 11.0056 20.8277 11.2399 20.1742 11.584C19.5779 11.8983 18.9013 12.2614 18.1321 12.3643C15.9538 12.6786 14.4153 10.9446 13.4501 9.60889L12.3746 8.11873L11.299 6.62857C11.1267 6.38931 11.0568 6.09183 11.1045 5.80134C11.1522 5.51085 11.3137 5.251 11.5536 5.07878C11.7939 4.90698 12.093 4.83717 12.385 4.88467C12.6771 4.93217 12.9382 5.09312 13.1111 5.33212L14.1866 6.82229L15.2622 8.31245C16.2533 9.68475 17.0633 10.2727 17.8149 10.1657C18.1974 10.1101 18.6712 9.86085 19.1286 9.62378C20.0667 9.13067 21.3492 8.45468 22.6548 9.21737C23.2702 9.57907 23.5969 10.1453 23.8147 10.5206L26.2394 14.735C26.8875 15.8608 27.6104 16.9784 28.6982 17.206C29.7097 17.4132 30.7894 16.7454 31.3557 16.0342C31.9956 15.2363 32.3414 14.2243 32.7076 13.1541C32.758 13.0078 32.807 12.8615 32.8574 12.7165C33.0357 12.2072 33.402 11.1492 34.453 10.6655C35.1337 10.3539 36.2692 10.2063 37.8226 11.2589C38.5077 11.7412 39.1662 12.2599 39.7953 12.8127C40.5454 13.4494 41.2534 14.0523 42.0485 14.5224C45.1335 16.3471 49.7229 15.8188 52.281 13.3438C52.3862 13.2424 52.5105 13.1626 52.6468 13.1091C52.783 13.0556 52.9285 13.0294 53.075 13.0319C53.2214 13.0344 53.3659 13.0656 53.5002 13.1238C53.6345 13.182 53.7559 13.2659 53.8576 13.3709C54.0625 13.5816 54.1752 13.8645 54.1711 14.1577C54.167 14.4509 54.0465 14.7305 53.8358 14.9355C52.2647 16.4555 50.0714 17.4499 47.6521 17.7384C45.2329 18.0269 42.8231 17.5623 40.9089 16.4297C39.9559 15.8621 39.1391 15.1699 38.3467 14.5007C37.7786 13.9994 37.1837 13.5291 36.5646 13.0918C35.9887 12.7003 35.5585 12.6055 35.3883 12.6854C35.2181 12.7653 35.0302 13.2638 34.9649 13.4494C34.9159 13.5849 34.8682 13.7299 34.8192 13.8721C34.4108 15.0764 33.9833 16.3214 33.0997 17.4227C32.0596 18.7192 30.5525 19.4683 29.0835 19.4683L29.0876 19.4616Z" fill="#9BE500"/>
<path d="M48.5345 49.0411C48.3673 49.041 48.2023 49.0034 48.0517 48.9312C47.9011 48.859 47.7688 48.754 47.6645 48.6239C47.0648 47.9114 46.4253 47.233 45.749 46.5919C44.0758 44.9446 42.3454 43.2403 41.7872 40.5459C41.613 39.733 41.6511 39.0462 41.8975 38.4583C42.4774 37.0846 43.9546 36.7785 44.5101 36.6633L46.3167 36.2881L47.9191 35.9562C47.9831 35.9426 48.1029 35.9169 48.1696 35.8952C48.194 35.7015 48.1508 35.5055 48.0471 35.3398C47.8979 35.1478 47.7296 34.9712 47.5447 34.8128C47.2314 34.5408 46.9509 34.2335 46.7088 33.897C45.4195 32.0113 46.2037 29.1272 47.7449 27.6167C49.0219 26.369 50.7809 25.7513 52.9701 25.7919C53.6167 25.8028 54.2485 25.861 54.8584 25.9274C55.5173 26.0045 56.1799 26.0452 56.8433 26.0493C57.139 26.0468 57.4235 26.161 57.6346 26.367C57.8457 26.573 57.966 26.8538 57.9693 27.148C57.9722 27.4424 57.8575 27.7259 57.6505 27.9362C57.4434 28.1465 57.161 28.2664 56.8652 28.2697C56.1231 28.2631 55.3819 28.2179 54.6446 28.1342C54.0511 28.0773 53.4888 28.0231 52.9292 28.0136C51.3608 27.9838 50.141 28.3848 49.3105 29.2017C48.3671 30.1269 47.9926 31.8365 48.5522 32.6588C48.7037 32.8564 48.8753 33.038 49.0641 33.2007C49.3683 33.4637 49.6423 33.7595 49.881 34.0826C50.5617 35.0539 50.6829 36.601 49.7203 37.5141C49.3439 37.8461 48.8783 38.0617 48.3807 38.1345L46.7782 38.4691L44.9716 38.843C44.3494 38.9717 44.0486 39.1139 43.9601 39.3253C43.9138 39.4337 43.8811 39.6531 43.975 40.0961C44.4039 42.1417 45.8225 43.5411 47.3255 45.0204C48.0621 45.7206 48.758 46.4619 49.4099 47.2407C49.5942 47.4706 49.6794 47.7639 49.6467 48.0562C49.614 48.3485 49.4662 48.616 49.2356 48.8C49.0383 48.9575 48.7929 49.0435 48.5399 49.0438L48.5345 49.0411Z" fill="#9BE500"/>
<path d="M55.7056 16.9147C54.032 12.9558 51.4877 9.42047 48.2599 6.56892C48.1077 6.43617 47.922 6.34722 47.7228 6.31161C47.5235 6.276 47.3183 6.2951 47.1292 6.36684C46.9401 6.43858 46.7741 6.56025 46.6493 6.71878C46.5244 6.87731 46.4454 7.06672 46.4206 7.26661V7.29776C46.3975 7.47527 46.4182 7.65571 46.4808 7.8235C46.5435 7.99129 46.6461 8.1414 46.78 8.26093C48.647 9.91371 50.2728 11.8178 51.6104 13.9181C52.0107 14.5458 52.3842 15.1902 52.7309 15.8513C54.3876 19.001 55.3879 22.4514 55.6716 25.9952C55.7297 26.7051 55.7587 27.4221 55.7587 28.1465V28.225C55.7437 34.9321 53.1773 41.3848 48.5758 46.2858C48.0684 46.8277 47.5393 47.3479 46.9883 47.8464C43.062 51.4091 38.1568 53.725 32.9002 54.4979C32.1741 54.6045 31.4343 54.6812 30.681 54.7282C30.1228 54.7634 29.5597 54.7811 28.9915 54.7811C26.7525 54.7822 24.5223 54.5036 22.3531 53.952C22.1338 53.8952 21.9023 53.9063 21.6895 53.9838C21.4767 54.0612 21.2926 54.2013 21.1618 54.3855C21.0576 54.5326 20.9909 54.7028 20.9674 54.8813C20.944 55.0599 20.9645 55.2414 21.0272 55.4102C21.0899 55.5791 21.1929 55.7303 21.3273 55.8508C21.4618 55.9713 21.6236 56.0575 21.799 56.1019C24.1497 56.6974 26.5658 56.999 28.9915 57C32.869 57.007 36.7081 56.2357 40.2792 54.7323C55.0303 48.5291 61.9396 31.5969 55.7056 16.9147ZM23.7785 1.25582C23.8017 1.07778 23.7811 0.896811 23.7187 0.728368C23.6563 0.559925 23.5538 0.409024 23.42 0.288556C23.2862 0.168088 23.1251 0.0816216 22.9505 0.0365692C22.7758 -0.00848312 22.5928 -0.0108033 22.4171 0.0298222C20.8019 0.405569 19.2219 0.917698 17.6942 1.56063C13.4432 3.34995 9.68283 6.12318 6.72574 9.64972C3.76866 13.1763 1.70028 17.3542 0.692604 21.8363C0.668098 21.942 0.644953 22.0463 0.62317 22.1533C0.20567 24.1153 -0.00511322 26.1152 -0.00579771 28.1207C-0.0196307 34.785 2.29424 41.2469 6.53998 46.4009C6.64921 46.5322 6.7874 46.6367 6.94379 46.7063C7.10017 46.7759 7.27055 46.8087 7.44173 46.8021C7.61291 46.7956 7.78028 46.7498 7.93083 46.6685C8.08138 46.5872 8.21107 46.4724 8.30985 46.3332C8.45036 46.1348 8.52153 45.896 8.51243 45.6535C8.50333 45.411 8.41447 45.1781 8.25949 44.9907C4.34341 40.2426 2.20581 34.2888 2.21196 28.1465C2.21163 26.6732 2.33369 25.2024 2.57685 23.7491C2.70028 23.005 2.85548 22.2721 3.04245 21.5505C4.45936 16.071 7.58975 11.1813 11.9816 7.58765C12.5548 7.11622 13.1498 6.66918 13.7611 6.24652C16.5266 4.33652 19.6303 2.96445 22.9085 2.20275C23.1327 2.15191 23.3357 2.03361 23.4899 1.86395C23.644 1.69428 23.742 1.48147 23.7703 1.25447L23.7785 1.25582Z" fill="#9BE500"/>
<path d="M28.9937 56.095C13.4733 56.095 0.855469 43.5356 0.855469 28.0962C0.855469 12.6568 13.4774 0.0974121 28.9937 0.0974121C44.51 0.0974121 57.1319 12.6581 57.1319 28.0962C57.1319 43.5343 44.51 56.095 28.9937 56.095ZM28.9937 0.50382C13.7034 0.50382 1.2639 12.8817 1.2639 28.0962C1.2639 43.3107 13.7034 55.6885 28.9937 55.6885C44.284 55.6885 56.7235 43.3107 56.7235 28.0962C56.7235 12.8817 44.284 0.507888 28.9937 0.507888V0.50382Z" fill="#9BE500"/>
</g>
<defs>
<clipPath id="clip0_673_17309">
<rect width="58" height="57" fill="white"/>
</clipPath>
</defs>
</svg>
