<svg width="55" height="53" viewBox="0 0 55 53" fill="none" xmlns="http://www.w3.org/2000/svg">
<g clip-path="url(#clip0_673_17322)">
<path fill-rule="evenodd" clip-rule="evenodd" d="M41.7516 6.91775C41.6542 6.70985 41.5197 6.52082 41.3546 6.35965L35.4643 0.55815C35.3009 0.395975 35.1094 0.263917 34.8988 0.168244C34.6467 0.0554918 34.3727 -0.00190352 34.0959 4.81544e-05H29.8578C29.6391 0.00014618 29.4282 0.0798073 29.2655 0.223732C29.1028 0.367656 28.9998 0.565687 28.9763 0.779834C28.9727 0.811023 28.9709 0.842387 28.9707 0.87377C28.9706 0.917643 28.974 0.961452 28.9807 1.00482C29.0089 1.18926 29.0964 1.35994 29.2302 1.49192C29.3126 1.57303 29.4105 1.63736 29.5182 1.68121C29.6259 1.72506 29.7413 1.74758 29.8578 1.74749H33.6435V6.76374C33.6441 7.1323 33.793 7.48559 34.0576 7.7462C34.3222 8.00681 34.6809 8.15347 35.0551 8.15405H40.1481V18.559C40.145 18.7842 40.2284 19.0024 40.3815 19.1697C40.5347 19.3369 40.7464 19.441 40.9742 19.4611C41.0958 19.4694 41.2177 19.4529 41.3325 19.4127C41.4472 19.3725 41.5524 19.3094 41.6413 19.2275C41.7303 19.1455 41.8011 19.0464 41.8495 18.9362C41.8978 18.8261 41.9226 18.7074 41.9223 18.5874V7.70629C41.924 7.43437 41.8657 7.16534 41.7516 6.91775ZM35.4177 6.40661V2.98272L38.894 6.40661H35.4177Z" fill="#9BE500"/>
<path fill-rule="evenodd" clip-rule="evenodd" d="M40.975 50.0304C40.7472 50.0505 40.5355 50.1546 40.3823 50.3219C40.2291 50.4891 40.1458 50.7073 40.1489 50.9325V51.0931C40.1486 51.1353 40.1315 51.1756 40.1012 51.2055C40.0709 51.2353 40.0299 51.2522 39.987 51.2525H1.93611C1.89317 51.2525 1.85198 51.2357 1.82162 51.2058C1.79126 51.1759 1.77419 51.1354 1.77419 51.0931V50.1833C1.77419 49.9516 1.68075 49.7293 1.51438 49.5655C1.34802 49.4016 1.12237 49.3096 0.887097 49.3096C0.651824 49.3096 0.4262 49.4016 0.259837 49.5655C0.0934746 49.7293 0 49.9516 0 50.1833V51.0931C0.00117152 51.5985 0.205544 52.0828 0.568378 52.4402C0.931211 52.7975 1.42299 52.9988 1.93611 53H39.987C40.5001 52.9988 40.9919 52.7975 41.3547 52.4402C41.7176 52.0828 41.9219 51.5985 41.9231 51.0931V50.9019C41.9231 50.7821 41.898 50.6636 41.8496 50.5538C41.8011 50.4439 41.7302 50.345 41.6413 50.2633C41.5524 50.1816 41.4473 50.1187 41.3327 50.0787C41.2181 50.0386 41.0963 50.0222 40.975 50.0304Z" fill="#9BE500"/>
<path fill-rule="evenodd" clip-rule="evenodd" d="M1.7747 1.91031C1.7747 1.86802 1.79177 1.82745 1.82213 1.79755C1.85249 1.76765 1.89368 1.75086 1.93662 1.75086H4.80858C5.04386 1.75086 5.26948 1.6588 5.43584 1.49494C5.60221 1.33109 5.69568 1.10887 5.69568 0.87714C5.69568 0.645415 5.60221 0.423166 5.43584 0.259311C5.26948 0.0954566 5.04386 0.00341797 4.80858 0.00341797H1.93218C1.41924 0.0051452 0.927802 0.2066 0.565094 0.56384C0.202386 0.921079 -0.00215258 1.4051 -0.00390625 1.91031V25.8525C-0.00390625 26.0842 0.0895413 26.3065 0.255904 26.4703C0.422267 26.6342 0.647918 26.7262 0.883191 26.7262C1.11846 26.7262 1.34409 26.6342 1.51045 26.4703C1.67681 26.3065 1.77029 26.0842 1.77029 25.8525L1.7747 1.91031Z" fill="#9BE500"/>
<path fill-rule="evenodd" clip-rule="evenodd" d="M47.7933 31.6308C45.2152 34.193 42.6571 36.7705 40.0667 39.3218C39.8693 39.5159 39.6017 39.6249 39.3227 39.6249C39.0437 39.6249 38.7761 39.5159 38.5786 39.3218L34.2829 35.0864C34.0855 34.8919 33.9746 34.6281 33.9746 34.353C33.9746 34.078 34.0855 33.8142 34.2829 33.6197C34.4803 33.4259 34.7477 33.3171 35.0264 33.3171C35.3051 33.3171 35.5724 33.4259 35.7699 33.6197L38.6929 36.4975C38.7753 36.5789 38.8733 36.6435 38.9812 36.6876C39.0891 36.7316 39.2048 36.7542 39.3216 36.7541C39.4385 36.7539 39.5543 36.731 39.6622 36.6866C39.7701 36.6421 39.868 36.5771 39.9503 36.4953L46.3053 30.1706C46.5021 29.9771 46.7689 29.8684 47.0471 29.8684C47.3252 29.8684 47.5921 29.9771 47.7889 30.1706C47.9854 30.3641 48.0962 30.6262 48.097 30.8998C48.0978 31.1735 47.9887 31.4363 47.7933 31.6308Z" fill="#9BE500"/>
<path fill-rule="evenodd" clip-rule="evenodd" d="M47.7933 31.6308C45.2152 34.193 42.6571 36.7705 40.0667 39.3218C39.8693 39.5159 39.6017 39.6249 39.3227 39.6249C39.0437 39.6249 38.7761 39.5159 38.5786 39.3218L34.2829 35.0864C34.0855 34.8919 33.9746 34.6281 33.9746 34.353C33.9746 34.078 34.0855 33.8142 34.2829 33.6197C34.4803 33.4259 34.7477 33.3171 35.0264 33.3171C35.3051 33.3171 35.5724 33.4259 35.7699 33.6197L38.6929 36.4975C38.7753 36.5789 38.8733 36.6435 38.9812 36.6876C39.0891 36.7316 39.2048 36.7542 39.3216 36.7541C39.4385 36.7539 39.5543 36.731 39.6622 36.6866C39.7701 36.6421 39.868 36.5771 39.9503 36.4953L46.3053 30.1706C46.5021 29.9771 46.7689 29.8684 47.0471 29.8684C47.3252 29.8684 47.5921 29.9771 47.7889 30.1706C47.9854 30.3641 48.0962 30.6262 48.097 30.8998C48.0978 31.1735 47.9887 31.4363 47.7933 31.6308Z" fill="#9BE500"/>
<path fill-rule="evenodd" clip-rule="evenodd" d="M47.7933 31.6308C45.2152 34.193 42.6571 36.7705 40.0667 39.3218C39.8693 39.5159 39.6017 39.6249 39.3227 39.6249C39.0437 39.6249 38.7761 39.5159 38.5786 39.3218L34.2829 35.0864C34.0855 34.8919 33.9746 34.6281 33.9746 34.353C33.9746 34.078 34.0855 33.8142 34.2829 33.6197C34.4803 33.4259 34.7477 33.3171 35.0264 33.3171C35.3051 33.3171 35.5724 33.4259 35.7699 33.6197L38.6929 36.4975C38.7753 36.5789 38.8733 36.6435 38.9812 36.6876C39.0891 36.7316 39.2048 36.7542 39.3216 36.7541C39.4385 36.7539 39.5543 36.731 39.6622 36.6866C39.7701 36.6421 39.868 36.5771 39.9503 36.4953L46.3053 30.1706C46.5021 29.9771 46.7689 29.8684 47.0471 29.8684C47.3252 29.8684 47.5921 29.9771 47.7889 30.1706C47.9854 30.3641 48.0962 30.6262 48.097 30.8998C48.0978 31.1735 47.9887 31.4363 47.7933 31.6308Z" fill="#9BE500"/>
<path fill-rule="evenodd" clip-rule="evenodd" d="M47.7933 31.6308C45.2152 34.193 42.6571 36.7705 40.0667 39.3218C39.8693 39.5159 39.6017 39.6249 39.3227 39.6249C39.0437 39.6249 38.7761 39.5159 38.5786 39.3218L34.2829 35.0864C34.0855 34.8919 33.9746 34.6281 33.9746 34.353C33.9746 34.078 34.0855 33.8142 34.2829 33.6197C34.4803 33.4259 34.7477 33.3171 35.0264 33.3171C35.3051 33.3171 35.5724 33.4259 35.7699 33.6197L38.6929 36.4975C38.7753 36.5789 38.8733 36.6435 38.9812 36.6876C39.0891 36.7316 39.2048 36.7542 39.3216 36.7541C39.4385 36.7539 39.5543 36.731 39.6622 36.6866C39.7701 36.6421 39.868 36.5771 39.9503 36.4953L46.3053 30.1706C46.5021 29.9771 46.7689 29.8684 47.0471 29.8684C47.3252 29.8684 47.5921 29.9771 47.7889 30.1706C47.9854 30.3641 48.0962 30.6262 48.097 30.8998C48.0978 31.1735 47.9887 31.4363 47.7933 31.6308Z" fill="#9BE500"/>
<path fill-rule="evenodd" clip-rule="evenodd" d="M47.7933 31.6308C45.2152 34.193 42.6571 36.7705 40.0667 39.3218C39.8693 39.5159 39.6017 39.6249 39.3227 39.6249C39.0437 39.6249 38.7761 39.5159 38.5786 39.3218L34.2829 35.0864C34.0855 34.8919 33.9746 34.6281 33.9746 34.353C33.9746 34.078 34.0855 33.8142 34.2829 33.6197C34.4803 33.4259 34.7477 33.3171 35.0264 33.3171C35.3051 33.3171 35.5724 33.4259 35.7699 33.6197L38.6929 36.4975C38.7753 36.5789 38.8733 36.6435 38.9812 36.6876C39.0891 36.7316 39.2048 36.7542 39.3216 36.7541C39.4385 36.7539 39.5543 36.731 39.6622 36.6866C39.7701 36.6421 39.868 36.5771 39.9503 36.4953L46.3053 30.1706C46.5021 29.9771 46.7689 29.8684 47.0471 29.8684C47.3252 29.8684 47.5921 29.9771 47.7889 30.1706C47.9854 30.3641 48.0962 30.6262 48.097 30.8998C48.0978 31.1735 47.9887 31.4363 47.7933 31.6308Z" fill="#9BE500"/>
<path fill-rule="evenodd" clip-rule="evenodd" d="M41.0385 20.9922C33.3474 20.9922 27.0723 27.1727 27.0723 34.7533C27.0723 42.3339 33.3463 48.5046 41.0385 48.5046C48.7307 48.5046 55.0003 42.3285 55.0003 34.7533C55.0003 27.1781 48.7296 20.9922 41.0385 20.9922ZM41.0385 46.7517C34.3243 46.7517 28.8465 41.3608 28.8465 34.7478C28.8465 28.1349 34.3243 22.7342 41.0385 22.7342C47.7527 22.7342 53.2261 28.1294 53.2261 34.7478C53.2202 37.9297 51.9343 40.9796 49.6499 43.2295C47.3656 45.4794 44.269 46.7459 41.0385 46.7517Z" fill="#9BE500"/>
<path fill-rule="evenodd" clip-rule="evenodd" d="M47.7933 31.6308C45.2152 34.193 42.6571 36.7705 40.0667 39.3218C39.8693 39.5159 39.6017 39.6249 39.3227 39.6249C39.0437 39.6249 38.7761 39.5159 38.5786 39.3218L34.2829 35.0864C34.0855 34.8919 33.9746 34.6281 33.9746 34.353C33.9746 34.078 34.0855 33.8142 34.2829 33.6197C34.4803 33.4259 34.7477 33.3171 35.0264 33.3171C35.3051 33.3171 35.5724 33.4259 35.7699 33.6197L38.6929 36.4975C38.7753 36.5789 38.8733 36.6435 38.9812 36.6876C39.0891 36.7316 39.2048 36.7542 39.3216 36.7541C39.4385 36.7539 39.5543 36.731 39.6622 36.6866C39.7701 36.6421 39.868 36.5771 39.9503 36.4953L46.3053 30.1706C46.5021 29.9771 46.7689 29.8684 47.0471 29.8684C47.3252 29.8684 47.5921 29.9771 47.7889 30.1706C47.9854 30.3641 48.0962 30.6262 48.097 30.8998C48.0978 31.1735 47.9887 31.4363 47.7933 31.6308Z" fill="#9BE500"/>
<path fill-rule="evenodd" clip-rule="evenodd" d="M47.7933 31.6308C45.2152 34.193 42.6571 36.7705 40.0667 39.3218C39.8693 39.5159 39.6017 39.6249 39.3227 39.6249C39.0437 39.6249 38.7761 39.5159 38.5786 39.3218L34.2829 35.0864C34.0855 34.8919 33.9746 34.6281 33.9746 34.353C33.9746 34.078 34.0855 33.8142 34.2829 33.6197C34.4803 33.4259 34.7477 33.3171 35.0264 33.3171C35.3051 33.3171 35.5724 33.4259 35.7699 33.6197L38.6929 36.4975C38.7753 36.5789 38.8733 36.6435 38.9812 36.6876C39.0891 36.7316 39.2048 36.7542 39.3216 36.7541C39.4385 36.7539 39.5543 36.731 39.6622 36.6866C39.7701 36.6421 39.868 36.5771 39.9503 36.4953L46.3053 30.1706C46.5021 29.9771 46.7689 29.8684 47.0471 29.8684C47.3252 29.8684 47.5921 29.9771 47.7889 30.1706C47.9854 30.3641 48.0962 30.6262 48.097 30.8998C48.0978 31.1735 47.9887 31.4363 47.7933 31.6308Z" fill="#9BE500"/>
<path fill-rule="evenodd" clip-rule="evenodd" d="M47.7933 31.6308C45.2152 34.193 42.6571 36.7705 40.0667 39.3218C39.8693 39.5159 39.6017 39.6249 39.3227 39.6249C39.0437 39.6249 38.7761 39.5159 38.5786 39.3218L34.2829 35.0864C34.0855 34.8919 33.9746 34.6281 33.9746 34.353C33.9746 34.078 34.0855 33.8142 34.2829 33.6197C34.4803 33.4259 34.7477 33.3171 35.0264 33.3171C35.3051 33.3171 35.5724 33.4259 35.7699 33.6197L38.6929 36.4975C38.7753 36.5789 38.8733 36.6435 38.9812 36.6876C39.0891 36.7316 39.2048 36.7542 39.3216 36.7541C39.4385 36.7539 39.5543 36.731 39.6622 36.6866C39.7701 36.6421 39.868 36.5771 39.9503 36.4953L46.3053 30.1706C46.5021 29.9771 46.7689 29.8684 47.0471 29.8684C47.3252 29.8684 47.5921 29.9771 47.7889 30.1706C47.9854 30.3641 48.0962 30.6262 48.097 30.8998C48.0978 31.1735 47.9887 31.4363 47.7933 31.6308Z" fill="#9BE500"/>
<path fill-rule="evenodd" clip-rule="evenodd" d="M47.7933 31.6308C45.2152 34.193 42.6571 36.7705 40.0667 39.3218C39.8693 39.5159 39.6017 39.6249 39.3227 39.6249C39.0437 39.6249 38.7761 39.5159 38.5786 39.3218L34.2829 35.0864C34.0855 34.8919 33.9746 34.6281 33.9746 34.353C33.9746 34.078 34.0855 33.8142 34.2829 33.6197C34.4803 33.4259 34.7477 33.3171 35.0264 33.3171C35.3051 33.3171 35.5724 33.4259 35.7699 33.6197L38.6929 36.4975C38.7753 36.5789 38.8733 36.6435 38.9812 36.6876C39.0891 36.7316 39.2048 36.7542 39.3216 36.7541C39.4385 36.7539 39.5543 36.731 39.6622 36.6866C39.7701 36.6421 39.868 36.5771 39.9503 36.4953L46.3053 30.1706C46.5021 29.9771 46.7689 29.8684 47.0471 29.8684C47.3252 29.8684 47.5921 29.9771 47.7889 30.1706C47.9854 30.3641 48.0962 30.6262 48.097 30.8998C48.0978 31.1735 47.9887 31.4363 47.7933 31.6308Z" fill="#9BE500"/>
<path fill-rule="evenodd" clip-rule="evenodd" d="M47.7933 31.6308C45.2152 34.193 42.6571 36.7705 40.0667 39.3218C39.8693 39.5159 39.6017 39.6249 39.3227 39.6249C39.0437 39.6249 38.7761 39.5159 38.5786 39.3218L34.2829 35.0864C34.0855 34.8919 33.9746 34.6281 33.9746 34.353C33.9746 34.078 34.0855 33.8142 34.2829 33.6197C34.4803 33.4259 34.7477 33.3171 35.0264 33.3171C35.3051 33.3171 35.5724 33.4259 35.7699 33.6197L38.6929 36.4975C38.7753 36.5789 38.8733 36.6435 38.9812 36.6876C39.0891 36.7316 39.2048 36.7542 39.3216 36.7541C39.4385 36.7539 39.5543 36.731 39.6622 36.6866C39.7701 36.6421 39.868 36.5771 39.9503 36.4953L46.3053 30.1706C46.5021 29.9771 46.7689 29.8684 47.0471 29.8684C47.3252 29.8684 47.5921 29.9771 47.7889 30.1706C47.9854 30.3641 48.0962 30.6262 48.097 30.8998C48.0978 31.1735 47.9887 31.4363 47.7933 31.6308Z" fill="#9BE500"/>
<path fill-rule="evenodd" clip-rule="evenodd" d="M47.7933 31.6308C45.2152 34.193 42.6571 36.7705 40.0667 39.3218C39.8693 39.5159 39.6017 39.6249 39.3227 39.6249C39.0437 39.6249 38.7761 39.5159 38.5786 39.3218L34.2829 35.0864C34.0855 34.8919 33.9746 34.6281 33.9746 34.353C33.9746 34.078 34.0855 33.8142 34.2829 33.6197C34.4803 33.4259 34.7477 33.3171 35.0264 33.3171C35.3051 33.3171 35.5724 33.4259 35.7699 33.6197L38.6929 36.4975C38.7753 36.5789 38.8733 36.6435 38.9812 36.6876C39.0891 36.7316 39.2048 36.7542 39.3216 36.7541C39.4385 36.7539 39.5543 36.731 39.6622 36.6866C39.7701 36.6421 39.868 36.5771 39.9503 36.4953L46.3053 30.1706C46.5021 29.9771 46.7689 29.8684 47.0471 29.8684C47.3252 29.8684 47.5921 29.9771 47.7889 30.1706C47.9854 30.3641 48.0962 30.6262 48.097 30.8998C48.0978 31.1735 47.9887 31.4363 47.7933 31.6308Z" fill="#9BE500"/>
<path fill-rule="evenodd" clip-rule="evenodd" d="M47.7933 31.6308C45.2152 34.193 42.6571 36.7705 40.0667 39.3218C39.8693 39.5159 39.6017 39.6249 39.3227 39.6249C39.0437 39.6249 38.7761 39.5159 38.5786 39.3218L34.2829 35.0864C34.0855 34.8919 33.9746 34.6281 33.9746 34.353C33.9746 34.078 34.0855 33.8142 34.2829 33.6197C34.4803 33.4259 34.7477 33.3171 35.0264 33.3171C35.3051 33.3171 35.5724 33.4259 35.7699 33.6197L38.6929 36.4975C38.7753 36.5789 38.8733 36.6435 38.9812 36.6876C39.0891 36.7316 39.2048 36.7542 39.3216 36.7541C39.4385 36.7539 39.5543 36.731 39.6622 36.6866C39.7701 36.6421 39.868 36.5771 39.9503 36.4953L46.3053 30.1706C46.5021 29.9771 46.7689 29.8684 47.0471 29.8684C47.3252 29.8684 47.5921 29.9771 47.7889 30.1706C47.9854 30.3641 48.0962 30.6262 48.097 30.8998C48.0978 31.1735 47.9887 31.4363 47.7933 31.6308Z" fill="#9BE500"/>
<path d="M31.7461 1.00368V0.779785L4.90587 0.779785V1.00368L31.7461 1.00368Z" fill="#9BE500"/>
<path d="M0.772703 50.2488H1L1 23.8132H0.772703L0.772703 50.2488Z" fill="#9BE500"/>
</g>
<defs>
<clipPath id="clip0_673_17322">
<rect width="55" height="53" fill="white"/>
</clipPath>
</defs>
</svg>
