<svg width="162" height="149" viewBox="0 0 162 149" fill="none" xmlns="http://www.w3.org/2000/svg">
<path d="M128.926 96.3611C126.613 93.8319 124.032 91.5619 121.228 89.5911C120.309 88.9422 119.364 88.3268 118.394 87.7448C116.314 86.4948 114.141 85.4077 111.894 84.4935C106.404 82.2622 100.541 81.0919 94.6147 81.0449H67.6095C61.6556 81.0792 55.7628 82.2474 50.2465 84.4868C47.8905 85.4452 45.6162 86.593 43.4458 87.9187C42.5802 88.4472 41.7312 89.0047 40.899 89.5911C38.1066 91.5475 35.5346 93.8006 33.2281 96.3109C25.2723 104.972 20.8653 116.306 20.8819 128.064V134.509C20.8795 136.535 21.3066 138.538 22.135 140.387C22.9634 142.236 24.1742 143.889 25.6878 145.236C25.8652 145.397 26.046 145.551 26.2334 145.698C26.3427 145.789 26.4543 145.876 26.568 145.959C26.7354 146.086 26.9027 146.21 27.0768 146.327C29.482 147.999 32.3429 148.894 35.273 148.889H35.5742C36.3244 148.887 37.0522 148.634 37.6409 148.169C38.2296 147.704 38.6451 147.056 38.8206 146.327C38.8497 146.205 38.872 146.083 38.8875 145.959C38.8875 145.872 38.9076 145.785 38.911 145.698C38.9143 145.611 38.911 145.601 38.911 145.551C38.911 145.444 38.911 145.34 38.911 145.236C38.8373 144.463 38.4965 143.739 37.9471 143.189C37.3199 142.564 36.4702 142.213 35.5843 142.213H35.2831C33.2415 142.213 31.2836 141.402 29.8401 139.959C28.3965 138.517 27.5855 136.56 27.5855 134.519V128.087C27.58 121.715 29.087 115.432 31.9825 109.755C34.8781 104.077 39.0797 99.1673 44.2424 95.4278C47.7496 92.874 51.6478 90.9052 55.7854 89.5978C59.232 88.5094 62.8094 87.8895 66.4214 87.7547C66.9368 87.7313 67.4523 87.7213 67.9743 87.7213H94.1863C95.56 87.721 96.9328 87.7903 98.2995 87.9287C101.045 88.2056 103.755 88.766 106.385 89.6011C110.523 90.9085 114.421 92.8774 117.928 95.4313C123.085 99.1739 127.282 104.085 130.174 109.761C133.066 115.437 134.57 121.717 134.565 128.087V134.533C134.565 136.573 133.754 138.53 132.311 139.973C130.867 141.415 128.909 142.226 126.868 142.226H109.755C108.927 142.228 108.128 142.536 107.515 143.092C106.901 143.648 106.515 144.412 106.432 145.236C106.432 145.34 106.432 145.444 106.432 145.551C106.432 145.601 106.432 145.651 106.432 145.698C106.432 145.745 106.432 145.872 106.452 145.959C106.467 146.083 106.491 146.206 106.522 146.327C106.662 146.928 106.968 147.478 107.406 147.912C107.77 148.277 108.215 148.552 108.705 148.715C109.046 148.831 109.405 148.89 109.766 148.889H126.878C128.159 148.89 129.434 148.719 130.669 148.38C131.19 148.239 131.702 148.067 132.202 147.865C134.686 146.871 136.843 145.204 138.431 143.052C138.638 142.778 138.829 142.5 139.013 142.213C140.478 139.914 141.256 137.245 141.255 134.519V128.087C141.27 116.341 136.87 105.018 128.926 96.3611Z" fill="#9BE500"/>
<path d="M111.462 54.7267C111.335 54.6192 111.2 54.5219 111.057 54.4356C110.533 54.1119 109.927 53.9427 109.31 53.9473C108.776 53.9457 108.25 54.0719 107.774 54.3153C107.301 54.5577 106.894 54.9126 106.589 55.3488C103.102 60.3628 98.2124 64.2382 92.533 66.4905C91.5476 66.8786 90.5422 67.2136 89.5209 67.494C89.2866 67.5609 89.0523 67.6244 88.8181 67.6846C88.4834 67.7716 88.1487 67.8485 87.814 67.9221C87.2283 68.0525 86.6393 68.1629 86.0402 68.2565C85.8863 68.2833 85.729 68.3067 85.5683 68.3268C84.542 68.4754 83.5087 68.5715 82.4726 68.6145H82.1781C81.8769 68.6145 81.569 68.6312 81.2644 68.6312H80.8929H80.2704C79.514 68.6111 78.7644 68.5621 78.0214 68.4841C77.8574 68.4841 77.6867 68.4506 77.5294 68.4272C77.1445 68.3837 76.763 68.3301 76.3814 68.2699C76.097 68.2265 75.8125 68.1763 75.5314 68.1228C75.1565 68.0525 74.785 67.9789 74.4169 67.8953C73.26 67.6331 72.1191 67.3048 70.9998 66.9119C65.1398 64.8591 60.0304 61.0974 56.3314 56.1126C52.6325 51.1279 50.5141 45.1492 50.2498 38.9488C50.0509 34.0406 51.0297 29.1561 53.1046 24.7031C53.4862 23.8836 53.9045 23.0809 54.3563 22.3016C54.4367 22.1577 54.5203 22.0205 54.604 21.88C55.1845 20.9116 55.818 19.9758 56.5016 19.0771C60.1823 14.2183 65.2132 10.5502 70.9664 8.53062C72.5805 7.9651 74.2398 7.53771 75.9263 7.25294C76.2074 7.19942 76.4885 7.15588 76.773 7.11575C78.2275 6.90878 79.6948 6.80493 81.164 6.80478C81.4987 6.80478 81.8333 6.80471 82.168 6.82144H82.4257C84.4569 6.90053 86.4751 7.18292 88.4499 7.66435C88.6875 7.72121 88.9252 7.78143 89.1594 7.84499C90.2874 8.1442 91.3961 8.51171 92.4794 8.94546C97.3013 10.8504 101.568 13.9337 104.889 17.9131C105.306 18.4147 105.86 18.7852 106.482 18.9801C106.8 19.0818 107.132 19.1337 107.466 19.1339C107.927 19.1344 108.383 19.0399 108.805 18.8563C109.062 18.7435 109.304 18.5985 109.525 18.4248C109.654 18.3219 109.776 18.2101 109.889 18.0903C110.476 17.4631 110.803 16.6376 110.806 15.7791C110.805 15.0121 110.533 14.2702 110.037 13.6851C107.86 11.072 105.341 8.76454 102.547 6.82487C101.352 5.99539 100.111 5.23584 98.8283 4.55026C98.594 4.42316 98.3597 4.29936 98.1221 4.18229C96.3075 3.25929 94.4203 2.48639 92.4794 1.8711C88.8096 0.71098 84.9829 0.122013 81.1339 0.125011C77.6875 0.122383 74.2572 0.593957 70.9396 1.52649C68.9258 2.09482 66.9633 2.83107 65.0727 3.72744C64.7882 3.86123 64.5037 4.00179 64.2226 4.14228C62.6677 4.92969 61.1692 5.82379 59.7379 6.81817C55.1031 10.0344 51.2452 14.2443 48.4459 19.1406C47.7949 20.274 47.2061 21.442 46.6822 22.6393C46.6085 22.8032 46.5383 22.9739 46.468 23.1311C46.1132 23.964 45.7986 24.8035 45.4974 25.6765C44.0217 30.0366 43.3615 34.6309 43.5496 39.2299C43.7911 45.0505 45.3817 50.7354 48.1962 55.8369C51.0106 60.9385 54.9719 65.3172 59.7681 68.6279C61.0544 69.5209 62.3958 70.3319 63.7842 71.0562C64.062 71.2067 64.3465 71.3506 64.6309 71.4877C66.0405 72.1834 67.4938 72.7867 68.9817 73.2939C69.6288 73.5169 70.2814 73.721 70.9396 73.9061C71.3278 74.0153 71.7194 74.1191 72.1143 74.2172L72.6398 74.3443C73.7208 74.5951 74.8218 74.8025 75.9363 74.9564C77.1626 75.1307 78.3969 75.2423 79.6345 75.2909C81.8237 75.3766 84.0163 75.2725 86.1875 74.9798C87.6923 74.7782 89.1833 74.4844 90.6521 74.1001L91.1575 73.9629C91.6037 73.8403 92.0421 73.7098 92.4727 73.5716C92.7104 73.498 92.9446 73.4176 93.1789 73.3374C95.0035 72.7205 96.777 71.9623 98.4835 71.0696C98.7223 70.947 98.9599 70.8198 99.1964 70.6883C100.347 70.0583 101.465 69.3684 102.543 68.6212C106.228 66.06 109.429 62.8664 111.998 59.1887C112.479 58.5112 112.691 57.6792 112.592 56.8544C112.493 56.0297 112.09 55.2712 111.462 54.7267Z" fill="#9BE500"/>
<path d="M109.284 145.248H36.0495V145.971H109.284V145.248Z" fill="#9BE500"/>
<path d="M48.4828 37.5949C48.4784 33.1904 49.3463 28.8285 51.0363 24.7606C51.371 23.9311 51.7592 23.1183 52.1709 22.3222C52.2445 22.1751 52.3182 22.0313 52.3985 21.8875C52.9424 20.8603 53.5412 19.8632 54.1924 18.9004C57.4746 14.0261 61.974 10.0932 67.2448 7.49115C66.9837 7.43094 66.7227 7.38086 66.4583 7.33403C61.2551 10.0224 56.8273 13.9973 53.5966 18.8803C52.9494 19.8604 52.3529 20.8731 51.8095 21.9142C51.7325 22.0614 51.6555 22.2085 51.5819 22.3557C51.1803 23.1551 50.8088 23.968 50.4674 24.8008C48.8167 28.8644 47.97 33.2092 47.9741 37.5949C47.9788 43.9223 49.7467 50.1233 53.0794 55.503C56.4122 60.8827 61.1781 65.2285 66.8432 68.0533C67.1042 67.9998 67.3619 67.9463 67.6196 67.886C61.8943 65.157 57.0589 60.8641 53.6724 55.5037C50.2858 50.1433 48.4866 43.9344 48.4828 37.5949ZM48.4828 37.5949C48.4784 33.1904 49.3463 28.8285 51.0363 24.7606C51.371 23.9311 51.7592 23.1183 52.1709 22.3222C52.2445 22.1751 52.3182 22.0313 52.3985 21.8875C52.9424 20.8603 53.5412 19.8632 54.1924 18.9004C57.4746 14.0261 61.974 10.0932 67.2448 7.49115C66.9837 7.43094 66.7227 7.38086 66.4583 7.33403C61.2551 10.0224 56.8273 13.9973 53.5966 18.8803C52.9494 19.8604 52.3529 20.8731 51.8095 21.9142C51.7325 22.0614 51.6555 22.2085 51.5819 22.3557C51.1803 23.1551 50.8088 23.968 50.4674 24.8008C48.8167 28.8644 47.97 33.2092 47.9741 37.5949C47.9788 43.9223 49.7467 50.1233 53.0794 55.503C56.4122 60.8827 61.1781 65.2285 66.8432 68.0533C67.1042 67.9998 67.3619 67.9463 67.6196 67.886C61.8943 65.157 57.0589 60.8641 53.6724 55.5037C50.2858 50.1433 48.4866 43.9344 48.4828 37.5949ZM48.4828 37.5949C48.4784 33.1904 49.3463 28.8285 51.0363 24.7606C51.371 23.9311 51.7592 23.1183 52.1709 22.3222C52.2445 22.1751 52.3182 22.0313 52.3985 21.8875C52.9424 20.8603 53.5412 19.8632 54.1924 18.9004C57.4746 14.0261 61.974 10.0932 67.2448 7.49115C66.9837 7.43094 66.7227 7.38086 66.4583 7.33403C61.2551 10.0224 56.8273 13.9973 53.5966 18.8803C52.9494 19.8604 52.3529 20.8731 51.8095 21.9142C51.7325 22.0614 51.6555 22.2085 51.5819 22.3557C51.1803 23.1551 50.8088 23.968 50.4674 24.8008C48.8167 28.8644 47.97 33.2092 47.9741 37.5949C47.9788 43.9223 49.7467 50.1233 53.0794 55.503C56.4122 60.8827 61.1781 65.2285 66.8432 68.0533C67.1042 67.9998 67.3619 67.9463 67.6196 67.886C61.8943 65.157 57.0589 60.8641 53.6724 55.5037C50.2858 50.1433 48.4866 43.9344 48.4828 37.5949ZM48.4828 37.5949C48.4784 33.1904 49.3463 28.8285 51.0363 24.7606C51.371 23.9311 51.7592 23.1183 52.1709 22.3222C52.2445 22.1751 52.3182 22.0313 52.3985 21.8875C52.9424 20.8603 53.5412 19.8632 54.1924 18.9004C57.4746 14.0261 61.974 10.0932 67.2448 7.49115C66.9837 7.43094 66.7227 7.38086 66.4583 7.33403C61.2551 10.0224 56.8273 13.9973 53.5966 18.8803C52.9494 19.8604 52.3529 20.8731 51.8095 21.9142C51.7325 22.0614 51.6555 22.2085 51.5819 22.3557C51.1803 23.1551 50.8088 23.968 50.4674 24.8008C48.8167 28.8644 47.97 33.2092 47.9741 37.5949C47.9788 43.9223 49.7467 50.1233 53.0794 55.503C56.4122 60.8827 61.1781 65.2285 66.8432 68.0533C67.1042 67.9998 67.3619 67.9463 67.6196 67.886C61.8943 65.157 57.0589 60.8641 53.6724 55.5037C50.2858 50.1433 48.4866 43.9344 48.4828 37.5949ZM72.8239 69.8461L72.6699 69.8027C72.391 69.7268 72.1166 69.6432 71.8466 69.5518C70.4057 69.0906 68.9979 68.5318 67.633 67.8793C61.9052 65.1523 57.067 60.8601 53.678 55.4996C50.289 50.1391 48.4878 43.9292 48.4828 37.5882C48.4784 33.1837 49.3463 28.8218 51.0363 24.7539C51.371 23.9244 51.7592 23.1116 52.1709 22.3155L51.5953 22.349C51.1937 23.1484 50.8222 23.9613 50.4808 24.7941C48.8301 28.8577 47.9833 33.2026 47.9874 37.5882C47.9922 43.9156 49.76 50.1166 53.0928 55.4963C56.4255 60.876 61.1915 65.2218 66.8566 68.0466C68.2046 68.7225 69.5967 69.307 71.0233 69.796C71.2955 69.8896 71.5699 69.9799 71.8466 70.0669C72.0474 70.1293 72.2482 70.1896 72.449 70.2475C73.453 70.5441 74.4738 70.7938 75.5113 70.9967C75.6385 70.8529 75.7657 70.7091 75.8895 70.5619C74.8562 70.3751 73.833 70.1362 72.8239 69.8461ZM72.8239 69.8461L72.6699 69.8027C72.391 69.7268 72.1166 69.6432 71.8466 69.5518C70.4057 69.0906 68.9979 68.5318 67.633 67.8793C61.9052 65.1523 57.067 60.8601 53.678 55.4996C50.289 50.1391 48.4878 43.9292 48.4828 37.5882C48.4784 33.1837 49.3463 28.8218 51.0363 24.7539C51.371 23.9244 51.7592 23.1116 52.1709 22.3155L51.5953 22.349C51.1937 23.1484 50.8222 23.9613 50.4808 24.7941C48.8301 28.8577 47.9833 33.2026 47.9874 37.5882C47.9922 43.9156 49.76 50.1166 53.0928 55.4963C56.4255 60.876 61.1915 65.2218 66.8566 68.0466C68.2046 68.7225 69.5967 69.307 71.0233 69.796C71.2955 69.8896 71.5699 69.9799 71.8466 70.0669C72.0474 70.1293 72.2482 70.1896 72.449 70.2475C73.453 70.5441 74.4738 70.7938 75.5113 70.9967C75.6385 70.8529 75.7657 70.7091 75.8895 70.5619C74.8562 70.3751 73.833 70.1362 72.8239 69.8461ZM72.8239 69.8461L72.6699 69.8027C72.391 69.7268 72.1166 69.6432 71.8466 69.5518C70.4057 69.0906 68.9979 68.5318 67.633 67.8793C61.9052 65.1523 57.067 60.8601 53.678 55.4996C50.289 50.1391 48.4878 43.9292 48.4828 37.5882C48.4784 33.1837 49.3463 28.8218 51.0363 24.7539C51.371 23.9244 51.7592 23.1116 52.1709 22.3155L51.5953 22.349C51.1937 23.1484 50.8222 23.9613 50.4808 24.7941C48.8301 28.8577 47.9833 33.2026 47.9874 37.5882C47.9922 43.9156 49.76 50.1166 53.0928 55.4963C56.4255 60.876 61.1915 65.2218 66.8566 68.0466C68.2046 68.7225 69.5967 69.307 71.0233 69.796C71.2955 69.8896 71.5699 69.9799 71.8466 70.0669C72.0474 70.1293 72.2482 70.1896 72.449 70.2475C73.453 70.5441 74.4738 70.7938 75.5113 70.9967C75.6385 70.8529 75.7657 70.7091 75.8895 70.5619C74.8562 70.3751 73.833 70.1362 72.8239 69.8461ZM113.698 25.0417C113.339 24.1341 112.942 23.2422 112.507 22.3658C112.43 22.2187 112.356 22.0681 112.276 21.9209C111.731 20.8728 111.131 19.8545 110.478 18.8704C110.304 18.6061 110.127 18.3452 109.943 18.0843C106.801 13.5931 102.625 9.92218 97.7674 7.38074C96.5848 6.75961 95.3654 6.21126 94.116 5.73852C93.8751 5.64487 93.6307 5.55454 93.3831 5.46757C91.4155 4.77109 89.3876 4.25822 87.3254 3.93559C85.5782 3.66381 83.8125 3.52731 82.0442 3.52745C80.424 3.52341 78.8057 3.6352 77.2014 3.86194C75.3862 4.11923 73.5952 4.52545 71.8466 5.07625C71.5722 5.16321 71.3011 5.25011 71.03 5.34377C69.4643 5.87869 67.9407 6.52934 66.4717 7.29042C61.2685 9.97884 56.8407 13.9539 53.61 18.8369C52.9628 19.817 52.3663 20.8297 51.8229 21.8708C51.7459 22.018 51.6689 22.1651 51.5953 22.3123C51.1937 23.1117 50.8222 23.9245 50.4808 24.7574C48.8301 28.8209 47.9833 33.1658 47.9874 37.5515C47.9922 43.8789 49.76 50.0799 53.0928 55.4596C56.4255 60.8393 61.1915 65.1851 66.8566 68.0098C68.2046 68.6858 69.5967 69.2702 71.0233 69.7592C71.2955 69.8529 71.5699 69.9432 71.8466 70.0302C72.0474 70.0926 72.2482 70.1528 72.449 70.2108C73.453 70.5074 74.4738 70.757 75.5113 70.96C75.6753 70.9934 75.846 71.0235 76.0066 71.0503C76.5421 71.1473 77.0776 71.2309 77.6198 71.3011C78.085 71.3614 78.5535 71.4149 79.0221 71.455C80.0194 71.5464 81.0235 71.591 82.0342 71.5888C82.4525 71.5888 82.8675 71.5888 83.2825 71.5654C84.5026 71.5203 85.7193 71.4087 86.9272 71.2309L87.7471 71.1038L88.2424 71.0135C88.8884 70.8965 89.5309 70.7593 90.1635 70.6021C91.2487 70.3359 92.3199 70.0154 93.3731 69.6421C93.6207 69.5551 93.865 69.4648 94.1093 69.3711C95.2301 68.9452 96.3271 68.4594 97.3959 67.9161C103.255 64.9417 108.134 60.3461 111.452 54.6771C114.497 49.481 116.099 43.5665 116.091 37.5448C116.093 33.2632 115.281 29.0202 113.698 25.0417ZM111.057 54.4364C107.691 60.215 102.682 64.8628 96.6663 67.789C95.6031 68.306 94.5127 68.7649 93.3998 69.1637C93.1555 69.254 92.9112 69.341 92.6635 69.4213C91.7242 69.7357 90.7659 70.0067 89.7887 70.2341C89.1617 70.388 88.5292 70.5196 87.891 70.6289C87.7237 70.659 87.5564 70.6857 87.3924 70.7091C86.9941 70.776 86.5925 70.8329 86.1875 70.883C85.1232 71.0135 84.0422 71.0972 82.9478 71.1239C82.6533 71.1239 82.3588 71.1239 82.0609 71.1239C81.1685 71.1239 80.276 71.0882 79.3835 71.0168C79.0488 70.9934 78.741 70.9599 78.4197 70.9265C77.7503 70.8529 77.081 70.7592 76.4116 70.6421C76.2476 70.6187 76.0769 70.5887 75.9196 70.5552C74.8862 70.3662 73.863 70.125 72.854 69.8327L72.7 69.7893C72.4211 69.7134 72.1467 69.6298 71.8767 69.5384C70.4358 69.0772 69.028 68.5184 67.6631 67.866C61.9353 65.1389 57.0971 60.8467 53.7081 55.4862C50.3192 50.1257 48.518 43.9158 48.5129 37.5748C48.5086 33.1703 49.3764 28.8084 51.0665 24.7406C51.4012 23.911 51.7894 23.0984 52.201 22.3023C52.2746 22.1551 52.3483 22.0112 52.4286 21.8674C52.9725 20.8403 53.5713 19.8431 54.2225 18.8803C57.5048 14.006 62.0041 10.0731 67.2749 7.47106C68.7555 6.73877 70.2893 6.1193 71.8633 5.61799C72.1344 5.52768 72.4055 5.4474 72.6799 5.36712C74.4218 4.85875 76.2028 4.49515 78.0047 4.28004C79.3504 4.11475 80.7051 4.03217 82.0609 4.03261C83.5699 4.03231 85.0772 4.13389 86.5724 4.33688C88.6442 4.61423 90.6849 5.08799 92.6669 5.75175C92.9112 5.83203 93.1588 5.91574 93.3998 6.00605C94.6364 6.44883 95.8447 6.9672 97.0177 7.55811C102.052 10.0731 106.376 13.8081 109.595 18.4222L109.893 18.8537C110.554 19.8309 111.163 20.8425 111.717 21.8842L111.948 22.3257C112.386 23.1753 112.784 24.0483 113.149 24.938C114.787 28.9499 115.627 33.242 115.622 37.5748C115.629 43.5011 114.053 49.3219 111.057 54.4364ZM72.8239 69.8461L72.6699 69.8027C72.391 69.7268 72.1166 69.6432 71.8466 69.5518C70.4057 69.0906 68.9979 68.5318 67.633 67.8793C61.9052 65.1523 57.067 60.8601 53.678 55.4996C50.289 50.1391 48.4878 43.9292 48.4828 37.5882C48.4784 33.1837 49.3463 28.8218 51.0363 24.7539C51.371 23.9244 51.7592 23.1116 52.1709 22.3155L51.5953 22.349C51.1937 23.1484 50.8222 23.9613 50.4808 24.7941C48.8301 28.8577 47.9833 33.2026 47.9874 37.5882C47.9922 43.9156 49.76 50.1166 53.0928 55.4963C56.4255 60.876 61.1915 65.2218 66.8566 68.0466C68.2046 68.7225 69.5967 69.307 71.0233 69.796C71.2955 69.8896 71.5699 69.9799 71.8466 70.0669C72.0474 70.1293 72.2482 70.1896 72.449 70.2475C73.453 70.5441 74.4738 70.7938 75.5113 70.9967C75.6385 70.8529 75.7657 70.7091 75.8895 70.5619C74.8562 70.3751 73.833 70.1362 72.8239 69.8461ZM72.8239 69.8461L72.6699 69.8027C72.391 69.7268 72.1166 69.6432 71.8466 69.5518C70.4057 69.0906 68.9979 68.5318 67.633 67.8793C61.9052 65.1523 57.067 60.8601 53.678 55.4996C50.289 50.1391 48.4878 43.9292 48.4828 37.5882C48.4784 33.1837 49.3463 28.8218 51.0363 24.7539C51.371 23.9244 51.7592 23.1116 52.1709 22.3155L51.5953 22.349C51.1937 23.1484 50.8222 23.9613 50.4808 24.7941C48.8301 28.8577 47.9833 33.2026 47.9874 37.5882C47.9922 43.9156 49.76 50.1166 53.0928 55.4963C56.4255 60.876 61.1915 65.2218 66.8566 68.0466C68.2046 68.7225 69.5967 69.307 71.0233 69.796C71.2955 69.8896 71.5699 69.9799 71.8466 70.0669C72.0474 70.1293 72.2482 70.1896 72.449 70.2475C73.453 70.5441 74.4738 70.7938 75.5113 70.9967C75.6385 70.8529 75.7657 70.7091 75.8895 70.5619C74.8562 70.3751 73.833 70.1362 72.8239 69.8461ZM48.4828 37.5949C48.4784 33.1904 49.3463 28.8285 51.0363 24.7606C51.371 23.9311 51.7592 23.1183 52.1709 22.3222C52.2445 22.1751 52.3182 22.0313 52.3985 21.8875C52.9424 20.8603 53.5412 19.8632 54.1924 18.9004C57.4746 14.0261 61.974 10.0932 67.2448 7.49115C66.9837 7.43094 66.7227 7.38086 66.4583 7.33403C61.2551 10.0224 56.8273 13.9973 53.5966 18.8803C52.9494 19.8604 52.3529 20.8731 51.8095 21.9142C51.7325 22.0614 51.6555 22.2085 51.5819 22.3557C51.1803 23.1551 50.8088 23.968 50.4674 24.8008C48.8167 28.8644 47.97 33.2092 47.9741 37.5949C47.9788 43.9223 49.7467 50.1233 53.0794 55.503C56.4122 60.8827 61.1781 65.2285 66.8432 68.0533C67.1042 67.9998 67.3619 67.9463 67.6196 67.886C61.8943 65.157 57.0589 60.8641 53.6724 55.5037C50.2858 50.1433 48.4866 43.9344 48.4828 37.5949ZM48.4828 37.5949C48.4784 33.1904 49.3463 28.8285 51.0363 24.7606C51.371 23.9311 51.7592 23.1183 52.1709 22.3222C52.2445 22.1751 52.3182 22.0313 52.3985 21.8875C52.9424 20.8603 53.5412 19.8632 54.1924 18.9004C57.4746 14.0261 61.974 10.0932 67.2448 7.49115C66.9837 7.43094 66.7227 7.38086 66.4583 7.33403C61.2551 10.0224 56.8273 13.9973 53.5966 18.8803C52.9494 19.8604 52.3529 20.8731 51.8095 21.9142C51.7325 22.0614 51.6555 22.2085 51.5819 22.3557C51.1803 23.1551 50.8088 23.968 50.4674 24.8008C48.8167 28.8644 47.97 33.2092 47.9741 37.5949C47.9788 43.9223 49.7467 50.1233 53.0794 55.503C56.4122 60.8827 61.1781 65.2285 66.8432 68.0533C67.1042 67.9998 67.3619 67.9463 67.6196 67.886C61.8943 65.157 57.0589 60.8641 53.6724 55.5037C50.2858 50.1433 48.4866 43.9344 48.4828 37.5949ZM48.4828 37.5949C48.4784 33.1904 49.3463 28.8285 51.0363 24.7606C51.371 23.9311 51.7592 23.1183 52.1709 22.3222C52.2445 22.1751 52.3182 22.0313 52.3985 21.8875C52.9424 20.8603 53.5412 19.8632 54.1924 18.9004C57.4746 14.0261 61.974 10.0932 67.2448 7.49115C66.9837 7.43094 66.7227 7.38086 66.4583 7.33403C61.2551 10.0224 56.8273 13.9973 53.5966 18.8803C52.9494 19.8604 52.3529 20.8731 51.8095 21.9142C51.7325 22.0614 51.6555 22.2085 51.5819 22.3557C51.1803 23.1551 50.8088 23.968 50.4674 24.8008C48.8167 28.8644 47.97 33.2092 47.9741 37.5949C47.9788 43.9223 49.7467 50.1233 53.0794 55.503C56.4122 60.8827 61.1781 65.2285 66.8432 68.0533C67.1042 67.9998 67.3619 67.9463 67.6196 67.886C61.8943 65.157 57.0589 60.8641 53.6724 55.5037C50.2858 50.1433 48.4866 43.9344 48.4828 37.5949Z" fill="#9BE500"/>
<path d="M72.4824 145.71C72.4668 145.554 72.4388 145.4 72.3988 145.248H60.4474C60.6047 145.409 60.7821 145.559 60.9361 145.71C61.0365 145.8 61.1369 145.887 61.2406 145.971C61.3444 146.055 61.5452 146.222 61.7025 146.339H72.4724C72.487 146.221 72.4948 146.103 72.4958 145.984C72.497 145.893 72.4925 145.801 72.4824 145.71ZM141.958 95.4434C135.696 91.6774 128.539 89.6563 121.232 89.5898H106.375C110.513 90.8972 114.411 92.866 117.918 95.4198H120.79C121.99 95.4191 123.19 95.4794 124.384 95.6005C125.913 95.7546 127.43 96.0095 128.926 96.3632C136.66 98.1953 143.55 102.582 148.48 108.814C153.41 115.045 156.092 122.757 156.092 130.701V136.334C156.091 138.118 155.381 139.829 154.119 141.091C152.858 142.353 151.146 143.062 149.361 143.064H134.404C133.678 143.065 132.977 143.337 132.44 143.826C131.903 144.315 131.568 144.987 131.499 145.71C131.494 145.801 131.494 145.893 131.499 145.984C131.498 146.103 131.504 146.221 131.52 146.339C131.584 146.907 131.817 147.443 132.189 147.877C132.237 147.937 132.288 147.994 132.343 148.048C132.661 148.367 133.05 148.607 133.477 148.75C133.776 148.85 134.089 148.901 134.404 148.901H149.361C150.481 148.902 151.595 148.753 152.675 148.456C155.691 147.626 158.291 145.704 159.967 143.064C161.25 141.053 161.931 138.716 161.928 136.331V130.698C161.931 123.598 160.093 116.618 156.593 110.44C153.093 104.261 148.051 99.0943 141.958 95.4434Z" fill="#9BE500"/>
<path d="M106.522 18.9967C106.841 19.0984 107.172 19.1503 107.506 19.1505C107.967 19.151 108.423 19.0567 108.845 18.873C108.069 18.8909 107.294 18.932 106.522 18.9967ZM134.699 30.7205C132.797 28.438 130.595 26.4228 128.153 24.7298C127.109 24.0041 126.024 23.3395 124.903 22.7396C124.699 22.6292 124.491 22.5222 124.284 22.4051C122.697 21.6042 121.049 20.933 119.354 20.3982C116.479 19.4909 113.492 18.9833 110.478 18.8897H109.876C110.537 19.8669 111.146 20.8785 111.7 21.9202L111.931 22.3616C112.369 23.2112 112.768 24.0843 113.132 24.974C113.323 24.9974 113.511 25.0242 113.698 25.0576C114.414 25.1713 115.124 25.3118 115.82 25.4824C116.027 25.5326 116.235 25.5828 116.439 25.6397C117.424 25.9022 118.393 26.2226 119.341 26.5996C123.554 28.2628 127.283 30.955 130.188 34.4299C130.462 34.7616 130.806 35.029 131.195 35.2134C131.584 35.3978 132.009 35.4945 132.44 35.4969C133.096 35.5025 133.735 35.2842 134.25 34.8781C134.369 34.7861 134.481 34.6855 134.585 34.5771C135.094 34.0322 135.38 33.3158 135.385 32.5702C135.385 31.8915 135.141 31.2354 134.699 30.7205ZM135.897 66.5875C135.792 66.4938 135.68 66.4077 135.562 66.3299C135.102 66.0482 134.573 65.901 134.033 65.9051C133.566 65.9089 133.108 66.0235 132.694 66.2396C132.281 66.452 131.926 66.7619 131.66 67.1426C128.613 71.5243 124.342 74.912 119.381 76.8829C118.521 77.2227 117.644 77.5175 116.754 77.766C116.549 77.8229 116.345 77.8797 116.141 77.9298C114.324 78.3953 112.463 78.6678 110.589 78.7427H110.331C109.96 78.7427 109.585 78.7594 109.207 78.7427C107.886 78.7298 106.568 78.618 105.264 78.4082C105.016 78.3681 104.765 78.3245 104.521 78.2777C103.175 78.0276 101.85 77.6744 100.559 77.2208C97.9407 76.3012 95.4799 74.9846 93.2626 73.3173C92.1735 72.504 91.1475 71.6094 90.1936 70.6414C90.0564 70.5042 89.9225 70.3637 89.792 70.2233C89.0989 69.4931 88.4485 68.7238 87.8441 67.9188C87.2584 68.0492 86.6694 68.1596 86.0703 68.2532C85.9164 68.28 85.7591 68.3034 85.5984 68.3235C84.5721 68.4721 83.5388 68.5681 82.5027 68.6111H82.2082C81.9069 68.6111 81.5991 68.6279 81.2945 68.6279C81.8099 69.4775 82.3677 70.3025 82.9679 71.1031C83.085 71.267 83.2055 71.4375 83.3293 71.588C84.2368 72.7785 85.2253 73.905 86.2879 74.9596C87.6758 76.3453 89.1845 77.6046 90.796 78.7226C91.9219 79.5022 93.0955 80.2104 94.3101 80.8432C94.4239 80.9068 94.541 80.967 94.6448 81.0238L95.0397 81.2213C96.8117 82.0936 98.6602 82.8012 100.562 83.3352C103.038 84.037 105.59 84.4413 108.162 84.5394C109.417 84.5893 110.673 84.5669 111.924 84.4724C114.459 84.2882 116.962 83.8066 119.384 83.0375C121.195 82.4633 122.952 81.7313 124.635 80.8499L125.261 80.5154C126.263 79.9618 127.236 79.358 128.176 78.706C131.396 76.4683 134.194 73.6778 136.439 70.4642C136.847 69.8661 137.017 69.1379 136.917 68.4213C136.816 67.7047 136.453 67.051 135.897 66.5875Z" fill="#9BE500"/>
<path d="M133.989 145.711H69.9791V146.34H133.989V145.711Z" fill="#9BE500"/>
<path d="M91.221 73.9623C90.1657 73.0653 89.1738 72.0964 88.2524 71.0624C88.1253 70.9185 87.9981 70.7748 87.8743 70.6276C87.2271 69.8703 86.6184 69.0809 86.0503 68.2627C85.8963 68.2894 85.739 68.3128 85.5784 68.3329C86.1362 69.1549 86.7361 69.9476 87.3756 70.7078C87.4994 70.855 87.6266 71.0055 87.7571 71.1527C88.6736 72.2025 89.6622 73.1871 90.7157 74.0995C92.5997 75.7346 94.6808 77.128 96.9106 78.2471C97.1381 78.2003 97.3624 78.1535 97.5799 78.1C95.2903 77.0012 93.1528 75.6104 91.221 73.9623ZM91.221 73.9623C90.1657 73.0653 89.1738 72.0964 88.2524 71.0624C88.1253 70.9185 87.9981 70.7748 87.8743 70.6276C87.2271 69.8703 86.6184 69.0809 86.0503 68.2627C85.8963 68.2894 85.739 68.3128 85.5784 68.3329C86.1362 69.1549 86.7361 69.9476 87.3756 70.7078C87.4994 70.855 87.6266 71.0055 87.7571 71.1527C88.6736 72.2025 89.6622 73.1871 90.7157 74.0995C92.5997 75.7346 94.6808 77.128 96.9106 78.2471C97.1381 78.2003 97.3624 78.1535 97.5799 78.1C95.2903 77.0012 93.1528 75.6104 91.221 73.9623ZM91.221 73.9623C90.1657 73.0653 89.1738 72.0964 88.2524 71.0624C88.1253 70.9185 87.9981 70.7748 87.8743 70.6276C87.2271 69.8703 86.6184 69.0809 86.0503 68.2627C85.8963 68.2894 85.739 68.3128 85.5784 68.3329C86.1362 69.1549 86.7361 69.9476 87.3756 70.7078C87.4994 70.855 87.6266 71.0055 87.7571 71.1527C88.6736 72.2025 89.6622 73.1871 90.7157 74.0995C92.5997 75.7346 94.6808 77.128 96.9106 78.2471C97.1381 78.2003 97.3624 78.1535 97.5799 78.1C95.2903 77.0012 93.1528 75.6104 91.221 73.9623ZM91.221 73.9623C90.1657 73.0653 89.1738 72.0964 88.2524 71.0624C88.1253 70.9185 87.9981 70.7748 87.8743 70.6276C87.2271 69.8703 86.6184 69.0809 86.0503 68.2627C85.8963 68.2894 85.739 68.3128 85.5784 68.3329C86.1362 69.1549 86.7361 69.9476 87.3756 70.7078C87.4994 70.855 87.6266 71.0055 87.7571 71.1527C88.6736 72.2025 89.6622 73.1871 90.7157 74.0995C92.5997 75.7346 94.6808 77.128 96.9106 78.2471C97.1381 78.2003 97.3624 78.1535 97.5799 78.1C95.2903 77.0012 93.1528 75.6104 91.221 73.9623ZM134.572 34.5699C131.822 30.6507 128.171 27.4481 123.926 25.231C122.892 24.6878 121.826 24.2086 120.733 23.7961C120.522 23.7124 120.308 23.6355 120.094 23.5586C118.374 22.9511 116.601 22.5032 114.799 22.2206C113.966 22.0935 113.126 21.9999 112.272 21.9397C112.081 21.9397 111.887 21.9129 111.697 21.9062L111.928 22.3477L112.503 22.3846C113.049 22.4281 113.588 22.4882 114.126 22.5618C115.937 22.8027 117.72 23.2172 119.451 23.7995C119.665 23.8697 119.883 23.9399 120.094 24.0201C121.175 24.4078 122.231 24.8614 123.256 25.3782C127.657 27.575 131.436 30.8401 134.247 34.8743C137.685 39.7799 139.525 45.6261 139.515 51.6153C139.523 56.7867 138.152 61.8668 135.542 66.3327C132.597 71.3868 128.213 75.4504 122.948 78.0062C122.019 78.457 121.066 78.8579 120.094 79.2071C119.879 79.2874 119.665 79.361 119.448 79.4312C117.609 80.0458 115.713 80.4739 113.788 80.7089C112.592 80.8581 111.387 80.9329 110.181 80.933C109.118 80.9325 108.057 80.8744 107.001 80.759C105.301 80.5756 103.621 80.2398 101.981 79.7556C101.737 79.6887 101.499 79.6152 101.261 79.5349C100.002 79.1351 98.7721 78.6489 97.5799 78.0799C95.291 76.9853 93.1536 75.599 91.221 73.9556C90.1657 73.0586 89.1738 72.0897 88.2524 71.0557C88.1253 70.9118 87.9981 70.7681 87.8743 70.6209C87.2271 69.8636 86.6184 69.0742 86.0503 68.256C85.8963 68.2827 85.739 68.3061 85.5784 68.3262C86.1362 69.1482 86.7361 69.9409 87.3756 70.7011C87.4994 70.8483 87.6266 70.9988 87.7571 71.146C88.6736 72.1958 89.6622 73.1804 90.7157 74.0928C92.5993 75.7303 94.6804 77.1259 96.9106 78.2471C98.0886 78.8378 99.3051 79.3485 100.552 79.7757C100.789 79.856 101.027 79.9362 101.271 80.0131C102.918 80.5314 104.607 80.9031 106.318 81.1237C107.6 81.292 108.891 81.3758 110.184 81.3746C111.615 81.3757 113.045 81.2729 114.461 81.0669C116.381 80.7916 118.269 80.3265 120.097 79.6787C120.311 79.6017 120.525 79.5248 120.74 79.4412C121.719 79.0697 122.678 78.6454 123.611 78.1702C128.733 75.5721 132.998 71.5556 135.897 66.6004C138.559 62.0586 139.959 56.889 139.953 51.6254C139.964 45.5214 138.084 39.5638 134.572 34.5699ZM91.221 73.9623C90.1657 73.0653 89.1738 72.0964 88.2524 71.0624C88.1253 70.9185 87.9981 70.7748 87.8743 70.6276C87.2271 69.8703 86.6184 69.0809 86.0503 68.2627C85.8963 68.2894 85.739 68.3128 85.5784 68.3329C86.1362 69.1549 86.7361 69.9476 87.3756 70.7078C87.4994 70.855 87.6266 71.0055 87.7571 71.1527C88.6736 72.2025 89.6622 73.1871 90.7157 74.0995C92.5997 75.7346 94.6808 77.128 96.9106 78.2471C97.1381 78.2003 97.3624 78.1535 97.5799 78.1C95.2903 77.0012 93.1528 75.6104 91.221 73.9623ZM91.221 73.9623C90.1657 73.0653 89.1738 72.0964 88.2524 71.0624C88.1253 70.9185 87.9981 70.7748 87.8743 70.6276C87.2271 69.8703 86.6184 69.0809 86.0503 68.2627C85.8963 68.2894 85.739 68.3128 85.5784 68.3329C86.1362 69.1549 86.7361 69.9476 87.3756 70.7078C87.4994 70.855 87.6266 71.0055 87.7571 71.1527C88.6736 72.2025 89.6622 73.1871 90.7157 74.0995C92.5997 75.7346 94.6808 77.128 96.9106 78.2471C97.1381 78.2003 97.3624 78.1535 97.5799 78.1C95.2903 77.0012 93.1528 75.6104 91.221 73.9623ZM91.221 73.9623C90.1657 73.0653 89.1738 72.0964 88.2524 71.0624C88.1253 70.9185 87.9981 70.7748 87.8743 70.6276C87.2271 69.8703 86.6184 69.0809 86.0503 68.2627C85.8963 68.2894 85.739 68.3128 85.5784 68.3329C86.1362 69.1549 86.7361 69.9476 87.3756 70.7078C87.4994 70.855 87.6266 71.0055 87.7571 71.1527C88.6736 72.2025 89.6622 73.1871 90.7157 74.0995C92.5997 75.7346 94.6808 77.128 96.9106 78.2471C97.1381 78.2003 97.3624 78.1535 97.5799 78.1C95.2903 77.0012 93.1528 75.6104 91.221 73.9623Z" fill="#9BE500"/>
<path d="M41.2169 89.5876H40.9023C33.4485 89.6329 26.1491 91.715 19.7942 95.6084C13.771 99.2769 8.79373 104.433 5.34136 110.58C1.889 116.728 0.0776768 123.66 0.0816716 130.709V136.342C0.0812471 138.111 0.455285 139.86 1.17918 141.474C1.90307 143.088 2.96046 144.531 4.28189 145.708C4.5262 145.929 4.78392 146.139 5.04831 146.337C7.23312 148.004 9.90686 148.904 12.6555 148.899H12.9199C13.6324 148.899 14.3203 148.639 14.8536 148.167C15.387 147.694 15.729 147.044 15.8149 146.337C15.8311 146.219 15.839 146.101 15.8383 145.982C15.8383 145.888 15.8383 145.798 15.8383 145.708C15.7738 145.032 15.4756 144.399 14.9949 143.918C14.7239 143.647 14.402 143.432 14.0477 143.285C13.6934 143.138 13.3136 143.062 12.9299 143.062H12.6656C10.8788 143.062 9.16518 142.353 7.90173 141.09C6.63829 139.827 5.92852 138.115 5.92852 136.329V130.696C5.92655 122.726 8.62336 114.99 13.5801 108.747C18.5369 102.503 25.4619 98.1204 33.2281 96.3108C35.4029 95.8076 37.6207 95.5131 39.8514 95.4312C40.3032 95.4111 40.7517 95.4044 41.2102 95.4044H44.2223C47.7295 92.8505 51.6278 90.8816 55.7653 89.5742L41.2169 89.5876ZM74.9223 145.25C74.8809 145.401 74.8529 145.555 74.8386 145.711C74.8335 145.798 74.8335 145.885 74.8386 145.972C74.8385 146.091 74.8452 146.209 74.8587 146.327H100.294C100.451 146.213 100.605 146.089 100.756 145.959C100.907 145.828 100.96 145.788 101.061 145.698C101.231 145.551 101.395 145.393 101.553 145.236L74.9223 145.25Z" fill="#9BE500"/>
<path d="M80.2805 68.6354C79.5241 68.6153 78.7744 68.5663 78.0314 68.4882C77.8674 68.4882 77.6967 68.4548 77.5394 68.4314C77.1546 68.3879 76.773 68.3345 76.3915 68.2743C76.107 68.2308 75.8225 68.1806 75.5414 68.1271C75.1666 68.0569 74.7951 67.9832 74.4269 67.8996C73.9216 68.5686 73.3861 69.2375 72.8238 69.8462L72.449 70.2544C71.4027 71.3645 70.2641 72.3838 69.0453 73.3015C67.104 74.7728 64.9715 75.9734 62.7065 76.8705C61.8466 77.2097 60.9696 77.5045 60.0793 77.7536C59.8752 77.8104 59.671 77.8672 59.4635 77.9174C57.6465 78.3829 55.7854 78.6554 53.9112 78.7302H53.6535C53.282 78.7302 52.9105 78.747 52.5324 78.7302C51.2117 78.7176 49.8938 78.6058 48.5898 78.3957C48.34 78.3556 48.0923 78.3121 47.8469 78.2652C46.5008 78.0151 45.176 77.6619 43.8843 77.2084C38.7639 75.4121 34.3 72.1229 31.0689 67.7655C27.8378 63.4081 25.9879 58.1828 25.7582 52.7641C25.5351 46.9798 27.1735 41.2765 30.433 36.4915C33.6924 31.7066 38.4011 28.0922 43.8675 26.1791C44.4209 25.9851 44.9787 25.8089 45.5409 25.6506C46.4135 25.4079 47.2983 25.2115 48.1916 25.062C48.4392 25.0151 48.6836 24.9749 48.9312 24.9414C49.4399 24.8712 49.9553 24.811 50.4707 24.7675C50.6548 24.7508 50.8422 24.7375 51.0263 24.7275C51.6019 24.6907 52.1843 24.6705 52.77 24.6705H53.1046C53.4862 23.851 53.9045 23.0483 54.3563 22.269C54.4367 22.1251 54.5203 21.9879 54.604 21.8474C55.1845 20.879 55.818 19.9433 56.5016 19.0445C55.7318 18.9575 54.952 18.8973 54.1589 18.8638C53.9647 18.8638 53.7706 18.8638 53.5765 18.8438C53.2987 18.8438 53.0243 18.8438 52.7465 18.8438C51.3151 18.843 49.8853 18.9357 48.466 19.1214C46.902 19.323 45.3549 19.6394 43.8374 20.068C42.0765 20.5649 40.3603 21.2082 38.7068 21.9913C38.4591 22.1084 38.2115 22.2321 37.9638 22.3559C36.6045 23.0442 35.2949 23.8265 34.0447 24.6973C29.488 27.8448 25.8014 32.0927 23.3275 37.0458C20.8536 41.999 19.6727 47.4968 19.8946 53.0283C20.1058 58.1159 21.4962 63.0849 23.9564 67.5439C26.4165 72.0029 29.8792 75.83 34.0715 78.7235C35.1969 79.5039 36.3706 80.2121 37.5856 80.8441C37.8266 80.9779 38.0776 81.1018 38.3253 81.2222C40.0961 82.0946 41.9435 82.8021 43.8441 83.3361C45.9204 83.9253 48.0508 84.304 50.203 84.4666C50.6113 84.5001 51.0196 84.5236 51.4313 84.5403C55.2307 84.6941 59.0279 84.1859 62.653 83.0384C64.3429 82.505 65.9861 81.8338 67.566 81.0315L67.9007 80.8575C68.1082 80.7505 68.3157 80.639 68.5232 80.523C69.5264 79.9702 70.5005 79.3664 71.4416 78.7136C73.0521 77.5943 74.5597 76.3338 75.9464 74.9472C77.0303 73.864 78.0368 72.7061 78.9585 71.4819C79.0756 71.3281 79.1927 71.1709 79.2932 71.0137L79.6814 70.4718C80.0886 69.9479 80.3004 69.2985 80.2805 68.6354Z" fill="#9BE500"/>
<path d="M77.3386 145.711H13.3249V146.34H77.3386V145.711Z" fill="#9BE500"/>
<path d="M24.1919 51.6123C24.1945 46.1333 25.732 40.7645 28.6303 36.1139C31.5286 31.4633 35.6719 27.7167 40.591 25.2983C40.3635 25.2447 40.1359 25.2012 39.9217 25.1611C35.0579 27.6622 30.9772 31.4536 28.127 36.1194C25.2767 40.7853 23.767 46.1456 23.7635 51.6123C23.7644 57.1452 25.3081 62.5683 28.2214 67.2731C31.1347 71.9779 35.3022 75.7781 40.2564 78.2474C40.484 78.2006 40.7115 78.1538 40.9257 78.1003C35.9185 75.715 31.6894 71.9613 28.728 67.2737C25.7666 62.5861 24.1938 57.1561 24.1919 51.6123ZM24.1919 51.6123C24.1945 46.1333 25.732 40.7645 28.6303 36.1139C31.5286 31.4633 35.6719 27.7167 40.591 25.2983C40.3635 25.2447 40.1359 25.2012 39.9217 25.1611C35.0579 27.6622 30.9772 31.4536 28.127 36.1194C25.2767 40.7853 23.767 46.1456 23.7635 51.6123C23.7644 57.1452 25.3081 62.5683 28.2214 67.2731C31.1347 71.9779 35.3022 75.7781 40.2564 78.2474C40.484 78.2006 40.7115 78.1538 40.9257 78.1003C35.9185 75.715 31.6894 71.9613 28.728 67.2737C25.7666 62.5861 24.1938 57.1561 24.1919 51.6123ZM24.1919 51.6123C24.1945 46.1333 25.732 40.7645 28.6303 36.1139C31.5286 31.4633 35.6719 27.7167 40.591 25.2983C40.3635 25.2447 40.1359 25.2012 39.9217 25.1611C35.0579 27.6622 30.9772 31.4536 28.127 36.1194C25.2767 40.7853 23.767 46.1456 23.7635 51.6123C23.7644 57.1452 25.3081 62.5683 28.2214 67.2731C31.1347 71.9779 35.3022 75.7781 40.2564 78.2474C40.484 78.2006 40.7115 78.1538 40.9257 78.1003C35.9185 75.715 31.6894 71.9613 28.728 67.2737C25.7666 62.5861 24.1938 57.1561 24.1919 51.6123ZM24.1919 51.6123C24.1945 46.1333 25.732 40.7645 28.6303 36.1139C31.5286 31.4633 35.6719 27.7167 40.591 25.2983C40.3635 25.2447 40.1359 25.2012 39.9217 25.1611C35.0579 27.6622 30.9772 31.4536 28.127 36.1194C25.2767 40.7853 23.767 46.1456 23.7635 51.6123C23.7644 57.1452 25.3081 62.5683 28.2214 67.2731C31.1347 71.9779 35.3022 75.7781 40.2564 78.2474C40.484 78.2006 40.7115 78.1538 40.9257 78.1003C35.9185 75.715 31.6894 71.9613 28.728 67.2737C25.7666 62.5861 24.1938 57.1561 24.1919 51.6123ZM77.5361 68.4302C77.0207 69.1694 76.4685 69.8819 75.8861 70.5676C75.7623 70.7148 75.6351 70.8586 75.5079 71.0024C74.4799 72.1634 73.3607 73.2406 72.1612 74.2236C70.3574 75.713 68.3822 76.9818 66.2775 78.0032C65.348 78.454 64.395 78.8548 63.4227 79.204C63.2085 79.2843 62.9977 79.3578 62.7802 79.4281C60.9414 80.0427 59.0454 80.4709 57.1208 80.7059C55.9239 80.8549 54.719 80.9297 53.5129 80.93C52.4508 80.9296 51.3894 80.8715 50.3335 80.7561C48.6334 80.5726 46.9533 80.2368 45.3133 79.7526C45.069 79.6857 44.8281 79.6121 44.5938 79.5318C43.3345 79.1324 42.1044 78.6464 40.9123 78.0769C35.9071 75.6926 31.6794 71.9409 28.7181 67.2559C25.7569 62.5709 24.183 57.1437 24.1785 51.6022C24.1811 46.1232 25.7186 40.7545 28.6169 36.1039C31.5153 31.4533 35.6585 27.7066 40.5777 25.2881C41.8733 24.6474 43.2159 24.1063 44.5938 23.6693C44.8281 23.589 45.0657 23.5187 45.3066 23.4485C45.6982 23.3347 46.0965 23.2277 46.4981 23.114C47.6377 22.8341 48.7934 22.6241 49.9587 22.4852C50.4908 22.4183 51.0297 22.3681 51.5718 22.3313L52.1475 22.2979C52.5959 22.2778 53.0511 22.2678 53.5063 22.2678C53.7907 22.2678 54.0752 22.2678 54.3563 22.2678C54.4367 22.124 54.5203 21.9867 54.604 21.8463C54.2392 21.8463 53.8744 21.8262 53.5063 21.8262C53.1381 21.8262 52.7499 21.8263 52.375 21.8497C52.1843 21.8497 51.9902 21.8497 51.7994 21.8765C50.9471 21.9233 50.1048 22.0069 49.2726 22.1273C48.4069 22.2522 47.5535 22.4127 46.7123 22.609C45.9961 22.7762 45.2899 22.9691 44.5938 23.1876L43.8776 23.4217C42.5096 23.8897 41.1784 24.4589 39.8949 25.1243C35.0312 27.6255 30.9505 31.4168 28.1002 36.0827C25.25 40.7486 23.7403 46.1087 23.7367 51.5754C23.7333 57.1173 25.2778 62.5502 28.1963 67.2624C31.1149 71.9746 35.2916 75.7791 40.2564 78.2474C41.4358 78.8375 42.6534 79.3481 43.901 79.776C44.1353 79.8562 44.3763 79.9365 44.6206 80.0134C46.2658 80.5313 47.9535 80.903 49.6642 81.124C50.9469 81.2922 52.2393 81.376 53.533 81.3749C54.9643 81.3759 56.3938 81.273 57.8102 81.0672C59.7291 80.7922 61.616 80.3271 63.4428 79.6789C63.6604 79.602 63.8746 79.5251 64.0854 79.4415C65.066 79.07 66.0256 78.6457 66.9603 78.1705C69.0216 77.1241 70.9544 75.8423 72.7201 74.3507C73.9043 73.3522 75.0087 72.2629 76.0233 71.0927C76.1505 70.9489 76.2777 70.8017 76.3982 70.6545C76.9805 69.9588 77.5327 69.2363 78.0481 68.487C77.8674 68.4703 77.7034 68.4536 77.5394 68.4302H77.5361ZM24.1919 51.6123C24.1945 46.1333 25.732 40.7645 28.6303 36.1139C31.5286 31.4633 35.6719 27.7167 40.591 25.2983C40.3635 25.2447 40.1359 25.2012 39.9217 25.1611C35.0579 27.6622 30.9772 31.4536 28.127 36.1194C25.2767 40.7853 23.767 46.1456 23.7635 51.6123C23.7644 57.1452 25.3081 62.5683 28.2214 67.2731C31.1347 71.9779 35.3022 75.7781 40.2564 78.2474C40.484 78.2006 40.7115 78.1538 40.9257 78.1003C35.9185 75.715 31.6894 71.9613 28.728 67.2737C25.7666 62.5861 24.1938 57.1561 24.1919 51.6123ZM24.1919 51.6123C24.1945 46.1333 25.732 40.7645 28.6303 36.1139C31.5286 31.4633 35.6719 27.7167 40.591 25.2983C40.3635 25.2447 40.1359 25.2012 39.9217 25.1611C35.0579 27.6622 30.9772 31.4536 28.127 36.1194C25.2767 40.7853 23.767 46.1456 23.7635 51.6123C23.7644 57.1452 25.3081 62.5683 28.2214 67.2731C31.1347 71.9779 35.3022 75.7781 40.2564 78.2474C40.484 78.2006 40.7115 78.1538 40.9257 78.1003C35.9185 75.715 31.6894 71.9613 28.728 67.2737C25.7666 62.5861 24.1938 57.1561 24.1919 51.6123ZM24.1919 51.6123C24.1945 46.1333 25.732 40.7645 28.6303 36.1139C31.5286 31.4633 35.6719 27.7167 40.591 25.2983C40.3635 25.2447 40.1359 25.2012 39.9217 25.1611C35.0579 27.6622 30.9772 31.4536 28.127 36.1194C25.2767 40.7853 23.767 46.1456 23.7635 51.6123C23.7644 57.1452 25.3081 62.5683 28.2214 67.2731C31.1347 71.9779 35.3022 75.7781 40.2564 78.2474C40.484 78.2006 40.7115 78.1538 40.9257 78.1003C35.9185 75.715 31.6894 71.9613 28.728 67.2737C25.7666 62.5861 24.1938 57.1561 24.1919 51.6123Z" fill="#9BE500"/>
</svg>
