<svg width="146" height="146" viewBox="0 0 146 146" fill="none" xmlns="http://www.w3.org/2000/svg">
<g clip-path="url(#clip0_1265_1832)">
<path d="M141.622 145.999C144.04 145.999 146 144.044 146 141.632C146 139.219 144.04 137.264 141.622 137.264C139.204 137.264 137.244 139.219 137.244 141.632C137.244 144.044 139.204 145.999 141.622 145.999Z" fill="#9BE500"/>
<path d="M142.413 86.0273H141.243V141.029H96.6997V142.196H142.413V86.0273Z" fill="#9BE500"/>
<path d="M141.888 69.8124H130.918V41.758C130.927 41.2009 130.719 40.662 130.339 40.2541C129.958 39.8461 129.435 39.6007 128.877 39.5691C128.595 39.5611 128.315 39.6095 128.052 39.7116C127.789 39.8136 127.549 39.9672 127.347 40.1632C127.145 40.3592 126.984 40.5938 126.874 40.8528C126.764 41.1119 126.707 41.3904 126.706 41.6718V69.8124H122.199V4.37084H126.71V32.4419C126.702 32.9619 126.884 33.4669 127.222 33.8633C127.559 34.2597 128.029 34.5206 128.545 34.5976C128.842 34.6358 129.144 34.6103 129.43 34.5229C129.717 34.4356 129.981 34.2883 130.206 34.0909C130.431 33.8935 130.611 33.6505 130.734 33.3782C130.858 33.1059 130.922 32.8104 130.921 32.5115V2.2615C130.922 1.98568 130.868 1.71253 130.762 1.45763C130.657 1.20273 130.502 0.971056 130.306 0.776025C130.111 0.580995 129.879 0.426404 129.623 0.321056C129.368 0.215708 129.094 0.161675 128.817 0.162112H120.091C119.532 0.162112 118.996 0.38364 118.601 0.777968C118.206 1.1723 117.984 1.70715 117.984 2.26482V8.86799H89.5524C88.9935 8.86799 88.4574 9.08951 88.0622 9.48384C87.6669 9.87817 87.4449 10.413 87.4449 10.9707V17.5772H63.3614C61.4667 17.9663 60.8816 19.0553 61.6063 20.844L69.5543 32.737L61.6063 44.6268C60.8838 46.4155 61.4689 47.5056 63.3614 47.8969H98.1653C98.7242 47.8969 99.2603 47.6754 99.6555 47.281C100.051 46.8867 100.273 46.3519 100.273 45.7942V39.191H117.971V69.8091H107.001C106.724 69.8087 106.451 69.8627 106.195 69.9681C105.94 70.0734 105.707 70.228 105.512 70.423C105.317 70.6181 105.162 70.8497 105.056 71.1046C104.95 71.3595 104.896 71.6327 104.897 71.9085V87.2209H94.2129C93.6924 87.2141 93.1869 87.3954 92.7898 87.7312C92.3927 88.0671 92.1308 88.5348 92.0522 89.0483C92.0135 89.3451 92.0386 89.6468 92.1259 89.9332C92.2132 90.2196 92.3607 90.4841 92.5586 90.7091C92.7564 90.9341 93.0001 91.1144 93.2733 91.2381C93.5465 91.3618 93.843 91.4259 94.1431 91.4263H104.897V139.46H74.2048V91.4296H84.8886C85.4092 91.4363 85.9146 91.2551 86.3117 90.9192C86.7088 90.5834 86.9708 90.1156 87.0493 89.6022C87.0881 89.3054 87.063 89.0036 86.9756 88.7173C86.8883 88.4309 86.7408 88.1664 86.543 87.9413C86.3451 87.7163 86.1014 87.536 85.8282 87.4124C85.555 87.2887 85.2585 87.2245 84.9584 87.2242H72.0973C71.8209 87.2237 71.547 87.2778 71.2915 87.3831C71.0361 87.4885 70.8039 87.6431 70.6084 87.8381C70.4129 88.0331 70.258 88.2647 70.1524 88.5196C70.0468 88.7745 69.9927 89.0477 69.9931 89.3236V104.636H37.1937C36.9173 104.635 36.6435 104.69 36.388 104.795C36.1325 104.9 35.9003 105.055 35.7048 105.25C35.5094 105.445 35.3544 105.676 35.2488 105.931C35.1432 106.186 35.0891 106.459 35.0895 106.735V122.048H23.0295C22.7528 122.048 22.4787 122.102 22.223 122.208C21.9673 122.313 21.735 122.468 21.5393 122.664C21.3436 122.859 21.1884 123.091 21.0824 123.346C20.9765 123.601 20.922 123.874 20.922 124.15C20.922 124.708 21.144 125.243 21.5393 125.637C21.9345 126.031 22.4706 126.253 23.0295 126.253H35.0862V139.463H4.39766V126.253H13.7751C14.2956 126.26 14.801 126.079 15.1981 125.743C15.5952 125.407 15.8572 124.939 15.9358 124.426C15.9745 124.129 15.9494 123.827 15.8621 123.541C15.7748 123.254 15.6273 122.99 15.4294 122.765C15.2315 122.54 14.9879 122.359 14.7147 122.236C14.4414 122.112 14.1449 122.048 13.8449 122.048H2.29016C2.0134 122.048 1.73932 122.102 1.48363 122.208C1.22793 122.313 0.995631 122.468 0.79993 122.664C0.60423 122.859 0.448975 123.091 0.343063 123.346C0.23715 123.601 0.182617 123.874 0.182617 124.15V141.555C0.182617 142.113 0.404695 142.648 0.79993 143.042C1.19517 143.437 1.73121 143.658 2.29016 143.658H114.52C115.079 143.658 115.615 143.437 116.01 143.042C116.406 142.648 116.628 142.113 116.628 141.555C116.628 140.998 116.406 140.463 116.01 140.069C115.615 139.674 115.079 139.453 114.52 139.453H109.108V74.0178H139.8V90.5307C139.8 90.8069 139.855 91.0803 139.961 91.3354C140.067 91.5905 140.222 91.8223 140.418 92.0176C140.613 92.2128 140.846 92.3677 141.101 92.4734C141.357 92.579 141.631 92.6334 141.908 92.6334C142.466 92.6326 143.001 92.4107 143.396 92.0165C143.79 91.6222 144.012 91.0878 144.012 90.5307V71.9085C144.011 71.6315 143.955 71.3575 143.848 71.102C143.741 70.8466 143.584 70.6149 143.386 70.4201C143.189 70.2253 142.955 70.0714 142.698 69.9671C142.441 69.8628 142.165 69.8102 141.888 69.8124ZM69.9765 139.46H39.2846V108.841H69.9765V139.46ZM96.0544 43.6948H67.2939L73.8358 33.9044C74.0647 33.5603 74.1868 33.1566 74.1868 32.7436C74.1868 32.3307 74.0647 31.9269 73.8358 31.5829L67.2939 21.7925H87.4283V37.085C87.4279 37.361 87.482 37.6343 87.5875 37.8894C87.6931 38.1445 87.848 38.3763 88.0434 38.5716C88.2388 38.7669 88.471 38.9218 88.7265 39.0275C88.982 39.1333 89.2559 39.1877 89.5325 39.1877H96.0544V43.6948ZM117.967 34.9889H91.64V13.0767H117.967V34.9889Z" fill="#9BE500" stroke="#9BE500" stroke-width="0.5" stroke-miterlimit="10"/>
</g>
<defs>
<clipPath id="clip0_1265_1832">
<rect width="146" height="146" fill="white"/>
</clipPath>
</defs>
</svg>
