<svg width="154" height="146" viewBox="0 0 154 146" fill="none" xmlns="http://www.w3.org/2000/svg">
<path d="M145.274 0.519531H10.8209C8.65775 0.519531 6.58322 1.37838 5.05366 2.90708C3.5241 4.43577 2.66479 6.50911 2.66479 8.67101V73.0329C2.66479 73.6184 2.89752 74.1799 3.31176 74.5939C3.72601 75.0079 4.28783 75.2405 4.87366 75.2405C5.45891 75.2396 6.01987 75.0066 6.43339 74.5927C6.84691 74.1788 7.07917 73.6178 7.07917 73.0329V8.67101C7.08006 7.67949 7.47455 6.72881 8.17606 6.0277C8.87758 5.32659 9.82879 4.93236 10.8209 4.93147H145.274C146.266 4.93236 147.217 5.32674 147.918 6.02794C148.619 6.72915 149.013 7.67979 149.013 8.67101V103.806C149.013 104.797 148.619 105.747 147.918 106.448C147.217 107.148 146.266 107.542 145.274 107.542H39.4693C39.1791 107.541 38.8916 107.598 38.6235 107.709C38.3553 107.82 38.1116 107.982 37.9064 108.188C37.7012 108.393 37.5385 108.636 37.4277 108.904C37.3168 109.172 37.26 109.459 37.2604 109.749C37.2604 110.335 37.4931 110.896 37.9074 111.311C38.3216 111.725 38.8834 111.957 39.4693 111.957H57.8564C57.0407 119.271 53.7776 126.095 48.5959 131.324H41.1627C40.6384 131.324 40.1192 131.427 39.6348 131.628C39.1504 131.828 38.7102 132.122 38.3395 132.493C37.9687 132.863 37.6746 133.303 37.4739 133.787C37.2733 134.271 37.17 134.79 37.17 135.314V141.262C37.17 142.32 37.5907 143.335 38.3395 144.083C39.0883 144.831 40.1038 145.252 41.1627 145.252H96.0197C96.5658 145.26 97.0962 145.069 97.5127 144.716C97.9293 144.363 98.2038 143.872 98.2855 143.332C98.326 143.021 98.2995 142.704 98.2078 142.404C98.1161 142.103 97.9614 141.826 97.7539 141.59C97.5464 141.354 97.291 141.165 97.0046 141.036C96.7182 140.906 96.4076 140.84 96.0933 140.84H41.5844V135.739H114.507V140.84H106.492C105.907 140.831 105.341 141.049 104.912 141.447C104.484 141.845 104.226 142.394 104.193 142.977C104.184 143.273 104.234 143.567 104.341 143.843C104.448 144.118 104.609 144.37 104.815 144.582C105.021 144.794 105.268 144.963 105.54 145.078C105.813 145.193 106.106 145.252 106.401 145.252H114.932C115.991 145.251 117.005 144.83 117.753 144.082C118.501 143.334 118.922 142.319 118.922 141.262V135.314C118.917 134.259 118.495 133.249 117.748 132.505C117 131.76 115.988 131.341 114.932 131.341H107.499C100.427 124.28 98.6771 115.857 98.242 111.974H145.274C147.437 111.974 149.512 111.115 151.041 109.586C152.571 108.058 153.43 105.984 153.43 103.822V8.67101C153.43 6.50911 152.571 4.43577 151.041 2.90708C149.512 1.37838 147.437 0.519531 145.274 0.519531ZM101.582 131.341H54.5063C58.909 125.766 61.6148 119.043 62.301 111.974H93.7907C94.4754 119.043 97.18 125.766 101.582 131.341Z" fill="#9BE500"/>
<path d="M143.909 12.2408V91.3168C143.909 91.6068 143.852 91.894 143.741 92.162C143.631 92.4301 143.468 92.6736 143.263 92.8787C143.058 93.0838 142.814 93.2464 142.546 93.3572C142.277 93.468 141.99 93.5248 141.7 93.5243H133.898C133.608 93.5248 133.321 93.468 133.053 93.3572C132.784 93.2464 132.541 93.0838 132.336 92.8787C132.13 92.6736 131.968 92.4301 131.857 92.162C131.746 91.894 131.689 91.6068 131.69 91.3168C131.69 91.027 131.747 90.7401 131.858 90.4725C131.969 90.2048 132.132 89.9616 132.337 89.7569C132.542 89.5521 132.785 89.3899 133.053 89.2793C133.321 89.1687 133.609 89.112 133.898 89.1125H139.491V14.4484H16.6008V89.1125H71.6318C71.9217 89.112 72.2088 89.1687 72.4768 89.2793C72.7448 89.3899 72.9883 89.5521 73.1935 89.7569C73.3986 89.9616 73.5614 90.2048 73.6724 90.4725C73.7835 90.7401 73.8406 91.027 73.8406 91.3168C73.8411 91.6068 73.7842 91.894 73.6734 92.162C73.5625 92.4301 73.3998 92.6736 73.1946 92.8787C72.9894 93.0838 72.7458 93.2464 72.4776 93.3572C72.2094 93.468 71.922 93.5248 71.6318 93.5243H14.4019C13.8161 93.5243 13.2543 93.2917 12.84 92.8777C12.4258 92.4637 12.1931 91.9023 12.1931 91.3168V12.2408C12.1939 11.6555 12.4269 11.0946 12.841 10.6808C13.2551 10.267 13.8164 10.0341 14.4019 10.0332H141.71C142.294 10.0359 142.853 10.2696 143.265 10.6833C143.677 11.097 143.909 11.657 143.909 12.2408Z" fill="#9BE500"/>
<path d="M37.5951 22.2207H23.9135C23.6235 22.2203 23.3364 22.277 23.0684 22.3875C22.8005 22.4981 22.5569 22.6604 22.3518 22.8651C22.1466 23.0698 21.9838 23.313 21.8728 23.5806C21.7617 23.8483 21.7046 24.1353 21.7046 24.425V36.3193C21.7046 36.9048 21.9373 37.4663 22.3516 37.8803C22.7658 38.2943 23.3276 38.5269 23.9135 38.5269H37.5951C38.1809 38.5269 38.7427 38.2943 39.157 37.8803C39.5712 37.4663 39.8039 36.9048 39.8039 36.3193V24.425C39.8039 24.1353 39.7468 23.8483 39.6357 23.5806C39.5247 23.313 39.3619 23.0698 39.1568 22.8651C38.9516 22.6604 38.7081 22.4981 38.4401 22.3875C38.1721 22.277 37.885 22.2203 37.5951 22.2207ZM35.3896 34.1117H26.1223V26.646H35.3896V34.1117Z" fill="#9BE500"/>
<path d="M37.5951 43.625H23.9135C23.6233 43.6246 23.3358 43.6814 23.0677 43.7922C22.7995 43.903 22.5558 44.0655 22.3506 44.2706C22.1454 44.4757 21.9827 44.7192 21.8718 44.9873C21.761 45.2553 21.7042 45.5426 21.7046 45.8326V57.7236C21.7046 58.3091 21.9373 58.8706 22.3516 59.2846C22.7658 59.6986 23.3276 59.9312 23.9135 59.9312H37.5951C38.1809 59.9312 38.7427 59.6986 39.157 59.2846C39.5712 58.8706 39.8039 58.3091 39.8039 57.7236V45.8326C39.8044 45.5426 39.7476 45.2553 39.6367 44.9873C39.5259 44.7192 39.3631 44.4757 39.1579 44.2706C38.9527 44.0655 38.7091 43.903 38.4409 43.7922C38.1727 43.6814 37.8853 43.6246 37.5951 43.625ZM35.3896 55.516H26.1223V48.0536H35.3896V55.516Z" fill="#9BE500"/>
<path d="M37.5951 65.0313H23.9135C23.6233 65.0308 23.3358 65.0876 23.0677 65.1984C22.7995 65.3092 22.5558 65.4718 22.3506 65.6769C22.1454 65.882 21.9827 66.1255 21.8718 66.3935C21.761 66.6616 21.7042 66.9489 21.7046 67.2389V79.1265C21.7042 79.4165 21.761 79.7038 21.8718 79.9718C21.9827 80.2399 22.1454 80.4834 22.3506 80.6885C22.5558 80.8936 22.7995 81.0562 23.0677 81.167C23.3358 81.2777 23.6233 81.3346 23.9135 81.3341H37.5951C37.8853 81.3346 38.1727 81.2777 38.4409 81.167C38.7091 81.0562 38.9527 80.8936 39.1579 80.6885C39.3631 80.4834 39.5259 80.2399 39.6367 79.9718C39.7476 79.7038 39.8044 79.4165 39.8039 79.1265V67.2389C39.8044 66.9489 39.7476 66.6616 39.6367 66.3935C39.5259 66.1255 39.3631 65.882 39.1579 65.6769C38.9527 65.4718 38.7091 65.3092 38.4409 65.1984C38.1727 65.0876 37.8853 65.0308 37.5951 65.0313ZM35.3896 76.9189H26.1223V69.4599H35.3896V76.9189Z" fill="#9BE500"/>
<path d="M132.818 59.119L107.238 51.4458C106.856 51.3318 106.449 51.3233 106.062 51.421C105.675 51.5187 105.322 51.7192 105.039 52.0011C104.758 52.2833 104.558 52.6361 104.461 53.0223C104.364 53.4085 104.373 53.8138 104.487 54.1954L112.161 79.7635C112.293 80.2003 112.556 80.5856 112.916 80.8665C113.276 81.1474 113.713 81.3101 114.169 81.3322H114.27C114.711 81.3317 115.142 81.1996 115.507 80.9529C115.873 80.7062 116.156 80.3562 116.321 79.9475L121.084 68.0397L132.995 63.2767C133.42 63.1076 133.783 62.8104 134.032 62.4261C134.281 62.0419 134.404 61.5899 134.384 61.1326C134.363 60.6763 134.202 60.2375 133.921 59.8768C133.641 59.5162 133.255 59.2514 132.818 59.119ZM118.587 64.2969C118.31 64.4076 118.058 64.5734 117.847 64.7845C117.636 64.9955 117.47 65.2472 117.359 65.5244L114.591 72.4416L109.905 56.8545L125.501 61.5373L118.587 64.2969Z" fill="#9BE500"/>
<path d="M4.98076 114.158C7.41507 114.158 9.38846 112.186 9.38846 109.753C9.38846 107.32 7.41507 105.348 4.98076 105.348C2.54645 105.348 0.573059 107.32 0.573059 109.753C0.573059 112.186 2.54645 114.158 4.98076 114.158Z" fill="#9BE500"/>
<path d="M4.35492 60.748H5.52964V109.202H50.3798V110.379H4.35492V60.748Z" fill="#9BE500"/>
<path d="M136.425 90.7383H64.5901V91.9157H136.425V90.7383Z" fill="#9BE500"/>
</svg>
