<svg width="132" height="163" viewBox="0 0 132 163" fill="none" xmlns="http://www.w3.org/2000/svg">
<path d="M80.3276 88.3965H51.6758C38.0331 88.3965 24.9492 93.8129 15.3023 103.454C5.65545 113.096 0.235901 126.172 0.235901 139.807V146.851C0.235901 151.021 1.89315 155.019 4.84307 157.968C7.79298 160.916 11.7939 162.572 15.9657 162.572H16.3004C16.7795 162.572 17.2539 162.478 17.6964 162.295C18.139 162.111 18.5412 161.843 18.8799 161.504C19.2187 161.166 19.4874 160.764 19.6707 160.322C19.8541 159.879 19.9484 159.405 19.9484 158.926C19.9484 157.959 19.5642 157.031 18.8802 156.347C18.1961 155.663 17.2682 155.278 16.3004 155.277H15.9657C13.7316 155.277 11.589 154.39 10.0092 152.811C8.42943 151.232 7.54189 149.091 7.54189 146.858V139.814C7.54058 134.018 8.68175 128.279 10.9002 122.925C13.1187 117.57 16.371 112.705 20.4714 108.607C24.5717 104.509 29.4397 101.258 34.7974 99.0413C40.155 96.8241 45.8971 95.6835 51.6959 95.6848H80.3476C86.145 95.6848 91.8856 96.8262 97.2416 99.0436C102.598 101.261 107.464 104.511 111.563 108.608C115.662 112.705 118.914 117.569 121.132 122.922C123.351 128.276 124.492 134.013 124.492 139.807V146.851C124.492 149.084 123.604 151.226 122.024 152.804C120.445 154.383 118.302 155.27 116.068 155.27H97.366C96.3979 155.271 95.4697 155.656 94.7851 156.34C94.1005 157.024 93.7155 157.952 93.7147 158.92C93.7155 159.887 94.1006 160.814 94.7853 161.498C95.47 162.181 96.3982 162.565 97.366 162.565H116.068C120.24 162.565 124.241 160.909 127.19 157.961C130.14 155.013 131.798 151.014 131.798 146.845V139.8C131.797 133.047 130.465 126.36 127.877 120.121C125.29 113.883 121.498 108.215 116.718 103.441C111.938 98.6676 106.264 94.882 100.02 92.3006C93.7765 89.7191 87.0847 88.3925 80.3276 88.3965Z" fill="#9BE500"/>
<path d="M93.8987 60.3118C90.7624 64.8426 86.5639 68.5373 81.6698 71.073C76.7758 73.6087 71.335 74.9084 65.8226 74.8587C47.8705 74.6981 33.0242 60.3352 32.3549 42.4135C32.1816 37.8675 32.9275 33.3332 34.5479 29.0819C36.1682 24.8306 38.6298 20.9496 41.7854 17.6709C44.9409 14.3922 48.7257 11.7832 52.9133 9.99996C57.101 8.21671 61.6054 7.29583 66.1573 7.29238C71.1105 7.29043 76.0033 8.37839 80.4883 10.4791C84.9734 12.5799 88.9406 15.6419 92.1082 19.4476C92.4509 19.8628 92.8805 20.1978 93.3669 20.429C93.8532 20.6602 94.3843 20.7818 94.9228 20.7855C95.6146 20.7867 96.2924 20.5913 96.8772 20.222C97.4621 19.8528 97.9298 19.325 98.2259 18.7002C98.522 18.0754 98.6342 17.3794 98.5495 16.6933C98.4648 16.0071 98.1867 15.3592 97.7475 14.825C93.8952 10.1863 89.0672 6.45335 83.6071 3.89166C78.147 1.32996 72.1891 0.00250694 66.1573 0.00390736C60.622 0.011457 55.1451 1.13468 50.0541 3.30631C44.9632 5.47793 40.3627 8.6533 36.5278 12.6427C32.693 16.6321 29.7026 21.3535 27.7354 26.5245C25.7683 31.6955 24.8648 37.21 25.079 42.738C25.9157 64.0548 43.1985 81.3209 64.5274 82.1471C71.4274 82.4206 78.2849 80.9512 84.4663 77.8749C90.6476 74.7986 95.9533 70.2145 99.8928 64.5464C100.274 63.9984 100.497 63.3566 100.538 62.6906C100.579 62.0246 100.437 61.36 100.126 60.7694C99.8154 60.1788 99.3485 59.6847 98.7763 59.341C98.204 58.9972 97.5483 58.817 96.8807 58.82C96.3004 58.8116 95.7266 58.9428 95.2077 59.2025C94.6887 59.4621 94.2398 59.8425 93.8987 60.3118Z" fill="#9BE500"/>
<path d="M96.8438 159.364V158.574H16.799V159.364H96.8438Z" fill="#9BE500"/>
<path d="M67.071 78.1104C57.2018 78.0997 47.7399 74.1769 40.761 67.2026C33.7822 60.2284 29.8563 50.7722 29.8448 40.9087C29.8563 31.0452 33.7822 21.589 40.761 14.6148C47.7399 7.6405 57.2018 3.71765 67.071 3.70703C76.9395 3.71854 86.4006 7.64174 93.3788 14.6159C100.357 21.5901 104.282 31.0457 104.294 40.9087C104.282 50.7716 100.357 60.2273 93.3788 67.2015C86.4006 74.1756 76.9395 78.0988 67.071 78.1104ZM67.071 4.24567C57.345 4.2563 48.0205 8.12243 41.1432 14.9958C34.2659 21.8691 30.3976 31.1883 30.387 40.9087C30.3976 50.6291 34.2659 59.9482 41.1432 66.8216C48.0205 73.6949 57.345 77.5611 67.071 77.5717C76.7963 77.5602 86.12 73.6937 92.9966 66.8204C99.8731 59.9472 103.741 50.6285 103.752 40.9087C103.741 31.1889 99.8731 21.8702 92.9966 14.9969C86.12 8.12367 76.7963 4.25718 67.071 4.24567Z" fill="#9BE500"/>
</svg>
