<svg width="118" height="59" viewBox="0 0 118 59" fill="none" xmlns="http://www.w3.org/2000/svg">
<path d="M-2.57897e-06 59C-1.15465e-06 26.4152 26.4152 -4.0033e-06 59 -2.57897e-06C91.5848 -1.15465e-06 118 26.4152 118 59L-2.57897e-06 59Z" fill="white" fill-opacity="0.75"/>
<path d="M58.3027 42.7071C58.6932 43.0976 59.3263 43.0976 59.7169 42.7071L66.0808 36.3431C66.4714 35.9526 66.4714 35.3195 66.0808 34.9289C65.6903 34.5384 65.0571 34.5384 64.6666 34.9289L59.0098 40.5858L53.3529 34.9289C52.9624 34.5384 52.3292 34.5384 51.9387 34.9289C51.5482 35.3195 51.5482 35.9526 51.9387 36.3431L58.3027 42.7071ZM59.0098 20L58.0098 20L58.0098 42L59.0098 42L60.0098 42L60.0098 20L59.0098 20Z" fill="#9747FF"/>
</svg>
