<svg width="168" height="109" viewBox="0 0 168 109" fill="none" xmlns="http://www.w3.org/2000/svg">
<g clip-path="url(#clip0_946_7550)">
<path fill-rule="evenodd" clip-rule="evenodd" d="M127.031 7.55273H74.3161C73.8225 7.55223 73.3337 7.64793 72.8775 7.83433C72.4212 8.02074 72.0066 8.2942 71.6574 8.6391C71.3082 8.98399 71.031 9.39353 70.842 9.84434C70.653 10.2951 70.5557 10.7784 70.5557 11.2664V41.0289C70.5557 41.9926 70.1684 42.917 69.4791 43.5984C68.7897 44.2799 67.8548 44.6628 66.88 44.6628C65.9054 44.6617 64.971 44.2786 64.2818 43.5973C63.5927 42.9161 63.2051 41.9923 63.2041 41.0289V11.2664C63.2051 8.35327 64.3762 5.55973 66.4599 3.49983C68.5436 1.43994 71.3693 0.282257 74.3161 0.28125H127.031V7.55273Z" fill="#9BE500"/>
<path fill-rule="evenodd" clip-rule="evenodd" d="M167.154 41.1211V58.6593C167.154 60.1021 166.867 61.5308 166.309 62.8639C165.751 64.197 164.933 65.4083 163.901 66.4288C161.817 68.4867 158.992 69.6431 156.046 69.6445H101.831C100.857 69.6435 99.9222 69.2603 99.233 68.579C98.5439 67.8978 98.1563 66.9741 98.1553 66.0106C98.1563 65.0472 98.5439 64.1235 99.233 63.4422C99.9222 62.761 100.857 62.3778 101.831 62.3768H156.046C157.042 62.3759 157.997 61.985 158.703 61.2897C159.406 60.5909 159.802 59.6453 159.802 58.6593V41.1211H167.154Z" fill="#9BE500"/>
<path fill-rule="evenodd" clip-rule="evenodd" d="M138.924 17.1953H107.315C106.34 17.1963 105.406 17.5795 104.716 18.2607C104.027 18.942 103.64 19.8657 103.639 20.8291C103.639 21.7932 104.026 22.7179 104.715 23.4C105.404 24.0821 106.339 24.4658 107.315 24.4668H138.913C139.888 24.4658 140.823 24.0821 141.512 23.4C142.201 22.7179 142.589 21.7932 142.589 20.8291C142.588 19.8677 142.202 18.9457 141.515 18.2647C140.828 17.5838 139.897 17.1993 138.924 17.1953Z" fill="#9BE500"/>
<path fill-rule="evenodd" clip-rule="evenodd" d="M138.924 31.3281H113.4C112.426 31.3281 111.491 31.711 110.801 32.3924C110.112 33.0739 109.725 33.9982 109.725 34.962C109.725 35.9257 110.112 36.85 110.801 37.5315C111.491 38.213 112.426 38.5958 113.4 38.5958H138.924C139.898 38.5948 140.833 38.2116 141.522 37.5304C142.211 36.8491 142.598 35.9254 142.599 34.962C142.598 33.9985 142.211 33.0748 141.522 32.3936C140.833 31.7123 139.898 31.3291 138.924 31.3281Z" fill="#9BE500"/>
<path fill-rule="evenodd" clip-rule="evenodd" d="M138.924 45.4609H120.468C119.493 45.4619 118.559 45.8451 117.87 46.5264C117.181 47.2076 116.793 48.1313 116.792 49.0948C116.793 50.0582 117.181 50.9819 117.87 51.6632C118.559 52.3444 119.493 52.7276 120.468 52.7286H138.924C139.898 52.7276 140.833 52.3444 141.522 51.6632C142.211 50.9819 142.599 50.0582 142.6 49.0948C142.599 48.1313 142.211 47.2076 141.522 46.5264C140.833 45.8451 139.898 45.4619 138.924 45.4609Z" fill="#9BE500"/>
<path fill-rule="evenodd" clip-rule="evenodd" d="M36.9505 11.7183C31.7861 11.7204 26.8337 13.7494 23.1819 17.3595C19.5301 20.9696 17.4776 25.8654 17.4756 30.9709C17.4827 36.0734 19.5373 40.9647 23.1885 44.5713C26.8396 48.1779 31.789 50.2052 36.9505 50.2082C42.1153 50.2062 47.0681 48.1772 50.7206 44.5672C54.373 40.9572 56.4263 36.0615 56.4293 30.9556C56.4263 25.8498 54.373 20.9541 50.7206 17.3441C47.0681 13.7341 42.1153 11.7051 36.9505 11.7031V11.7183ZM36.9505 18.986C40.1655 18.987 43.2486 20.2501 45.5219 22.4974C47.7952 24.7448 49.0728 27.7926 49.0738 30.9709C49.0728 34.1491 47.7952 37.1969 45.5219 39.4443C43.2486 41.6917 40.1655 42.9547 36.9505 42.9557C33.7365 42.9527 30.6551 41.6889 28.3828 39.4418C26.1105 37.1948 24.8331 34.1482 24.831 30.9709C24.8331 27.7936 26.1105 24.7469 28.3828 22.4998C30.6551 20.2528 33.7365 18.989 36.9505 18.986Z" fill="#9BE500"/>
<path fill-rule="evenodd" clip-rule="evenodd" d="M64.665 56.5403H25.7112C20.5873 56.5407 15.6293 58.3352 11.7165 61.6056C7.80372 64.8759 5.18918 69.4107 4.33672 74.4054C2.89484 82.8248 1.17612 92.8825 0.107209 99.0479C-0.100239 100.272 -0.0357231 101.525 0.296268 102.722C0.628259 103.919 1.21977 105.029 2.02971 105.977C2.83917 106.928 3.84848 107.692 4.98735 108.217C6.12621 108.742 7.36729 109.016 8.62396 109.018H48.9504C51.2401 109.017 53.4357 108.117 55.0544 106.516C56.6731 104.915 57.5824 102.744 57.5824 100.481V80.7532H66.8104C71.7432 80.7529 76.485 78.868 80.045 75.4925L90.1804 65.8796C92.5217 63.6572 93.8755 60.6074 93.9447 57.3994C94.0096 54.2262 92.811 51.1548 90.6072 48.8469L90.4688 48.7025C88.2285 46.4291 85.1734 45.1183 81.9636 45.0534C78.7182 44.9868 75.5789 46.1968 73.2355 48.4174L64.665 56.5403ZM66.1414 63.8118C67.0906 63.8111 68.0027 63.4474 68.6868 62.7969L78.3339 53.6477C79.2693 52.7617 80.5223 52.279 81.8175 52.3059C83.0973 52.333 84.3151 52.8558 85.2088 53.7617L85.2704 53.8187C86.149 54.7431 86.6254 55.9716 86.5969 57.2397C86.584 57.8733 86.4449 58.4982 86.1876 59.0787C85.9303 59.6591 85.5598 60.1838 85.0973 60.6227L74.9619 70.2356C72.7718 72.3136 69.8537 73.474 66.8181 73.4741H53.9143C52.9391 73.4741 52.0037 73.8569 51.3137 74.5382C50.6237 75.2196 50.2357 76.1439 50.2346 77.108V100.473C50.2346 100.808 50.1002 101.13 49.8609 101.367C49.6216 101.604 49.297 101.738 48.9581 101.739H8.63166C8.44577 101.738 8.26217 101.698 8.09358 101.621C7.925 101.543 7.77542 101.431 7.65501 101.291C7.53551 101.15 7.44823 100.985 7.39911 100.808C7.35 100.631 7.34023 100.445 7.37048 100.264C8.42786 94.0988 10.1466 84.0412 11.6 75.618C12.1691 72.3215 13.8994 69.3304 16.4847 67.1739C19.0701 65.0174 22.3438 63.8345 25.7266 63.8346L66.1414 63.8118Z" fill="#9BE500"/>
<path fill-rule="evenodd" clip-rule="evenodd" d="M22.8199 105.973L26.7226 83.167C26.8828 82.2174 26.6554 81.2439 26.0903 80.4599C25.5251 79.676 24.6684 79.1458 23.7082 78.9858C22.7481 78.8263 21.7632 79.0502 20.9701 79.6083C20.177 80.1664 19.6405 81.013 19.4786 81.9621L15.5759 104.769C15.4167 105.718 15.6446 106.691 16.2096 107.475C16.7746 108.258 17.6307 108.789 18.5904 108.95C19.5502 109.107 20.534 108.882 21.3266 108.325C22.1192 107.767 22.6562 106.922 22.8199 105.973Z" fill="#9BE500"/>
<path fill-rule="evenodd" clip-rule="evenodd" d="M91.7535 52.98L99.4436 32.2223C99.61 31.7743 99.6855 31.2982 99.6658 30.8214C99.6461 30.3445 99.5316 29.8762 99.3287 29.4431C99.1259 29.01 98.8388 28.6207 98.4838 28.2973C98.1288 27.9739 97.7128 27.7228 97.2596 27.5584C96.8059 27.3939 96.3239 27.3193 95.8411 27.339C95.3582 27.3587 94.8841 27.4722 94.4456 27.673C94.0072 27.8738 93.613 28.1581 93.2857 28.5095C92.9584 28.8609 92.7043 29.2726 92.5379 29.7212L84.8479 50.4751C84.6815 50.9233 84.6062 51.3996 84.6262 51.8766C84.6461 52.3536 84.761 52.8221 84.9642 53.2552C85.1674 53.6884 85.4548 54.0777 85.8103 54.4009C86.1657 54.7242 86.5822 54.975 87.0357 55.139C87.4889 55.3035 87.9704 55.3782 88.4527 55.3587C88.9351 55.3393 89.4089 55.2261 89.847 55.0256C90.2851 54.8251 90.6789 54.5413 91.0061 54.1903C91.3332 53.8393 91.5872 53.4281 91.7535 52.98Z" fill="#9BE500"/>
<path d="M164.074 7.76182C166.242 7.76182 168 6.02428 168 3.88091C168 1.73754 166.242 0 164.074 0C161.906 0 160.148 1.73754 160.148 3.88091C160.148 6.02428 161.906 7.76182 164.074 7.76182Z" fill="#9BE500"/>
<path d="M123.629 3.84961H164.105V47.068" stroke="#9BE500" stroke-width="2" stroke-miterlimit="10"/>
</g>
<defs>
<clipPath id="clip0_946_7550">
<rect width="168" height="109" fill="white"/>
</clipPath>
</defs>
</svg>
