<svg width="60" height="41" viewBox="0 0 60 41" fill="none" xmlns="http://www.w3.org/2000/svg">
<g clip-path="url(#clip0_673_17170)">
<path d="M56.9223 0H34.3703C34.0641 0 33.7704 0.124688 33.5538 0.346649C33.3373 0.568609 33.2156 0.86965 33.2156 1.18355C33.2156 1.33891 33.2455 1.49277 33.3035 1.63629C33.3615 1.77981 33.4466 1.9102 33.5539 2.02C33.6611 2.12979 33.7884 2.21683 33.9285 2.27617C34.0686 2.3355 34.2188 2.36595 34.3703 2.36577H55.774L31.7761 20.8158C31.2561 21.183 30.6365 21.3733 30.0052 21.3598C29.3294 21.3598 28.6666 21.1515 28.2356 20.8158L4.23766 2.36577H9.32904C9.48062 2.36595 9.63072 2.3355 9.77081 2.27617C9.9109 2.21683 10.0382 2.12979 10.1455 2.02C10.2527 1.9102 10.3378 1.77981 10.3958 1.63629C10.4539 1.49277 10.4837 1.33891 10.4837 1.18355C10.4837 0.86965 10.3621 0.568609 10.1455 0.346649C9.92896 0.124688 9.63529 0 9.32904 0H3.08295C2.26759 0.00245031 1.4863 0.33552 0.909752 0.92647C0.333204 1.51742 0.00824997 2.31823 0.00585938 3.15395V37.846C0.00824997 38.6818 0.333204 39.4825 0.909752 40.0735C1.4863 40.6644 2.26759 40.9975 3.08295 41H30.2188C30.5247 41 30.818 40.8754 31.0344 40.6537C31.2507 40.432 31.3722 40.1313 31.3722 39.8177C31.3722 39.5042 31.2507 39.2035 31.0344 38.9818C30.818 38.7601 30.5247 38.6355 30.2188 38.6355H3.93988C3.95412 38.6196 3.9697 38.6076 3.98394 38.5917L17.0587 22.0338C17.1541 21.9131 17.2254 21.7743 17.2685 21.6253C17.3116 21.4764 17.3256 21.3201 17.3097 21.1656C17.2938 21.0111 17.2484 20.8612 17.176 20.7247C17.1036 20.5882 17.0056 20.4677 16.8877 20.37C16.65 20.1728 16.3455 20.0804 16.0414 20.1132C15.7372 20.1461 15.4582 20.3014 15.2657 20.5451L2.31009 36.9398V3.84391L26.8491 22.7079C27.7669 23.3842 28.8723 23.7405 30.0026 23.7242C31.1329 23.7408 32.2384 23.3845 33.156 22.7079L57.6951 3.84391V36.9398L44.7498 20.5438C44.5574 20.3001 44.2784 20.1448 43.9742 20.1119C43.67 20.0791 43.3656 20.1714 43.1278 20.3686C43.0098 20.4662 42.9117 20.5867 42.8392 20.7232C42.7667 20.8596 42.7211 21.0094 42.7051 21.164C42.6891 21.3185 42.703 21.4748 42.746 21.6238C42.789 21.7728 42.8602 21.9117 42.9556 22.0325L56.0303 38.5904C56.0433 38.6063 56.0601 38.6196 56.0731 38.6342H51.9578C51.6519 38.6342 51.3585 38.7587 51.1422 38.9805C50.9259 39.2022 50.8043 39.5029 50.8043 39.8164C50.8043 40.13 50.9259 40.4307 51.1422 40.6524C51.3585 40.8741 51.6519 40.9987 51.9578 40.9987H56.9275C57.7428 40.9962 58.5241 40.6631 59.1007 40.0722C59.6772 39.4812 60.0022 38.6804 60.0046 37.8447V3.15395C60.0022 2.31731 59.6765 1.51569 59.0988 0.924591C58.5212 0.33349 57.7385 0.00104922 56.9223 0Z" fill="#9BE500"/>
<path d="M34.6035 1.27247V1.00049L9.54795 1.00049V1.27247L34.6035 1.27247Z" fill="#9BE500"/>
<path d="M53.5078 39.8934V39.6213H28.4522V39.8934H53.5078Z" fill="#9BE500"/>
</g>
<defs>
<clipPath id="clip0_673_17170">
<rect width="60" height="41" fill="white"/>
</clipPath>
</defs>
</svg>
