<svg width="203" height="91" viewBox="0 0 203 91" fill="none" xmlns="http://www.w3.org/2000/svg">
<g clip-path="url(#clip0_467_13)">
<path d="M163.03 65.6044C162.824 65.6104 162.62 65.5737 162.43 65.4966C162.24 65.4196 162.068 65.3039 161.925 65.157C161.778 65.0121 161.663 64.8391 161.586 64.6485C161.508 64.4579 161.471 64.2536 161.475 64.0481C161.475 63.846 161.515 63.6458 161.594 63.4592C161.672 63.2727 161.787 63.1035 161.932 62.9614C162.076 62.8194 162.248 62.7073 162.436 62.6317C162.625 62.5561 162.826 62.5186 163.03 62.5211C163.239 62.5152 163.448 62.5518 163.643 62.6287C163.838 62.7056 164.015 62.8213 164.164 62.9685C164.309 63.1083 164.424 63.2762 164.501 63.4619C164.579 63.6476 164.617 63.8472 164.614 64.0481C164.618 64.2553 164.579 64.4611 164.501 64.653C164.423 64.845 164.306 65.019 164.158 65.1646C164.009 65.3102 163.833 65.4242 163.639 65.4998C163.445 65.5754 163.238 65.611 163.03 65.6044Z" fill="#9BE500"/>
<path d="M10.5303 82.6062C9.5792 83.0422 8.54649 83.2742 7.49931 83.287C6.63148 83.3057 5.77431 83.0942 5.01585 82.6743C4.30629 82.2733 3.72629 81.6795 3.34388 80.9624C2.9364 80.1681 2.73159 79.2863 2.74747 78.3946V69.4075H0V67.1315H2.87458V64.2136C2.87458 63.9658 2.92361 63.7204 3.01894 63.4915C3.11426 63.2626 3.25398 63.0545 3.43011 62.8793C3.60625 62.7041 3.81537 62.5651 4.0455 62.4703C4.27564 62.3755 4.52232 62.3267 4.77141 62.3267H5.32874V67.1898H10.0708V69.4075H5.37761V77.9375C5.33672 78.7525 5.60939 79.5524 6.14023 80.1746C6.3891 80.4568 6.69825 80.6801 7.04505 80.8282C7.39184 80.9763 7.76756 81.0454 8.14466 81.0305C8.83784 81.0087 9.51273 80.8039 10.1002 80.4372L10.5303 82.6062Z" fill="white"/>
<path d="M12.7592 83.0247V62.2881H15.3405V69.8649C15.9487 68.9906 16.7751 68.2887 17.7385 67.8282C18.7019 67.3678 19.7692 67.1647 20.8355 67.2388C21.7337 67.1854 22.6331 67.3206 23.4754 67.6357C24.3176 67.9507 25.0838 68.4385 25.7242 69.0674C26.9651 70.468 27.5978 72.3005 27.4841 74.164V83.0247H24.9029V74.7573C24.9937 73.3499 24.5468 71.9602 23.6514 70.8668C23.2079 70.3975 22.6664 70.0306 22.065 69.792C21.4636 69.5533 20.817 69.4487 20.1706 69.4856C19.5155 69.4519 18.8608 69.5597 18.2516 69.8015C17.6423 70.0432 17.0928 70.4133 16.6409 70.8862C15.7235 71.9696 15.2613 73.363 15.3503 74.7768V83.0247H12.7592Z" fill="white"/>
<path d="M44.5853 81.0795C42.7469 82.5129 40.4778 83.2905 38.142 83.2874C36.6063 83.3113 35.0905 82.9394 33.7422 82.2078C32.4783 81.5212 31.4191 80.5146 30.672 79.2899C29.9124 78.0167 29.5232 76.5587 29.5476 75.0784C29.5214 73.6707 29.8796 72.2825 30.584 71.0614C31.2629 69.8959 32.2461 68.9347 33.4293 68.2796C34.6808 67.5868 36.0939 67.2345 37.526 67.2584C38.9918 67.2293 40.4359 67.6137 41.6912 68.3672C42.8942 69.1154 43.8627 70.1834 44.4876 71.4504C45.1737 72.8754 45.5089 74.4424 45.4653 76.0218V76.5179H32.344C32.5149 77.3885 32.9052 78.2017 33.4781 78.8814C34.0577 79.5575 34.7874 80.0903 35.6096 80.4376C36.5091 80.8168 37.4781 81.0056 38.4549 80.992C40.253 80.9935 41.9967 80.3786 43.3925 79.251L44.5853 81.0795ZM32.2462 74.3392H43.0601C42.9701 73.4423 42.6613 72.5809 42.1605 71.8297C41.6847 71.1216 41.0353 70.5458 40.2735 70.1568C39.4706 69.7434 38.5766 69.5361 37.6727 69.5538C36.7594 69.5362 35.8559 69.7433 35.0425 70.1568C34.2733 70.5427 33.6169 71.1188 33.136 71.8297C32.6343 72.5796 32.3284 73.4421 32.2462 74.3392Z" fill="white"/>
<path d="M69.86 83.0244H67.5622L67.4253 80.7776C66.686 81.5765 65.7868 82.2127 64.7854 82.6451C63.7094 83.1113 62.5466 83.3466 61.373 83.3357C59.9218 83.3593 58.4905 82.9966 57.2274 82.2852C56.0078 81.609 54.9944 80.6177 54.2942 79.4159C53.601 78.156 53.2376 76.7428 53.2376 75.3065C53.2376 73.8703 53.601 72.4571 54.2942 71.1971C54.9984 70.0011 56.0111 69.0139 57.2274 68.3376C58.4905 67.6262 59.9218 67.2636 61.373 67.2871C62.506 67.2769 63.6296 67.4918 64.6778 67.9194C65.659 68.3187 66.5451 68.9185 67.2787 69.6798V62.3364H69.86V83.0244ZM61.6078 81.0791C62.6091 81.0894 63.5961 80.8414 64.4726 80.3594C65.3111 79.8973 66.015 79.2271 66.516 78.4141C67.0307 77.5635 67.295 76.5862 67.2787 75.5935V75.0683C67.2948 74.0786 67.0304 73.1045 66.516 72.2573C66.015 71.4443 65.3111 70.7742 64.4726 70.312C63.5952 69.8334 62.6083 69.5888 61.6078 69.602C60.5787 69.584 59.5644 69.8464 58.6745 70.3607C57.8263 70.8541 57.1246 71.5622 56.6408 72.4129C56.1378 73.303 55.8814 74.3099 55.8977 75.3309C55.8846 76.3514 56.1408 77.3575 56.6408 78.2488C57.1219 79.1015 57.8243 79.8102 58.6745 80.301C59.5702 80.795 60.5842 81.0371 61.6078 81.0013V81.0791Z" fill="white"/>
<path d="M87.3129 81.0791C85.4779 82.5118 83.212 83.2893 80.8793 83.287C79.3403 83.3121 77.8211 82.9402 76.4696 82.2074C75.2077 81.5181 74.1492 80.5121 73.3996 79.2894C72.6447 78.0143 72.2558 76.5576 72.2751 75.0779C72.2519 73.6694 72.6135 72.281 73.3213 71.0609C73.9941 69.894 74.9745 68.9321 76.1568 68.2792C77.4119 67.5864 78.8281 67.2342 80.2633 67.2579C81.7261 67.2286 83.1671 67.6131 84.4187 68.3667C85.6246 69.1143 86.5965 70.1822 87.2249 71.45C87.9064 72.8765 88.2414 74.4424 88.2026 76.0214V76.5174H75.0422C75.2175 77.3866 75.6073 78.1987 76.1763 78.8809C76.7585 79.5542 77.4875 80.0865 78.3078 80.4371C79.2104 80.8174 80.1828 81.0062 81.1629 80.9916C82.9442 80.9819 84.6689 80.3677 86.0516 79.2505L87.3129 81.0791ZM74.9835 74.3387H85.7974C85.7041 73.4411 85.392 72.5797 84.8881 71.8293C84.4123 71.1211 83.7628 70.5453 83.0011 70.1564C82.1984 69.7422 81.3042 69.5348 80.4002 69.5533C79.4871 69.5369 78.5839 69.744 77.7701 70.1564C77.0009 70.5384 76.3466 71.1154 75.8732 71.8293C75.3612 72.5764 75.0452 73.4391 74.9542 74.3387H74.9835Z" fill="white"/>
<path d="M89.493 81.6336L90.1677 79.2603C90.5533 79.6203 90.9878 79.9248 91.4583 80.1649C91.9366 80.4249 92.4457 80.6242 92.9738 80.7582C93.5028 80.9015 94.0487 80.9735 94.5969 80.9722C95.4294 81.0108 96.2532 80.7898 96.9533 80.3399C97.2314 80.1624 97.4599 79.9176 97.6172 79.6285C97.7745 79.3393 97.8556 79.0152 97.8528 78.6865C97.8605 78.4614 97.8229 78.2371 97.7423 78.0266C97.6617 77.8162 97.5397 77.6239 97.3835 77.4609C97.0334 77.1091 96.6228 76.8225 96.1711 76.6147C95.6626 76.3813 95.1249 76.1576 94.548 75.9436C93.9712 75.7296 93.1499 75.3698 92.4654 75.0293C91.7987 74.7102 91.2085 74.2525 90.7348 73.6871C90.2605 73.0581 90.0219 72.284 90.0602 71.4987C90.0396 70.6973 90.2684 69.9092 90.7152 69.2421C91.1806 68.5876 91.8207 68.0755 92.5632 67.7637C93.4252 67.3998 94.3548 67.2208 95.2911 67.2385C96.8826 67.2496 98.4484 67.6398 99.8572 68.3765L99.0945 70.6622C98.7271 70.4325 98.3373 70.2402 97.931 70.0884C97.4935 69.9173 97.0421 69.7838 96.5817 69.6896C96.1502 69.6039 95.7116 69.5583 95.2716 69.5534C94.6131 69.5257 93.9628 69.7061 93.4138 70.0689C93.1908 70.2232 93.0098 70.4302 92.8869 70.6712C92.7641 70.9123 92.7032 71.1799 92.7099 71.45C92.7077 71.775 92.8105 72.0921 93.0032 72.3546C93.2685 72.689 93.6017 72.964 93.9809 73.1619C94.6108 73.5055 95.2642 73.8045 95.9364 74.0567C96.6661 74.345 97.3808 74.6696 98.0777 75.0293C98.7512 75.3723 99.3468 75.849 99.8278 76.4299C100.318 77.067 100.568 77.8556 100.532 78.6573C100.549 79.5151 100.292 80.3562 99.7985 81.0597C99.285 81.7766 98.5855 82.3413 97.7746 82.6937C96.8304 83.0977 95.8104 83.2967 94.7827 83.2773C92.8912 83.2857 91.0434 82.7115 89.493 81.6336Z" fill="white"/>
<path d="M104.394 65.6047C104.187 65.6097 103.982 65.5726 103.79 65.4956C103.598 65.4187 103.424 65.3035 103.279 65.1573C103.134 65.0111 103.02 64.8378 102.943 64.6476C102.866 64.4573 102.827 64.2537 102.829 64.0485C102.839 63.7428 102.938 63.4466 103.113 63.1958C103.289 62.945 103.535 62.7505 103.82 62.636C104.105 62.5216 104.417 62.4921 104.719 62.5512C105.02 62.6103 105.298 62.7554 105.518 62.9689C105.665 63.1081 105.781 63.2757 105.86 63.4614C105.939 63.6471 105.979 63.8468 105.978 64.0485C105.98 64.2546 105.941 64.4591 105.862 64.6496C105.783 64.8402 105.666 65.0129 105.518 65.1573C105.372 65.3048 105.196 65.4206 105.003 65.4976C104.809 65.5746 104.602 65.611 104.394 65.6047Z" fill="white"/>
<path d="M105.675 83.0248H103.104V69.4079C103.104 68.9075 103.304 68.4275 103.659 68.0737C104.015 67.7198 104.497 67.521 105.001 67.521H105.675V83.0248Z" fill="white"/>
<path d="M115.443 83.0245C114.022 83.0474 112.621 82.6914 111.385 81.9935C110.205 81.3206 109.226 80.347 108.55 79.1729C107.87 77.9402 107.514 76.5569 107.514 75.151C107.514 73.7451 107.87 72.3619 108.55 71.1292C109.227 69.958 110.205 68.9877 111.385 68.3183C112.628 67.6193 114.035 67.2633 115.462 67.2873C116.612 67.2745 117.751 67.5032 118.806 67.9584C119.796 68.3868 120.683 69.0201 121.407 69.8161L121.524 67.5985H123.803V82.6258C123.844 84.1836 123.488 85.7264 122.766 87.1096C122.098 88.3483 121.078 89.3633 119.833 90.0275C118.052 90.893 116.055 91.2197 114.09 90.9673C112.124 90.7149 110.276 89.8944 108.775 88.6075L109.909 86.5747C110.585 87.2828 111.402 87.8431 112.307 88.2199C113.213 88.5967 114.187 88.7816 115.169 88.7631C116.292 88.7927 117.404 88.5313 118.396 88.0044C119.295 87.5039 120.029 86.7536 120.508 85.8452C121.022 84.8297 121.277 83.7041 121.251 82.5674V80.6221C120.527 81.3661 119.659 81.9553 118.699 82.3534C117.671 82.7951 116.563 83.0235 115.443 83.0245ZM115.668 80.7875C116.644 80.8028 117.608 80.5648 118.464 80.0969C119.287 79.6547 119.981 79.0079 120.478 78.2197C120.983 77.4047 121.244 76.4634 121.231 75.506V74.8057C121.246 73.8452 120.984 72.9004 120.478 72.0824C119.978 71.2991 119.285 70.6562 118.464 70.2149C117.606 69.7515 116.644 69.5138 115.668 69.5243C114.688 69.5054 113.721 69.7514 112.87 70.2362C112.019 70.721 111.317 71.4263 110.838 72.2769C110.334 73.1663 110.081 74.1743 110.104 75.1948C110.084 76.215 110.337 77.2222 110.838 78.1127C111.302 78.9419 111.976 79.6359 112.793 80.1261C113.679 80.5835 114.672 80.7952 115.668 80.7388V80.7875Z" fill="white"/>
<path d="M141.089 83.0248H138.508V74.0765C138.541 73.4748 138.453 72.8727 138.25 72.305C138.047 71.7373 137.732 71.2154 137.325 70.7695C136.899 70.3556 136.392 70.0339 135.835 69.8246C135.278 69.6154 134.683 69.5231 134.089 69.5537C133.174 69.5396 132.271 69.7608 131.468 70.1957C130.7 70.6146 130.064 71.2376 129.63 71.9951C129.168 72.8137 128.935 73.7408 128.955 74.6796V83.0248H126.423V67.5501H128.672L128.77 70.0498C129.352 69.1404 130.183 68.4149 131.165 67.9586C132.248 67.4669 133.427 67.221 134.617 67.2389C135.49 67.1956 136.362 67.3303 137.181 67.6347C138 67.9391 138.748 68.4068 139.378 69.0091C139.979 69.6485 140.445 70.4017 140.747 71.2238C141.049 72.0459 141.182 72.9202 141.138 73.7945L141.089 83.0248Z" fill="white"/>
<path d="M153.936 83.0246H151.365V72.3256H148.608V70.0594H151.365V66.6843C151.347 65.8025 151.559 64.9312 151.981 64.1555C152.383 63.4329 152.983 62.8392 153.711 62.4436C154.494 62.0198 155.373 61.8053 156.263 61.8211C156.871 61.8261 157.476 61.9078 158.062 62.0643C158.681 62.2307 159.276 62.4759 159.832 62.7938L158.854 64.7877C158.515 64.5729 158.151 64.3998 157.769 64.2722C157.412 64.1572 157.039 64.0981 156.664 64.0971C156.295 64.0867 155.928 64.1581 155.59 64.3062C155.252 64.4542 154.951 64.6751 154.709 64.953C154.189 65.5769 153.921 66.3707 153.956 67.1803V70.001H158.845V72.2672H153.956L153.936 83.0246Z" fill="white"/>
<path d="M163.577 83.0248H160.996V69.4079C160.996 68.9075 161.195 68.4275 161.551 68.0737C161.907 67.7198 162.389 67.521 162.892 67.521H163.577V83.0248Z" fill="white"/>
<path d="M168.662 83.0245H166.08V67.5499H168.349L168.456 70.604C168.971 69.5776 169.768 68.7175 170.754 68.1237C171.791 67.5208 172.975 67.2145 174.176 67.2386C174.464 67.2357 174.751 67.2519 175.036 67.2873C175.33 67.2873 175.623 67.3651 175.916 67.4234L175.604 69.7091C175.043 69.5747 174.469 69.5062 173.893 69.5049C172.931 69.4854 171.984 69.742 171.165 70.2441C170.371 70.7422 169.731 71.4492 169.317 72.2866C168.865 73.2132 168.64 74.2332 168.662 75.2629V83.0245Z" fill="white"/>
<path d="M202.247 83.0247H199.666V74.7573C199.753 73.3731 199.364 72.0006 198.561 70.8667C198.187 70.4083 197.71 70.0442 197.168 69.8042C196.626 69.5642 196.034 69.455 195.442 69.4856C194.838 69.4581 194.236 69.5702 193.683 69.8132C193.129 70.0563 192.641 70.4235 192.254 70.8862C191.414 72.0041 191.005 73.3844 191.101 74.7767V83.0247H188.529V74.7573C188.616 73.3703 188.219 71.996 187.405 70.8667C187.031 70.4083 186.554 70.0442 186.012 69.8042C185.47 69.5642 184.878 69.455 184.286 69.4856C183.682 69.4581 183.079 69.5702 182.526 69.8132C181.973 70.0563 181.484 70.4235 181.098 70.8862C180.258 72.0041 179.849 73.3844 179.944 74.7767V83.0247H177.363V67.55H179.475L179.583 70.3123C180.057 69.3565 180.801 68.5588 181.724 68.0169C182.709 67.4811 183.818 67.2128 184.941 67.2388C186.129 67.2033 187.303 67.5071 188.324 68.1142C189.272 68.701 190.009 69.5731 190.426 70.6041C190.883 69.5659 191.647 68.6906 192.616 68.0947C193.648 67.5007 194.827 67.2044 196.019 67.2388C196.871 67.1935 197.722 67.3337 198.514 67.6495C199.306 67.9653 200.02 68.4492 200.604 69.0673C201.77 70.5038 202.356 72.321 202.247 74.164V83.0247Z" fill="white"/>
<path d="M116.254 54.7984C131.466 54.7984 143.797 42.5314 143.797 27.3992C143.797 12.267 131.466 0 116.254 0C101.043 0 88.7112 12.267 88.7112 27.3992C88.7112 42.5314 101.043 54.7984 116.254 54.7984Z" fill="#9BE500"/>
<path d="M131.282 13.646V20.3864H114.66L123.411 29.4319L118.601 34.1978L109.967 25.2593V42.7667H103.123L103.201 17.984C103.228 17.0079 103.622 16.0775 104.306 15.3773C104.839 14.8221 105.481 14.3825 106.193 14.0862C106.905 13.7899 107.67 13.6433 108.442 13.6557L131.282 13.646Z" fill="#00354E"/>
<path d="M71.9035 54.7984C87.1152 54.7984 99.4467 42.5314 99.4467 27.3992C99.4467 12.267 87.1152 0 71.9035 0C56.6919 0 44.3604 12.267 44.3604 27.3992C44.3604 42.5314 56.6919 54.7984 71.9035 54.7984Z" fill="#9BE500"/>
<path d="M86.736 22.5264C86.056 20.8152 85.0612 19.2451 83.8027 17.8966C82.5425 16.5783 81.0255 15.5292 79.3442 14.8133C77.3578 14.0514 75.2449 13.6686 73.1159 13.6851H63.3385C61.933 13.6851 60.5851 14.2405 59.5912 15.2291C58.5974 16.2178 58.0391 17.5587 58.0391 18.9568V19.3556V42.6989H73.0866C75.2145 42.7136 77.3265 42.3344 79.3148 41.5804C80.9987 40.8459 82.5205 39.7882 83.7929 38.4679C85.0566 37.1234 86.052 35.5523 86.7262 33.8381C88.1471 30.1933 88.1471 26.1517 86.7262 22.5069L86.736 22.5264ZM64.8149 20.4157H74.1719C75.0666 20.4042 75.9545 20.5694 76.7844 20.902C77.6143 21.2346 78.3695 21.7278 79.0062 22.353C79.643 22.9783 80.1486 23.7231 80.4936 24.5443C80.8386 25.3655 81.0162 26.2467 81.0162 27.1367V29.1987C81.024 30.0949 80.8522 30.9838 80.5111 31.8133C80.1699 32.6429 79.666 33.3966 79.0289 34.0303C78.3918 34.6641 77.6342 35.1653 76.8003 35.5047C75.9664 35.8441 75.0729 36.0149 74.1719 36.0071H64.8149V20.4157Z" fill="#00354E"/>
<path d="M27.5432 54.7984C42.7548 54.7984 55.0863 42.5314 55.0863 27.3992C55.0863 12.267 42.7548 0 27.5432 0C12.3315 0 0 12.267 0 27.3992C0 42.5314 12.3315 54.7984 27.5432 54.7984Z" fill="#9BE500"/>
<path d="M42.2677 20.4157H30.6716V42.728H23.8958V20.4157H12.3095C12.3095 18.6306 13.0223 16.9187 14.2912 15.6564C15.5601 14.3942 17.281 13.6851 19.0755 13.6851H42.2677V20.4157Z" fill="#00354E"/>
</g>
<defs>
<clipPath id="clip0_467_13">
<rect width="203" height="91" fill="white"/>
</clipPath>
</defs>
</svg>
