<svg width="165" height="140" viewBox="0 0 165 140" fill="none" xmlns="http://www.w3.org/2000/svg">
<g clip-path="url(#clip0_946_7544)">
<path d="M118.109 6.19512C109.756 -1.69712 95.4446 -3.49739 82.4981 9.48408C69.5722 -3.4837 55.2434 -1.69713 46.8911 6.18827C44.5905 8.3575 42.7479 10.968 41.4725 13.8648C40.1971 16.7616 39.515 19.8858 39.4666 23.0519C39.4182 26.2181 40.0046 29.3617 41.1908 32.2964C42.3771 35.231 44.1391 37.8969 46.3723 40.1358L82.4981 76.3662L94.4719 64.3602C94.9101 63.9206 95.2085 63.3605 95.3292 62.7509C95.4499 62.1412 95.3876 61.5093 95.1501 60.9352C94.9125 60.361 94.5105 59.8705 93.9949 59.5255C93.4792 59.1805 92.8731 58.9966 92.2533 58.9971H92.144C91.3131 58.9977 90.5165 59.3288 89.9288 59.9178L82.4981 67.3685L50.8573 35.6421C49.2234 34.0058 47.9344 32.0569 47.0668 29.9111C46.1992 27.7653 45.7708 25.4664 45.8071 23.1512C45.8434 20.836 46.3436 18.5518 47.2781 16.4344C48.2125 14.317 49.562 12.4096 51.2464 10.8257C54.3475 7.92656 58.4412 6.33364 62.6808 6.37644C71.7669 6.37644 75.856 11.8216 82.4981 18.4852C88.9833 11.9825 93.1305 6.37644 102.319 6.37644C106.56 6.33749 110.654 7.92976 113.76 10.8257C115.82 12.7634 117.374 15.1795 118.283 17.8611C119.193 20.5427 119.43 23.4075 118.976 26.2029C118.897 26.6543 118.917 27.1175 119.035 27.5603C119.152 28.0031 119.365 28.415 119.657 28.7674C119.949 29.1197 120.314 29.404 120.727 29.6006C121.14 29.7972 121.59 29.9014 122.047 29.906H122.116C122.861 29.9057 123.582 29.6393 124.149 29.1546C124.717 28.6698 125.093 27.9983 125.212 27.2604C125.844 23.4343 125.526 19.5109 124.288 15.837C123.049 12.163 120.927 8.85158 118.109 6.19512Z" fill="#9BE500"/>
<path d="M154.153 6.37311C151.465 6.36364 148.87 7.35983 146.875 9.16683C144.88 10.9738 143.63 13.4618 143.367 16.1443L139.35 55.9238C137.425 56.3241 135.657 57.2751 134.26 58.6618L102.203 88.5812C100.015 90.5868 98.2632 93.0234 97.0569 95.7387C95.8506 98.454 95.2158 101.39 95.1924 104.362V140.004H133.267V123.234C133.278 121.922 133.556 120.625 134.084 119.425C134.612 118.224 135.38 117.144 136.339 116.252L160.423 91.8804C163.375 88.9061 165.027 84.878 165.017 80.6821V17.2463C165.013 14.3604 163.866 11.5944 161.829 9.55562C159.792 7.51689 157.031 6.3722 154.153 6.37311ZM155.894 87.4003L131.885 111.7C130.322 113.185 129.076 114.972 128.223 116.954C127.37 118.936 126.927 121.072 126.922 123.23V133.642H101.538V104.4C101.557 102.303 102.009 100.232 102.864 98.3179C103.719 96.4038 104.959 94.6875 106.507 93.2768L138.664 63.2514C139.09 62.8216 139.608 62.4935 140.178 62.2915C140.748 62.0895 141.356 62.0186 141.957 62.0843C142.915 62.1609 143.814 62.5743 144.497 63.2514C144.882 63.6344 145.187 64.0902 145.395 64.5926C145.603 65.0949 145.71 65.6337 145.709 66.1776C145.714 67.2241 145.318 68.2328 144.603 68.9943L119.846 91.5107L124.113 96.2167L148.982 73.5975C149.958 72.6249 150.733 71.4676 151.26 70.1928C151.787 68.9179 152.057 67.5509 152.054 66.1708C152.058 64.7915 151.788 63.4252 151.261 62.1514C150.734 60.8775 149.959 59.7215 148.982 58.7508C148.035 57.788 146.906 57.0247 145.661 56.5057L149.668 16.8049C149.777 15.6911 150.297 14.6582 151.125 13.9077C151.953 13.1572 153.03 12.743 154.146 12.7458C155.339 12.7467 156.483 13.2223 157.326 14.068C158.17 14.9138 158.644 16.0606 158.645 17.2566V80.6821C158.651 83.1984 157.661 85.6144 155.894 87.4003Z" fill="#9BE500"/>
<path d="M62.7936 88.5772L30.7398 58.6578C29.344 57.2698 27.5758 56.3186 25.6506 55.9198L21.6332 16.1403C21.3707 13.4578 20.1199 10.9698 18.1252 9.16284C16.1306 7.35584 13.5355 6.35973 10.8474 6.36921C7.97218 6.37283 5.21573 7.5194 3.18235 9.55765C1.14896 11.5959 0.00456385 14.3594 4.82202e-05 17.2424V34.0536C4.82202e-05 34.8969 0.334115 35.7056 0.928776 36.3019C1.52344 36.8981 2.32999 37.2331 3.17097 37.2331C3.58767 37.2336 4.00034 37.1516 4.38544 36.9921C4.77055 36.8325 5.12053 36.5983 5.41534 36.303C5.71014 36.0078 5.944 35.6571 6.10357 35.2711C6.26313 34.8851 6.34527 34.4714 6.34527 34.0536V17.393C6.34527 14.898 8.39322 12.7213 10.8644 12.7315C11.9753 12.7334 13.0461 13.1479 13.87 13.895C14.6939 14.6421 15.2124 15.6689 15.3256 16.7769L19.3293 56.4777C18.089 57.004 16.9623 57.7664 16.0116 58.7229C15.036 59.6948 14.2622 60.8509 13.735 62.1245C13.2077 63.3981 12.9374 64.7638 12.9397 66.1428C12.9363 67.5229 13.2061 68.89 13.7334 70.1649C14.2607 71.4397 15.0351 72.597 16.0116 73.5696L40.8806 96.1922L45.1471 91.4829L20.3908 68.9698C19.6708 68.2095 19.2742 67.1981 19.2849 66.1497C19.2836 65.6057 19.39 65.067 19.598 64.5647C19.806 64.0623 20.1115 63.6064 20.4966 63.2234C21.1784 62.5453 22.0786 62.1329 23.0361 62.0598C23.637 61.9937 24.245 62.0639 24.8152 62.2654C25.3853 62.4668 25.903 62.7942 26.3299 63.2234L58.4861 93.2523C60.0346 94.6625 61.2755 96.3786 62.1307 98.2928C62.986 100.207 63.4371 102.278 63.4558 104.375V133.627H38.0715V123.216C38.0655 121.057 37.6226 118.922 36.7695 116.94C35.9164 114.959 34.671 113.171 33.1086 111.686L9.09979 87.3862C7.32653 85.6002 6.33325 83.1811 6.33844 80.6609V79.7266C6.33844 79.3088 6.25634 78.8951 6.09678 78.5091C5.93721 78.1231 5.70331 77.7725 5.4085 77.4772C5.11369 77.1819 4.76376 76.9478 4.37865 76.7882C3.99355 76.6286 3.58084 76.5467 3.16414 76.5471C2.32316 76.5471 1.5166 76.8821 0.921943 77.4783C0.327282 78.0746 -0.00678495 78.8834 -0.00678495 79.7266V80.6815C-0.0120534 82.7587 0.391005 84.8165 1.17931 86.7374C1.96762 88.6582 3.12574 90.4046 4.58748 91.8764L28.6714 116.244C29.6268 117.14 30.3901 118.222 30.9147 119.424C31.4394 120.625 31.7143 121.922 31.7228 123.233V140.003H69.801V104.358C69.7794 101.386 69.1459 98.4498 67.9401 95.7343C66.7343 93.0188 64.9822 90.5822 62.7936 88.5772Z" fill="#9BE500"/>
<path d="M90.5364 64.2533L90.0312 63.7913C107.026 45.1422 121.594 26.7087 121.74 26.5273L122.273 26.9517C122.129 27.1468 107.562 45.5974 90.5364 64.2533Z" fill="#9BE500"/>
<path d="M3.53617 33.2148H2.85352V82.324H3.53617V33.2148Z" fill="#9BE500"/>
</g>
<defs>
<clipPath id="clip0_946_7544">
<rect width="165" height="140" fill="white"/>
</clipPath>
</defs>
</svg>
