<svg width="59" height="59" viewBox="0 0 59 59" fill="none" xmlns="http://www.w3.org/2000/svg">
<g clip-path="url(#clip0_673_17153)">
<path d="M58.4305 17.3219L37.1431 4.47447C37.0158 4.39607 36.8697 4.35317 36.7202 4.35021C36.5707 4.34724 36.4232 4.38431 36.2928 4.45761C36.1625 4.5309 36.0541 4.63774 35.979 4.76703C35.9039 4.89631 35.8647 5.04334 35.8655 5.19287C35.8656 5.33758 35.9031 5.47979 35.9745 5.60569C36.0458 5.73158 36.1485 5.83686 36.2726 5.91128L57.153 18.5121V23.3409H1.84797V18.5097L22.7283 5.90648C22.8526 5.83221 22.9556 5.727 23.0272 5.6011C23.0987 5.47519 23.1364 5.3329 23.1366 5.18808C23.1358 5.03893 23.0955 4.89267 23.0198 4.76416C22.9441 4.63565 22.8357 4.52947 22.7057 4.45647C22.5756 4.38346 22.4285 4.34625 22.2794 4.34857C22.1302 4.35089 21.9844 4.39267 21.8567 4.46968L0.569222 17.3231C0.445123 17.3975 0.342396 17.5028 0.271057 17.6287C0.199717 17.7546 0.162178 17.8968 0.162109 18.0415V24.1886C0.162109 24.4109 0.250418 24.6241 0.407599 24.7813C0.56478 24.9385 0.777958 25.0268 1.00025 25.0268H57.9935C58.2158 25.0268 58.429 24.9385 58.5862 24.7813C58.7433 24.6241 58.8316 24.4109 58.8316 24.1886V18.0415C58.8324 17.8972 58.7959 17.7551 58.7256 17.629C58.6553 17.5029 58.5537 17.3972 58.4305 17.3219ZM29.4957 1.82835L30.6104 2.50126C30.7421 2.58005 30.8928 2.62144 31.0463 2.621C31.2324 2.62489 31.4145 2.56666 31.5639 2.45554C31.7133 2.34442 31.8215 2.18674 31.8713 2.00733C31.9211 1.82793 31.9098 1.63704 31.8391 1.46479C31.7684 1.29254 31.6424 1.14873 31.4809 1.05607L29.9243 0.119742C29.7928 0.0410448 29.6424 -0.000488281 29.4891 -0.000488281C29.3358 -0.000488281 29.1854 0.0410448 29.0539 0.119742L27.5045 1.05607C27.3429 1.14878 27.2168 1.29271 27.1461 1.46508C27.0754 1.63746 27.0642 1.82844 27.1142 2.00792C27.1642 2.18739 27.2725 2.34511 27.4221 2.45613C27.5718 2.56715 27.7541 2.62517 27.9403 2.621C28.0934 2.62153 28.2438 2.58012 28.375 2.50126L29.4957 1.82835Z" fill="#9BE500"/>
<path d="M54.0556 23.3469H43.1311C42.9094 23.3488 42.6973 23.4377 42.5405 23.5945C42.3838 23.7513 42.2948 23.9634 42.293 24.1851V28.5314C42.2935 29.0007 42.475 29.4518 42.7997 29.7906C43.1245 30.1294 43.5674 30.3298 44.0363 30.3502C44.0626 30.3502 44.0878 30.3502 44.1129 30.3502H53.0834C53.1085 30.3502 53.1349 30.3502 53.16 30.3502C53.6288 30.3307 54.0719 30.1309 54.3967 29.7924C54.7216 29.4539 54.9031 29.003 54.9033 28.5338V24.1851C54.9014 23.9617 54.8112 23.7482 54.6523 23.5911C54.4935 23.4341 54.279 23.3463 54.0556 23.3469ZM53.2175 28.5362C53.2175 28.572 53.2034 28.6063 53.1783 28.6319C53.1533 28.6574 53.1191 28.6721 53.0834 28.6727H44.1153C44.0795 28.6721 44.0454 28.6574 44.0203 28.6319C43.9953 28.6063 43.9812 28.572 43.9812 28.5362V25.0376H53.2175V28.5362Z" fill="#9BE500"/>
<path d="M52.3551 28.6726H44.8299C44.6145 28.6828 44.4113 28.7755 44.2626 28.9316C44.1139 29.0877 44.031 29.2951 44.0313 29.5107V46.5357C44.0313 46.758 44.1196 46.9711 44.2767 47.1283C44.4339 47.2855 44.6471 47.3738 44.8694 47.3738H52.3168C52.5391 47.3738 52.7523 47.2855 52.9095 47.1283C53.0666 46.9711 53.155 46.758 53.155 46.5357V45.6377C53.155 45.4154 53.0666 45.2022 52.9095 45.045C52.7523 44.8878 52.5391 44.7995 52.3168 44.7995C52.2057 44.7987 52.0956 44.82 51.9928 44.8622C51.8901 44.9043 51.7967 44.9665 51.7182 45.045C51.6392 45.1233 51.5766 45.2166 51.534 45.3194C51.4915 45.4222 51.4698 45.5324 51.4703 45.6437V45.6987H45.7159V30.3572H51.4703V35.7956C51.4695 35.9061 51.4906 36.0158 51.5324 36.1181C51.5741 36.2205 51.6357 36.3136 51.7136 36.3921C51.7916 36.4705 51.8842 36.5328 51.9863 36.5753C52.0884 36.6178 52.1979 36.6397 52.3084 36.6397C52.4196 36.6403 52.5298 36.6188 52.6326 36.5765C52.7353 36.5342 52.8287 36.4718 52.9071 36.393C53.0649 36.2338 53.1531 36.0185 53.1526 35.7944V29.5131C53.1534 29.2973 53.071 29.0895 52.9225 28.9329C52.7739 28.7763 52.5707 28.6831 52.3551 28.6726Z" fill="#9BE500"/>
<path d="M53.1541 45.6987C53.129 45.6987 53.1027 45.6987 53.0775 45.6987H44.1071C44.0819 45.6987 44.0568 45.6987 44.0304 45.6987C43.5614 45.7197 43.1184 45.9206 42.7937 46.2598C42.469 46.599 42.2876 47.0503 42.2871 47.5199V51.8674C42.2871 52.0897 42.3754 52.3029 42.5326 52.4601C42.6898 52.6172 42.903 52.7056 43.1252 52.7056H54.0498C54.272 52.7056 54.4852 52.6172 54.6424 52.4601C54.7996 52.3029 54.8879 52.0897 54.8879 51.8674V47.5199C54.8875 47.0519 54.7074 46.602 54.3847 46.263C54.0621 45.9241 53.6215 45.7221 53.1541 45.6987ZM43.973 51.0245V47.5199C43.9726 47.4839 43.9866 47.4492 44.0117 47.4234C44.0368 47.3976 44.0711 47.3828 44.1071 47.3822H53.0775C53.1135 47.3828 53.1478 47.3976 53.1729 47.4234C53.198 47.4492 53.2119 47.4839 53.2116 47.5199V51.0197L43.973 51.0245Z" fill="#9BE500"/>
<path d="M16.7131 23.3469H5.78735C5.56565 23.3488 5.35356 23.4377 5.19678 23.5945C5.04001 23.7513 4.9511 23.9634 4.94922 24.1851V28.5314C4.94961 28.9959 5.12726 29.4428 5.4459 29.7808C5.76453 30.1188 6.20014 30.3224 6.66381 30.3502C6.69973 30.3502 6.73328 30.3502 6.77039 30.3502H15.7396C15.7768 30.3502 15.8151 30.3502 15.851 30.3502C16.3134 30.3224 16.7478 30.1193 17.0655 29.7822C17.3833 29.4451 17.5604 28.9994 17.5608 28.5362V24.1875C17.5595 23.9637 17.4696 23.7495 17.3107 23.592C17.1518 23.4344 16.9368 23.3463 16.7131 23.3469ZM15.8749 28.5386C15.8749 28.5746 15.8607 28.6091 15.8354 28.6347C15.81 28.6602 15.7756 28.6748 15.7396 28.6751H6.77039C6.7344 28.6748 6.69997 28.6602 6.67463 28.6347C6.64929 28.6091 6.63508 28.5746 6.63508 28.5386V25.0376H15.8749V28.5386Z" fill="#9BE500"/>
<path d="M15.0894 28.675C15.0619 28.675 15.0344 28.675 15.0044 28.675H7.5031C7.47356 28.675 7.44483 28.675 7.41689 28.675C7.209 28.6953 7.01617 28.7925 6.87619 28.9476C6.73621 29.1026 6.65918 29.3043 6.66017 29.5132V46.5381C6.66017 46.7604 6.74847 46.9736 6.90565 47.1308C7.06284 47.288 7.27601 47.3763 7.4983 47.3763H14.9996C15.2219 47.3763 15.4351 47.288 15.5923 47.1308C15.7495 46.9736 15.8378 46.7604 15.8378 46.5381V29.5144C15.8374 29.3071 15.761 29.1072 15.6231 28.9525C15.4852 28.7978 15.2953 28.6991 15.0894 28.675ZM8.34603 45.6964V30.3573H14.1615V45.6964H8.34603Z" fill="#9BE500"/>
<path d="M15.847 45.7012C15.8111 45.7012 15.7728 45.7012 15.7357 45.7012H6.76646C6.72934 45.7012 6.6958 45.7012 6.65988 45.7012C6.1962 45.7289 5.7606 45.9326 5.44196 46.2706C5.12333 46.6086 4.9457 47.0554 4.94531 47.5199V51.8675C4.94531 52.0897 5.03359 52.3029 5.19077 52.4601C5.34795 52.6173 5.56116 52.7056 5.78345 52.7056H16.7092C16.9314 52.7056 17.1446 52.6173 17.3018 52.4601C17.459 52.3029 17.5473 52.0897 17.5473 51.8675V47.5199C17.5474 47.0577 17.3718 46.6126 17.0562 46.2749C16.7405 45.9372 16.3083 45.7322 15.847 45.7012ZM6.62755 51.0245V47.5199C6.62739 47.502 6.63077 47.4842 6.63749 47.4676C6.6442 47.451 6.65413 47.4358 6.66669 47.423C6.67925 47.4103 6.69421 47.4001 6.71071 47.3931C6.72721 47.3861 6.74494 47.3824 6.76286 47.3822H15.7321C15.75 47.3824 15.7678 47.3861 15.7843 47.3931C15.8008 47.4001 15.8157 47.4103 15.8283 47.423C15.8408 47.4358 15.8508 47.451 15.8575 47.4676C15.8642 47.4842 15.8676 47.502 15.8674 47.5199V51.0197L6.62755 51.0245Z" fill="#9BE500"/>
<path d="M58.1562 51.0198H0.842042C0.619755 51.0198 0.406547 51.1081 0.249366 51.2653C0.0921852 51.4224 0.00390625 51.6356 0.00390625 51.8579V58.1487C0.00390625 58.371 0.0921852 58.5842 0.249366 58.7414C0.406547 58.8986 0.619755 58.9869 0.842042 58.9869H58.1562C58.3785 58.9869 58.5916 58.8986 58.7488 58.7414C58.906 58.5842 58.9943 58.371 58.9943 58.1487V51.8579C58.9943 51.6356 58.906 51.4224 58.7488 51.2653C58.5916 51.1081 58.3785 51.0198 58.1562 51.0198ZM57.318 57.3106H1.68734V52.7056H57.318V57.3106Z" fill="#9BE500"/>
<path d="M52.4583 35.7009H52.2129V45.9717H52.4583V35.7009Z" fill="#9BE500"/>
<path d="M28.7142 1.44955L28.5859 1.24023L19.8277 6.60517L19.956 6.81448L28.7142 1.44955Z" fill="#9BE500"/>
<path d="M39.0534 6.83114L39.1816 6.62183L30.4234 1.25689L30.2952 1.46621L39.0534 6.83114Z" fill="#9BE500"/>
</g>
<defs>
<clipPath id="clip0_673_17153">
<rect width="59" height="59" fill="white"/>
</clipPath>
</defs>
</svg>
