<svg width="92" height="92" viewBox="0 0 92 92" fill="none" xmlns="http://www.w3.org/2000/svg">
<path d="M77.625 11.5H73.3125V14.375H77.625C78.7687 14.375 79.8656 14.8294 80.6744 15.6381C81.4831 16.4469 81.9375 17.5438 81.9375 18.6875V67.5625C81.9375 68.7062 81.4831 69.8031 80.6744 70.6119C79.8656 71.4206 78.7687 71.875 77.625 71.875H14.375C13.2313 71.875 12.1344 71.4206 11.3256 70.6119C10.5169 69.8031 10.0625 68.7062 10.0625 67.5625V18.6875C10.0625 17.5438 10.5169 16.4469 11.3256 15.6381C12.1344 14.8294 13.2313 14.375 14.375 14.375H18.6875V11.5H14.375C12.4688 11.5 10.6406 12.2573 9.29267 13.6052C7.94475 14.9531 7.1875 16.7813 7.1875 18.6875V67.5625C7.1875 69.4687 7.94475 71.2969 9.29267 72.6448C10.6406 73.9927 12.4688 74.75 14.375 74.75H37.605C37.7348 77.8104 36.8837 80.8323 35.1756 83.375H31.625V86.25H60.375V83.375H56.8244C55.1163 80.8323 54.2652 77.8104 54.395 74.75H77.625C79.5312 74.75 81.3594 73.9927 82.7073 72.6448C84.0552 71.2969 84.8125 69.4687 84.8125 67.5625V18.6875C84.8125 16.7813 84.0552 14.9531 82.7073 13.6052C81.3594 12.2573 79.5312 11.5 77.625 11.5ZM53.5038 83.375H38.4963C39.9453 80.7389 40.6415 77.7551 40.5088 74.75H51.4912C51.3585 77.7551 52.0547 80.7389 53.5038 83.375ZM18.6875 20.125V17.25H14.375C13.9938 17.25 13.6281 17.4015 13.3585 17.671C13.089 17.9406 12.9375 18.3063 12.9375 18.6875V61.8125C12.9375 62.1937 13.089 62.5594 13.3585 62.829C13.6281 63.0985 13.9938 63.25 14.375 63.25H77.625C78.0062 63.25 78.3719 63.0985 78.6415 62.829C78.911 62.5594 79.0625 62.1937 79.0625 61.8125V18.6875C79.0625 18.3063 78.911 17.9406 78.6415 17.671C78.3719 17.4015 78.0062 17.25 77.625 17.25H73.3125V20.125H76.1875V60.375H70.4375V7.1875C70.4375 6.80625 70.286 6.44062 70.0165 6.17103C69.7469 5.90145 69.3812 5.75 69 5.75H23C22.6188 5.75 22.2531 5.90145 21.9835 6.17103C21.714 6.44062 21.5625 6.80625 21.5625 7.1875V60.375H15.8125V20.125H18.6875ZM24.4375 8.625H67.5625V60.375H24.4375V8.625ZM40.25 69V66.125H51.75V69H40.25ZM46 25.875C47.1372 25.875 48.2489 25.5378 49.1945 24.906C50.1401 24.2741 50.8771 23.3761 51.3123 22.3254C51.7475 21.2748 51.8614 20.1186 51.6395 19.0032C51.4177 17.8878 50.87 16.8633 50.0659 16.0591C49.2617 15.255 48.2372 14.7073 47.1218 14.4855C46.0064 14.2636 44.8502 14.3775 43.7996 14.8127C42.7489 15.2479 41.8509 15.9849 41.2191 16.9305C40.5872 17.8761 40.25 18.9878 40.25 20.125C40.25 21.65 40.8558 23.1125 41.9341 24.1909C43.0125 25.2692 44.475 25.875 46 25.875ZM46 17.25C46.5686 17.25 47.1245 17.4186 47.5973 17.7345C48.0701 18.0504 48.4386 18.4994 48.6562 19.0248C48.8738 19.5501 48.9307 20.1282 48.8198 20.6859C48.7088 21.2436 48.435 21.7559 48.0329 22.1579C47.6309 22.56 47.1186 22.8338 46.5609 22.9448C46.0032 23.0557 45.4251 22.9988 44.8998 22.7812C44.3744 22.5636 43.9254 22.1951 43.6095 21.7223C43.2936 21.2495 43.125 20.6936 43.125 20.125C43.125 19.3625 43.4279 18.6312 43.9671 18.0921C44.5062 17.5529 45.2375 17.25 46 17.25ZM40.25 37.375H37.375V35.9375C37.375 33.65 38.2837 31.4562 39.9012 29.8387C41.5187 28.2212 43.7125 27.3125 46 27.3125C48.2875 27.3125 50.4813 28.2212 52.0988 29.8387C53.7163 31.4562 54.625 33.65 54.625 35.9375V37.375H51.75V35.9375C51.75 34.4125 51.1442 32.95 50.0659 31.8716C48.9875 30.7933 47.525 30.1875 46 30.1875C44.475 30.1875 43.0125 30.7933 41.9341 31.8716C40.8558 32.95 40.25 34.4125 40.25 35.9375V37.375ZM30.1875 43.125H61.8125V46H30.1875V43.125ZM30.1875 51.75H61.8125V54.625H30.1875V51.75Z" fill="#9BE500"/>
</svg>
