<svg width="149" height="150" viewBox="0 0 149 150" fill="none" xmlns="http://www.w3.org/2000/svg">
<g clip-path="url(#clip0_629_2252)">
<path d="M147.565 44.0388L93.8047 11.3758C93.4832 11.1765 93.1145 11.0674 92.7369 11.0599C92.3593 11.0523 91.9867 11.1466 91.6575 11.3329C91.3284 11.5193 91.0547 11.7909 90.865 12.1196C90.6752 12.4483 90.5763 12.8221 90.5784 13.2022C90.5786 13.5701 90.6733 13.9317 90.8534 14.2518C91.0336 14.5718 91.293 14.8395 91.6064 15.0287L144.338 47.0646V59.3414H4.66962V47.0585L57.4014 15.0165C57.7153 14.8277 57.9753 14.5602 58.1561 14.2401C58.3368 13.92 58.432 13.5582 58.4325 13.1901C58.4305 12.8109 58.3287 12.439 58.1375 12.1123C57.9463 11.7856 57.6726 11.5156 57.3441 11.33C57.0157 11.1444 56.6442 11.0498 56.2676 11.0557C55.891 11.0616 55.5227 11.1678 55.2001 11.3636L1.44024 44.0418C1.12684 44.231 0.867409 44.4987 0.687247 44.8187C0.507085 45.1388 0.412283 45.5004 0.412109 45.8683V61.4965C0.412109 62.0617 0.635125 62.6037 1.03207 63.0033C1.42902 63.4029 1.96739 63.6274 2.52876 63.6274H146.461C147.022 63.6274 147.561 63.4029 147.958 63.0033C148.355 62.6037 148.578 62.0617 148.578 61.4965V45.8683C148.579 45.5013 148.487 45.1401 148.31 44.8196C148.132 44.499 147.876 44.2301 147.565 44.0388ZM74.4918 4.64836L77.307 6.35916C77.6395 6.55947 78.0201 6.66471 78.4077 6.66357C78.8778 6.67346 79.3378 6.52544 79.7151 6.24293C80.0924 5.96042 80.3655 5.55952 80.4913 5.10341C80.6171 4.6473 80.5885 4.16198 80.41 3.72406C80.2314 3.28614 79.9131 2.92053 79.5052 2.68494L75.5743 0.304451C75.2421 0.104372 74.8623 -0.0012207 74.4752 -0.0012207C74.0881 -0.0012207 73.7082 0.104372 73.376 0.304451L69.4633 2.68494C69.0552 2.92064 68.7367 3.28656 68.5582 3.7248C68.3797 4.16304 68.3513 4.6486 68.4775 5.10489C68.6038 5.56119 68.8774 5.96216 69.2552 6.24442C69.6331 6.52667 70.0935 6.67417 70.5639 6.66357C70.9505 6.66493 71.3302 6.55965 71.6616 6.35916L74.4918 4.64836Z" fill="#9BE500"/>
<path d="M74.4996 22.1821C71.1234 22.1821 67.8855 23.5323 65.4981 25.9357C63.1107 28.3391 61.7695 31.5988 61.7695 34.9977C61.7695 38.3966 63.1107 41.6563 65.4981 44.0597C67.8855 46.463 71.1234 47.8133 74.4996 47.8133C76.1716 47.815 77.8275 47.4843 79.3723 46.8402C80.9171 46.1961 82.3203 45.2512 83.5014 44.0599C84.6854 42.871 85.6245 41.4585 86.2648 39.9034C86.9052 38.3483 87.2341 36.6812 87.2328 34.9977C87.232 31.5985 85.8901 28.3388 83.5022 25.9355C81.1144 23.5322 77.8761 22.1821 74.4996 22.1821ZM74.4996 43.5272C72.2541 43.5272 70.1007 42.6292 68.5129 41.0307C66.9251 39.4323 66.033 37.2643 66.033 35.0037C66.033 32.7432 66.9251 30.5753 68.5129 28.9768C70.1007 27.3784 72.2541 26.4803 74.4996 26.4803C75.6125 26.4807 76.7144 26.7025 77.7418 27.133C78.7693 27.5635 79.7022 28.1941 80.4867 28.9887C81.276 29.7782 81.9021 30.7173 82.3287 31.7519C82.7553 32.7864 82.974 33.8958 82.9723 35.0159C82.9691 37.2754 82.0748 39.4412 80.4861 41.0372C78.8973 42.6332 76.7441 43.5288 74.4996 43.5272Z" fill="#9BE500"/>
<path d="M136.512 59.3565H108.923C108.363 59.3612 107.828 59.5873 107.432 59.9859C107.036 60.3844 106.811 60.9236 106.807 61.4873V72.5373C106.808 73.7305 107.266 74.8772 108.086 75.7386C108.907 76.6 110.025 77.1096 111.209 77.1613C111.276 77.1613 111.339 77.1613 111.403 77.1613H134.057C134.12 77.1613 134.187 77.1613 134.251 77.1613C135.434 77.1119 136.553 76.6037 137.374 75.7432C138.194 74.8826 138.653 73.7362 138.653 72.5434V61.4873C138.648 60.9194 138.42 60.3766 138.019 59.9773C137.618 59.578 137.076 59.3548 136.512 59.3565ZM134.396 72.5495C134.396 72.6405 134.36 72.7279 134.297 72.7928C134.233 72.8577 134.147 72.895 134.057 72.8966H111.409C111.318 72.895 111.232 72.8577 111.169 72.7928C111.106 72.7279 111.07 72.6405 111.07 72.5495V63.6547H134.396V72.5495Z" fill="#9BE500"/>
<path d="M132.219 72.8965H113.214C112.67 72.9223 112.157 73.1582 111.782 73.555C111.406 73.9519 111.197 74.4792 111.197 75.0273V118.311C111.197 118.876 111.42 119.418 111.817 119.818C112.214 120.217 112.753 120.442 113.314 120.442H132.122C132.683 120.442 133.222 120.217 133.619 119.818C134.015 119.418 134.238 118.876 134.238 118.311V116.028C134.238 115.463 134.015 114.921 133.619 114.521C133.222 114.122 132.683 113.897 132.122 113.897C131.841 113.895 131.563 113.949 131.304 114.056C131.044 114.163 130.808 114.322 130.61 114.521C130.411 114.72 130.252 114.958 130.145 115.219C130.038 115.48 129.983 115.76 129.984 116.043V116.183H115.452V77.1794H129.984V91.0057C129.982 91.2868 130.035 91.5655 130.141 91.8258C130.246 92.0861 130.402 92.3228 130.599 92.5222C130.795 92.7217 131.029 92.88 131.287 92.9881C131.545 93.0961 131.821 93.1517 132.101 93.1517C132.381 93.1534 132.66 93.0988 132.919 92.9911C133.179 92.8835 133.414 92.7249 133.613 92.5247C134.011 92.1198 134.234 91.5726 134.232 91.0027V75.0334C134.235 74.4847 134.027 73.9563 133.651 73.5582C133.276 73.1601 132.763 72.9231 132.219 72.8965Z" fill="#9BE500"/>
<path d="M134.239 116.183C134.175 116.183 134.109 116.183 134.045 116.183H111.391C111.328 116.183 111.264 116.183 111.198 116.183C110.013 116.237 108.894 116.748 108.074 117.61C107.254 118.472 106.796 119.62 106.795 120.813V131.866C106.795 132.432 107.018 132.974 107.415 133.373C107.812 133.773 108.35 133.997 108.912 133.997H136.501C137.062 133.997 137.6 133.773 137.997 133.373C138.394 132.974 138.617 132.432 138.617 131.866V120.813C138.616 119.624 138.161 118.48 137.347 117.618C136.532 116.756 135.419 116.243 134.239 116.183ZM111.052 129.723V120.813C111.052 120.722 111.087 120.634 111.15 120.568C111.214 120.503 111.3 120.465 111.391 120.463H134.045C134.136 120.465 134.223 120.503 134.286 120.568C134.35 120.634 134.385 120.722 134.384 120.813V129.711L111.052 129.723Z" fill="#9BE500"/>
<path d="M42.2087 59.3565H14.6166C14.0567 59.3612 13.5211 59.5873 13.1252 59.9859C12.7293 60.3844 12.5047 60.9236 12.5 61.4873V72.5373C12.501 73.7183 12.9496 74.8544 13.7543 75.7137C14.559 76.573 15.6591 77.0908 16.8301 77.1613C16.9208 77.1613 17.0055 77.1613 17.0992 77.1613H39.7504C39.8441 77.1613 39.9409 77.1613 40.0316 77.1613C41.1993 77.0908 42.2964 76.5743 43.0988 75.7173C43.9013 74.8602 44.3486 73.7272 44.3495 72.5495V61.4934C44.3463 60.9245 44.1192 60.38 43.7179 59.9795C43.3166 59.5789 42.7738 59.3548 42.2087 59.3565ZM40.092 72.5556C40.092 72.6471 40.0561 72.7349 39.9921 72.7999C39.9282 72.8649 39.8413 72.9018 39.7504 72.9026H17.0992C17.0083 72.9018 16.9214 72.8649 16.8574 72.7999C16.7934 72.7349 16.7575 72.6471 16.7575 72.5556V63.6547H40.092V72.5556Z" fill="#9BE500"/>
<path d="M38.1059 72.9026C38.0363 72.9026 37.9668 72.9026 37.8912 72.9026H18.9471C18.8726 72.9026 18.8 72.9026 18.7294 72.9026C18.2044 72.9542 17.7174 73.2013 17.3639 73.5955C17.0104 73.9896 16.8159 74.5024 16.8184 75.0334V118.317C16.8184 118.882 17.0414 119.424 17.4383 119.824C17.8353 120.224 18.3737 120.448 18.935 120.448H37.8791C38.4405 120.448 38.9788 120.224 39.3758 119.824C39.7727 119.424 39.9957 118.882 39.9957 118.317V75.0365C39.9948 74.5096 39.8019 74.0013 39.4536 73.608C39.1053 73.2147 38.6257 72.9637 38.1059 72.9026ZM21.0759 116.177V77.1795H35.7624V116.177H21.0759Z" fill="#9BE500"/>
<path d="M40.0198 116.189C39.9291 116.189 39.8323 116.189 39.7386 116.189H17.0874C16.9937 116.189 16.909 116.189 16.8183 116.189C15.6473 116.26 14.5472 116.778 13.7425 117.637C12.9378 118.496 12.4893 119.632 12.4883 120.813V131.866C12.4883 132.432 12.7112 132.974 13.1082 133.373C13.5051 133.773 14.0436 133.997 14.6049 133.997H42.197C42.7583 133.997 43.2967 133.773 43.6936 133.373C44.0906 132.974 44.3136 132.432 44.3136 131.866V120.813C44.3139 119.638 43.8705 118.507 43.0733 117.648C42.2761 116.79 41.1846 116.268 40.0198 116.189ZM16.7366 129.723V120.813C16.7362 120.768 16.7448 120.723 16.7617 120.68C16.7787 120.638 16.8038 120.6 16.8355 120.567C16.8672 120.535 16.905 120.509 16.9467 120.491C16.9883 120.473 17.0331 120.464 17.0784 120.463H39.7295C39.7748 120.464 39.8195 120.473 39.8612 120.491C39.9029 120.509 39.9407 120.535 39.9724 120.567C40.0041 120.6 40.0292 120.638 40.0461 120.68C40.0631 120.723 40.0716 120.768 40.0712 120.813V129.711L16.7366 129.723Z" fill="#9BE500"/>
<path d="M146.871 129.711H2.12837C1.567 129.711 1.02856 129.936 0.631609 130.335C0.234661 130.735 0.0117188 131.277 0.0117188 131.842V147.836C0.0117187 148.401 0.234661 148.943 0.631609 149.342C1.02856 149.742 1.567 149.966 2.12837 149.966H146.871C147.432 149.966 147.971 149.742 148.368 149.342C148.764 148.943 148.988 148.401 148.988 147.836V131.842C148.988 131.277 148.764 130.735 148.368 130.335C147.971 129.936 147.432 129.711 146.871 129.711ZM144.754 145.705H4.2631V133.997H144.754V145.705Z" fill="#9BE500"/>
<path d="M132.481 90.7654H131.861V116.877H132.481V90.7654Z" fill="#9BE500"/>
<path d="M72.5133 3.68522L72.1895 3.15308L50.0713 16.7927L50.3951 17.3249L72.5133 3.68522Z" fill="#9BE500"/>
<path d="M98.6254 17.3674L98.9492 16.8352L76.831 3.19555L76.5072 3.7277L98.6254 17.3674Z" fill="#9BE500"/>
</g>
<defs>
<clipPath id="clip0_629_2252">
<rect width="149" height="150" fill="white"/>
</clipPath>
</defs>
</svg>
