<svg width="164" height="163" viewBox="0 0 164 163" fill="none" xmlns="http://www.w3.org/2000/svg">
<path d="M88.2049 141.412H75.7917C75.0242 141.412 74.2884 141.717 73.7457 142.26C73.2029 142.802 72.8976 143.538 72.8967 144.305C72.8967 145.072 73.2018 145.808 73.7447 146.351C74.2876 146.893 75.0239 147.198 75.7917 147.198H88.2049C88.9727 147.198 89.709 146.893 90.2519 146.351C90.7949 145.808 91.0998 145.072 91.0998 144.305C91.0998 143.538 90.7949 142.802 90.2519 142.259C89.709 141.716 88.9727 141.412 88.2049 141.412ZM82 46.2703C80.1621 46.2685 78.3289 46.4522 76.528 46.8187C75.8776 46.9549 75.2941 47.3111 74.8759 47.8272C74.4577 48.3433 74.2303 48.9878 74.2321 49.6519C74.2326 50.0815 74.3288 50.5056 74.5137 50.8935C74.6986 51.2813 74.9677 51.6232 75.3013 51.8941C75.6349 52.1651 76.0247 52.3585 76.4424 52.4601C76.8601 52.5617 77.2952 52.569 77.7161 52.4816C79.1265 52.1989 80.5615 52.0566 82 52.0568C84.9748 52.0599 87.9169 52.6764 90.6425 53.8677C93.368 55.0591 95.8182 56.7998 97.84 58.9808C99.8617 61.1617 101.411 63.7362 102.392 66.5431C103.373 69.35 103.764 72.329 103.54 75.2937C103.136 80.4285 100.914 85.2512 97.2721 88.8954C93.6301 92.5396 88.8073 94.7663 83.67 95.1755C80.702 95.4021 77.7192 95.0137 74.9083 94.0349C72.0974 93.056 69.5191 91.5077 67.3346 89.4868C65.1502 87.4659 63.4067 85.016 62.2135 82.2906C61.0202 79.5652 60.4028 76.6229 60.3999 73.648C60.3966 71.8375 60.6215 70.0337 61.0692 68.2794C61.173 67.8543 61.1784 67.4113 61.0852 66.9838C60.992 66.5563 60.8025 66.1556 60.5312 65.8122C60.2599 65.4689 59.9139 65.1917 59.5194 65.002C59.1249 64.8122 58.6924 64.7149 58.2546 64.7172C57.6136 64.7157 56.9903 64.9272 56.4827 65.3184C55.975 65.7095 55.6117 66.258 55.45 66.8779C54.768 69.5543 54.4939 72.318 54.6367 75.0761C55.0112 81.8526 57.8826 88.2508 62.6973 93.0368C67.512 97.8228 73.9292 100.658 80.7115 100.996C84.4118 101.165 88.108 100.583 91.5772 99.2859C95.0464 97.9883 98.2165 96.0017 100.896 93.4459C103.576 90.8902 105.71 87.8183 107.169 84.4156C108.629 81.0129 109.383 77.3501 109.387 73.648C109.379 66.3906 106.491 59.4325 101.357 54.3001C96.2228 49.1677 89.2615 46.28 82 46.2703ZM88.2049 141.412H75.7917C75.0242 141.412 74.2884 141.717 73.7457 142.26C73.2029 142.802 72.8976 143.538 72.8967 144.305C72.8967 145.072 73.2018 145.808 73.7447 146.351C74.2876 146.893 75.0239 147.198 75.7917 147.198H88.2049C88.9727 147.198 89.709 146.893 90.2519 146.351C90.7949 145.808 91.0998 145.072 91.0998 144.305C91.0998 143.538 90.7949 142.802 90.2519 142.259C89.709 141.716 88.9727 141.412 88.2049 141.412ZM82 46.2703C80.1621 46.2685 78.3289 46.4522 76.528 46.8187C75.8776 46.9549 75.2941 47.3111 74.8759 47.8272C74.4577 48.3433 74.2303 48.9878 74.2321 49.6519C74.2326 50.0815 74.3288 50.5056 74.5137 50.8935C74.6986 51.2813 74.9677 51.6232 75.3013 51.8941C75.6349 52.1651 76.0247 52.3585 76.4424 52.4601C76.8601 52.5617 77.2952 52.569 77.7161 52.4816C79.1265 52.1989 80.5615 52.0566 82 52.0568C84.9748 52.0599 87.9169 52.6764 90.6425 53.8677C93.368 55.0591 95.8182 56.7998 97.84 58.9808C99.8617 61.1617 101.411 63.7362 102.392 66.5431C103.373 69.35 103.764 72.329 103.54 75.2937C103.136 80.4285 100.914 85.2512 97.2721 88.8954C93.6301 92.5396 88.8073 94.7663 83.67 95.1755C80.702 95.4021 77.7192 95.0137 74.9083 94.0349C72.0974 93.056 69.5191 91.5077 67.3346 89.4868C65.1502 87.4659 63.4067 85.016 62.2135 82.2906C61.0202 79.5652 60.4028 76.6229 60.3999 73.648C60.3966 71.8375 60.6215 70.0337 61.0692 68.2794C61.173 67.8543 61.1784 67.4113 61.0852 66.9838C60.992 66.5563 60.8025 66.1556 60.5312 65.8122C60.2599 65.4689 59.9139 65.1917 59.5194 65.002C59.1249 64.8122 58.6924 64.7149 58.2546 64.7172C57.6136 64.7157 56.9903 64.9272 56.4827 65.3184C55.975 65.7095 55.6117 66.258 55.45 66.8779C54.768 69.5543 54.4939 72.318 54.6367 75.0761C55.0112 81.8526 57.8826 88.2508 62.6973 93.0368C67.512 97.8228 73.9292 100.658 80.7115 100.996C84.4118 101.165 88.108 100.583 91.5772 99.2859C95.0464 97.9883 98.2165 96.0017 100.896 93.4459C103.576 90.8902 105.71 87.8183 107.169 84.4156C108.629 81.0129 109.383 77.3501 109.387 73.648C109.379 66.3906 106.491 59.4325 101.357 54.3001C96.2228 49.1677 89.2615 46.28 82 46.2703ZM82 46.2703C80.1621 46.2685 78.3289 46.4522 76.528 46.8187C75.8776 46.9549 75.2941 47.3111 74.8759 47.8272C74.4577 48.3433 74.2303 48.9878 74.2321 49.6519C74.2326 50.0815 74.3288 50.5056 74.5137 50.8935C74.6986 51.2813 74.9677 51.6232 75.3013 51.8941C75.6349 52.1651 76.0247 52.3585 76.4424 52.4601C76.8601 52.5617 77.2952 52.569 77.7161 52.4816C79.1265 52.1989 80.5615 52.0566 82 52.0568C84.9748 52.0599 87.9169 52.6764 90.6425 53.8677C93.368 55.0591 95.8182 56.7998 97.84 58.9808C99.8617 61.1617 101.411 63.7362 102.392 66.5431C103.373 69.35 103.764 72.329 103.54 75.2937C103.136 80.4285 100.914 85.2512 97.2721 88.8954C93.6301 92.5396 88.8073 94.7663 83.67 95.1755C80.702 95.4021 77.7192 95.0137 74.9083 94.0349C72.0974 93.056 69.5191 91.5077 67.3346 89.4868C65.1502 87.4659 63.4067 85.016 62.2135 82.2906C61.0202 79.5652 60.4028 76.6229 60.3999 73.648C60.3966 71.8375 60.6215 70.0337 61.0692 68.2794C61.173 67.8543 61.1784 67.4113 61.0852 66.9838C60.992 66.5563 60.8025 66.1556 60.5312 65.8122C60.2599 65.4689 59.9139 65.1917 59.5194 65.002C59.1249 64.8122 58.6924 64.7149 58.2546 64.7172C57.6136 64.7157 56.9903 64.9272 56.4827 65.3184C55.975 65.7095 55.6117 66.258 55.45 66.8779C54.768 69.5543 54.4939 72.318 54.6367 75.0761C55.0112 81.8526 57.8826 88.2508 62.6973 93.0368C67.512 97.8228 73.9292 100.658 80.7115 100.996C84.4118 101.165 88.108 100.583 91.5772 99.2859C95.0464 97.9883 98.2165 96.0017 100.896 93.4459C103.576 90.8902 105.71 87.8183 107.169 84.4156C108.629 81.0129 109.383 77.3501 109.387 73.648C109.379 66.3906 106.491 59.4325 101.357 54.3001C96.2228 49.1677 89.2615 46.28 82 46.2703ZM88.2049 141.412H75.7917C75.0242 141.412 74.2884 141.717 73.7457 142.26C73.2029 142.802 72.8976 143.538 72.8967 144.305C72.8967 145.072 73.2018 145.808 73.7447 146.351C74.2876 146.893 75.0239 147.198 75.7917 147.198H88.2049C88.9727 147.198 89.709 146.893 90.2519 146.351C90.7949 145.808 91.0998 145.072 91.0998 144.305C91.0998 143.538 90.7949 142.802 90.2519 142.259C89.709 141.716 88.9727 141.412 88.2049 141.412ZM88.2049 141.412H75.7917C75.0242 141.412 74.2884 141.717 73.7457 142.26C73.2029 142.802 72.8976 143.538 72.8967 144.305C72.8967 145.072 73.2018 145.808 73.7447 146.351C74.2876 146.893 75.0239 147.198 75.7917 147.198H88.2049C88.9727 147.198 89.709 146.893 90.2519 146.351C90.7949 145.808 91.0998 145.072 91.0998 144.305C91.0998 143.538 90.7949 142.802 90.2519 142.259C89.709 141.716 88.9727 141.412 88.2049 141.412ZM82 46.2703C80.1621 46.2685 78.3289 46.4522 76.528 46.8187C75.8776 46.9549 75.2941 47.3111 74.8759 47.8272C74.4577 48.3433 74.2303 48.9878 74.2321 49.6519C74.2326 50.0815 74.3288 50.5056 74.5137 50.8935C74.6986 51.2813 74.9677 51.6232 75.3013 51.8941C75.6349 52.1651 76.0247 52.3585 76.4424 52.4601C76.8601 52.5617 77.2952 52.569 77.7161 52.4816C79.1265 52.1989 80.5615 52.0566 82 52.0568C84.9748 52.0599 87.9169 52.6764 90.6425 53.8677C93.368 55.0591 95.8182 56.7998 97.84 58.9808C99.8617 61.1617 101.411 63.7362 102.392 66.5431C103.373 69.35 103.764 72.329 103.54 75.2937C103.136 80.4285 100.914 85.2512 97.2721 88.8954C93.6301 92.5396 88.8073 94.7663 83.67 95.1755C80.702 95.4021 77.7192 95.0137 74.9083 94.0349C72.0974 93.056 69.5191 91.5077 67.3346 89.4868C65.1502 87.4659 63.4067 85.016 62.2135 82.2906C61.0202 79.5652 60.4028 76.6229 60.3999 73.648C60.3966 71.8375 60.6215 70.0337 61.0692 68.2794C61.173 67.8543 61.1784 67.4113 61.0852 66.9838C60.992 66.5563 60.8025 66.1556 60.5312 65.8122C60.2599 65.4689 59.9139 65.1917 59.5194 65.002C59.1249 64.8122 58.6924 64.7149 58.2546 64.7172C57.6136 64.7157 56.9903 64.9272 56.4827 65.3184C55.975 65.7095 55.6117 66.258 55.45 66.8779C54.768 69.5543 54.4939 72.318 54.6367 75.0761C55.0112 81.8526 57.8826 88.2508 62.6973 93.0368C67.512 97.8228 73.9292 100.658 80.7115 100.996C84.4118 101.165 88.108 100.583 91.5772 99.2859C95.0464 97.9883 98.2165 96.0017 100.896 93.4459C103.576 90.8902 105.71 87.8183 107.169 84.4156C108.629 81.0129 109.383 77.3501 109.387 73.648C109.379 66.3906 106.491 59.4325 101.357 54.3001C96.2228 49.1677 89.2615 46.28 82 46.2703ZM82 46.2703C80.1621 46.2685 78.3289 46.4522 76.528 46.8187C75.8776 46.9549 75.2941 47.3111 74.8759 47.8272C74.4577 48.3433 74.2303 48.9878 74.2321 49.6519C74.2326 50.0815 74.3288 50.5056 74.5137 50.8935C74.6986 51.2813 74.9677 51.6232 75.3013 51.8941C75.6349 52.1651 76.0247 52.3585 76.4424 52.4601C76.8601 52.5617 77.2952 52.569 77.7161 52.4816C79.1265 52.1989 80.5615 52.0566 82 52.0568C84.9748 52.0599 87.9169 52.6764 90.6425 53.8677C93.368 55.0591 95.8182 56.7998 97.84 58.9808C99.8617 61.1617 101.411 63.7362 102.392 66.5431C103.373 69.35 103.764 72.329 103.54 75.2937C103.136 80.4285 100.914 85.2512 97.2721 88.8954C93.6301 92.5396 88.8073 94.7663 83.67 95.1755C80.702 95.4021 77.7192 95.0137 74.9083 94.0349C72.0974 93.056 69.5191 91.5077 67.3346 89.4868C65.1502 87.4659 63.4067 85.016 62.2135 82.2906C61.0202 79.5652 60.4028 76.6229 60.3999 73.648C60.3966 71.8375 60.6215 70.0337 61.0692 68.2794C61.173 67.8543 61.1784 67.4113 61.0852 66.9838C60.992 66.5563 60.8025 66.1556 60.5312 65.8122C60.2599 65.4689 59.9139 65.1917 59.5194 65.002C59.1249 64.8122 58.6924 64.7149 58.2546 64.7172C57.6136 64.7157 56.9903 64.9272 56.4827 65.3184C55.975 65.7095 55.6117 66.258 55.45 66.8779C54.768 69.5543 54.4939 72.318 54.6367 75.0761C55.0112 81.8526 57.8826 88.2508 62.6973 93.0368C67.512 97.8228 73.9292 100.658 80.7115 100.996C84.4118 101.165 88.108 100.583 91.5772 99.2859C95.0464 97.9883 98.2165 96.0017 100.896 93.4459C103.576 90.8902 105.71 87.8183 107.169 84.4156C108.629 81.0129 109.383 77.3501 109.387 73.648C109.379 66.3906 106.491 59.4325 101.357 54.3001C96.2228 49.1677 89.2615 46.28 82 46.2703ZM88.2049 141.412H75.7917C75.0242 141.412 74.2884 141.717 73.7457 142.26C73.2029 142.802 72.8976 143.538 72.8967 144.305C72.8967 145.072 73.2018 145.808 73.7447 146.351C74.2876 146.893 75.0239 147.198 75.7917 147.198H88.2049C88.9727 147.198 89.709 146.893 90.2519 146.351C90.7949 145.808 91.0998 145.072 91.0998 144.305C91.0998 143.538 90.7949 142.802 90.2519 142.259C89.709 141.716 88.9727 141.412 88.2049 141.412ZM162.584 47.0596L148.095 33.5764C147.684 33.1918 147.168 32.9361 146.613 32.841C146.057 32.7459 145.486 32.8155 144.97 33.0412C144.453 33.2654 144.013 33.6355 143.704 34.1061C143.394 34.5767 143.23 35.1273 143.229 35.6903V39.7042H128.905V45.4942H146.124C146.892 45.4933 147.629 45.1877 148.171 44.6445C148.714 44.1014 149.019 43.3653 149.019 42.5976V42.3433L156.382 49.1769L149.019 56.0138V55.7563C149.019 54.9889 148.714 54.2529 148.171 53.7103C147.628 53.1677 146.892 52.863 146.124 52.863H115.501V45.5043H130.324C131.092 45.5034 131.828 45.1978 132.371 44.6547C132.914 44.1115 133.219 43.3752 133.219 42.6076C133.219 41.8402 132.914 41.1044 132.371 40.5618C131.828 40.0192 131.092 39.7143 130.324 39.7143H130.257V14.4137C130.257 10.6231 128.75 6.98778 126.069 4.3074C123.387 1.62702 119.749 0.121094 115.956 0.121094H48.0403C44.2475 0.121094 40.61 1.62702 37.9281 4.3074C35.2462 6.98778 33.7395 10.6231 33.7395 14.4137V88.6865H20.7741V84.6727C20.7724 84.1091 20.6066 83.5581 20.297 83.0871C19.9873 82.6161 19.5473 82.2454 19.0304 82.0201C18.514 81.7944 17.9428 81.7248 17.3873 81.8199C16.8318 81.915 16.3163 82.1707 15.9045 82.5554L1.41633 96.0385C1.12544 96.3094 0.893369 96.6371 0.734471 97.0013C0.575573 97.3655 0.493237 97.7583 0.492615 98.1557C0.499044 98.5489 0.585467 98.9369 0.746564 99.2957C0.907662 99.6545 1.14008 99.9767 1.42973 100.243L15.9179 113.726C16.4528 114.225 17.1574 114.503 17.8892 114.502C18.2863 114.503 18.6792 114.422 19.0438 114.265C19.5607 114.038 20.0006 113.667 20.3102 113.195C20.6198 112.724 20.7856 112.173 20.7875 111.609V107.595H34.6599V101.808H17.8892C17.1214 101.808 16.385 102.113 15.8421 102.656C15.2992 103.198 14.9942 103.934 14.9942 104.702V104.959L7.65137 98.1256L14.9942 91.2887V91.5496C14.9942 92.3169 15.2992 93.0529 15.8421 93.5955C16.385 94.1381 17.1214 94.443 17.8892 94.443H48.5122V101.802H33.3379C32.5701 101.802 31.8337 102.106 31.2908 102.649C30.7479 103.192 30.4429 103.928 30.4429 104.695C30.4429 105.462 30.7479 106.198 31.2908 106.741C31.8337 107.283 32.5701 107.588 33.3379 107.588H33.7529V148.71C33.7529 152.501 35.2596 156.136 37.9415 158.816C40.6234 161.497 44.2609 163.003 48.0537 163.003H115.973C119.758 163 123.387 161.497 126.065 158.824C128.742 156.151 130.25 152.526 130.257 148.743V140.448C130.257 139.681 129.952 138.945 129.409 138.402C128.866 137.86 128.13 137.555 127.362 137.555C126.594 137.555 125.858 137.86 125.315 138.402C124.772 138.945 124.467 139.681 124.467 140.448V148.74C124.468 149.857 124.248 150.964 123.82 151.996C123.393 153.028 122.766 153.966 121.975 154.756C121.185 155.546 120.247 156.172 119.214 156.6C118.181 157.027 117.074 157.247 115.956 157.246H48.0403C45.783 157.246 43.6183 156.35 42.0222 154.755C40.4261 153.16 39.5294 150.996 39.5294 148.74V107.602H51.3937C52.1615 107.602 52.8979 107.297 53.4408 106.754C53.9837 106.212 54.2887 105.476 54.2887 104.708V91.5463C54.2887 90.779 53.9837 90.043 53.4408 89.5004C52.8979 88.9578 52.1615 88.653 51.3937 88.653H39.5294V14.3903C39.5294 12.1344 40.4261 9.97081 42.0222 8.37563C43.6183 6.78044 45.783 5.88429 48.0403 5.88429H115.96C118.216 5.88695 120.379 6.78403 121.974 8.37873C123.569 9.97343 124.465 12.1355 124.467 14.3903V39.7009H112.606C111.838 39.7009 111.102 40.0058 110.559 40.5484C110.016 41.091 109.711 41.8268 109.711 42.5942V55.7563C109.711 56.5236 110.016 57.2596 110.559 57.8022C111.102 58.3448 111.838 58.6495 112.606 58.6495H124.467V81.7526C124.468 82.5197 124.773 83.255 125.316 83.7974C125.859 84.3398 126.595 84.645 127.362 84.6459C128.13 84.6459 128.866 84.341 129.409 83.7984C129.952 83.2558 130.257 82.52 130.257 81.7526V58.6329H143.229V62.6467C143.229 63.2104 143.393 63.7619 143.702 64.2332C144.011 64.7046 144.452 65.0751 144.97 65.2991C145.334 65.4574 145.727 65.5395 146.124 65.54C146.856 65.5386 147.561 65.2601 148.095 64.7606L162.584 51.2841C162.875 51.0129 163.107 50.6847 163.266 50.3199C163.425 49.955 163.507 49.5614 163.507 49.1635C163.506 48.7683 163.423 48.3776 163.264 48.0157C163.105 47.6538 162.873 47.3284 162.584 47.0596ZM109.37 74.9592C109.541 71.2598 108.961 67.564 107.663 64.0951C106.366 60.6261 104.379 57.4558 101.821 54.7758C99.2638 52.0958 96.1895 49.9617 92.7839 48.5021C89.3784 47.0425 85.7122 46.2878 82.0067 46.2837C80.1688 46.2819 78.3355 46.4656 76.5347 46.8321C75.8843 46.9683 75.3008 47.3245 74.8826 47.8406C74.4644 48.3567 74.237 49.0012 74.2388 49.6653C74.2393 50.0949 74.3354 50.519 74.5204 50.9069C74.7053 51.2947 74.9744 51.6366 75.308 51.9075C75.6416 52.1785 76.0314 52.3718 76.4491 52.4735C76.8668 52.5751 77.3019 52.5824 77.7228 52.495C79.1332 52.2123 80.5682 52.07 82.0067 52.0702C84.9815 52.0733 87.9236 52.6898 90.6492 53.8811C93.3747 55.0725 95.8249 56.8132 97.8466 58.9941C99.8684 61.1751 101.418 63.7496 102.399 66.5565C103.38 69.3634 103.77 72.3424 103.547 75.3071C103.143 80.4419 100.921 85.2645 97.2788 88.9086C93.6368 92.5528 88.814 94.7797 83.6767 95.1889C80.7087 95.4155 77.7259 95.0271 74.915 94.0483C72.1041 93.0694 69.5257 91.5209 67.3413 89.5C65.1569 87.4792 63.4134 85.0294 62.2202 82.304C61.0269 79.5786 60.4095 76.6362 60.4066 73.6612C60.4033 71.8508 60.6282 70.0471 61.0759 68.2928C61.1797 67.8677 61.1851 67.4247 61.0919 66.9972C60.9987 66.5697 60.8092 66.169 60.5379 65.8256C60.2666 65.4823 59.9206 65.2051 59.5261 65.0154C59.1316 64.8256 58.6991 64.7283 58.2613 64.7306C57.6185 64.7295 56.9937 64.9423 56.4853 65.3353C55.9769 65.7284 55.6139 66.2793 55.4534 66.9013C54.8909 69.1106 54.6076 71.3816 54.61 73.6612C54.614 77.3661 55.3696 81.0317 56.8311 84.4365C58.2925 87.8413 60.4295 90.9146 63.1128 93.4707C65.7962 96.0269 68.9702 98.0128 72.4431 99.3084C75.916 100.604 79.6157 101.183 83.3186 101.009C90.1188 100.66 96.5475 97.8015 101.359 92.9863C106.171 88.1712 109.023 81.7426 109.363 74.9458L109.37 74.9592ZM75.7984 141.425C75.0309 141.426 74.295 141.731 73.7523 142.273C73.2096 142.816 72.9043 143.551 72.9034 144.318C72.9034 145.086 73.2084 145.821 73.7514 146.364C74.2943 146.907 75.0306 147.212 75.7984 147.212H88.2116C88.9794 147.212 89.7157 146.907 90.2586 146.364C90.8016 145.821 91.1066 145.086 91.1066 144.318C91.1066 143.551 90.8016 142.815 90.2586 142.272C89.7157 141.73 88.9794 141.425 88.2116 141.425H75.7984ZM88.2116 141.425H75.7984C75.0309 141.426 74.295 141.731 73.7523 142.273C73.2096 142.816 72.9043 143.551 72.9034 144.318C72.9034 145.086 73.2084 145.821 73.7514 146.364C74.2943 146.907 75.0306 147.212 75.7984 147.212H88.2116C88.9794 147.212 89.7157 146.907 90.2586 146.364C90.8016 145.821 91.1066 145.086 91.1066 144.318C91.1083 143.937 91.0345 143.558 90.8894 143.205C90.7443 142.852 90.5307 142.532 90.261 142.261C89.9913 141.991 89.6708 141.777 89.3179 141.631C88.965 141.485 88.5868 141.411 88.2049 141.412L88.2116 141.425ZM82.0067 46.2837C80.1688 46.2819 78.3355 46.4656 76.5347 46.8321C75.8843 46.9683 75.3008 47.3245 74.8826 47.8406C74.4644 48.3567 74.237 49.0012 74.2388 49.6653C74.2393 50.0949 74.3354 50.519 74.5204 50.9069C74.7053 51.2947 74.9744 51.6366 75.308 51.9075C75.6416 52.1785 76.0314 52.3718 76.4491 52.4735C76.8668 52.5751 77.3019 52.5824 77.7228 52.495C79.1332 52.2123 80.5682 52.07 82.0067 52.0702C84.9815 52.0733 87.9236 52.6898 90.6492 53.8811C93.3747 55.0725 95.8249 56.8132 97.8466 58.9941C99.8684 61.1751 101.418 63.7496 102.399 66.5565C103.38 69.3634 103.77 72.3424 103.547 75.3071C103.143 80.4419 100.921 85.2645 97.2788 88.9086C93.6368 92.5528 88.814 94.7797 83.6767 95.1889C80.7087 95.4155 77.7259 95.0271 74.915 94.0483C72.1041 93.0694 69.5257 91.5209 67.3413 89.5C65.1569 87.4792 63.4134 85.0294 62.2202 82.304C61.0269 79.5786 60.4095 76.6362 60.4066 73.6612C60.4033 71.8508 60.6282 70.0471 61.0759 68.2928C61.1797 67.8677 61.1851 67.4247 61.0919 66.9972C60.9987 66.5697 60.8092 66.169 60.5379 65.8256C60.2666 65.4823 59.9206 65.2051 59.5261 65.0154C59.1316 64.8256 58.6991 64.7283 58.2613 64.7306C57.6203 64.7291 56.997 64.9405 56.4893 65.3316C55.9817 65.7227 55.6184 66.2714 55.4567 66.8913C54.7747 69.5677 54.5006 72.3314 54.6434 75.0895C55.0179 81.866 57.8893 88.2642 62.704 93.0502C67.5187 97.8362 73.9358 100.671 80.7181 101.009C84.4184 101.178 88.1147 100.597 91.5839 99.2993C95.0531 98.0017 98.2232 96.0151 100.903 93.4593C103.583 90.9036 105.717 87.8317 107.176 84.429C108.635 81.0263 109.39 77.3633 109.393 73.6612C109.389 66.4004 106.502 59.438 101.366 54.3025C96.23 49.167 89.265 46.2782 82 46.2703L82.0067 46.2837ZM82.0067 46.2837C80.1688 46.2819 78.3355 46.4656 76.5347 46.8321C75.8843 46.9683 75.3008 47.3245 74.8826 47.8406C74.4644 48.3567 74.237 49.0012 74.2388 49.6653C74.2393 50.0949 74.3354 50.519 74.5204 50.9069C74.7053 51.2947 74.9744 51.6366 75.308 51.9075C75.6416 52.1785 76.0314 52.3718 76.4491 52.4735C76.8668 52.5751 77.3019 52.5824 77.7228 52.495C79.1332 52.2123 80.5682 52.07 82.0067 52.0702C84.9815 52.0733 87.9236 52.6898 90.6492 53.8811C93.3747 55.0725 95.8249 56.8132 97.8466 58.9941C99.8684 61.1751 101.418 63.7496 102.399 66.5565C103.38 69.3634 103.77 72.3424 103.547 75.3071C103.143 80.4419 100.921 85.2645 97.2788 88.9086C93.6368 92.5528 88.814 94.7797 83.6767 95.1889C80.7087 95.4155 77.7259 95.0271 74.915 94.0483C72.1041 93.0694 69.5257 91.5209 67.3413 89.5C65.1569 87.4792 63.4134 85.0294 62.2202 82.304C61.0269 79.5786 60.4095 76.6362 60.4066 73.6612C60.4033 71.8508 60.6282 70.0471 61.0759 68.2928C61.1797 67.8677 61.1851 67.4247 61.0919 66.9972C60.9987 66.5697 60.8092 66.169 60.5379 65.8256C60.2666 65.4823 59.9206 65.2051 59.5261 65.0154C59.1316 64.8256 58.6991 64.7283 58.2613 64.7306C57.6203 64.7291 56.997 64.9405 56.4893 65.3316C55.9817 65.7227 55.6184 66.2714 55.4567 66.8913C54.7747 69.5677 54.5006 72.3314 54.6434 75.0895C55.0179 81.866 57.8893 88.2642 62.704 93.0502C67.5187 97.8362 73.9358 100.671 80.7181 101.009C84.4184 101.178 88.1147 100.597 91.5839 99.2993C95.0531 98.0017 98.2232 96.0151 100.903 93.4593C103.583 90.9036 105.717 87.8317 107.176 84.429C108.635 81.0263 109.39 77.3633 109.393 73.6612C109.389 66.4004 106.502 59.438 101.366 54.3025C96.23 49.167 89.265 46.2782 82 46.2703L82.0067 46.2837ZM88.2116 141.425H75.7984C75.0309 141.426 74.295 141.731 73.7523 142.273C73.2096 142.816 72.9043 143.551 72.9034 144.318C72.9034 145.086 73.2084 145.821 73.7514 146.364C74.2943 146.907 75.0306 147.212 75.7984 147.212H88.2116C88.9794 147.212 89.7157 146.907 90.2586 146.364C90.8016 145.821 91.1066 145.086 91.1066 144.318C91.1083 143.937 91.0345 143.558 90.8894 143.205C90.7443 142.852 90.5307 142.532 90.261 142.261C89.9913 141.991 89.6708 141.777 89.3179 141.631C88.965 141.485 88.5868 141.411 88.2049 141.412L88.2116 141.425ZM88.2116 141.425H75.7984C75.0309 141.426 74.295 141.731 73.7523 142.273C73.2096 142.816 72.9043 143.551 72.9034 144.318C72.9034 145.086 73.2084 145.821 73.7514 146.364C74.2943 146.907 75.0306 147.212 75.7984 147.212H88.2116C88.9794 147.212 89.7157 146.907 90.2586 146.364C90.8016 145.821 91.1066 145.086 91.1066 144.318C91.1083 143.937 91.0345 143.558 90.8894 143.205C90.7443 142.852 90.5307 142.532 90.261 142.261C89.9913 141.991 89.6708 141.777 89.3179 141.631C88.965 141.485 88.5868 141.411 88.2049 141.412L88.2116 141.425ZM82.0067 46.2837C80.1688 46.2819 78.3355 46.4656 76.5347 46.8321C75.8843 46.9683 75.3008 47.3245 74.8826 47.8406C74.4644 48.3567 74.237 49.0012 74.2388 49.6653C74.2393 50.0949 74.3354 50.519 74.5204 50.9069C74.7053 51.2947 74.9744 51.6366 75.308 51.9075C75.6416 52.1785 76.0314 52.3718 76.4491 52.4735C76.8668 52.5751 77.3019 52.5824 77.7228 52.495C79.1332 52.2123 80.5682 52.07 82.0067 52.0702C84.9815 52.0733 87.9236 52.6898 90.6492 53.8811C93.3747 55.0725 95.8249 56.8132 97.8466 58.9941C99.8684 61.1751 101.418 63.7496 102.399 66.5565C103.38 69.3634 103.77 72.3424 103.547 75.3071C103.143 80.4419 100.921 85.2645 97.2788 88.9086C93.6368 92.5528 88.814 94.7797 83.6767 95.1889C80.7087 95.4155 77.7259 95.0271 74.915 94.0483C72.1041 93.0694 69.5257 91.5209 67.3413 89.5C65.1569 87.4792 63.4134 85.0294 62.2202 82.304C61.0269 79.5786 60.4095 76.6362 60.4066 73.6612C60.4033 71.8508 60.6282 70.0471 61.0759 68.2928C61.1797 67.8677 61.1851 67.4247 61.0919 66.9972C60.9987 66.5697 60.8092 66.169 60.5379 65.8256C60.2666 65.4823 59.9206 65.2051 59.5261 65.0154C59.1316 64.8256 58.6991 64.7283 58.2613 64.7306C57.6203 64.7291 56.997 64.9405 56.4893 65.3316C55.9817 65.7227 55.6184 66.2714 55.4567 66.8913C54.7747 69.5677 54.5006 72.3314 54.6434 75.0895C55.0179 81.866 57.8893 88.2642 62.704 93.0502C67.5187 97.8362 73.9358 100.671 80.7181 101.009C84.4184 101.178 88.1147 100.597 91.5839 99.2993C95.0531 98.0017 98.2232 96.0151 100.903 93.4593C103.583 90.9036 105.717 87.8317 107.176 84.429C108.635 81.0263 109.39 77.3633 109.393 73.6612C109.389 66.4004 106.502 59.438 101.366 54.3025C96.23 49.167 89.265 46.2782 82 46.2703L82.0067 46.2837Z" fill="#9BE500"/>
<path d="M127.694 82.4121H127.017V140.466H127.694V82.4121Z" fill="#9BE500"/>
<path d="M142.476 43.0292V42.3535H130.371V43.0292H142.476Z" fill="#9BE500"/>
<path d="M33.0234 105.154V104.479H20.9181V105.154H33.0234Z" fill="#9BE500"/>
<path d="M58.2714 68.5202L57.6288 68.3763C58.4936 65.0657 59.8883 61.9166 61.7587 59.0508C64.5934 54.7493 69.7675 49.558 78.3219 49.2637L78.3453 49.9326C62.5084 50.4678 58.3249 68.3395 58.2714 68.5202Z" fill="#9BE500"/>
</svg>
