<svg width="162" height="162" viewBox="0 0 162 162" fill="none" xmlns="http://www.w3.org/2000/svg">
<g clip-path="url(#clip0_629_2265)">
<path d="M87.1747 140.517H74.8382C74.0754 140.518 73.3441 140.822 72.805 141.361C72.2659 141.901 71.9631 142.633 71.9631 143.395C71.9631 144.158 72.266 144.889 72.8052 145.428C73.3444 145.968 74.0757 146.271 74.8382 146.271H87.1747C87.5524 146.271 87.9264 146.197 88.2754 146.052C88.6245 145.908 88.9416 145.696 89.2086 145.429C89.4757 145.162 89.6875 144.845 89.8318 144.496C89.9762 144.147 90.0502 143.773 90.0498 143.395C90.0498 142.633 89.747 141.901 89.2079 141.361C88.6688 140.822 87.9375 140.518 87.1747 140.517ZM81.0081 45.9134C79.1813 45.9117 77.3591 46.0952 75.5693 46.4609C74.9205 46.5934 74.3376 46.9461 73.9193 47.4594C73.501 47.9727 73.2732 48.6149 73.2744 49.277C73.2747 49.7042 73.3702 50.126 73.5539 50.5117C73.7376 50.8974 74.005 51.2373 74.3365 51.5067C74.6681 51.7761 75.0555 51.9682 75.4706 52.069C75.8858 52.1699 76.3182 52.1771 76.7364 52.0899C78.1393 51.8068 79.5671 51.6651 80.9983 51.6669C83.9546 51.6703 86.8784 52.2836 89.5869 53.4684C92.2955 54.6531 94.7305 56.3838 96.7397 58.5524C98.749 60.7211 100.289 63.2809 101.264 66.0719C102.239 68.8628 102.628 71.8248 102.406 74.7728C102.004 79.8789 99.7951 84.6745 96.1754 88.2983C92.5558 91.9222 87.7627 94.1369 82.6571 94.5446C79.7074 94.7698 76.7431 94.3835 73.9496 93.41C71.1561 92.4366 68.5936 90.8968 66.4227 88.8872C64.2519 86.8776 62.5193 84.4414 61.3335 81.7312C60.1477 79.021 59.5343 76.0951 59.5316 73.1369C59.525 71.3374 59.7453 69.5442 60.1873 67.7997C60.291 67.377 60.2969 66.9361 60.2046 66.5107C60.1122 66.0853 59.9241 65.6866 59.6545 65.3449C59.3848 65.0032 59.0408 64.7275 58.6485 64.5387C58.2562 64.35 57.8261 64.2532 57.3908 64.2558C56.754 64.2541 56.1347 64.4642 55.6302 64.8529C55.1258 65.2416 54.7649 65.7869 54.6042 66.4031C53.9247 69.0645 53.6527 71.8135 53.7977 74.5564C54.1683 81.293 57.0195 87.654 61.8017 92.4132C66.5838 97.1723 72.9584 99.9928 79.6967 100.331C83.3752 100.499 87.0496 99.9194 90.498 98.6279C93.9464 97.3363 97.0973 95.3594 99.7605 92.8163C102.424 90.2733 104.544 87.2169 105.993 83.8317C107.442 80.4466 108.19 76.8028 108.192 73.1205C108.18 65.9107 105.312 58.9996 100.215 53.9002C95.1179 48.8009 88.208 45.929 80.9983 45.9134H81.0081ZM87.1747 140.517H74.8382C74.0754 140.518 73.3441 140.822 72.805 141.361C72.2659 141.901 71.9631 142.633 71.9631 143.395C71.9631 144.158 72.266 144.889 72.8052 145.428C73.3444 145.968 74.0757 146.271 74.8382 146.271H87.1747C87.5524 146.271 87.9264 146.197 88.2754 146.052C88.6245 145.908 88.9416 145.696 89.2086 145.429C89.4757 145.162 89.6875 144.845 89.8318 144.496C89.9762 144.147 90.0502 143.773 90.0498 143.395C90.0498 142.633 89.747 141.901 89.2079 141.361C88.6688 140.822 87.9375 140.518 87.1747 140.517ZM81.0081 45.9134C79.1813 45.9117 77.3591 46.0952 75.5693 46.4609C74.9205 46.5934 74.3376 46.9461 73.9193 47.4594C73.501 47.9727 73.2732 48.6149 73.2744 49.277C73.2747 49.7042 73.3702 50.126 73.5539 50.5117C73.7376 50.8974 74.005 51.2373 74.3365 51.5067C74.6681 51.7761 75.0555 51.9682 75.4706 52.069C75.8858 52.1699 76.3182 52.1771 76.7364 52.0899C78.1393 51.8068 79.5671 51.6651 80.9983 51.6669C83.9546 51.6703 86.8784 52.2836 89.5869 53.4684C92.2955 54.6531 94.7305 56.3838 96.7397 58.5524C98.749 60.7211 100.289 63.2809 101.264 66.0719C102.239 68.8628 102.628 71.8248 102.406 74.7728C102.004 79.8789 99.7951 84.6745 96.1754 88.2983C92.5558 91.9222 87.7627 94.1369 82.6571 94.5446C79.7074 94.7698 76.7431 94.3835 73.9496 93.41C71.1561 92.4366 68.5936 90.8968 66.4227 88.8872C64.2519 86.8776 62.5193 84.4414 61.3335 81.7312C60.1477 79.021 59.5343 76.0951 59.5316 73.1369C59.525 71.3374 59.7453 69.5442 60.1873 67.7997C60.291 67.377 60.2969 66.9361 60.2046 66.5107C60.1122 66.0853 59.9241 65.6866 59.6545 65.3449C59.3848 65.0032 59.0408 64.7275 58.6485 64.5387C58.2562 64.35 57.8261 64.2532 57.3908 64.2558C56.754 64.2541 56.1347 64.4642 55.6302 64.8529C55.1258 65.2416 54.7649 65.7869 54.6042 66.4031C53.9247 69.0645 53.6527 71.8135 53.7977 74.5564C54.1683 81.293 57.0195 87.654 61.8017 92.4132C66.5838 97.1723 72.9584 99.9928 79.6967 100.331C83.3752 100.499 87.0496 99.9194 90.498 98.6279C93.9464 97.3363 97.0973 95.3594 99.7605 92.8163C102.424 90.2733 104.544 87.2169 105.993 83.8317C107.442 80.4466 108.19 76.8028 108.192 73.1205C108.18 65.9107 105.312 58.9996 100.215 53.9002C95.1179 48.8009 88.208 45.929 80.9983 45.9134H81.0081ZM81.0081 45.9134C79.1813 45.9117 77.3591 46.0952 75.5693 46.4609C74.9205 46.5934 74.3376 46.9461 73.9193 47.4594C73.501 47.9727 73.2732 48.6149 73.2744 49.277C73.2747 49.7042 73.3702 50.126 73.5539 50.5117C73.7376 50.8974 74.005 51.2373 74.3365 51.5067C74.6681 51.7761 75.0555 51.9682 75.4706 52.069C75.8858 52.1699 76.3182 52.1771 76.7364 52.0899C78.1393 51.8068 79.5671 51.6651 80.9983 51.6669C83.9546 51.6703 86.8784 52.2836 89.5869 53.4684C92.2955 54.6531 94.7305 56.3838 96.7397 58.5524C98.749 60.7211 100.289 63.2809 101.264 66.0719C102.239 68.8628 102.628 71.8248 102.406 74.7728C102.004 79.8789 99.7951 84.6745 96.1754 88.2983C92.5558 91.9222 87.7627 94.1369 82.6571 94.5446C79.7074 94.7698 76.7431 94.3835 73.9496 93.41C71.1561 92.4366 68.5936 90.8968 66.4227 88.8872C64.2519 86.8776 62.5193 84.4414 61.3335 81.7312C60.1477 79.021 59.5343 76.0951 59.5316 73.1369C59.525 71.3374 59.7453 69.5442 60.1873 67.7997C60.291 67.377 60.2969 66.9361 60.2046 66.5107C60.1122 66.0853 59.9241 65.6866 59.6545 65.3449C59.3848 65.0032 59.0408 64.7275 58.6485 64.5387C58.2562 64.35 57.8261 64.2532 57.3908 64.2558C56.754 64.2541 56.1347 64.4642 55.6302 64.8529C55.1258 65.2416 54.7649 65.7869 54.6042 66.4031C53.9247 69.0645 53.6527 71.8135 53.7977 74.5564C54.1683 81.293 57.0195 87.654 61.8017 92.4132C66.5838 97.1723 72.9584 99.9928 79.6967 100.331C83.3752 100.499 87.0496 99.9194 90.498 98.6279C93.9464 97.3363 97.0973 95.3594 99.7605 92.8163C102.424 90.2733 104.544 87.2169 105.993 83.8317C107.442 80.4466 108.19 76.8028 108.192 73.1205C108.18 65.9107 105.312 58.9996 100.215 53.9002C95.1179 48.8009 88.208 45.929 80.9983 45.9134H81.0081ZM87.1747 140.517H74.8382C74.0754 140.518 73.3441 140.822 72.805 141.361C72.2659 141.901 71.9631 142.633 71.9631 143.395C71.9631 144.158 72.266 144.889 72.8052 145.428C73.3444 145.968 74.0757 146.271 74.8382 146.271H87.1747C87.5524 146.271 87.9264 146.197 88.2754 146.052C88.6245 145.908 88.9416 145.696 89.2086 145.429C89.4757 145.162 89.6875 144.845 89.8318 144.496C89.9762 144.147 90.0502 143.773 90.0498 143.395C90.0498 142.633 89.747 141.901 89.2079 141.361C88.6688 140.822 87.9375 140.518 87.1747 140.517ZM87.1747 140.517H74.8382C74.0754 140.518 73.3441 140.822 72.805 141.361C72.2659 141.901 71.9631 142.633 71.9631 143.395C71.9631 144.158 72.266 144.889 72.8052 145.428C73.3444 145.968 74.0757 146.271 74.8382 146.271H87.1747C87.5524 146.271 87.9264 146.197 88.2754 146.052C88.6245 145.908 88.9416 145.696 89.2086 145.429C89.4757 145.162 89.6875 144.845 89.8318 144.496C89.9762 144.147 90.0502 143.773 90.0498 143.395C90.0498 142.633 89.747 141.901 89.2079 141.361C88.6688 140.822 87.9375 140.518 87.1747 140.517ZM81.0081 45.9134C79.1813 45.9117 77.3591 46.0952 75.5693 46.4609C74.9205 46.5934 74.3376 46.9461 73.9193 47.4594C73.501 47.9727 73.2732 48.6149 73.2744 49.277C73.2747 49.7042 73.3702 50.126 73.5539 50.5117C73.7376 50.8974 74.005 51.2373 74.3365 51.5067C74.6681 51.7761 75.0555 51.9682 75.4706 52.069C75.8858 52.1699 76.3182 52.1771 76.7364 52.0899C78.1393 51.8068 79.5671 51.6651 80.9983 51.6669C83.9546 51.6703 86.8784 52.2836 89.5869 53.4684C92.2955 54.6531 94.7305 56.3838 96.7397 58.5524C98.749 60.7211 100.289 63.2809 101.264 66.0719C102.239 68.8628 102.628 71.8248 102.406 74.7728C102.004 79.8789 99.7951 84.6745 96.1754 88.2983C92.5558 91.9222 87.7627 94.1369 82.6571 94.5446C79.7074 94.7698 76.7431 94.3835 73.9496 93.41C71.1561 92.4366 68.5936 90.8968 66.4227 88.8872C64.2519 86.8776 62.5193 84.4414 61.3335 81.7312C60.1477 79.021 59.5343 76.0951 59.5316 73.1369C59.525 71.3374 59.7453 69.5442 60.1873 67.7997C60.291 67.377 60.2969 66.9361 60.2046 66.5107C60.1122 66.0853 59.9241 65.6866 59.6545 65.3449C59.3848 65.0032 59.0408 64.7275 58.6485 64.5387C58.2562 64.35 57.8261 64.2532 57.3908 64.2558C56.754 64.2541 56.1347 64.4642 55.6302 64.8529C55.1258 65.2416 54.7649 65.7869 54.6042 66.4031C53.9247 69.0645 53.6527 71.8135 53.7977 74.5564C54.1683 81.293 57.0195 87.654 61.8017 92.4132C66.5838 97.1723 72.9584 99.9928 79.6967 100.331C83.3752 100.499 87.0496 99.9194 90.498 98.6279C93.9464 97.3363 97.0973 95.3594 99.7605 92.8163C102.424 90.2733 104.544 87.2169 105.993 83.8317C107.442 80.4466 108.19 76.8028 108.192 73.1205C108.18 65.9107 105.312 58.9996 100.215 53.9002C95.1179 48.8009 88.208 45.929 80.9983 45.9134H81.0081ZM81.0081 45.9134C79.1813 45.9117 77.3591 46.0952 75.5693 46.4609C74.9205 46.5934 74.3376 46.9461 73.9193 47.4594C73.501 47.9727 73.2732 48.6149 73.2744 49.277C73.2747 49.7042 73.3702 50.126 73.5539 50.5117C73.7376 50.8974 74.005 51.2373 74.3365 51.5067C74.6681 51.7761 75.0555 51.9682 75.4706 52.069C75.8858 52.1699 76.3182 52.1771 76.7364 52.0899C78.1393 51.8068 79.5671 51.6651 80.9983 51.6669C83.9546 51.6703 86.8784 52.2836 89.5869 53.4684C92.2955 54.6531 94.7305 56.3838 96.7397 58.5524C98.749 60.7211 100.289 63.2809 101.264 66.0719C102.239 68.8628 102.628 71.8248 102.406 74.7728C102.004 79.8789 99.7951 84.6745 96.1754 88.2983C92.5558 91.9222 87.7627 94.1369 82.6571 94.5446C79.7074 94.7698 76.7431 94.3835 73.9496 93.41C71.1561 92.4366 68.5936 90.8968 66.4227 88.8872C64.2519 86.8776 62.5193 84.4414 61.3335 81.7312C60.1477 79.021 59.5343 76.0951 59.5316 73.1369C59.525 71.3374 59.7453 69.5442 60.1873 67.7997C60.291 67.377 60.2969 66.9361 60.2046 66.5107C60.1122 66.0853 59.9241 65.6866 59.6545 65.3449C59.3848 65.0032 59.0408 64.7275 58.6485 64.5387C58.2562 64.35 57.8261 64.2532 57.3908 64.2558C56.754 64.2541 56.1347 64.4642 55.6302 64.8529C55.1258 65.2416 54.7649 65.7869 54.6042 66.4031C53.9247 69.0645 53.6527 71.8135 53.7977 74.5564C54.1683 81.293 57.0195 87.654 61.8017 92.4132C66.5838 97.1723 72.9584 99.9928 79.6967 100.331C83.3752 100.499 87.0496 99.9194 90.498 98.6279C93.9464 97.3363 97.0973 95.3594 99.7605 92.8163C102.424 90.2733 104.544 87.2169 105.993 83.8317C107.442 80.4466 108.19 76.8028 108.192 73.1205C108.18 65.9107 105.312 58.9996 100.215 53.9002C95.1179 48.8009 88.208 45.929 80.9983 45.9134H81.0081ZM87.1747 140.517H74.8382C74.0754 140.518 73.3441 140.822 72.805 141.361C72.2659 141.901 71.9631 142.633 71.9631 143.395C71.9631 144.158 72.266 144.889 72.8052 145.428C73.3444 145.968 74.0757 146.271 74.8382 146.271H87.1747C87.5524 146.271 87.9264 146.197 88.2754 146.052C88.6245 145.908 88.9416 145.696 89.2086 145.429C89.4757 145.162 89.6875 144.845 89.8318 144.496C89.9762 144.147 90.0502 143.773 90.0498 143.395C90.0498 142.633 89.747 141.901 89.2079 141.361C88.6688 140.822 87.9375 140.518 87.1747 140.517ZM161.092 46.6839L146.693 33.2786C146.284 32.8951 145.772 32.6403 145.219 32.5459C144.667 32.4514 144.098 32.5216 143.585 32.7476C143.074 32.9694 142.638 33.3356 142.331 33.8014C142.024 34.2672 141.859 34.8124 141.858 35.3702V39.36H127.62V45.1168H144.733C145.496 45.1168 146.227 44.814 146.767 44.2749C147.307 43.7358 147.61 43.0045 147.611 42.2417V41.9859L154.912 48.7787L147.611 55.578V55.3191C147.611 54.5557 147.308 53.8235 146.768 53.2837C146.228 52.7439 145.496 52.4407 144.733 52.4407H114.303V45.1168H129.033C129.796 45.1168 130.527 44.814 131.067 44.2749C131.607 43.7358 131.91 43.0045 131.911 42.2417C131.911 41.4783 131.608 40.7461 131.068 40.2063C130.528 39.6665 129.796 39.3633 129.033 39.3633H128.967V14.2051C128.967 10.4351 127.47 6.81947 124.804 4.15365C122.138 1.48783 118.522 -0.00976562 114.752 -0.00976562H47.2607C43.4906 -0.00976562 39.875 1.48783 37.2092 4.15365C34.5434 6.81947 33.0457 10.4351 33.0457 14.2051V88.0633H20.1618V84.0735C20.1608 83.513 19.9966 82.965 19.6892 82.4963C19.3818 82.0276 18.9445 81.6586 18.4308 81.4344C17.917 81.2114 17.3492 81.1432 16.7972 81.2381C16.2451 81.333 15.7328 81.587 15.323 81.9688L0.924363 95.374C0.635872 95.6435 0.405862 95.9693 0.248523 96.3314C0.0911826 96.6934 0.00993595 97.0839 0.00976913 97.4787C0.00915208 97.8736 0.0900135 98.2644 0.247402 98.6265C0.40479 98.9887 0.635249 99.3144 0.924363 99.5834L15.323 112.992C15.857 113.49 16.56 113.766 17.29 113.766C17.6848 113.765 18.0754 113.684 18.4374 113.526C18.9486 113.303 19.3841 112.937 19.6913 112.471C19.9985 112.006 20.1642 111.461 20.1684 110.904V106.914H33.9571V101.144H17.29C16.9121 101.144 16.5379 101.218 16.1889 101.363C15.8399 101.508 15.5228 101.72 15.2558 101.987C14.9888 102.254 14.777 102.572 14.6327 102.921C14.4884 103.27 14.4144 103.644 14.4149 104.022V104.278L7.11394 97.482L14.3952 90.686V90.945C14.3952 91.7075 14.6981 92.4387 15.2372 92.9779C15.7764 93.5171 16.5078 93.8201 17.2703 93.8201H47.7033V101.144H32.6229C31.86 101.145 31.1287 101.448 30.5896 101.988C30.0505 102.528 29.7477 103.259 29.7477 104.022C29.7477 104.785 30.0505 105.517 30.5896 106.056C31.1287 106.596 31.86 106.9 32.6229 106.901H33.0359V147.788C33.0359 149.655 33.4036 151.503 34.118 153.228C34.8325 154.952 35.8796 156.519 37.1996 157.839C38.5196 159.158 40.0867 160.205 41.8113 160.919C43.5359 161.633 45.3843 162 47.2508 162H114.749C118.517 162 122.131 160.503 124.796 157.838C127.46 155.174 128.957 151.56 128.957 147.792V139.533C128.957 139.155 128.883 138.781 128.738 138.432C128.594 138.083 128.382 137.765 128.114 137.498C127.847 137.231 127.53 137.019 127.18 136.874C126.831 136.73 126.457 136.655 126.079 136.655C125.316 136.656 124.585 136.96 124.046 137.499C123.507 138.039 123.204 138.771 123.204 139.533V147.779C123.203 150.022 122.311 152.173 120.724 153.76C119.138 155.346 116.986 156.237 114.742 156.237H47.2508C45.0073 156.237 42.8556 155.346 41.2689 153.76C39.6821 152.173 38.7903 150.022 38.7894 147.779V106.901H50.5915C51.3549 106.901 52.087 106.597 52.6268 106.058C53.1666 105.518 53.4699 104.786 53.4699 104.022V90.945C53.4699 90.1816 53.1666 89.4494 52.6268 88.9096C52.087 88.3698 51.3549 88.0665 50.5915 88.0665H38.7894V14.215C38.7903 11.9714 39.6821 9.82011 41.2689 8.23399C42.8556 6.64787 45.0073 5.75681 47.2508 5.75681H114.749C116.991 5.76028 119.14 6.65268 120.725 8.23823C122.31 9.82379 123.201 11.9731 123.204 14.215V39.3731H111.402C110.638 39.3731 109.906 39.6763 109.366 40.2161C108.827 40.7559 108.523 41.4881 108.523 42.2515V55.3288C108.523 56.0922 108.827 56.8244 109.366 57.3642C109.906 57.904 110.638 58.2072 111.402 58.2072H123.204V81.1787C123.204 81.9412 123.507 82.6726 124.046 83.2118C124.585 83.751 125.316 84.0538 126.079 84.0538C126.842 84.0538 127.573 83.751 128.113 83.2119C128.653 82.6728 128.956 81.9415 128.957 81.1787V58.2072H141.848V62.1971C141.846 62.7576 142.009 63.3063 142.316 63.7753C142.623 64.2444 143.061 64.6131 143.576 64.8361C143.937 64.994 144.328 65.0754 144.723 65.0754C145.453 65.0759 146.156 64.7995 146.69 64.3017L161.089 50.8965C161.378 50.6271 161.609 50.3009 161.767 49.9382C161.925 49.5755 162.007 49.1841 162.006 48.7885C162.005 48.3931 161.922 48.0022 161.763 47.6401C161.604 47.2781 161.372 46.9526 161.082 46.6839H161.092ZM108.202 74.4253C108.374 70.746 107.797 67.0702 106.509 63.6198C105.22 60.1694 103.245 57.0161 100.703 54.3504C98.1614 51.6846 95.1057 49.5617 91.7206 48.1099C88.3356 46.6581 84.6913 45.9075 81.0081 45.9036C79.1813 45.9018 77.3591 46.0853 75.5693 46.4511C74.9205 46.5835 74.3376 46.9363 73.9193 47.4496C73.501 47.9629 73.2732 48.605 73.2744 49.2672C73.2747 49.6944 73.3702 50.1161 73.5539 50.5018C73.7376 50.8875 74.005 51.2275 74.3365 51.4969C74.6681 51.7663 75.0555 51.9583 75.4706 52.0592C75.8858 52.1601 76.3182 52.1672 76.7364 52.08C78.1393 51.797 79.5671 51.6553 80.9983 51.6571C83.9546 51.6605 86.8784 52.2738 89.5869 53.4585C92.2955 54.6433 94.7305 56.374 96.7397 58.5426C98.749 60.7112 100.289 63.2711 101.264 66.062C102.239 68.853 102.628 71.815 102.406 74.7629C102.004 79.8691 99.7951 84.6647 96.1754 88.2885C92.5558 91.9123 87.7627 94.127 82.6571 94.5347C79.7074 94.7599 76.7431 94.3737 73.9496 93.4002C71.1561 92.4267 68.5936 90.8869 66.4227 88.8773C64.2519 86.8677 62.5193 84.4316 61.3335 81.7214C60.1477 79.0112 59.5343 76.0853 59.5316 73.1271C59.525 71.3275 59.7453 69.5343 60.1873 67.7899C60.291 67.3671 60.2969 66.9263 60.2046 66.5009C60.1122 66.0756 59.9241 65.6768 59.6545 65.3351C59.3848 64.9934 59.0408 64.7176 58.6485 64.5289C58.2562 64.3402 57.8261 64.2435 57.3908 64.246C56.7526 64.2459 56.1323 64.4576 55.6273 64.848C55.1224 65.2384 54.7614 65.7854 54.6009 66.4031C54.0408 68.6005 53.7588 70.8595 53.7617 73.1271C53.763 76.8118 54.5116 80.4581 55.9622 83.8453C57.4129 87.2325 59.5354 90.2903 62.2015 92.8338C64.8676 95.3773 68.0219 97.3537 71.4735 98.6434C74.9252 99.9331 78.6026 100.509 82.2834 100.337C89.0449 99.9959 95.4388 97.1561 100.226 92.3686C105.013 87.5811 107.852 81.1868 108.192 74.4253H108.202ZM74.8284 140.517C74.0656 140.518 73.3343 140.822 72.7952 141.361C72.2561 141.901 71.9533 142.633 71.9533 143.395C71.9533 144.158 72.2562 144.889 72.7954 145.428C73.3346 145.968 74.0658 146.271 74.8284 146.271H87.1747C87.5524 146.271 87.9264 146.197 88.2754 146.052C88.6245 145.908 88.9416 145.696 89.2086 145.429C89.4757 145.162 89.6875 144.845 89.8318 144.496C89.9762 144.147 90.0502 143.773 90.0498 143.395C90.0498 142.633 89.747 141.901 89.2079 141.361C88.6688 140.822 87.9375 140.518 87.1747 140.517H74.8284ZM87.1648 140.517H74.8284C74.0656 140.518 73.3343 140.822 72.7952 141.361C72.2561 141.901 71.9533 142.633 71.9533 143.395C71.9533 144.158 72.2562 144.889 72.7954 145.428C73.3346 145.968 74.0658 146.271 74.8284 146.271H87.1747C87.5524 146.271 87.9264 146.197 88.2754 146.052C88.6245 145.908 88.9416 145.696 89.2086 145.429C89.4757 145.162 89.6875 144.845 89.8318 144.496C89.9762 144.147 90.0502 143.773 90.0498 143.395C90.0498 142.633 89.747 141.901 89.2079 141.361C88.6688 140.822 87.9375 140.518 87.1747 140.517H87.1648ZM80.9983 45.9134C79.1715 45.9117 77.3492 46.0952 75.5594 46.4609C74.9107 46.5934 74.3277 46.9461 73.9095 47.4594C73.4912 47.9727 73.2633 48.6149 73.2646 49.277C73.2649 49.7042 73.3603 50.126 73.5441 50.5117C73.7278 50.8974 73.9951 51.2373 74.3267 51.5067C74.6583 51.7761 75.0457 51.9682 75.4608 52.069C75.876 52.1699 76.3083 52.1771 76.7266 52.0899C78.1295 51.8068 79.5572 51.6651 80.9884 51.6669C83.9447 51.6703 86.8686 52.2836 89.5771 53.4684C92.2857 54.6531 94.7207 56.3838 96.7299 58.5524C98.7391 60.7211 100.279 63.2809 101.254 66.0719C102.229 68.8628 102.618 71.8248 102.396 74.7728C101.994 79.8789 99.7852 84.6745 96.1656 88.2983C92.546 91.9222 87.7529 94.1369 82.6473 94.5446C79.6976 94.7698 76.7332 94.3835 73.9397 93.41C71.1462 92.4366 68.5838 90.8968 66.4129 88.8872C64.242 86.8776 62.5095 84.4414 61.3237 81.7312C60.1379 79.021 59.5244 76.0951 59.5218 73.1369C59.5152 71.3374 59.7354 69.5442 60.1774 67.7997C60.2811 67.377 60.287 66.9361 60.1947 66.5107C60.1024 66.0853 59.9143 65.6866 59.6446 65.3449C59.375 65.0032 59.0309 64.7275 58.6387 64.5387C58.2464 64.35 57.8163 64.2532 57.381 64.2558C56.7441 64.2541 56.1248 64.4642 55.6204 64.8529C55.1159 65.2416 54.755 65.7869 54.5944 66.4031C53.9148 69.0645 53.6429 71.8135 53.7879 74.5564C54.1585 81.293 57.0097 87.654 61.7918 92.4132C66.574 97.1723 72.9486 99.9928 79.6869 100.331C83.3654 100.499 87.0398 99.9194 90.4882 98.6279C93.9366 97.3363 97.0875 95.3594 99.7506 92.8163C102.414 90.2733 104.534 87.2169 105.983 83.8317C107.432 80.4466 108.18 76.8028 108.182 73.1205C108.17 65.9124 105.303 59.0027 100.208 53.9037C95.1136 48.8046 88.2063 45.9316 80.9983 45.9134ZM80.9983 45.9134C79.1715 45.9117 77.3492 46.0952 75.5594 46.4609C74.9107 46.5934 74.3277 46.9461 73.9095 47.4594C73.4912 47.9727 73.2633 48.6149 73.2646 49.277C73.2649 49.7042 73.3603 50.126 73.5441 50.5117C73.7278 50.8974 73.9951 51.2373 74.3267 51.5067C74.6583 51.7761 75.0457 51.9682 75.4608 52.069C75.876 52.1699 76.3083 52.1771 76.7266 52.0899C78.1295 51.8068 79.5572 51.6651 80.9884 51.6669C83.9447 51.6703 86.8686 52.2836 89.5771 53.4684C92.2857 54.6531 94.7207 56.3838 96.7299 58.5524C98.7391 60.7211 100.279 63.2809 101.254 66.0719C102.229 68.8628 102.618 71.8248 102.396 74.7728C101.994 79.8789 99.7852 84.6745 96.1656 88.2983C92.546 91.9222 87.7529 94.1369 82.6473 94.5446C79.6976 94.7698 76.7332 94.3835 73.9397 93.41C71.1462 92.4366 68.5838 90.8968 66.4129 88.8872C64.242 86.8776 62.5095 84.4414 61.3237 81.7312C60.1379 79.021 59.5244 76.0951 59.5218 73.1369C59.5152 71.3374 59.7354 69.5442 60.1774 67.7997C60.2811 67.377 60.287 66.9361 60.1947 66.5107C60.1024 66.0853 59.9143 65.6866 59.6446 65.3449C59.375 65.0032 59.0309 64.7275 58.6387 64.5387C58.2464 64.35 57.8163 64.2532 57.381 64.2558C56.7441 64.2541 56.1248 64.4642 55.6204 64.8529C55.1159 65.2416 54.755 65.7869 54.5944 66.4031C53.9148 69.0645 53.6429 71.8135 53.7879 74.5564C54.1585 81.293 57.0097 87.654 61.7918 92.4132C66.574 97.1723 72.9486 99.9928 79.6869 100.331C83.3654 100.499 87.0398 99.9194 90.4882 98.6279C93.9366 97.3363 97.0875 95.3594 99.7506 92.8163C102.414 90.2733 104.534 87.2169 105.983 83.8317C107.432 80.4466 108.18 76.8028 108.182 73.1205C108.17 65.9124 105.303 59.0027 100.208 53.9037C95.1136 48.8046 88.2063 45.9316 80.9983 45.9134ZM87.1747 140.517H74.8382C74.0754 140.518 73.3441 140.822 72.805 141.361C72.2659 141.901 71.9631 142.633 71.9631 143.395C71.9631 144.158 72.266 144.889 72.8052 145.428C73.3444 145.968 74.0757 146.271 74.8382 146.271H87.1747C87.5524 146.271 87.9264 146.197 88.2754 146.052C88.6245 145.908 88.9416 145.696 89.2086 145.429C89.4757 145.162 89.6875 144.845 89.8318 144.496C89.9762 144.147 90.0502 143.773 90.0498 143.395C90.0498 142.633 89.747 141.901 89.2079 141.361C88.6688 140.822 87.9375 140.518 87.1747 140.517ZM87.1747 140.517H74.8382C74.0754 140.518 73.3441 140.822 72.805 141.361C72.2659 141.901 71.9631 142.633 71.9631 143.395C71.9631 144.158 72.266 144.889 72.8052 145.428C73.3444 145.968 74.0757 146.271 74.8382 146.271H87.1747C87.5524 146.271 87.9264 146.197 88.2754 146.052C88.6245 145.908 88.9416 145.696 89.2086 145.429C89.4757 145.162 89.6875 144.845 89.8318 144.496C89.9762 144.147 90.0502 143.773 90.0498 143.395C90.0498 142.633 89.747 141.901 89.2079 141.361C88.6688 140.822 87.9375 140.518 87.1747 140.517ZM81.0081 45.9134C79.1813 45.9117 77.3591 46.0952 75.5693 46.4609C74.9205 46.5934 74.3376 46.9461 73.9193 47.4594C73.501 47.9727 73.2732 48.6149 73.2744 49.277C73.2747 49.7042 73.3702 50.126 73.5539 50.5117C73.7376 50.8974 74.005 51.2373 74.3365 51.5067C74.6681 51.7761 75.0555 51.9682 75.4706 52.069C75.8858 52.1699 76.3182 52.1771 76.7364 52.0899C78.1393 51.8068 79.5671 51.6651 80.9983 51.6669C83.9546 51.6703 86.8784 52.2836 89.5869 53.4684C92.2955 54.6531 94.7305 56.3838 96.7397 58.5524C98.749 60.7211 100.289 63.2809 101.264 66.0719C102.239 68.8628 102.628 71.8248 102.406 74.7728C102.004 79.8789 99.7951 84.6745 96.1754 88.2983C92.5558 91.9222 87.7627 94.1369 82.6571 94.5446C79.7074 94.7698 76.7431 94.3835 73.9496 93.41C71.1561 92.4366 68.5936 90.8968 66.4227 88.8872C64.2519 86.8776 62.5193 84.4414 61.3335 81.7312C60.1477 79.021 59.5343 76.0951 59.5316 73.1369C59.525 71.3374 59.7453 69.5442 60.1873 67.7997C60.291 67.377 60.2969 66.9361 60.2046 66.5107C60.1122 66.0853 59.9241 65.6866 59.6545 65.3449C59.3848 65.0032 59.0408 64.7275 58.6485 64.5387C58.2562 64.35 57.8261 64.2532 57.3908 64.2558C56.754 64.2541 56.1347 64.4642 55.6302 64.8529C55.1258 65.2416 54.7649 65.7869 54.6042 66.4031C53.9247 69.0645 53.6527 71.8135 53.7977 74.5564C54.1683 81.293 57.0195 87.654 61.8017 92.4132C66.5838 97.1723 72.9584 99.9928 79.6967 100.331C83.3752 100.499 87.0496 99.9194 90.498 98.6279C93.9464 97.3363 97.0973 95.3594 99.7605 92.8163C102.424 90.2733 104.544 87.2169 105.993 83.8317C107.442 80.4466 108.19 76.8028 108.192 73.1205C108.18 65.9107 105.312 58.9996 100.215 53.9002C95.1179 48.8009 88.208 45.929 80.9983 45.9134H81.0081Z" fill="#9BE500"/>
<path d="M126.41 81.8508H125.738V139.576H126.41V81.8508Z" fill="#9BE500"/>
<path d="M141.1 42.6909V42.0188H129.071V42.6909H141.1Z" fill="#9BE500"/>
<path d="M32.3281 104.462V103.79H20.2998V104.462H32.3281Z" fill="#9BE500"/>
<path d="M57.4174 68.039L56.7617 67.8948C57.6205 64.6021 59.0066 61.4701 60.8662 58.6203C63.6856 54.3584 68.8261 49.1852 77.3268 48.8901L77.3498 49.5458C61.6268 50.09 57.4567 67.8587 57.4174 68.039Z" fill="#9BE500"/>
</g>
<defs>
<clipPath id="clip0_629_2265">
<rect width="162" height="162" fill="white"/>
</clipPath>
</defs>
</svg>
