<svg width="36" height="36" viewBox="0 0 36 36" fill="none" xmlns="http://www.w3.org/2000/svg">
<path d="M20.415 18.3647C20.406 18.8399 20.2561 19.3017 19.9842 19.6915C19.7124 20.0814 19.331 20.3818 18.8883 20.5546C18.4456 20.7275 17.9615 20.765 17.4974 20.6624C17.0334 20.5598 16.6102 20.3217 16.2816 19.9784C15.953 19.635 15.7337 19.2018 15.6516 18.7337C15.5695 18.2656 15.6282 17.7836 15.8202 17.3489C16.0123 16.9142 16.3292 16.5463 16.7306 16.2919C17.132 16.0374 17.5999 15.9079 18.075 15.9197C18.7064 15.9431 19.3038 16.2114 19.7407 16.6679C20.1775 17.1243 20.4194 17.7329 20.415 18.3647Z" fill="white"/>
<path d="M22.1442 10.8496H14.0067C13.2015 10.8496 12.4293 11.1695 11.8599 11.7388C11.2906 12.3082 10.9707 13.0804 10.9707 13.8856V22.2061C10.9707 22.6048 11.0492 22.9996 11.2018 23.3679C11.3544 23.7363 11.578 24.071 11.8599 24.3529C12.1418 24.6348 12.4765 24.8584 12.8449 25.011C13.2132 25.1636 13.608 25.2421 14.0067 25.2421H22.1442C22.5429 25.2421 22.9377 25.1636 23.306 25.011C23.6744 24.8584 24.0091 24.6348 24.291 24.3529C24.5729 24.071 24.7965 23.7363 24.9491 23.3679C25.1017 22.9996 25.1802 22.6048 25.1802 22.2061V13.9006C25.1818 13.5008 25.1044 13.1045 24.9526 12.7346C24.8008 12.3647 24.5774 12.0284 24.2954 11.745C24.0134 11.4616 23.6782 11.2366 23.309 11.0829C22.9399 10.9293 22.544 10.85 22.1442 10.8496ZM18.0747 22.4341C17.2692 22.4523 16.4764 22.23 15.7978 21.7957C15.1191 21.3614 14.5852 20.7347 14.2642 19.9957C13.9433 19.2566 13.8498 18.4386 13.9958 17.6462C14.1417 16.8538 14.5205 16.1228 15.0837 15.5466C15.6469 14.9704 16.3691 14.575 17.1579 14.411C17.9468 14.247 18.7667 14.3218 19.5129 14.6258C20.2591 14.9298 20.8978 15.4492 21.3475 16.1178C21.7972 16.7864 22.0375 17.5739 22.0377 18.3796C22.0442 18.9062 21.9469 19.4289 21.7511 19.9178C21.5554 20.4067 21.2652 20.8522 20.8971 21.2288C20.529 21.6054 20.0902 21.9057 19.6059 22.1125C19.1216 22.3193 18.6013 22.4286 18.0747 22.4341ZM22.4787 14.3266C22.3797 14.3266 22.2817 14.3069 22.1905 14.2686C22.0992 14.2303 22.0165 14.1741 21.9472 14.1034C21.878 14.0327 21.8235 13.9489 21.787 13.8569C21.7505 13.7649 21.7327 13.6666 21.7347 13.5676C21.7347 13.3663 21.8147 13.1733 21.957 13.0309C22.0993 12.8886 22.2924 12.8086 22.4937 12.8086C22.695 12.8086 22.8881 12.8886 23.0304 13.0309C23.1727 13.1733 23.2527 13.3663 23.2527 13.5676C23.2557 13.6748 23.2355 13.7813 23.1935 13.8799C23.1514 13.9785 23.0886 14.0669 23.0093 14.139C22.9299 14.2111 22.8359 14.2651 22.7337 14.2975C22.6316 14.3299 22.5236 14.3398 22.4172 14.3266H22.4787Z" fill="white"/>
<path d="M18.0749 3.00019C14.0967 2.9803 10.2735 4.54157 7.44638 7.34055C4.61926 10.1395 3.01983 13.9469 2.99994 17.9252C2.98005 21.9034 4.54133 25.7266 7.34031 28.5538C10.1393 31.3809 13.9467 32.9803 17.9249 33.0002C19.8948 33.01 21.8473 32.6318 23.6709 31.8871C25.4946 31.1424 27.1537 30.0457 28.5535 28.6598C29.9534 27.2739 31.0665 25.6258 31.8294 23.8097C32.5924 21.9936 32.9901 20.045 32.9999 18.0752C33.0098 16.1054 32.6316 14.1529 31.8868 12.3292C31.1421 10.5056 30.0455 8.84646 28.6596 7.44662C27.2737 6.04678 25.6256 4.93362 23.8095 4.1707C21.9934 3.40778 20.0448 3.01004 18.0749 3.00019ZM27.1844 22.0532C27.1886 22.7261 27.0592 23.3932 26.8036 24.0158C26.5481 24.6383 26.1715 25.204 25.6957 25.6799C25.2199 26.1558 24.6544 26.5326 24.0319 26.7883C23.4094 27.044 22.7424 27.1737 22.0694 27.1697H14.0834C13.4105 27.1739 12.7434 27.0444 12.1209 26.7889C11.4983 26.5333 10.9327 26.1567 10.4567 25.6809C9.98082 25.2052 9.60407 24.6396 9.34833 24.0172C9.09259 23.3947 8.96296 22.7276 8.96694 22.0547V14.0672C8.96276 13.3942 9.0922 12.7272 9.34775 12.1046C9.60331 11.482 9.97989 10.9164 10.4557 10.4405C10.9315 9.96456 11.497 9.58781 12.1195 9.33207C12.7419 9.07634 13.409 8.9467 14.0819 8.95069H22.0694C22.7423 8.94671 23.4092 9.07629 24.0316 9.33194C24.6539 9.58758 25.2194 9.96419 25.6952 10.44C26.1709 10.9157 26.5476 11.4812 26.8032 12.1036C27.0588 12.7259 27.1884 13.3929 27.1844 14.0657V22.0532Z" fill="white"/>
</svg>
