<svg width="32" height="31" viewBox="0 0 32 31" fill="none" xmlns="http://www.w3.org/2000/svg">
<path d="M18.4956 15.8767C18.4863 16.3677 18.3313 16.8448 18.0505 17.2477C17.7696 17.6506 17.3755 17.961 16.918 18.1396C16.4605 18.3182 15.9603 18.3569 15.4808 18.2509C15.0013 18.1449 14.564 17.8989 14.2245 17.5441C13.8849 17.1893 13.6583 16.7417 13.5734 16.258C13.4886 15.7743 13.5492 15.2762 13.7477 14.827C13.9462 14.3778 14.2736 13.9977 14.6884 13.7348C15.1032 13.4719 15.5867 13.338 16.0777 13.3502C16.73 13.3744 17.3474 13.6517 17.7988 14.1233C18.2501 14.5949 18.5001 15.2238 18.4956 15.8767Z" fill="white"/>
<path d="M20.2821 8.11115H11.8735C11.0415 8.11115 10.2435 8.44167 9.65518 9.03C9.06685 9.61833 8.73633 10.4163 8.73633 11.2483V19.846C8.73633 20.258 8.81747 20.666 8.97513 21.0466C9.13279 21.4272 9.36387 21.773 9.65518 22.0644C9.94649 22.3557 10.2923 22.5868 10.6729 22.7444C11.0536 22.9021 11.4615 22.9832 11.8735 22.9832H20.2821C20.6941 22.9832 21.1021 22.9021 21.4827 22.7444C21.8633 22.5868 22.2091 22.3557 22.5004 22.0644C22.7918 21.773 23.0228 21.4272 23.1805 21.0466C23.3381 20.666 23.4193 20.258 23.4193 19.846V11.2638C23.4209 10.8506 23.341 10.4412 23.1841 10.059C23.0272 9.67676 22.7965 9.32926 22.505 9.03638C22.2136 8.74351 21.8672 8.51103 21.4858 8.35226C21.1043 8.19349 20.6953 8.11155 20.2821 8.11115ZM16.077 20.0816C15.2446 20.1004 14.4255 19.8708 13.7242 19.422C13.0229 18.9732 12.4712 18.3256 12.1396 17.5619C11.808 16.7982 11.7114 15.953 11.8622 15.1342C12.013 14.3154 12.4044 13.56 12.9864 12.9646C13.5684 12.3692 14.3146 11.9607 15.1297 11.7912C15.9449 11.6218 16.7921 11.699 17.5632 12.0131C18.3342 12.3273 18.9942 12.864 19.4589 13.5549C19.9236 14.2458 20.1719 15.0594 20.1721 15.892C20.1788 16.4362 20.0782 16.9763 19.876 17.4815C19.6737 17.9867 19.3739 18.447 18.9935 18.8362C18.6131 19.2253 18.1597 19.5356 17.6593 19.7493C17.1588 19.9631 16.6212 20.076 16.077 20.0816ZM20.6278 11.704C20.5255 11.704 20.4242 11.6836 20.33 11.644C20.2357 11.6044 20.1502 11.5464 20.0786 11.4734C20.007 11.4003 19.9507 11.3137 19.913 11.2187C19.8753 11.1236 19.8569 11.022 19.859 10.9197C19.859 10.7117 19.9416 10.5122 20.0887 10.3651C20.2358 10.2181 20.4353 10.1354 20.6433 10.1354C20.8513 10.1354 21.0508 10.2181 21.1979 10.3651C21.3449 10.5122 21.4276 10.7117 21.4276 10.9197C21.4306 11.0304 21.4098 11.1405 21.3663 11.2424C21.3229 11.3443 21.258 11.4356 21.176 11.5101C21.094 11.5846 20.9969 11.6405 20.8913 11.674C20.7857 11.7074 20.6742 11.7177 20.5642 11.704H20.6278Z" fill="white"/>
<path d="M16.0775 0.000194017C11.9667 -0.02036 8.01609 1.59294 5.09478 4.48518C2.17347 7.37743 0.520748 11.3117 0.500194 15.4225C0.47964 19.5333 2.09294 23.4839 4.98518 26.4052C7.87743 29.3265 11.8117 30.9793 15.9225 30.9998C17.958 31.01 19.9755 30.6191 21.8599 29.8496C23.7443 29.0801 25.4587 27.9469 26.9052 26.5148C28.3517 25.0827 29.502 23.3797 30.2903 21.5031C31.0786 19.6265 31.4896 17.613 31.4998 15.5775C31.51 13.542 31.1191 11.5245 30.3496 9.64008C29.5801 7.75566 28.4469 6.04127 27.0148 4.59478C25.5827 3.1483 23.8797 1.99804 22.0031 1.2097C20.1265 0.421363 18.113 0.0103713 16.0775 0.000194017ZM25.4905 19.688C25.4949 20.3834 25.3611 21.0727 25.097 21.716C24.833 22.3593 24.4438 22.9438 23.9522 23.4356C23.4605 23.9274 22.8762 24.3167 22.233 24.5809C21.5897 24.8452 20.9005 24.9792 20.2051 24.975H11.953C11.2576 24.9794 10.5683 24.8456 9.92502 24.5815C9.28172 24.3175 8.69724 23.9283 8.20546 23.4367C7.71367 22.945 7.32437 22.3607 7.06011 21.7175C6.79585 21.0742 6.6619 20.385 6.66602 19.6896V11.436C6.6617 10.7406 6.79545 10.0513 7.05952 9.40797C7.32359 8.76467 7.71272 8.18019 8.20436 7.68841C8.696 7.19662 9.28037 6.80732 9.92358 6.54306C10.5668 6.2788 11.2561 6.14485 11.9515 6.14897H20.2051C20.9003 6.14485 21.5895 6.27876 22.2326 6.54292C22.8757 6.80708 23.46 7.19624 23.9516 7.68786C24.4433 8.17948 24.8324 8.76378 25.0966 9.4069C25.3607 10.05 25.4946 10.7392 25.4905 11.4344V19.688Z" fill="white"/>
</svg>
