<svg width="61" height="118" viewBox="0 0 61 118" fill="none" xmlns="http://www.w3.org/2000/svg">
<path d="M14.2929 58.2929C13.9024 58.6834 13.9024 59.3166 14.2929 59.7071L20.6569 66.0711C21.0474 66.4616 21.6805 66.4616 22.0711 66.0711C22.4616 65.6805 22.4616 65.0474 22.0711 64.6569L16.4142 59L22.0711 53.3431C22.4616 52.9526 22.4616 52.3195 22.0711 51.9289C21.6805 51.5384 21.0474 51.5384 20.6569 51.9289L14.2929 58.2929ZM37 59L37 58L15 58L15 59L15 60L37 60L37 59Z" fill="#9747FF"/>
<path d="M2 0C34.5848 0 61 26.4152 61 59C61 91.5848 34.5848 118 2 118C1.33065 118 0.663967 117.987 0 117.965L0 0.0341797C0.663957 0.0120633 1.33066 0 2 0Z" fill="#D9D9D9" fill-opacity="0.1"/>
</svg>
