<svg width="32" height="31" viewBox="0 0 32 31" fill="none" xmlns="http://www.w3.org/2000/svg">
<path d="M16 0C7.43948 0 0.5 6.93948 0.5 15.5C0.5 24.0605 7.43948 31 16 31C24.5605 31 31.5 24.0605 31.5 15.5C31.5 6.93948 24.5605 0 16 0ZM12.2057 21.9244H9.06698V11.8236H12.2057V21.9244ZM10.617 10.5836C9.62562 10.5836 8.98464 9.88125 8.98464 9.0126C8.98464 8.1262 9.645 7.44484 10.6573 7.44484C11.6697 7.44484 12.2897 8.1262 12.3091 9.0126C12.3091 9.88125 11.6697 10.5836 10.617 10.5836ZM23.6693 21.9244H20.5305V16.3267C20.5305 15.0237 20.0752 14.1389 18.9402 14.1389C18.0731 14.1389 17.5581 14.7379 17.3304 15.3143C17.2465 15.5194 17.2255 15.81 17.2255 16.099V21.9228H14.0851V15.0447C14.0851 13.7837 14.0447 12.7294 14.0028 11.822H16.7298L16.8735 13.2251H16.9365C17.3498 12.5663 18.3621 11.5943 20.0558 11.5943C22.1209 11.5943 23.6693 12.978 23.6693 15.9521V21.9244Z" fill="white"/>
</svg>
