<svg width="107" height="41" viewBox="0 0 107 41" fill="none" xmlns="http://www.w3.org/2000/svg">
<path d="M86.4749 40.7146C97.79 40.7146 106.963 31.6003 106.963 20.3573C106.963 9.11427 97.79 0 86.4749 0C75.1598 0 65.9871 9.11427 65.9871 20.3573C65.9871 31.6003 75.1598 40.7146 86.4749 40.7146Z" fill="#9BE500"/>
<path d="M97.6532 10.1389V15.1469H85.2892L91.7985 21.8676L88.2202 25.4087L81.7982 18.7674V31.7753H76.7072L76.7654 13.362C76.785 12.6368 77.0784 11.9455 77.5872 11.4252C77.9835 11.0127 78.4613 10.6861 78.9908 10.466C79.5202 10.2458 80.0898 10.1369 80.6637 10.1461L97.6532 10.1389Z" fill="#00354E"/>
<path d="M53.4849 40.7146C64.8 40.7146 73.9727 31.6003 73.9727 20.3573C73.9727 9.11427 64.8 0 53.4849 0C42.1698 0 32.9971 9.11427 32.9971 20.3573C32.9971 31.6003 42.1698 40.7146 53.4849 40.7146Z" fill="#9BE500"/>
<path d="M64.5179 16.7368C64.0121 15.4654 63.2721 14.2988 62.336 13.2969C61.3986 12.3174 60.2702 11.538 59.0196 11.0061C57.542 10.44 55.9703 10.1556 54.3867 10.1678H47.1138C46.0684 10.1678 45.0657 10.5805 44.3265 11.315C43.5872 12.0496 43.1719 13.0458 43.1719 14.0846V14.3809V31.7247H54.3649C55.9477 31.7357 57.5187 31.4539 58.9977 30.8937C60.2503 30.348 61.3822 29.5621 62.3287 28.5812C63.2687 27.5822 64.0091 26.4149 64.5106 25.1413C65.5676 22.4332 65.5676 19.4304 64.5106 16.7223L64.5179 16.7368ZM48.2121 15.1686H55.1722C55.8377 15.16 56.4982 15.2828 57.1155 15.5299C57.7328 15.777 58.2946 16.1434 58.7682 16.608C59.2418 17.0726 59.6179 17.6259 59.8745 18.2361C60.1312 18.8462 60.2633 19.5009 60.2633 20.1622V21.6942C60.2691 22.3601 60.1413 23.0205 59.8875 23.6369C59.6338 24.2532 59.259 24.8132 58.7851 25.2841C58.3112 25.755 57.7476 26.1274 57.1273 26.3795C56.507 26.6317 55.8424 26.7586 55.1722 26.7528H48.2121V15.1686Z" fill="#00354E"/>
<path d="M20.4878 40.7146C31.8028 40.7146 40.9755 31.6003 40.9755 20.3573C40.9755 9.11427 31.8028 0 20.4878 0C9.17269 0 0 9.11427 0 20.3573C0 31.6003 9.17269 40.7146 20.4878 40.7146Z" fill="#9BE500"/>
<path d="M31.4405 15.1686H22.8148V31.7464H17.7747V15.1686H9.15634C9.15634 13.8423 9.68657 12.5703 10.6304 11.6325C11.5743 10.6947 12.8544 10.1678 14.1892 10.1678H31.4405V15.1686Z" fill="#00354E"/>
</svg>
