<svg width="142" height="142" viewBox="0 0 142 142" fill="none" xmlns="http://www.w3.org/2000/svg">
<g clip-path="url(#clip0_946_7527)">
<path d="M139.634 82.8349H132.375L127.806 16.4076C127.763 15.8082 127.495 15.2471 127.055 14.8375C126.616 14.428 126.037 14.2006 125.436 14.2012H111.238C110.632 14.1967 110.047 14.4246 109.604 14.8381C109.161 15.2515 108.893 15.8191 108.855 16.424L108.656 19.3191C108.634 19.6429 108.679 19.9677 108.788 20.2735C108.897 20.5793 109.067 20.8595 109.289 21.0967C109.51 21.3338 109.778 21.523 110.076 21.6523C110.374 21.7817 110.695 21.8485 111.019 21.8487C111.619 21.8492 112.198 21.6216 112.636 21.2119C113.075 20.8022 113.342 20.2411 113.382 19.6422L113.431 18.9503H123.223L127.633 82.8512H109.028L110.742 58.0455C110.764 57.7217 110.719 57.3968 110.61 57.091C110.501 56.7852 110.331 56.5051 110.109 56.2679C109.888 56.0308 109.62 55.8416 109.322 55.7123C109.024 55.5829 108.703 55.5161 108.379 55.5159C107.779 55.5161 107.202 55.7436 106.763 56.1524C106.325 56.5612 106.058 57.121 106.016 57.7191L104.286 82.8512H99.3898V68.7348C99.4065 68.2169 99.2572 67.7072 98.9635 67.2803C98.6699 66.8534 98.2475 66.5316 97.7579 66.3619C97.3865 66.2462 96.9924 66.2232 96.6101 66.2949C96.2277 66.3666 95.8688 66.5308 95.5645 66.7732L75.746 82.6293V68.7054C75.7548 68.1897 75.5992 67.6845 75.3017 67.2632C75.0041 66.8418 74.5802 66.5262 74.0912 66.3619C73.7198 66.2462 73.3257 66.2232 72.9434 66.2949C72.5611 66.3666 72.2021 66.5308 71.8979 66.7732L52.0794 82.6293V68.7054C52.0886 68.1905 51.9339 67.6859 51.6377 67.2647C51.3414 66.8434 50.9188 66.5273 50.4311 66.3619C50.0597 66.2462 49.6656 66.2232 49.2833 66.2949C48.9009 66.3666 48.542 66.5308 48.2377 66.7732L28.4192 82.6293V68.7119C28.4276 68.1501 28.2414 67.6027 27.8922 67.1624C27.543 66.7222 27.0523 66.4164 26.5033 66.2967C25.9287 66.1856 25.3333 66.2914 24.8321 66.5937L1.16551 80.795C0.815207 81.0048 0.525219 81.3018 0.323869 81.657C0.122518 82.0122 0.0166701 82.4135 0.0166016 82.8218V139.614C0.0166016 140.241 0.265547 140.842 0.70871 141.285C1.15187 141.728 1.75295 141.977 2.37967 141.977H10.9834C11.6107 141.976 12.212 141.727 12.6556 141.283C13.0992 140.84 13.3488 140.238 13.3497 139.611C13.3488 138.983 13.0992 138.382 12.6556 137.938C12.212 137.495 11.6107 137.245 10.9834 137.244H4.73621V84.1764L23.6669 72.8147V87.5774C23.6669 88.2053 23.9162 88.8075 24.3598 89.2518C24.8035 89.6961 25.4054 89.9461 26.0333 89.947C26.5718 89.9472 27.0944 89.7641 27.5151 89.428L47.3336 73.5687V87.5774C47.3336 88.2053 47.5828 88.8075 48.0265 89.2518C48.4701 89.6961 49.0721 89.9461 49.6999 89.947C50.2375 89.9475 50.7592 89.7644 51.1785 89.428L71.0003 73.5719V87.5121C70.9924 87.9853 71.1236 88.4504 71.3778 88.8497C71.6319 89.2489 71.9978 89.5646 72.4299 89.7577C72.8244 89.9264 73.2573 89.9852 73.6826 89.9277C74.1078 89.8702 74.5096 89.6987 74.8452 89.4313L94.6669 73.5752V85.2143C94.6669 85.8419 94.9162 86.4438 95.36 86.8876C95.8038 87.3313 96.4057 87.5807 97.0333 87.5807H137.268V89.4803C137.268 90.1076 137.518 90.709 137.962 91.1526C138.405 91.5962 139.007 91.8458 139.634 91.8466C140.261 91.8458 140.863 91.5962 141.306 91.1526C141.75 90.709 141.999 90.1076 142 89.4803V85.2143C142.002 84.9025 141.942 84.5933 141.824 84.3047C141.706 84.0161 141.532 83.7538 141.312 83.5326C141.092 83.3115 140.83 83.136 140.543 83.0163C140.255 82.8965 139.946 82.8349 139.634 82.8349ZM137.268 117.201V137.267H99.4062V106.508C99.4053 105.88 99.1552 105.278 98.7109 104.835C98.2666 104.391 97.6644 104.142 97.0366 104.142H78.1058C77.4785 104.143 76.8771 104.392 76.4335 104.836C75.9899 105.279 75.7403 105.881 75.7395 106.508V137.274H70.1908C69.5635 137.275 68.9621 137.524 68.5185 137.968C68.0749 138.411 67.8254 139.013 67.8245 139.64C67.8254 140.267 68.0749 140.869 68.5185 141.312C68.9621 141.756 69.5635 142.006 70.1908 142.006H139.624C139.935 142.007 140.242 141.946 140.529 141.828C140.817 141.709 141.077 141.535 141.297 141.316C141.517 141.096 141.691 140.835 141.81 140.548C141.929 140.262 141.99 139.954 141.99 139.643V117.207C141.99 116.58 141.74 115.979 141.296 115.535C140.853 115.091 140.251 114.842 139.624 114.841C139 114.844 138.402 115.094 137.96 115.536C137.519 115.978 137.27 116.576 137.268 117.201ZM94.6669 137.267H80.4591V108.871H94.6604L94.6669 137.267Z" fill="#9BE500"/>
<path d="M80.4592 4.73509C81.3136 5.19801 82.0856 5.79905 82.7439 6.51391C84.0691 8.13217 85.9586 9.18776 88.0315 9.46777C90.2146 9.19129 92.2092 8.09008 93.6063 6.38992C94.2067 5.76259 94.8782 5.20723 95.607 4.73509C96.0934 4.75468 97.3696 5.94925 98.055 6.59224C99.3317 8.17173 101.166 9.20102 103.179 9.46777C105.503 9.17233 107.627 8.00573 109.123 6.20386C109.704 5.65878 110.582 4.83301 110.755 4.73183C112.025 4.73183 112.315 5.15287 113.098 6.27892C113.602 7.23043 114.353 8.02854 115.272 8.58916C116.191 9.14979 117.244 9.45219 118.321 9.46451C118.948 9.46451 119.55 9.21526 119.994 8.77148C120.438 8.32771 120.687 7.72576 120.687 7.09817C120.687 6.78729 120.626 6.47943 120.508 6.19214C120.389 5.90485 120.215 5.64379 119.995 5.42397C119.775 5.20415 119.514 5.02989 119.227 4.91112C118.939 4.79235 118.632 4.7314 118.321 4.73183C117.847 4.73183 117.756 4.69919 116.989 3.58945C116.371 2.48219 115.464 1.56345 114.365 0.931146C113.266 0.298842 112.016 -0.0233032 110.748 -0.000855177C108.834 0.26638 107.092 1.25248 105.879 2.75714C105.092 3.49805 103.773 4.7351 103.267 4.74489C102.534 4.30155 101.863 3.76144 101.273 3.13907C99.8504 1.40583 97.8185 0.282415 95.594 -0.000855177C93.545 0.284407 91.6795 1.33372 90.3717 2.93667C89.7049 3.65034 88.9347 4.25988 88.087 4.74489C87.2993 4.29159 86.5823 3.72529 85.9589 3.06401C84.5751 1.3835 82.6046 0.291445 80.4461 0.00894614C79.8188 0.00807669 79.2167 0.25602 78.7719 0.698385C78.3271 1.14075 78.0758 1.74143 78.0732 2.36875C78.0737 2.68104 78.1358 2.99018 78.2561 3.27836C78.3764 3.56655 78.5525 3.82814 78.7742 4.04804C78.996 4.26795 79.2589 4.44187 79.5481 4.55978C79.8373 4.6777 80.1469 4.73724 80.4592 4.73509Z" fill="#9BE500"/>
<path d="M26.0358 108.867H16.5704C15.9428 108.867 15.3409 109.117 14.8972 109.56C14.4534 110.004 14.2041 110.606 14.2041 111.234V125.438C14.2041 126.066 14.4534 126.668 14.8972 127.111C15.3409 127.555 15.9428 127.804 16.5704 127.804H26.0358C26.6631 127.804 27.2645 127.554 27.7081 127.11C28.1517 126.667 28.4013 126.065 28.4021 125.438V111.237C28.4021 110.609 28.1529 110.007 27.7092 109.562C27.2656 109.118 26.6637 108.868 26.0358 108.867ZM23.6662 123.068H18.9335V113.603H23.6662V123.068Z" fill="#9BE500"/>
<path d="M44.9674 108.867H35.5021C34.8745 108.867 34.2726 109.117 33.8288 109.56C33.385 110.004 33.1357 110.606 33.1357 111.234V125.438C33.1357 126.066 33.385 126.668 33.8288 127.111C34.2726 127.555 34.8745 127.804 35.5021 127.804H44.9674C45.595 127.804 46.1969 127.555 46.6407 127.111C47.0845 126.668 47.3338 126.066 47.3338 125.438V111.237C47.3342 110.926 47.2733 110.618 47.1546 110.33C47.0359 110.043 46.8616 109.781 46.6418 109.561C46.4221 109.341 46.1611 109.167 45.8737 109.048C45.5864 108.928 45.2785 108.867 44.9674 108.867ZM42.6011 123.068H37.8684V113.603H42.6011V123.068Z" fill="#9BE500"/>
<path d="M63.9014 108.867H54.436C53.8081 108.867 53.2059 109.116 52.7616 109.56C52.3173 110.004 52.0673 110.606 52.0664 111.234V125.438C52.0673 126.066 52.3173 126.668 52.7616 127.112C53.2059 127.555 53.8081 127.804 54.436 127.804H63.9014C64.5287 127.804 65.1301 127.554 65.5737 127.11C66.0172 126.667 66.2669 126.065 66.2677 125.438V111.237C66.2677 110.609 66.0185 110.007 65.5748 109.562C65.1311 109.118 64.5293 108.868 63.9014 108.867ZM61.535 123.068H56.8024V113.603H61.535V123.068Z" fill="#9BE500"/>
<path d="M67.9844 140.003V139.334H10.5134V140.003H67.9844Z" fill="#9BE500"/>
<path d="M139.334 141.318H140.003V83.8474H139.334V141.318Z" fill="#9BE500"/>
<path d="M108.142 58.1235L108.81 58.1699L111.513 19.3188L110.845 19.2724L108.142 58.1235Z" fill="#9BE500"/>
</g>
<defs>
<clipPath id="clip0_946_7527">
<rect width="142" height="142" fill="white"/>
</clipPath>
</defs>
</svg>
