<svg width="162" height="129" viewBox="0 0 162 129" fill="none" xmlns="http://www.w3.org/2000/svg">
<path d="M161.262 37.1261L134.174 1.95814C133.69 1.33042 132.99 0.906236 132.209 0.768817C131.429 0.631398 130.625 0.790784 129.957 1.21567L112.466 12.3339H110.458C109.975 12.3339 109.498 12.4441 109.064 12.6562C108.631 12.8682 108.251 13.1765 107.954 13.5575C107.657 13.9386 107.452 14.3823 107.353 14.8548C107.254 15.3274 107.264 15.8162 107.383 16.2842C107.556 16.9683 107.952 17.575 108.509 18.0083C109.066 18.4415 109.752 18.6766 110.458 18.6759H111.877L139.063 53.2149L130.418 71.3107L95.0129 35.9253C94.9467 35.8564 94.8763 35.7915 94.802 35.7313C94.291 35.3054 93.6586 35.0514 92.9948 35.0055L75.6384 33.7745C75.0414 33.7383 74.4461 33.8687 73.919 34.151C73.3918 34.4333 72.9535 34.8566 72.6531 35.3735L63.7273 51.1144C63.4138 51.6713 62.993 52.1604 62.4892 52.5536C61.9854 52.9469 61.4086 53.2365 60.7921 53.4055C60.1762 53.5777 59.5322 53.6262 58.8975 53.5481C58.2627 53.47 57.6497 53.267 57.0939 52.9507C56.537 52.6363 56.0478 52.215 55.6543 51.711C55.2609 51.207 54.971 50.6303 54.8014 50.014C54.629 49.3984 54.5804 48.7547 54.6585 48.1202C54.7367 47.4858 54.9399 46.8732 55.2566 46.3178L67.1711 25.302L71.1872 24.1447C71.7212 23.9907 72.2152 23.7223 72.6349 23.3581C73.0546 22.9939 73.3898 22.5427 73.6172 22.0358C73.8447 21.529 73.9589 20.9788 73.9519 20.4233C73.9449 19.8679 73.8169 19.3206 73.5768 18.8197L73.55 18.7628C73.3012 18.2435 72.938 17.7871 72.4877 17.428C72.0373 17.0688 71.5115 16.8162 70.9496 16.6889L52.7498 12.5582L34.9182 1.22237C34.2599 0.803806 33.4704 0.642324 32.7005 0.768817C31.9306 0.89531 31.2344 1.30084 30.7448 1.908L0.784488 38.996C0.266083 39.6374 0.0180552 40.4553 0.0930311 41.2765C0.168007 42.0976 0.560073 42.8574 1.18608 43.3945L16.8892 56.901L30.9757 75.8731C28.987 77.9977 27.9014 80.811 27.9476 83.72C27.9938 86.629 29.1682 89.4063 31.2234 91.4668C33.0503 93.2941 35.4551 94.4314 38.0274 94.6846C37.939 95.2523 37.8943 95.8259 37.8935 96.4004C37.8895 97.8729 38.178 99.3314 38.7421 100.692C39.3063 102.052 40.1349 103.287 41.18 104.324C42.2191 105.369 43.4551 106.197 44.8167 106.761C46.1782 107.325 47.6381 107.613 49.1119 107.609H49.229C49.229 107.686 49.229 107.76 49.229 107.837C49.2246 109.486 49.5861 111.115 50.2875 112.608C50.9888 114.101 52.0127 115.42 53.2853 116.47C55.117 117.988 57.3856 118.884 59.7613 119.025C60.5742 119.076 61.3902 119.036 62.1944 118.908C62.4426 121.488 63.5836 123.902 65.4207 125.732C66.4607 126.773 67.6966 127.6 69.0573 128.162C70.4181 128.725 71.8767 129.013 73.3492 129.01C74.8222 129.012 76.2813 128.724 77.6425 128.162C79.0037 127.599 80.2403 126.773 81.2811 125.732L82.9946 124.019L83.7142 124.598C85.8035 126.623 88.6014 127.754 91.5122 127.749C92.9852 127.751 94.4441 127.463 95.8053 126.9C97.1665 126.338 98.4031 125.512 99.444 124.471C100.506 123.409 101.344 122.145 101.907 120.753C102.47 119.361 102.746 117.87 102.721 116.369C104.223 116.395 105.715 116.118 107.107 115.555C108.5 114.991 109.765 114.154 110.826 113.091C111.889 112.031 112.726 110.768 113.29 109.377C113.853 107.987 114.131 106.497 114.106 104.997C115.609 105.023 117.101 104.746 118.494 104.182C119.887 103.618 121.152 102.779 122.212 101.715C123.274 100.654 124.112 99.3897 124.675 97.9979C125.238 96.6061 125.515 95.1152 125.489 93.6141C126.991 93.64 128.483 93.3632 129.875 92.8C131.268 92.2368 132.533 91.3988 133.595 90.3362C135.409 88.5187 136.545 86.1346 136.814 83.5812C137.082 81.0278 136.467 78.4593 135.07 76.3045L145.355 54.7737L160.821 41.4744C161.438 40.9446 161.829 40.1978 161.911 39.3885C161.993 38.5791 161.761 37.7692 161.262 37.1261ZM7.64538 40.5848L33.8941 8.0893L46.7156 16.2375L18.837 50.2046L7.64538 40.5848ZM35.7014 86.9747C34.7897 86.0617 34.2776 84.8244 34.2776 83.5345C34.2776 82.2445 34.7897 81.0073 35.7014 80.0942L39.5702 76.2243C39.6872 76.1066 39.8101 75.995 39.9384 75.8898C40.6928 75.2769 41.6138 74.904 42.5823 74.8194H42.666C42.8032 74.8194 42.9404 74.8027 43.081 74.8027C43.7323 74.8108 44.3754 74.9499 44.9718 75.212C45.5681 75.4741 46.1054 75.8537 46.5516 76.328C48.3455 78.2212 48.2484 81.3185 46.3374 83.2284L42.5857 86.978C41.6721 87.8857 40.4361 88.3949 39.1479 88.3943C37.8597 88.3937 36.6241 87.8833 35.7114 86.9747H35.7014ZM49.0885 101.257C48.4487 101.259 47.8148 101.134 47.2237 100.89C46.6325 100.645 46.0958 100.286 45.6446 99.8324C45.1909 99.3822 44.8313 98.8464 44.5865 98.2561C44.3418 97.6658 44.2168 97.0327 44.2189 96.3937C44.2169 95.7543 44.3419 95.1209 44.5867 94.5301C44.8314 93.9392 45.191 93.4028 45.6446 92.9519L53.1481 85.4527C53.8632 84.7482 54.7768 84.2793 55.7664 84.1089C56.7559 83.9385 57.7739 84.0747 58.6837 84.4994C59.6015 84.9476 60.3545 85.674 60.8352 86.5749C61.316 87.4758 61.5 88.5052 61.3611 89.5167C61.2103 90.6251 60.7014 91.654 59.9119 92.4469L52.5256 99.8257C52.0787 100.277 51.5471 100.635 50.9613 100.881C50.3756 101.127 49.7471 101.254 49.1119 101.257H49.0885ZM63.8578 111.265C63.4075 111.719 62.8715 112.079 62.2809 112.324C61.6903 112.569 61.0568 112.695 60.4173 112.693C59.7773 112.695 59.1433 112.569 58.5522 112.324C57.9611 112.079 57.4245 111.719 56.9735 111.265C56.5196 110.815 56.1599 110.279 55.9151 109.689C55.6703 109.099 55.5455 108.466 55.5477 107.827C55.5483 107.187 55.6761 106.554 55.9237 105.964C56.1714 105.374 56.5339 104.84 56.9902 104.391L64.4937 96.8922C65.2568 96.1414 66.2441 95.6597 67.3059 95.5203C68.3677 95.3809 69.446 95.5912 70.3773 96.1195C71.2163 96.6096 71.8885 97.3405 72.3063 98.2174C72.7241 99.0943 72.8682 100.077 72.72 101.037C72.5539 102.116 72.0488 103.115 71.2776 103.89L63.8578 111.265ZM80.4979 117.507L76.7629 121.239C75.8494 122.151 74.6114 122.662 73.3208 122.662C72.0301 122.662 70.7922 122.151 69.8786 121.239C68.9671 120.327 68.4552 119.09 68.4552 117.801C68.4552 116.511 68.9671 115.275 69.8786 114.362L73.7508 110.492C73.8667 110.375 73.9884 110.263 74.1156 110.158C74.7404 109.649 75.4824 109.304 76.2743 109.155H76.3312C76.4684 109.131 76.6056 109.111 76.7429 109.098H76.9102C77.024 109.098 77.1378 109.098 77.2449 109.098C77.8969 109.105 78.5407 109.244 79.1376 109.506C79.7346 109.768 80.2725 110.148 80.7188 110.623C80.8299 110.739 80.9338 110.862 81.0301 110.991C81.7382 111.958 82.0762 113.148 81.9828 114.343C81.8895 115.538 81.3711 116.66 80.5214 117.507H80.4979ZM129.08 85.8408C128.167 86.7528 126.928 87.2651 125.638 87.2651C124.347 87.2651 123.109 86.7528 122.195 85.8408C122.128 85.7717 122.057 85.7069 121.981 85.6467L101.566 65.0391C100.974 64.4418 100.168 64.1039 99.3267 64.0995C98.4852 64.0951 97.6764 64.4245 97.0779 65.0155C96.7811 65.3082 96.5451 65.6567 96.3833 66.0407C96.2215 66.4247 96.1371 66.8369 96.1349 67.2536C96.1327 67.6702 96.2128 68.0832 96.3706 68.4689C96.5284 68.8545 96.7608 69.2053 97.0544 69.5011L117.681 90.3295C118.592 91.2426 119.104 92.4799 119.104 93.7698C119.104 95.0597 118.592 96.2968 117.681 97.2099C117.229 97.6632 116.693 98.0228 116.102 98.2674C115.51 98.512 114.877 98.6368 114.237 98.6349C113.597 98.6371 112.964 98.5123 112.373 98.2677C111.783 98.0231 111.247 97.6634 110.796 97.2099L96.9975 83.2753C96.4052 82.678 95.5998 82.3401 94.7584 82.3357C93.9169 82.3313 93.1081 82.6607 92.5095 83.2518C91.9119 83.8438 91.5737 84.6488 91.5693 85.4898C91.5649 86.3308 91.8947 87.139 92.4861 87.7373L106.074 101.451C106.143 101.538 106.217 101.62 106.295 101.699C107.207 102.612 107.719 103.849 107.719 105.139C107.719 106.429 107.207 107.666 106.295 108.579C105.381 109.49 104.143 110.002 102.853 110.002C101.562 110.002 100.324 109.49 99.4106 108.579L91.8803 100.973C91.2879 100.376 90.4826 100.038 89.6412 100.033C88.7997 100.029 87.9909 100.358 87.3923 100.949C87.0958 101.242 86.8598 101.59 86.698 101.974C86.5361 102.358 86.4515 102.77 86.4491 103.187C86.4466 103.603 86.5262 104.016 86.6835 104.402C86.8407 104.788 87.0725 105.139 87.3655 105.435L94.6883 112.827C94.7577 112.914 94.8326 112.997 94.9125 113.075C95.8236 113.989 96.3351 115.226 96.3351 116.516C96.3351 117.807 95.8236 119.044 94.9125 119.958C93.9989 120.87 92.761 121.381 91.4703 121.381C90.1797 121.381 88.9417 120.87 88.0282 119.958C87.802 119.75 87.5616 119.558 87.3086 119.383C87.1011 119.226 87.0476 119.115 87.1513 118.865C87.2551 118.614 87.4124 118.376 87.5161 118.122C87.6199 117.868 87.727 117.54 87.8173 117.242C88.306 115.666 88.4465 114.002 88.229 112.365C88.0229 110.819 87.4947 109.333 86.6784 108.003C85.8621 106.674 84.7759 105.53 83.49 104.645C82.0773 103.681 80.4614 103.055 78.7677 102.816C79.1794 101.022 79.1471 99.1553 78.6735 97.3769C78.1999 95.5986 77.2994 93.9625 76.0501 92.6107C75.0232 91.5178 73.7859 90.6437 72.4125 90.0408C71.0391 89.4378 69.558 89.1185 68.058 89.102H67.7233C67.796 86.1674 66.7146 83.3213 64.7112 81.1746C63.6837 80.0828 62.4462 79.2097 61.0729 78.6073C59.6996 78.005 58.2187 77.6858 56.7191 77.6692C55.8084 77.6577 54.8995 77.7544 54.0116 77.957C53.6286 75.3203 52.3116 72.9084 50.3 71.1601C48.3078 69.432 45.7656 68.4681 43.1278 68.4408C40.303 68.4052 37.5682 69.4333 35.4671 71.3206L23.1978 54.8005L52.5457 19.0673L61.9166 21.626L49.7009 43.1669C48.972 44.4462 48.5039 45.8572 48.3236 47.3183C48.1432 48.7794 48.2541 50.2617 48.65 51.6797C49.0394 53.1003 49.7066 54.4297 50.6131 55.5911C51.5195 56.7526 52.6473 57.7231 53.9312 58.4463C54.0963 58.5378 54.2603 58.6247 54.4232 58.7072L54.4634 58.7273C54.8976 58.943 55.3447 59.1318 55.8021 59.2925C57.9432 60.0336 60.2595 60.1047 62.4421 59.4965C63.8633 59.1078 65.1933 58.4412 66.3549 57.5352C67.5165 56.6291 68.4867 55.5018 69.2093 54.2184L77.1478 40.2201L91.3214 41.2236L129.106 78.9704C130.014 79.8839 130.523 81.119 130.522 82.4062C130.522 83.6934 130.011 84.9281 129.103 85.8408H129.08ZM143.2 48.2277L118.062 16.2775L130.89 8.12621L154.378 38.6146L143.2 48.2277Z" fill="#9BE500"/>
<path d="M71.0601 20.4893L95.3844 15.4219L113.216 15.5355" stroke="#9BE500" stroke-miterlimit="10"/>
</svg>
