<svg width="55" height="55" viewBox="0 0 55 55" fill="none" xmlns="http://www.w3.org/2000/svg">
<g clip-path="url(#clip0_673_17165)">
<path d="M47.652 46.2962C47.6404 46.2962 47.6404 46.3078 47.652 46.2962V46.2962ZM49.8724 40.4689L43.4903 34.0727C42.3627 32.9003 41.0026 32.2734 39.5611 32.2734C38.1196 32.2734 36.7595 32.8887 35.5854 34.0611L31.9119 37.7177C31.6096 37.5552 31.3073 37.4043 31.0167 37.2534C30.5982 37.0444 30.203 36.8471 29.8659 36.6381C26.4249 34.4558 23.2978 31.6118 20.2985 27.9319C18.8454 26.0978 17.8689 24.5539 17.1598 22.9868C18.113 22.1162 18.9965 21.2107 19.8568 20.3401C20.1823 20.0151 20.5077 19.6784 20.8332 19.3534C23.2745 16.9157 23.2745 13.7582 20.8332 11.3205L17.6596 8.15142C17.2993 7.79157 16.9273 7.4201 16.5785 7.04864C15.8811 6.32892 15.1486 5.58601 14.393 4.88952C13.2654 3.77512 11.9169 3.18311 10.4987 3.18311C9.08042 3.18311 7.70867 3.77512 6.54618 4.88952L6.52296 4.91273L2.57047 8.89437C1.10454 10.3305 0.208493 12.2478 0.0478358 14.2922C-0.231163 17.6818 0.76856 20.8393 1.53581 22.9056C1.74506 23.4697 1.96595 24.0288 2.19845 24.5829C2.29019 24.8011 2.4301 24.9957 2.60771 25.1523C2.78532 25.3088 2.99602 25.4233 3.22415 25.4872C3.45228 25.551 3.69194 25.5626 3.92517 25.521C4.1584 25.4794 4.37923 25.3857 4.57113 25.2469C4.85863 25.0408 5.06781 24.7436 5.16469 24.4036C5.26157 24.0637 5.24042 23.701 5.10469 23.3745C4.88769 22.8583 4.68234 22.3383 4.48859 21.8144C3.40747 18.9239 3.0122 16.6719 3.18657 14.5476C3.27859 13.2405 3.8497 12.0131 4.7908 11.0999L8.75492 7.14151C9.32454 6.60753 9.92906 6.31734 10.5219 6.31734C11.2543 6.31734 11.8472 6.75845 12.2192 7.12992L12.254 7.16472C12.9632 7.82639 13.6374 8.5113 14.3465 9.24262C14.7069 9.61408 15.0789 9.98554 15.4509 10.3686L18.6245 13.5377C18.8611 13.774 19.0488 14.0545 19.1769 14.3632C19.305 14.6719 19.3709 15.0028 19.3709 15.337C19.3709 15.6711 19.305 16.002 19.1769 16.3107C19.0488 16.6194 18.8611 16.9 18.6245 17.1362C18.2874 17.4729 17.9631 17.8083 17.6259 18.1334C16.6494 19.1317 15.7194 20.0604 14.7081 20.9658C14.6848 20.989 14.6616 21.0006 14.6499 21.0239C13.6502 22.0222 13.8362 22.9973 14.0455 23.6589L14.1128 23.8412C14.9359 25.8088 16.0891 27.6719 17.8328 29.8775L17.8445 29.8891C21.053 33.8359 24.4359 36.9121 28.1675 39.2686C28.6304 39.5521 29.1077 39.8117 29.5973 40.0463C30.0158 40.2553 30.411 40.4526 30.7482 40.6616C30.7947 40.6848 30.8412 40.7196 30.8877 40.7428C31.2427 40.9297 31.6373 41.0292 32.0386 41.033C33.0034 41.033 33.6079 40.4294 33.8056 40.2321L37.7813 36.262C38.1765 35.8674 38.8043 35.3914 39.5366 35.3914C40.269 35.3914 40.8503 35.8441 41.2106 36.2388L41.2339 36.262L47.6393 42.6582C48.8366 43.8422 48.8366 45.0611 47.6508 46.2916C47.1975 46.7791 46.7325 47.2202 46.2326 47.7078C45.4443 48.4416 44.6954 49.2166 43.989 50.0294C42.8149 51.2831 41.4315 51.8752 39.618 51.8752C39.4437 51.8752 39.2577 51.8752 39.0833 51.8635C36.7653 51.7161 34.5577 51.0603 32.6291 50.2976C32.2759 50.1578 31.8838 50.1514 31.5262 50.2796C31.1686 50.4078 30.87 50.6618 30.6866 50.9941C30.5783 51.1874 30.5126 51.4017 30.4939 51.6224C30.4752 51.8431 30.5039 52.0653 30.5781 52.2741C30.6523 52.4828 30.7702 52.6734 30.924 52.833C31.0778 52.9926 31.264 53.1176 31.4701 53.1997C33.6451 54.0587 36.1631 54.8063 38.874 54.9804C39.1181 54.992 39.3739 55.0036 39.6064 55.0036C42.2918 55.0036 44.547 54.0401 46.314 52.1247C46.3256 52.1015 46.3489 52.0899 46.3605 52.0667C46.965 51.3354 47.6625 50.6737 48.3949 49.9656C48.8948 49.4897 49.4063 48.9905 49.9061 48.4681C51.057 47.2725 51.6615 45.8795 51.6615 44.4517C51.6615 43.0239 51.0465 41.6274 49.8724 40.4665V40.4689ZM47.652 46.2962C47.6404 46.2962 47.6404 46.3078 47.652 46.2962V46.2962Z" fill="#9BE500"/>
<path d="M29.7268 13.0826C32.7702 13.5952 35.5758 15.0487 37.748 17.2383C39.9365 19.4104 41.3915 22.2106 41.9098 25.248C41.971 25.6127 42.1602 25.9438 42.4434 26.182C42.7267 26.4202 43.0855 26.5499 43.4558 26.5482C43.5454 26.5462 43.6347 26.5384 43.7233 26.525C43.9272 26.4911 44.1225 26.4173 44.2979 26.3078C44.4732 26.1984 44.6252 26.0554 44.7451 25.8872C44.865 25.7189 44.9504 25.5287 44.9965 25.3274C45.0426 25.1261 45.0484 24.9176 45.0136 24.7141C44.3873 21.0386 42.6276 17.65 39.98 15.0212C37.3474 12.3774 33.9539 10.6202 30.2732 9.99478C29.8634 9.92627 29.4431 10.0219 29.1036 10.261C28.764 10.5001 28.5326 10.8633 28.4597 11.2717C28.4221 11.4738 28.4252 11.6814 28.4687 11.8824C28.5123 12.0834 28.5954 12.2736 28.7134 12.4422C28.8313 12.6107 28.9816 12.7541 29.1556 12.8641C29.3296 12.974 29.5237 13.0483 29.7268 13.0826Z" fill="#9BE500"/>
<path d="M54.975 24.2614C53.9456 18.2083 51.0477 12.6278 46.6864 8.30001C42.3524 3.945 36.7639 1.05124 30.7021 0.0233051C30.2936 -0.0456366 29.8744 0.0501251 29.5366 0.289536C29.1988 0.528947 28.9699 0.892436 28.9002 1.30022C28.8319 1.71109 28.9292 2.13228 29.1711 2.47164C29.4129 2.81101 29.7794 3.04094 30.1906 3.11112C35.6072 4.03203 40.6015 6.61685 44.4777 10.5056C48.3762 14.3732 50.9654 19.3616 51.8828 24.7722C51.944 25.1369 52.1332 25.4679 52.4164 25.7061C52.6997 25.9443 53.0586 26.0741 53.4289 26.0723C53.5184 26.0703 53.6077 26.0626 53.6963 26.0491C53.8987 26.0175 54.0927 25.9458 54.2671 25.8384C54.4414 25.731 54.5926 25.5899 54.7117 25.4234C54.8308 25.257 54.9154 25.0685 54.9606 24.8689C55.0058 24.6694 55.0107 24.4628 54.975 24.2614Z" fill="#9BE500"/>
<path d="M32.3889 51.781C21.2615 45.9897 14.0447 38.8007 9.95273 33.7882C5.512 28.3544 3.67527 24.23 3.66016 24.1893L3.97984 24.05C3.99728 24.0907 5.81772 28.1803 10.2317 33.5793C14.3005 38.5615 21.4847 45.7088 32.5516 51.4688L32.3889 51.781Z" fill="#9BE500"/>
</g>
<defs>
<clipPath id="clip0_673_17165">
<rect width="55" height="55" fill="white"/>
</clipPath>
</defs>
</svg>
