<svg width="152" height="131" viewBox="0 0 152 131" fill="none" xmlns="http://www.w3.org/2000/svg">
<path d="M14.1516 124.027H20.1758C21.0874 124.027 21.9617 124.388 22.6063 125.033C23.2508 125.677 23.6129 126.551 23.6129 127.462C23.613 128.369 23.2536 129.24 22.6134 129.884C21.9731 130.527 21.104 130.892 20.1959 130.897H14.1516C11.4177 130.897 8.79587 129.812 6.86273 127.88C4.92959 125.947 3.84357 123.327 3.84357 120.595V75.9508C3.84357 73.887 5.2191 72.5156 7.28071 72.5156C9.34232 72.5156 10.7179 73.887 10.7179 75.9508V120.591C10.7179 121.502 11.0795 122.375 11.7234 123.019C12.3672 123.663 13.2406 124.026 14.1516 124.027Z" fill="#9BE500"/>
<path d="M148.16 75.9508V120.591C148.16 121.945 147.894 123.285 147.376 124.535C146.858 125.785 146.099 126.921 145.142 127.878C144.185 128.835 143.048 129.594 141.797 130.112C140.546 130.63 139.206 130.897 137.852 130.897H90.8831C90.4318 130.897 89.9848 130.808 89.5678 130.635C89.1508 130.463 88.7719 130.21 88.4527 129.891C88.1335 129.572 87.8803 129.193 87.7076 128.776C87.5349 128.36 87.446 127.913 87.446 127.462C87.446 126.551 87.8081 125.677 88.4527 125.033C89.0973 124.388 89.9715 124.027 90.8831 124.027H137.852C138.763 124.027 139.638 123.665 140.282 123.02C140.927 122.376 141.289 121.502 141.289 120.591V75.9508C141.289 73.887 142.664 72.5156 144.726 72.5156C146.788 72.5156 148.16 73.887 148.16 75.9508Z" fill="#9BE500"/>
<path d="M141.289 24.4336H134.595C133.684 24.4336 132.809 24.7954 132.165 25.4397C131.52 26.0839 131.158 26.9577 131.158 27.8688C131.158 28.7798 131.52 29.6535 132.165 30.2977C132.809 30.9419 133.684 31.304 134.595 31.304H141.289C142.2 31.304 143.075 31.6658 143.719 32.31C144.364 32.9543 144.726 33.8281 144.726 34.7391V56.7148C144.761 57.5231 144.501 58.3166 143.995 58.9483C143.489 59.5799 142.772 60.0067 141.975 60.15L89.7452 71.827V69.0808C89.7452 68.6297 89.6563 68.183 89.4836 67.7663C89.3109 67.3495 89.0577 66.9707 88.7385 66.6517C88.4193 66.3328 88.0404 66.0798 87.6234 65.9071C87.2064 65.7345 86.7594 65.6457 86.3081 65.6457H65.692C65.2406 65.6457 64.7936 65.7345 64.3766 65.9071C63.9596 66.0798 63.5807 66.3328 63.2615 66.6517C62.9424 66.9707 62.6892 67.3495 62.5165 67.7663C62.3437 68.183 62.2548 68.6297 62.2548 69.0808V71.827L10.0251 60.15C8.30481 59.8155 7.27736 58.4341 7.27736 56.7148V34.7391C7.27736 32.6754 8.65289 31.304 10.7145 31.304H62.8539C63.3053 31.304 63.7522 31.2151 64.1692 31.0425C64.5862 30.8698 64.9651 30.6167 65.2843 30.2977C65.6035 29.9787 65.8567 29.6001 66.0294 29.1834C66.2021 28.7666 66.291 28.3199 66.291 27.8688C66.291 26.9577 65.9289 26.0839 65.2843 25.4397C64.6397 24.7954 63.7655 24.4336 62.8539 24.4336H10.7145C7.97975 24.4336 5.35699 25.5193 3.42322 27.452C1.48946 29.3846 0.403076 32.0059 0.403076 34.7391V56.7148C0.417916 59.019 1.20397 61.252 2.636 63.0578C4.06804 64.8636 6.06364 66.1385 8.30481 66.6792L62.2548 78.6973V89.6852C62.2548 90.5963 62.617 91.47 63.2615 92.1142C63.9061 92.7584 64.7804 93.1204 65.692 93.1204H86.3081C87.2197 93.1204 88.0939 92.7584 88.7385 92.1142C89.3831 91.47 89.7452 90.5963 89.7452 89.6852V78.6973L143.692 66.6792C145.934 66.1396 147.931 64.8653 149.363 63.0593C150.796 61.2533 151.583 59.0196 151.597 56.7148V34.7391C151.597 28.899 147.129 24.4336 141.289 24.4336ZM82.8743 86.2501H69.1291V72.516H82.8743V86.2501Z" fill="#9BE500"/>
<path d="M93.1823 0.394531H58.8177C52.9775 0.394531 48.5096 4.85995 48.5096 10.7001V14.1318C48.5096 16.1923 49.8851 17.567 51.9467 17.567C54.0083 17.567 55.3839 16.1923 55.3839 14.1318V10.7001C55.3839 8.63964 56.7561 7.2649 58.8177 7.2649H93.1823C95.244 7.2649 96.6161 8.63964 96.6161 10.7001V14.1318C96.6161 16.1923 97.9916 17.567 100.053 17.567C102.115 17.567 103.49 16.1923 103.49 14.1318V10.7001C103.49 4.85995 99.0225 0.394531 93.1823 0.394531Z" fill="#9BE500"/>
<path d="M92.928 127.864V127.168H22.1671V127.864H92.928Z" fill="#9BE500"/>
<path d="M134.431 28.2641V27.5684L63.6704 27.5684V28.2641L134.431 28.2641Z" fill="#9BE500"/>
</svg>
