<svg width="160" height="148" viewBox="0 0 160 148" fill="none" xmlns="http://www.w3.org/2000/svg">
<g clip-path="url(#clip0_946_7536)">
<path d="M41.2935 9.38338H14.731C14.4133 9.38297 14.0986 9.4449 13.8049 9.56566C13.5113 9.68642 13.2445 9.86359 13.0198 10.0871C12.7951 10.3106 12.617 10.576 12.4956 10.868C12.3742 11.1601 12.3119 11.4732 12.3123 11.7892C12.3123 12.105 12.3749 12.4177 12.4965 12.7094C12.6181 13.0011 12.7963 13.2662 13.0209 13.4893C13.2456 13.7125 13.5122 13.8894 13.8057 14.01C14.0991 14.1305 14.4136 14.1924 14.731 14.192H41.2935C41.6121 14.1932 41.9277 14.1317 42.2223 14.0111C42.5169 13.8905 42.7845 13.7132 43.0099 13.4893C43.2353 13.2654 43.414 12.9994 43.5356 12.7065C43.6572 12.4137 43.7194 12.0998 43.7185 11.783C43.7181 11.4669 43.655 11.1541 43.5329 10.8623C43.4107 10.5706 43.2319 10.3056 43.0066 10.0827C42.7813 9.85977 42.5141 9.68331 42.2201 9.5633C41.9262 9.4433 41.6113 9.38215 41.2935 9.38338ZM114.04 9.22174C113.356 9.22174 112.699 9.49221 112.215 9.9737C111.731 10.4552 111.459 11.1083 111.459 11.7892C111.459 12.1262 111.526 12.4599 111.656 12.7713C111.785 13.0826 111.976 13.3654 112.215 13.6036C112.455 13.8418 112.74 14.0306 113.053 14.1592C113.366 14.2879 113.702 14.354 114.04 14.3536C114.379 14.354 114.715 14.2879 115.028 14.1592C115.341 14.0306 115.626 13.8418 115.865 13.6036C116.105 13.3654 116.295 13.0826 116.425 12.7713C116.555 12.4599 116.622 12.1262 116.622 11.7892C116.622 11.4513 116.555 11.1166 116.424 10.8045C116.294 10.4924 116.103 10.209 115.862 9.97044C115.622 9.7319 115.336 9.54297 115.022 9.41449C114.707 9.28601 114.371 9.22051 114.031 9.22174H114.04ZM124.687 9.22174C124.003 9.22174 123.346 9.49221 122.862 9.9737C122.378 10.4552 122.106 11.1083 122.106 11.7892C122.106 12.1262 122.173 12.4599 122.303 12.7713C122.432 13.0826 122.623 13.3654 122.862 13.6036C123.102 13.8418 123.387 14.0306 123.7 14.1592C124.013 14.2879 124.348 14.354 124.687 14.3536C125.026 14.354 125.362 14.2879 125.675 14.1592C125.988 14.0306 126.273 13.8418 126.512 13.6036C126.752 13.3654 126.942 13.0826 127.072 12.7713C127.202 12.4599 127.269 12.1262 127.269 11.7892C127.269 11.1083 126.997 10.4552 126.513 9.9737C126.028 9.49221 125.372 9.22174 124.687 9.22174ZM135.334 9.22174C134.65 9.22174 133.993 9.49221 133.509 9.9737C133.025 10.4552 132.753 11.1083 132.753 11.7892C132.753 12.1262 132.82 12.4599 132.949 12.7713C133.079 13.0826 133.269 13.3654 133.509 13.6036C133.749 13.8418 134.033 14.0306 134.347 14.1592C134.66 14.2879 134.995 14.354 135.334 14.3536C135.673 14.354 136.009 14.2879 136.322 14.1592C136.635 14.0306 136.919 13.8418 137.159 13.6036C137.399 13.3654 137.589 13.0826 137.719 12.7713C137.849 12.4599 137.915 12.1262 137.915 11.7892C137.915 11.4521 137.849 11.1182 137.719 10.8067C137.589 10.4952 137.399 10.2121 137.159 9.9737C136.92 9.73529 136.635 9.54617 136.322 9.41715C136.009 9.28812 135.673 9.22174 135.334 9.22174ZM135.334 9.22174C134.65 9.22174 133.993 9.49221 133.509 9.9737C133.025 10.4552 132.753 11.1083 132.753 11.7892C132.753 12.1262 132.82 12.4599 132.949 12.7713C133.079 13.0826 133.269 13.3654 133.509 13.6036C133.749 13.8418 134.033 14.0306 134.347 14.1592C134.66 14.2879 134.995 14.354 135.334 14.3536C135.673 14.354 136.009 14.2879 136.322 14.1592C136.635 14.0306 136.919 13.8418 137.159 13.6036C137.399 13.3654 137.589 13.0826 137.719 12.7713C137.849 12.4599 137.915 12.1262 137.915 11.7892C137.915 11.4521 137.849 11.1182 137.719 10.8067C137.589 10.4952 137.399 10.2121 137.159 9.9737C136.92 9.73529 136.635 9.54617 136.322 9.41715C136.009 9.28812 135.673 9.22174 135.334 9.22174ZM124.687 9.22174C124.003 9.22174 123.346 9.49221 122.862 9.9737C122.378 10.4552 122.106 11.1083 122.106 11.7892C122.106 12.1262 122.173 12.4599 122.303 12.7713C122.432 13.0826 122.623 13.3654 122.862 13.6036C123.102 13.8418 123.387 14.0306 123.7 14.1592C124.013 14.2879 124.348 14.354 124.687 14.3536C125.026 14.354 125.362 14.2879 125.675 14.1592C125.988 14.0306 126.273 13.8418 126.512 13.6036C126.752 13.3654 126.942 13.0826 127.072 12.7713C127.202 12.4599 127.269 12.1262 127.269 11.7892C127.269 11.1083 126.997 10.4552 126.513 9.9737C126.028 9.49221 125.372 9.22174 124.687 9.22174ZM114.04 9.22174C113.356 9.22174 112.699 9.49221 112.215 9.9737C111.731 10.4552 111.459 11.1083 111.459 11.7892C111.459 12.1262 111.526 12.4599 111.656 12.7713C111.785 13.0826 111.976 13.3654 112.215 13.6036C112.455 13.8418 112.74 14.0306 113.053 14.1592C113.366 14.2879 113.702 14.354 114.04 14.3536C114.379 14.354 114.715 14.2879 115.028 14.1592C115.341 14.0306 115.626 13.8418 115.865 13.6036C116.105 13.3654 116.295 13.0826 116.425 12.7713C116.555 12.4599 116.622 12.1262 116.622 11.7892C116.622 11.4513 116.555 11.1166 116.424 10.8045C116.294 10.4924 116.103 10.209 115.862 9.97044C115.622 9.7319 115.336 9.54297 115.022 9.41449C114.707 9.28601 114.371 9.22051 114.031 9.22174H114.04ZM41.2935 9.38338H14.731C14.4133 9.38297 14.0986 9.4449 13.8049 9.56566C13.5113 9.68642 13.2445 9.86359 13.0198 10.0871C12.7951 10.3106 12.617 10.576 12.4956 10.868C12.3742 11.1601 12.3119 11.4732 12.3123 11.7892C12.3123 12.105 12.3749 12.4177 12.4965 12.7094C12.6181 13.0011 12.7963 13.2662 13.0209 13.4893C13.2456 13.7125 13.5122 13.8894 13.8057 14.01C14.0991 14.1305 14.4136 14.1924 14.731 14.192H41.2935C41.6121 14.1932 41.9277 14.1317 42.2223 14.0111C42.5169 13.8905 42.7845 13.7132 43.0099 13.4893C43.2353 13.2654 43.414 12.9994 43.5356 12.7065C43.6572 12.4137 43.7194 12.0998 43.7185 11.783C43.7181 11.4669 43.655 11.1541 43.5329 10.8623C43.4107 10.5706 43.2319 10.3056 43.0066 10.0827C42.7813 9.85977 42.5141 9.68331 42.2201 9.5633C41.9262 9.4433 41.6113 9.38215 41.2935 9.38338ZM41.2935 9.38338H14.731C14.4133 9.38297 14.0986 9.4449 13.8049 9.56566C13.5113 9.68642 13.2445 9.86359 13.0198 10.0871C12.7951 10.3106 12.617 10.576 12.4956 10.868C12.3742 11.1601 12.3119 11.4732 12.3123 11.7892C12.3123 12.105 12.3749 12.4177 12.4965 12.7094C12.6181 13.0011 12.7963 13.2662 13.0209 13.4893C13.2456 13.7125 13.5122 13.8894 13.8057 14.01C14.0991 14.1305 14.4136 14.1924 14.731 14.192H41.2935C41.6121 14.1932 41.9277 14.1317 42.2223 14.0111C42.5169 13.8905 42.7845 13.7132 43.0099 13.4893C43.2353 13.2654 43.414 12.9994 43.5356 12.7065C43.6572 12.4137 43.7194 12.0998 43.7185 11.783C43.7181 11.4669 43.655 11.1541 43.5329 10.8623C43.4107 10.5706 43.2319 10.3056 43.0066 10.0827C42.7813 9.85977 42.5141 9.68331 42.2201 9.5633C41.9262 9.4433 41.6113 9.38215 41.2935 9.38338ZM114.04 9.22174C113.356 9.22174 112.699 9.49221 112.215 9.9737C111.731 10.4552 111.459 11.1083 111.459 11.7892C111.459 12.1262 111.526 12.4599 111.656 12.7713C111.785 13.0826 111.976 13.3654 112.215 13.6036C112.455 13.8418 112.74 14.0306 113.053 14.1592C113.366 14.2879 113.702 14.354 114.04 14.3536C114.379 14.354 114.715 14.2879 115.028 14.1592C115.341 14.0306 115.626 13.8418 115.865 13.6036C116.105 13.3654 116.295 13.0826 116.425 12.7713C116.555 12.4599 116.622 12.1262 116.622 11.7892C116.622 11.4513 116.555 11.1166 116.424 10.8045C116.294 10.4924 116.103 10.209 115.862 9.97044C115.622 9.7319 115.336 9.54297 115.022 9.41449C114.707 9.28601 114.371 9.22051 114.031 9.22174H114.04ZM124.687 9.22174C124.003 9.22174 123.346 9.49221 122.862 9.9737C122.378 10.4552 122.106 11.1083 122.106 11.7892C122.106 12.1262 122.173 12.4599 122.303 12.7713C122.432 13.0826 122.623 13.3654 122.862 13.6036C123.102 13.8418 123.387 14.0306 123.7 14.1592C124.013 14.2879 124.348 14.354 124.687 14.3536C125.026 14.354 125.362 14.2879 125.675 14.1592C125.988 14.0306 126.273 13.8418 126.512 13.6036C126.752 13.3654 126.942 13.0826 127.072 12.7713C127.202 12.4599 127.269 12.1262 127.269 11.7892C127.269 11.1083 126.997 10.4552 126.513 9.9737C126.028 9.49221 125.372 9.22174 124.687 9.22174ZM135.334 9.22174C134.65 9.22174 133.993 9.49221 133.509 9.9737C133.025 10.4552 132.753 11.1083 132.753 11.7892C132.753 12.1262 132.82 12.4599 132.949 12.7713C133.079 13.0826 133.269 13.3654 133.509 13.6036C133.749 13.8418 134.033 14.0306 134.347 14.1592C134.66 14.2879 134.995 14.354 135.334 14.3536C135.673 14.354 136.009 14.2879 136.322 14.1592C136.635 14.0306 136.919 13.8418 137.159 13.6036C137.399 13.3654 137.589 13.0826 137.719 12.7713C137.849 12.4599 137.915 12.1262 137.915 11.7892C137.915 11.4521 137.849 11.1182 137.719 10.8067C137.589 10.4952 137.399 10.2121 137.159 9.9737C136.92 9.73529 136.635 9.54617 136.322 9.41715C136.009 9.28812 135.673 9.22174 135.334 9.22174ZM135.334 9.22174C134.65 9.22174 133.993 9.49221 133.509 9.9737C133.025 10.4552 132.753 11.1083 132.753 11.7892C132.753 12.1262 132.82 12.4599 132.949 12.7713C133.079 13.0826 133.269 13.3654 133.509 13.6036C133.749 13.8418 134.033 14.0306 134.347 14.1592C134.66 14.2879 134.995 14.354 135.334 14.3536C135.673 14.354 136.009 14.2879 136.322 14.1592C136.635 14.0306 136.919 13.8418 137.159 13.6036C137.399 13.3654 137.589 13.0826 137.719 12.7713C137.849 12.4599 137.915 12.1262 137.915 11.7892C137.915 11.4521 137.849 11.1182 137.719 10.8067C137.589 10.4952 137.399 10.2121 137.159 9.9737C136.92 9.73529 136.635 9.54617 136.322 9.41715C136.009 9.28812 135.673 9.22174 135.334 9.22174ZM124.687 9.22174C124.003 9.22174 123.346 9.49221 122.862 9.9737C122.378 10.4552 122.106 11.1083 122.106 11.7892C122.106 12.1262 122.173 12.4599 122.303 12.7713C122.432 13.0826 122.623 13.3654 122.862 13.6036C123.102 13.8418 123.387 14.0306 123.7 14.1592C124.013 14.2879 124.348 14.354 124.687 14.3536C125.026 14.354 125.362 14.2879 125.675 14.1592C125.988 14.0306 126.273 13.8418 126.512 13.6036C126.752 13.3654 126.942 13.0826 127.072 12.7713C127.202 12.4599 127.269 12.1262 127.269 11.7892C127.269 11.1083 126.997 10.4552 126.513 9.9737C126.028 9.49221 125.372 9.22174 124.687 9.22174ZM114.04 9.22174C113.356 9.22174 112.699 9.49221 112.215 9.9737C111.731 10.4552 111.459 11.1083 111.459 11.7892C111.459 12.1262 111.526 12.4599 111.656 12.7713C111.785 13.0826 111.976 13.3654 112.215 13.6036C112.455 13.8418 112.74 14.0306 113.053 14.1592C113.366 14.2879 113.702 14.354 114.04 14.3536C114.379 14.354 114.715 14.2879 115.028 14.1592C115.341 14.0306 115.626 13.8418 115.865 13.6036C116.105 13.3654 116.295 13.0826 116.425 12.7713C116.555 12.4599 116.622 12.1262 116.622 11.7892C116.622 11.4513 116.555 11.1166 116.424 10.8045C116.294 10.4924 116.103 10.209 115.862 9.97044C115.622 9.7319 115.336 9.54297 115.022 9.41449C114.707 9.28601 114.371 9.22051 114.031 9.22174H114.04ZM41.2935 9.38338H14.731C14.4133 9.38297 14.0986 9.4449 13.8049 9.56566C13.5113 9.68642 13.2445 9.86359 13.0198 10.0871C12.7951 10.3106 12.617 10.576 12.4956 10.868C12.3742 11.1601 12.3119 11.4732 12.3123 11.7892C12.3123 12.105 12.3749 12.4177 12.4965 12.7094C12.6181 13.0011 12.7963 13.2662 13.0209 13.4893C13.2456 13.7125 13.5122 13.8894 13.8057 14.01C14.0991 14.1305 14.4136 14.1924 14.731 14.192H41.2935C41.6121 14.1932 41.9277 14.1317 42.2223 14.0111C42.5169 13.8905 42.7845 13.7132 43.0099 13.4893C43.2353 13.2654 43.414 12.9994 43.5356 12.7065C43.6572 12.4137 43.7194 12.0998 43.7185 11.783C43.7181 11.4669 43.655 11.1541 43.5329 10.8623C43.4107 10.5706 43.2319 10.3056 43.0066 10.0827C42.7813 9.85977 42.5141 9.68331 42.2201 9.5633C41.9262 9.4433 41.6113 9.38215 41.2935 9.38338ZM41.2935 9.38338H14.731C14.4133 9.38297 14.0986 9.4449 13.8049 9.56566C13.5113 9.68642 13.2445 9.86359 13.0198 10.0871C12.7951 10.3106 12.617 10.576 12.4956 10.868C12.3742 11.1601 12.3119 11.4732 12.3123 11.7892C12.3123 12.105 12.3749 12.4177 12.4965 12.7094C12.6181 13.0011 12.7963 13.2662 13.0209 13.4893C13.2456 13.7125 13.5122 13.8894 13.8057 14.01C14.0991 14.1305 14.4136 14.1924 14.731 14.192H41.2935C41.6121 14.1932 41.9277 14.1317 42.2223 14.0111C42.5169 13.8905 42.7845 13.7132 43.0099 13.4893C43.2353 13.2654 43.414 12.9994 43.5356 12.7065C43.6572 12.4137 43.7194 12.0998 43.7185 11.783C43.7181 11.4669 43.655 11.1541 43.5329 10.8623C43.4107 10.5706 43.2319 10.3056 43.0066 10.0827C42.7813 9.85977 42.5141 9.68331 42.2201 9.5633C41.9262 9.4433 41.6113 9.38215 41.2935 9.38338ZM114.04 9.22174C113.356 9.22174 112.699 9.49221 112.215 9.9737C111.731 10.4552 111.459 11.1083 111.459 11.7892C111.459 12.1262 111.526 12.4599 111.656 12.7713C111.785 13.0826 111.976 13.3654 112.215 13.6036C112.455 13.8418 112.74 14.0306 113.053 14.1592C113.366 14.2879 113.702 14.354 114.04 14.3536C114.379 14.354 114.715 14.2879 115.028 14.1592C115.341 14.0306 115.626 13.8418 115.865 13.6036C116.105 13.3654 116.295 13.0826 116.425 12.7713C116.555 12.4599 116.622 12.1262 116.622 11.7892C116.622 11.4513 116.555 11.1166 116.424 10.8045C116.294 10.4924 116.103 10.209 115.862 9.97044C115.622 9.7319 115.336 9.54297 115.022 9.41449C114.707 9.28601 114.371 9.22051 114.031 9.22174H114.04ZM124.687 9.22174C124.003 9.22174 123.346 9.49221 122.862 9.9737C122.378 10.4552 122.106 11.1083 122.106 11.7892C122.106 12.1262 122.173 12.4599 122.303 12.7713C122.432 13.0826 122.623 13.3654 122.862 13.6036C123.102 13.8418 123.387 14.0306 123.7 14.1592C124.013 14.2879 124.348 14.354 124.687 14.3536C125.026 14.354 125.362 14.2879 125.675 14.1592C125.988 14.0306 126.273 13.8418 126.512 13.6036C126.752 13.3654 126.942 13.0826 127.072 12.7713C127.202 12.4599 127.269 12.1262 127.269 11.7892C127.269 11.1083 126.997 10.4552 126.513 9.9737C126.028 9.49221 125.372 9.22174 124.687 9.22174ZM135.334 9.22174C134.65 9.22174 133.993 9.49221 133.509 9.9737C133.025 10.4552 132.753 11.1083 132.753 11.7892C132.753 12.1262 132.82 12.4599 132.949 12.7713C133.079 13.0826 133.269 13.3654 133.509 13.6036C133.749 13.8418 134.033 14.0306 134.347 14.1592C134.66 14.2879 134.995 14.354 135.334 14.3536C135.673 14.354 136.009 14.2879 136.322 14.1592C136.635 14.0306 136.919 13.8418 137.159 13.6036C137.399 13.3654 137.589 13.0826 137.719 12.7713C137.849 12.4599 137.915 12.1262 137.915 11.7892C137.915 11.4521 137.849 11.1182 137.719 10.8067C137.589 10.4952 137.399 10.2121 137.159 9.9737C136.92 9.73529 136.635 9.54617 136.322 9.41715C136.009 9.28812 135.673 9.22174 135.334 9.22174ZM135.334 9.22174C134.65 9.22174 133.993 9.49221 133.509 9.9737C133.025 10.4552 132.753 11.1083 132.753 11.7892C132.753 12.1262 132.82 12.4599 132.949 12.7713C133.079 13.0826 133.269 13.3654 133.509 13.6036C133.749 13.8418 134.033 14.0306 134.347 14.1592C134.66 14.2879 134.995 14.354 135.334 14.3536C135.673 14.354 136.009 14.2879 136.322 14.1592C136.635 14.0306 136.919 13.8418 137.159 13.6036C137.399 13.3654 137.589 13.0826 137.719 12.7713C137.849 12.4599 137.915 12.1262 137.915 11.7892C137.915 11.4521 137.849 11.1182 137.719 10.8067C137.589 10.4952 137.399 10.2121 137.159 9.9737C136.92 9.73529 136.635 9.54617 136.322 9.41715C136.009 9.28812 135.673 9.22174 135.334 9.22174ZM124.687 9.22174C124.003 9.22174 123.346 9.49221 122.862 9.9737C122.378 10.4552 122.106 11.1083 122.106 11.7892C122.106 12.1262 122.173 12.4599 122.303 12.7713C122.432 13.0826 122.623 13.3654 122.862 13.6036C123.102 13.8418 123.387 14.0306 123.7 14.1592C124.013 14.2879 124.348 14.354 124.687 14.3536C125.026 14.354 125.362 14.2879 125.675 14.1592C125.988 14.0306 126.273 13.8418 126.512 13.6036C126.752 13.3654 126.942 13.0826 127.072 12.7713C127.202 12.4599 127.269 12.1262 127.269 11.7892C127.269 11.1083 126.997 10.4552 126.513 9.9737C126.028 9.49221 125.372 9.22174 124.687 9.22174ZM114.04 9.22174C113.356 9.22174 112.699 9.49221 112.215 9.9737C111.731 10.4552 111.459 11.1083 111.459 11.7892C111.459 12.1262 111.526 12.4599 111.656 12.7713C111.785 13.0826 111.976 13.3654 112.215 13.6036C112.455 13.8418 112.74 14.0306 113.053 14.1592C113.366 14.2879 113.702 14.354 114.04 14.3536C114.379 14.354 114.715 14.2879 115.028 14.1592C115.341 14.0306 115.626 13.8418 115.865 13.6036C116.105 13.3654 116.295 13.0826 116.425 12.7713C116.555 12.4599 116.622 12.1262 116.622 11.7892C116.622 11.4513 116.555 11.1166 116.424 10.8045C116.294 10.4924 116.103 10.209 115.862 9.97044C115.622 9.7319 115.336 9.54297 115.022 9.41449C114.707 9.28601 114.371 9.22051 114.031 9.22174H114.04ZM41.2935 9.38338H14.731C14.4133 9.38297 14.0986 9.4449 13.8049 9.56566C13.5113 9.68642 13.2445 9.86359 13.0198 10.0871C12.7951 10.3106 12.617 10.576 12.4956 10.868C12.3742 11.1601 12.3119 11.4732 12.3123 11.7892C12.3123 12.105 12.3749 12.4177 12.4965 12.7094C12.6181 13.0011 12.7963 13.2662 13.0209 13.4893C13.2456 13.7125 13.5122 13.8894 13.8057 14.01C14.0991 14.1305 14.4136 14.1924 14.731 14.192H41.2935C41.6121 14.1932 41.9277 14.1317 42.2223 14.0111C42.5169 13.8905 42.7845 13.7132 43.0099 13.4893C43.2353 13.2654 43.414 12.9994 43.5356 12.7065C43.6572 12.4137 43.7194 12.0998 43.7185 11.783C43.7181 11.4669 43.655 11.1541 43.5329 10.8623C43.4107 10.5706 43.2319 10.3056 43.0066 10.0827C42.7813 9.85977 42.5141 9.68331 42.2201 9.5633C41.9262 9.4433 41.6113 9.38215 41.2935 9.38338ZM158.109 121.395L150.197 114.759C150.197 114.6 150.225 114.448 150.225 114.286V13.9992C150.211 10.2938 148.725 6.74411 146.091 4.12396C143.456 1.50381 139.888 0.0256383 136.162 0.0117188H14.0873C10.362 0.0256383 6.79327 1.50381 4.15907 4.12396C1.52486 6.74411 0.038805 10.2938 0.0248108 13.9992V60.2108C0.0248108 60.8901 0.29607 61.5415 0.778976 62.0218C1.26188 62.5022 1.91688 62.772 2.59981 62.772C3.28274 62.772 3.93769 62.5022 4.4206 62.0218C4.90351 61.5415 5.1748 60.8901 5.1748 60.2108V23.5729H74.3936C75.0798 23.5729 75.7379 23.3017 76.2232 22.8191C76.7085 22.3364 76.981 21.6817 76.981 20.9992C76.981 20.6612 76.9141 20.3266 76.7841 20.0143C76.654 19.702 76.4635 19.4183 76.2232 19.1793C75.9829 18.9403 75.6977 18.7507 75.3837 18.6214C75.0698 18.4921 74.7334 18.4255 74.3936 18.4255H5.1748V13.9992C5.18142 11.6491 6.12463 9.39753 7.79768 7.73807C9.47072 6.07861 11.7371 5.14668 14.0998 5.14668H136.175C138.538 5.14668 140.804 6.07861 142.477 7.73807C144.15 9.39753 145.093 11.6491 145.1 13.9992V18.4255H125.725C125.385 18.4255 125.049 18.4921 124.735 18.6214C124.421 18.7507 124.135 18.9403 123.895 19.1793C123.655 19.4183 123.464 19.702 123.334 20.0143C123.204 20.3266 123.137 20.6612 123.137 20.9992C123.137 21.6817 123.41 22.3364 123.895 22.8191C124.38 23.3017 125.039 23.5729 125.725 23.5729H145.1V110.463L131.153 98.7696C130.384 98.1165 129.441 97.6983 128.439 97.5654C127.437 97.4325 126.417 97.5905 125.503 98.0205C124.583 98.4387 123.804 99.1124 123.26 99.9605C122.717 100.809 122.431 101.795 122.437 102.801V123.139H14.0935C11.7308 123.139 9.46447 122.207 7.79142 120.548C6.11837 118.888 5.17517 116.636 5.16855 114.286V111.47C5.16855 110.791 4.89725 110.139 4.41434 109.659C3.93144 109.179 3.27648 108.909 2.59355 108.909C1.91062 108.909 1.25566 109.179 0.772758 109.659C0.289852 110.139 0.0185547 110.791 0.0185547 111.47V114.286C0.0325489 117.992 1.51861 121.541 4.15281 124.162C6.78701 126.782 10.3558 128.26 14.0811 128.274H122.425V137.888C122.419 138.892 122.704 139.877 123.246 140.724C123.788 141.571 124.564 142.245 125.481 142.665C126.391 143.089 127.403 143.246 128.399 143.118C129.395 142.991 130.334 142.583 131.106 141.944L135.94 137.95L138.631 143.7C139.039 144.584 139.619 145.378 140.338 146.036C141.057 146.695 141.9 147.205 142.819 147.536C143.638 147.832 144.503 147.984 145.375 147.987C146.455 147.986 147.521 147.749 148.5 147.294C149.387 146.886 150.185 146.307 150.846 145.591C151.507 144.876 152.019 144.036 152.353 143.122C152.691 142.211 152.843 141.241 152.8 140.271C152.758 139.3 152.522 138.347 152.106 137.468L149.419 131.712L155.603 130.614C156.6 130.446 157.527 129.996 158.274 129.318C159.021 128.64 159.556 127.763 159.815 126.791C160.082 125.824 160.063 124.8 159.76 123.843C159.458 122.886 158.885 122.036 158.109 121.395ZM154.712 125.573L145.231 127.257C144.843 127.327 144.475 127.485 144.157 127.717C143.839 127.95 143.579 128.252 143.397 128.6C143.214 128.949 143.114 129.334 143.106 129.727C143.097 130.12 143.179 130.51 143.347 130.866L147.45 139.65C147.576 139.919 147.648 140.209 147.661 140.505C147.674 140.802 147.627 141.097 147.525 141.375C147.316 141.938 146.894 142.396 146.35 142.653C146.078 142.779 145.784 142.85 145.485 142.862C145.186 142.874 144.887 142.828 144.606 142.724C144.324 142.624 144.064 142.469 143.844 142.267C143.623 142.065 143.446 141.821 143.322 141.55L139.219 132.778C139.052 132.421 138.806 132.107 138.498 131.86C138.19 131.613 137.829 131.44 137.444 131.354C137.258 131.314 137.068 131.293 136.878 131.292C136.276 131.292 135.693 131.502 135.231 131.886L127.584 137.9L127.8 102.689L154.784 125.318L154.712 125.573ZM137.915 11.783C137.915 11.1021 137.643 10.449 137.159 9.96748C136.675 9.48598 136.019 9.21552 135.334 9.21552C134.65 9.21552 133.993 9.48598 133.509 9.96748C133.025 10.449 132.753 11.1021 132.753 11.783C132.753 12.12 132.82 12.4537 132.949 12.7651C133.079 13.0764 133.269 13.3592 133.509 13.5974C133.749 13.8355 134.033 14.0244 134.347 14.1531C134.66 14.2818 134.995 14.3478 135.334 14.3474C135.673 14.3478 136.009 14.2818 136.322 14.1531C136.635 14.0244 136.919 13.8355 137.159 13.5974C137.399 13.3592 137.589 13.0764 137.719 12.7651C137.849 12.4537 137.915 12.12 137.915 11.783ZM124.687 14.3474C125.026 14.3478 125.362 14.2818 125.675 14.1531C125.988 14.0244 126.273 13.8355 126.512 13.5974C126.752 13.3592 126.942 13.0764 127.072 12.7651C127.202 12.4537 127.269 12.12 127.269 11.783C127.269 11.1021 126.997 10.449 126.513 9.96748C126.028 9.48598 125.372 9.21552 124.687 9.21552C124.003 9.21552 123.346 9.48598 122.862 9.96748C122.378 10.449 122.106 11.1021 122.106 11.783C122.105 12.1205 122.171 12.4549 122.301 12.7669C122.43 13.079 122.62 13.3626 122.86 13.6014C123.1 13.8402 123.385 14.0296 123.698 14.1587C124.012 14.2878 124.348 14.354 124.687 14.3536V14.3474ZM116.622 11.783C116.622 11.1021 116.35 10.449 115.866 9.96748C115.382 9.48598 114.725 9.21552 114.04 9.21552C113.356 9.21552 112.699 9.48598 112.215 9.96748C111.731 10.449 111.459 11.1021 111.459 11.783C111.459 12.12 111.526 12.4537 111.656 12.7651C111.785 13.0764 111.976 13.3592 112.215 13.5974C112.455 13.8355 112.74 14.0244 113.053 14.1531C113.366 14.2818 113.702 14.3478 114.04 14.3474C114.379 14.3478 114.715 14.2818 115.028 14.1531C115.341 14.0244 115.626 13.8355 115.865 13.5974C116.105 13.3592 116.295 13.0764 116.425 12.7651C116.555 12.4537 116.622 12.12 116.622 11.783ZM14.7467 9.37715C14.4289 9.37675 14.1142 9.43867 13.8205 9.55943C13.5269 9.68019 13.2601 9.85744 13.0354 10.0809C12.8108 10.3044 12.6326 10.5697 12.5112 10.8618C12.3898 11.1539 12.3275 11.4669 12.3279 11.783C12.3279 12.0988 12.3905 12.4115 12.5121 12.7032C12.6337 12.9949 12.8119 13.2599 13.0366 13.4831C13.2612 13.7062 13.5278 13.8832 13.8213 14.0038C14.1147 14.1243 14.4292 14.1861 14.7467 14.1857H41.3092C41.9488 14.1841 42.5616 13.9303 43.0132 13.4798C43.4649 13.0294 43.7185 12.4192 43.7185 11.783C43.719 11.4672 43.6568 11.1544 43.5356 10.8626C43.4143 10.5707 43.2365 10.3054 43.0121 10.082C42.7878 9.85855 42.5213 9.68129 42.2281 9.56034C41.9348 9.4394 41.6204 9.37715 41.3029 9.37715H14.7467ZM41.3092 9.37715H14.7467C14.4289 9.37675 14.1142 9.43867 13.8205 9.55943C13.5269 9.68019 13.2601 9.85744 13.0354 10.0809C12.8108 10.3044 12.6326 10.5697 12.5112 10.8618C12.3898 11.1539 12.3275 11.4669 12.3279 11.783C12.3279 12.0988 12.3905 12.4115 12.5121 12.7032C12.6337 12.9949 12.8119 13.2599 13.0366 13.4831C13.2612 13.7062 13.5278 13.8832 13.8213 14.0038C14.1147 14.1243 14.4292 14.1861 14.7467 14.1857H41.3092C41.9488 14.1841 42.5616 13.9303 43.0132 13.4798C43.4649 13.0294 43.7185 12.4192 43.7185 11.783C43.7181 11.4669 43.655 11.1541 43.5329 10.8623C43.4107 10.5706 43.2319 10.3056 43.0066 10.0827C42.7813 9.85977 42.5141 9.68331 42.2201 9.5633C41.9262 9.4433 41.6113 9.38215 41.2935 9.38338L41.3092 9.37715ZM114.056 9.21552C113.717 9.21552 113.381 9.2819 113.068 9.41092C112.755 9.53995 112.471 9.72907 112.231 9.96748C111.991 10.2059 111.801 10.489 111.671 10.8005C111.542 11.112 111.475 11.4458 111.475 11.783C111.475 12.12 111.542 12.4537 111.671 12.7651C111.801 13.0764 111.991 13.3592 112.231 13.5974C112.471 13.8355 112.755 14.0244 113.068 14.1531C113.382 14.2818 113.717 14.3478 114.056 14.3474C114.395 14.3478 114.73 14.2818 115.044 14.1531C115.357 14.0244 115.641 13.8355 115.881 13.5974C116.121 13.3592 116.311 13.0764 116.441 12.7651C116.571 12.4537 116.637 12.12 116.637 11.783C116.636 11.4443 116.568 11.109 116.437 10.7966C116.305 10.4842 116.112 10.2008 115.87 9.9627C115.628 9.72462 115.341 9.53657 115.025 9.40941C114.709 9.28224 114.372 9.21846 114.031 9.22174L114.056 9.21552ZM124.703 9.21552C124.364 9.21552 124.028 9.2819 123.715 9.41092C123.402 9.53995 123.117 9.72907 122.878 9.96748C122.638 10.2059 122.448 10.489 122.318 10.8005C122.188 11.112 122.122 11.4458 122.122 11.783C122.122 12.12 122.188 12.4537 122.318 12.7651C122.448 13.0764 122.638 13.3592 122.878 13.5974C123.118 13.8355 123.402 14.0244 123.715 14.1531C124.029 14.2818 124.364 14.3478 124.703 14.3474C125.042 14.3478 125.377 14.2818 125.69 14.1531C126.004 14.0244 126.288 13.8355 126.528 13.5974C126.768 13.3592 126.958 13.0764 127.088 12.7651C127.217 12.4537 127.284 12.12 127.284 11.783C127.283 11.445 127.215 11.1105 127.084 10.7987C126.953 10.4869 126.762 10.204 126.52 9.96604C126.279 9.72808 125.993 9.53986 125.678 9.41214C125.364 9.28442 125.027 9.21969 124.687 9.22174L124.703 9.21552ZM135.35 9.21552C135.011 9.21552 134.675 9.2819 134.362 9.41092C134.049 9.53995 133.764 9.72907 133.525 9.96748C133.285 10.2059 133.095 10.489 132.965 10.8005C132.835 11.112 132.769 11.4458 132.769 11.783C132.769 12.12 132.835 12.4537 132.965 12.7651C133.095 13.0764 133.285 13.3592 133.525 13.5974C133.764 13.8355 134.049 14.0244 134.362 14.1531C134.675 14.2818 135.011 14.3478 135.35 14.3474C135.689 14.3478 136.024 14.2818 136.337 14.1531C136.651 14.0244 136.935 13.8355 137.175 13.5974C137.415 13.3592 137.605 13.0764 137.734 12.7651C137.864 12.4537 137.931 12.12 137.931 11.783C137.93 11.445 137.862 11.1105 137.731 10.7987C137.6 10.4869 137.409 10.204 137.167 9.96604C136.926 9.72808 136.64 9.53986 136.325 9.41214C136.011 9.28442 135.674 9.21969 135.334 9.22174L135.35 9.21552ZM135.35 9.21552C135.011 9.21552 134.675 9.2819 134.362 9.41092C134.049 9.53995 133.764 9.72907 133.525 9.96748C133.285 10.2059 133.095 10.489 132.965 10.8005C132.835 11.112 132.769 11.4458 132.769 11.783C132.769 12.12 132.835 12.4537 132.965 12.7651C133.095 13.0764 133.285 13.3592 133.525 13.5974C133.764 13.8355 134.049 14.0244 134.362 14.1531C134.675 14.2818 135.011 14.3478 135.35 14.3474C135.689 14.3478 136.024 14.2818 136.337 14.1531C136.651 14.0244 136.935 13.8355 137.175 13.5974C137.415 13.3592 137.605 13.0764 137.734 12.7651C137.864 12.4537 137.931 12.12 137.931 11.783C137.93 11.445 137.862 11.1105 137.731 10.7987C137.6 10.4869 137.409 10.204 137.167 9.96604C136.926 9.72808 136.64 9.53986 136.325 9.41214C136.011 9.28442 135.674 9.21969 135.334 9.22174L135.35 9.21552ZM124.703 9.21552C124.364 9.21552 124.028 9.2819 123.715 9.41092C123.402 9.53995 123.117 9.72907 122.878 9.96748C122.638 10.2059 122.448 10.489 122.318 10.8005C122.188 11.112 122.122 11.4458 122.122 11.783C122.122 12.12 122.188 12.4537 122.318 12.7651C122.448 13.0764 122.638 13.3592 122.878 13.5974C123.118 13.8355 123.402 14.0244 123.715 14.1531C124.029 14.2818 124.364 14.3478 124.703 14.3474C125.042 14.3478 125.377 14.2818 125.69 14.1531C126.004 14.0244 126.288 13.8355 126.528 13.5974C126.768 13.3592 126.958 13.0764 127.088 12.7651C127.217 12.4537 127.284 12.12 127.284 11.783C127.283 11.445 127.215 11.1105 127.084 10.7987C126.953 10.4869 126.762 10.204 126.52 9.96604C126.279 9.72808 125.993 9.53986 125.678 9.41214C125.364 9.28442 125.027 9.21969 124.687 9.22174L124.703 9.21552ZM114.056 9.21552C113.717 9.21552 113.381 9.2819 113.068 9.41092C112.755 9.53995 112.471 9.72907 112.231 9.96748C111.991 10.2059 111.801 10.489 111.671 10.8005C111.542 11.112 111.475 11.4458 111.475 11.783C111.475 12.12 111.542 12.4537 111.671 12.7651C111.801 13.0764 111.991 13.3592 112.231 13.5974C112.471 13.8355 112.755 14.0244 113.068 14.1531C113.382 14.2818 113.717 14.3478 114.056 14.3474C114.395 14.3478 114.73 14.2818 115.044 14.1531C115.357 14.0244 115.641 13.8355 115.881 13.5974C116.121 13.3592 116.311 13.0764 116.441 12.7651C116.571 12.4537 116.637 12.12 116.637 11.783C116.636 11.4443 116.568 11.109 116.437 10.7966C116.305 10.4842 116.112 10.2008 115.87 9.9627C115.628 9.72462 115.341 9.53657 115.025 9.40941C114.709 9.28224 114.372 9.21846 114.031 9.22174L114.056 9.21552ZM41.3092 9.37715H14.7467C14.4289 9.37675 14.1142 9.43867 13.8205 9.55943C13.5269 9.68019 13.2601 9.85744 13.0354 10.0809C12.8108 10.3044 12.6326 10.5697 12.5112 10.8618C12.3898 11.1539 12.3275 11.4669 12.3279 11.783C12.3279 12.0988 12.3905 12.4115 12.5121 12.7032C12.6337 12.9949 12.8119 13.2599 13.0366 13.4831C13.2612 13.7062 13.5278 13.8832 13.8213 14.0038C14.1147 14.1243 14.4292 14.1861 14.7467 14.1857H41.3092C41.9488 14.1841 42.5616 13.9303 43.0132 13.4798C43.4649 13.0294 43.7185 12.4192 43.7185 11.783C43.7181 11.4669 43.655 11.1541 43.5329 10.8623C43.4107 10.5706 43.2319 10.3056 43.0066 10.0827C42.7813 9.85977 42.5141 9.68331 42.2201 9.5633C41.9262 9.4433 41.6113 9.38215 41.2935 9.38338L41.3092 9.37715ZM41.3092 9.37715H14.7467C14.4289 9.37675 14.1142 9.43867 13.8205 9.55943C13.5269 9.68019 13.2601 9.85744 13.0354 10.0809C12.8108 10.3044 12.6326 10.5697 12.5112 10.8618C12.3898 11.1539 12.3275 11.4669 12.3279 11.783C12.3279 12.0988 12.3905 12.4115 12.5121 12.7032C12.6337 12.9949 12.8119 13.2599 13.0366 13.4831C13.2612 13.7062 13.5278 13.8832 13.8213 14.0038C14.1147 14.1243 14.4292 14.1861 14.7467 14.1857H41.3092C41.9488 14.1841 42.5616 13.9303 43.0132 13.4798C43.4649 13.0294 43.7185 12.4192 43.7185 11.783C43.7181 11.4669 43.655 11.1541 43.5329 10.8623C43.4107 10.5706 43.2319 10.3056 43.0066 10.0827C42.7813 9.85977 42.5141 9.68331 42.2201 9.5633C41.9262 9.4433 41.6113 9.38215 41.2935 9.38338L41.3092 9.37715ZM114.056 9.21552C113.717 9.21552 113.381 9.2819 113.068 9.41092C112.755 9.53995 112.471 9.72907 112.231 9.96748C111.991 10.2059 111.801 10.489 111.671 10.8005C111.542 11.112 111.475 11.4458 111.475 11.783C111.475 12.12 111.542 12.4537 111.671 12.7651C111.801 13.0764 111.991 13.3592 112.231 13.5974C112.471 13.8355 112.755 14.0244 113.068 14.1531C113.382 14.2818 113.717 14.3478 114.056 14.3474C114.395 14.3478 114.73 14.2818 115.044 14.1531C115.357 14.0244 115.641 13.8355 115.881 13.5974C116.121 13.3592 116.311 13.0764 116.441 12.7651C116.571 12.4537 116.637 12.12 116.637 11.783C116.636 11.4443 116.568 11.109 116.437 10.7966C116.305 10.4842 116.112 10.2008 115.87 9.9627C115.628 9.72462 115.341 9.53657 115.025 9.40941C114.709 9.28224 114.372 9.21846 114.031 9.22174L114.056 9.21552ZM124.703 9.21552C124.364 9.21552 124.028 9.2819 123.715 9.41092C123.402 9.53995 123.117 9.72907 122.878 9.96748C122.638 10.2059 122.448 10.489 122.318 10.8005C122.188 11.112 122.122 11.4458 122.122 11.783C122.122 12.12 122.188 12.4537 122.318 12.7651C122.448 13.0764 122.638 13.3592 122.878 13.5974C123.118 13.8355 123.402 14.0244 123.715 14.1531C124.029 14.2818 124.364 14.3478 124.703 14.3474C125.042 14.3478 125.377 14.2818 125.69 14.1531C126.004 14.0244 126.288 13.8355 126.528 13.5974C126.768 13.3592 126.958 13.0764 127.088 12.7651C127.217 12.4537 127.284 12.12 127.284 11.783C127.283 11.445 127.215 11.1105 127.084 10.7987C126.953 10.4869 126.762 10.204 126.52 9.96604C126.279 9.72808 125.993 9.53986 125.678 9.41214C125.364 9.28442 125.027 9.21969 124.687 9.22174L124.703 9.21552ZM135.35 9.21552C135.011 9.21552 134.675 9.2819 134.362 9.41092C134.049 9.53995 133.764 9.72907 133.525 9.96748C133.285 10.2059 133.095 10.489 132.965 10.8005C132.835 11.112 132.769 11.4458 132.769 11.783C132.769 12.12 132.835 12.4537 132.965 12.7651C133.095 13.0764 133.285 13.3592 133.525 13.5974C133.764 13.8355 134.049 14.0244 134.362 14.1531C134.675 14.2818 135.011 14.3478 135.35 14.3474C135.689 14.3478 136.024 14.2818 136.337 14.1531C136.651 14.0244 136.935 13.8355 137.175 13.5974C137.415 13.3592 137.605 13.0764 137.734 12.7651C137.864 12.4537 137.931 12.12 137.931 11.783C137.93 11.445 137.862 11.1105 137.731 10.7987C137.6 10.4869 137.409 10.204 137.167 9.96604C136.926 9.72808 136.64 9.53986 136.325 9.41214C136.011 9.28442 135.674 9.21969 135.334 9.22174L135.35 9.21552ZM135.35 9.21552C135.011 9.21552 134.675 9.2819 134.362 9.41092C134.049 9.53995 133.764 9.72907 133.525 9.96748C133.285 10.2059 133.095 10.489 132.965 10.8005C132.835 11.112 132.769 11.4458 132.769 11.783C132.769 12.12 132.835 12.4537 132.965 12.7651C133.095 13.0764 133.285 13.3592 133.525 13.5974C133.764 13.8355 134.049 14.0244 134.362 14.1531C134.675 14.2818 135.011 14.3478 135.35 14.3474C135.689 14.3478 136.024 14.2818 136.337 14.1531C136.651 14.0244 136.935 13.8355 137.175 13.5974C137.415 13.3592 137.605 13.0764 137.734 12.7651C137.864 12.4537 137.931 12.12 137.931 11.783C137.93 11.445 137.862 11.1105 137.731 10.7987C137.6 10.4869 137.409 10.204 137.167 9.96604C136.926 9.72808 136.64 9.53986 136.325 9.41214C136.011 9.28442 135.674 9.21969 135.334 9.22174L135.35 9.21552ZM124.703 9.21552C124.364 9.21552 124.028 9.2819 123.715 9.41092C123.402 9.53995 123.117 9.72907 122.878 9.96748C122.638 10.2059 122.448 10.489 122.318 10.8005C122.188 11.112 122.122 11.4458 122.122 11.783C122.122 12.12 122.188 12.4537 122.318 12.7651C122.448 13.0764 122.638 13.3592 122.878 13.5974C123.118 13.8355 123.402 14.0244 123.715 14.1531C124.029 14.2818 124.364 14.3478 124.703 14.3474C125.042 14.3478 125.377 14.2818 125.69 14.1531C126.004 14.0244 126.288 13.8355 126.528 13.5974C126.768 13.3592 126.958 13.0764 127.088 12.7651C127.217 12.4537 127.284 12.12 127.284 11.783C127.283 11.445 127.215 11.1105 127.084 10.7987C126.953 10.4869 126.762 10.204 126.52 9.96604C126.279 9.72808 125.993 9.53986 125.678 9.41214C125.364 9.28442 125.027 9.21969 124.687 9.22174L124.703 9.21552ZM114.056 9.21552C113.717 9.21552 113.381 9.2819 113.068 9.41092C112.755 9.53995 112.471 9.72907 112.231 9.96748C111.991 10.2059 111.801 10.489 111.671 10.8005C111.542 11.112 111.475 11.4458 111.475 11.783C111.475 12.12 111.542 12.4537 111.671 12.7651C111.801 13.0764 111.991 13.3592 112.231 13.5974C112.471 13.8355 112.755 14.0244 113.068 14.1531C113.382 14.2818 113.717 14.3478 114.056 14.3474C114.395 14.3478 114.73 14.2818 115.044 14.1531C115.357 14.0244 115.641 13.8355 115.881 13.5974C116.121 13.3592 116.311 13.0764 116.441 12.7651C116.571 12.4537 116.637 12.12 116.637 11.783C116.636 11.4443 116.568 11.109 116.437 10.7966C116.305 10.4842 116.112 10.2008 115.87 9.9627C115.628 9.72462 115.341 9.53657 115.025 9.40941C114.709 9.28224 114.372 9.21846 114.031 9.22174L114.056 9.21552ZM41.3092 9.37715H14.7467C14.4289 9.37675 14.1142 9.43867 13.8205 9.55943C13.5269 9.68019 13.2601 9.85744 13.0354 10.0809C12.8108 10.3044 12.6326 10.5697 12.5112 10.8618C12.3898 11.1539 12.3275 11.4669 12.3279 11.783C12.3279 12.0988 12.3905 12.4115 12.5121 12.7032C12.6337 12.9949 12.8119 13.2599 13.0366 13.4831C13.2612 13.7062 13.5278 13.8832 13.8213 14.0038C14.1147 14.1243 14.4292 14.1861 14.7467 14.1857H41.3092C41.9488 14.1841 42.5616 13.9303 43.0132 13.4798C43.4649 13.0294 43.7185 12.4192 43.7185 11.783C43.7181 11.4669 43.655 11.1541 43.5329 10.8623C43.4107 10.5706 43.2319 10.3056 43.0066 10.0827C42.7813 9.85977 42.5141 9.68331 42.2201 9.5633C41.9262 9.4433 41.6113 9.38215 41.2935 9.38338L41.3092 9.37715Z" fill="#9BE500"/>
<path d="M43.7191 11.7828C43.7191 12.42 43.4646 13.0312 43.0116 13.4818C42.5586 13.9324 41.9442 14.1855 41.3035 14.1855H14.741C14.4235 14.1859 14.1091 14.1241 13.8156 14.0036C13.5222 13.883 13.2555 13.706 13.0309 13.4829C12.8062 13.2597 12.628 12.9947 12.5064 12.703C12.3848 12.4113 12.3223 12.0986 12.3223 11.7828C12.3219 11.4667 12.3841 11.1537 12.5055 10.8616C12.6269 10.5695 12.8051 10.3042 13.0298 10.0807C13.2545 9.85725 13.5213 9.68 13.8149 9.55924C14.1086 9.43848 14.4233 9.37655 14.741 9.37696H41.3035C41.621 9.37695 41.9354 9.4392 42.2287 9.56015C42.5219 9.68109 42.7884 9.85835 43.0127 10.0818C43.2371 10.3052 43.4149 10.5705 43.5361 10.8624C43.6574 11.1542 43.7195 11.467 43.7191 11.7828Z" fill="#9BE500"/>
<path d="M116.621 11.7843C116.621 12.1213 116.555 12.455 116.425 12.7663C116.295 13.0777 116.105 13.3605 115.865 13.5987C115.626 13.8368 115.341 14.0257 115.028 14.1544C114.715 14.2831 114.379 14.3491 114.04 14.3487C113.701 14.3491 113.366 14.2831 113.053 14.1544C112.74 14.0257 112.455 13.8368 112.215 13.5987C111.975 13.3605 111.785 13.0777 111.656 12.7663C111.526 12.455 111.459 12.1213 111.459 11.7843C111.459 11.1033 111.731 10.4503 112.215 9.96876C112.699 9.48726 113.356 9.2168 114.04 9.2168C114.725 9.2168 115.381 9.48726 115.865 9.96876C116.35 10.4503 116.621 11.1033 116.621 11.7843Z" fill="#9BE500"/>
<path d="M127.269 11.7843C127.269 12.1213 127.202 12.455 127.072 12.7663C126.943 13.0777 126.752 13.3605 126.513 13.5987C126.273 13.8368 125.988 14.0257 125.675 14.1544C125.362 14.2831 125.027 14.3491 124.688 14.3487C124.349 14.3491 124.013 14.2831 123.7 14.1544C123.387 14.0257 123.102 13.8368 122.863 13.5987C122.623 13.3605 122.433 13.0777 122.303 12.7663C122.173 12.455 122.106 12.1213 122.106 11.7843C122.106 11.1033 122.378 10.4503 122.862 9.96876C123.347 9.48726 124.003 9.2168 124.688 9.2168C125.372 9.2168 126.029 9.48726 126.513 9.96876C126.997 10.4503 127.269 11.1033 127.269 11.7843Z" fill="#9BE500"/>
<path d="M137.915 11.7843C137.915 12.1213 137.849 12.455 137.719 12.7663C137.589 13.0777 137.399 13.3605 137.159 13.5987C136.919 13.8368 136.635 14.0257 136.322 14.1544C136.009 14.2831 135.673 14.3491 135.334 14.3487C134.995 14.3491 134.66 14.2831 134.347 14.1544C134.033 14.0257 133.749 13.8368 133.509 13.5987C133.269 13.3605 133.079 13.0777 132.949 12.7663C132.82 12.455 132.753 12.1213 132.753 11.7843C132.753 11.1033 133.025 10.4503 133.509 9.96876C133.993 9.48726 134.65 9.2168 135.334 9.2168C136.019 9.2168 136.675 9.48726 137.159 9.96876C137.643 10.4503 137.915 11.1033 137.915 11.7843Z" fill="#9BE500"/>
<path d="M127.131 21.2427V20.6055L72.1059 20.6055V21.2427L127.131 21.2427Z" fill="#9BE500"/>
<path d="M2.75586 57.6289H2.11523V112.36H2.75586V57.6289Z" fill="#9BE500"/>
</g>
<defs>
<clipPath id="clip0_946_7536">
<rect width="160" height="148" fill="white"/>
</clipPath>
</defs>
</svg>
