<svg width="61" height="118" viewBox="0 0 61 118" fill="none" xmlns="http://www.w3.org/2000/svg">
<path d="M46.7071 59.7071C47.0976 59.3166 47.0976 58.6834 46.7071 58.2929L40.3431 51.9289C39.9526 51.5384 39.3195 51.5384 38.9289 51.9289C38.5384 52.3195 38.5384 52.9526 38.9289 53.3431L44.5858 59L38.9289 64.6569C38.5384 65.0474 38.5384 65.6805 38.9289 66.0711C39.3195 66.4616 39.9526 66.4616 40.3431 66.0711L46.7071 59.7071ZM24 59L24 60L46 60L46 59L46 58L24 58L24 59Z" fill="#9747FF"/>
<path d="M59 118C26.4152 118 2.30929e-06 91.5848 5.15794e-06 59C8.0066e-06 26.4152 26.4152 -3.0235e-06 59 -1.74846e-07C59.6694 -1.16329e-07 60.336 0.0130391 61 0.0351562L61 117.966C60.336 117.988 59.6693 118 59 118Z" fill="#D9D9D9" fill-opacity="0.1"/>
</svg>
