<svg width="158" height="146" viewBox="0 0 158 146" fill="none" xmlns="http://www.w3.org/2000/svg">
<path d="M41.2116 9.62109H15.2908C14.9798 9.61841 14.6713 9.67763 14.3835 9.79536C14.0956 9.91308 13.834 10.0869 13.6141 10.3067C13.3942 10.5265 13.2202 10.7879 13.1024 11.0756C12.9846 11.3634 12.9253 11.6717 12.928 11.9826C12.928 12.2918 12.9893 12.5978 13.1082 12.8832C13.2272 13.1685 13.4016 13.4277 13.6213 13.6454C13.841 13.8631 14.1016 14.035 14.3881 14.1515C14.6747 14.268 14.9815 14.3266 15.2908 14.324H41.2116C41.8329 14.324 42.4288 14.0773 42.8682 13.6382C43.3075 13.1991 43.5543 12.6036 43.5543 11.9826C43.557 11.6734 43.4983 11.3668 43.3818 11.0804C43.2653 10.794 43.0931 10.5335 42.8753 10.3139C42.6575 10.0944 42.3983 9.92016 42.1128 9.80124C41.8272 9.68232 41.5209 9.62108 41.2116 9.62109ZM112.237 9.46381C111.906 9.46337 111.578 9.52832 111.272 9.65473C110.966 9.78115 110.688 9.96659 110.454 10.2006C110.22 10.4345 110.034 10.7124 109.908 11.0182C109.781 11.3239 109.716 11.6517 109.717 11.9826C109.718 12.65 109.984 13.2897 110.456 13.7613C110.929 14.233 111.569 14.4979 112.237 14.4979C112.905 14.4979 113.545 14.233 114.018 13.7613C114.49 13.2897 114.756 12.65 114.757 11.9826C114.757 11.3146 114.491 10.6739 114.019 10.2015C113.546 9.7292 112.905 9.46381 112.237 9.46381ZM122.629 9.46381C121.96 9.46381 121.319 9.7292 120.847 10.2015C120.374 10.6739 120.108 11.3146 120.108 11.9826C120.109 12.65 120.375 13.2897 120.848 13.7613C121.32 14.233 121.961 14.4979 122.629 14.4979C123.296 14.4979 123.937 14.233 124.409 13.7613C124.882 13.2897 125.148 12.65 125.149 11.9826C125.149 11.6517 125.084 11.3239 124.958 11.0182C124.831 10.7124 124.646 10.4345 124.412 10.2006C124.177 9.96659 123.899 9.78115 123.594 9.65473C123.288 9.52832 122.96 9.46337 122.629 9.46381ZM133.024 9.46381C132.355 9.46381 131.714 9.7292 131.242 10.2015C130.769 10.6739 130.504 11.3146 130.504 11.9826C130.504 12.65 130.77 13.2897 131.243 13.7613C131.715 14.233 132.356 14.4979 133.024 14.4979C133.691 14.4979 134.332 14.233 134.804 13.7613C135.277 13.2897 135.543 12.65 135.544 11.9826C135.544 11.6517 135.479 11.3239 135.353 11.0182C135.226 10.7124 135.041 10.4345 134.807 10.2006C134.573 9.96659 134.295 9.78115 133.989 9.65473C133.683 9.52832 133.355 9.46337 133.024 9.46381ZM133.024 9.46381C132.355 9.46381 131.714 9.7292 131.242 10.2015C130.769 10.6739 130.504 11.3146 130.504 11.9826C130.504 12.65 130.77 13.2897 131.243 13.7613C131.715 14.233 132.356 14.4979 133.024 14.4979C133.691 14.4979 134.332 14.233 134.804 13.7613C135.277 13.2897 135.543 12.65 135.544 11.9826C135.544 11.6517 135.479 11.3239 135.353 11.0182C135.226 10.7124 135.041 10.4345 134.807 10.2006C134.573 9.96659 134.295 9.78115 133.989 9.65473C133.683 9.52832 133.355 9.46337 133.024 9.46381ZM122.629 9.46381C121.96 9.46381 121.319 9.7292 120.847 10.2015C120.374 10.6739 120.108 11.3146 120.108 11.9826C120.109 12.65 120.375 13.2897 120.848 13.7613C121.32 14.233 121.961 14.4979 122.629 14.4979C123.296 14.4979 123.937 14.233 124.409 13.7613C124.882 13.2897 125.148 12.65 125.149 11.9826C125.149 11.6517 125.084 11.3239 124.958 11.0182C124.831 10.7124 124.646 10.4345 124.412 10.2006C124.177 9.96659 123.899 9.78115 123.594 9.65473C123.288 9.52832 122.96 9.46337 122.629 9.46381ZM112.237 9.46381C111.906 9.46337 111.578 9.52832 111.272 9.65473C110.966 9.78115 110.688 9.96659 110.454 10.2006C110.22 10.4345 110.034 10.7124 109.908 11.0182C109.781 11.3239 109.716 11.6517 109.717 11.9826C109.718 12.65 109.984 13.2897 110.456 13.7613C110.929 14.233 111.569 14.4979 112.237 14.4979C112.905 14.4979 113.545 14.233 114.018 13.7613C114.49 13.2897 114.756 12.65 114.757 11.9826C114.757 11.3146 114.491 10.6739 114.019 10.2015C113.546 9.7292 112.905 9.46381 112.237 9.46381ZM41.2116 9.62109H15.2908C14.9798 9.61841 14.6713 9.67763 14.3835 9.79536C14.0956 9.91308 13.834 10.0869 13.6141 10.3067C13.3942 10.5265 13.2202 10.7879 13.1024 11.0756C12.9846 11.3634 12.9253 11.6717 12.928 11.9826C12.928 12.2918 12.9893 12.5978 13.1082 12.8832C13.2272 13.1685 13.4016 13.4277 13.6213 13.6454C13.841 13.8631 14.1016 14.035 14.3881 14.1515C14.6747 14.268 14.9815 14.3266 15.2908 14.324H41.2116C41.8329 14.324 42.4288 14.0773 42.8682 13.6382C43.3075 13.1991 43.5543 12.6036 43.5543 11.9826C43.557 11.6734 43.4983 11.3668 43.3818 11.0804C43.2653 10.794 43.0931 10.5335 42.8753 10.3139C42.6575 10.0944 42.3983 9.92016 42.1128 9.80124C41.8272 9.68232 41.5209 9.62108 41.2116 9.62109ZM41.2116 9.62109H15.2908C14.9798 9.61841 14.6713 9.67763 14.3835 9.79536C14.0956 9.91308 13.834 10.0869 13.6141 10.3067C13.3942 10.5265 13.2202 10.7879 13.1024 11.0756C12.9846 11.3634 12.9253 11.6717 12.928 11.9826C12.928 12.2918 12.9893 12.5978 13.1082 12.8832C13.2272 13.1685 13.4016 13.4277 13.6213 13.6454C13.841 13.8631 14.1016 14.035 14.3881 14.1515C14.6747 14.268 14.9815 14.3266 15.2908 14.324H41.2116C41.8329 14.324 42.4288 14.0773 42.8682 13.6382C43.3075 13.1991 43.5543 12.6036 43.5543 11.9826C43.557 11.6734 43.4983 11.3668 43.3818 11.0804C43.2653 10.794 43.0931 10.5335 42.8753 10.3139C42.6575 10.0944 42.3983 9.92016 42.1128 9.80124C41.8272 9.68232 41.5209 9.62108 41.2116 9.62109ZM112.237 9.46381C111.906 9.46337 111.578 9.52832 111.272 9.65473C110.966 9.78115 110.688 9.96659 110.454 10.2006C110.22 10.4345 110.034 10.7124 109.908 11.0182C109.781 11.3239 109.716 11.6517 109.717 11.9826C109.718 12.65 109.984 13.2897 110.456 13.7613C110.929 14.233 111.569 14.4979 112.237 14.4979C112.905 14.4979 113.545 14.233 114.018 13.7613C114.49 13.2897 114.756 12.65 114.757 11.9826C114.757 11.3146 114.491 10.6739 114.019 10.2015C113.546 9.7292 112.905 9.46381 112.237 9.46381ZM122.629 9.46381C121.96 9.46381 121.319 9.7292 120.847 10.2015C120.374 10.6739 120.108 11.3146 120.108 11.9826C120.109 12.65 120.375 13.2897 120.848 13.7613C121.32 14.233 121.961 14.4979 122.629 14.4979C123.296 14.4979 123.937 14.233 124.409 13.7613C124.882 13.2897 125.148 12.65 125.149 11.9826C125.149 11.6517 125.084 11.3239 124.958 11.0182C124.831 10.7124 124.646 10.4345 124.412 10.2006C124.177 9.96659 123.899 9.78115 123.594 9.65473C123.288 9.52832 122.96 9.46337 122.629 9.46381ZM133.024 9.46381C132.355 9.46381 131.714 9.7292 131.242 10.2015C130.769 10.6739 130.504 11.3146 130.504 11.9826C130.504 12.65 130.77 13.2897 131.243 13.7613C131.715 14.233 132.356 14.4979 133.024 14.4979C133.691 14.4979 134.332 14.233 134.804 13.7613C135.277 13.2897 135.543 12.65 135.544 11.9826C135.544 11.6517 135.479 11.3239 135.353 11.0182C135.226 10.7124 135.041 10.4345 134.807 10.2006C134.573 9.96659 134.295 9.78115 133.989 9.65473C133.683 9.52832 133.355 9.46337 133.024 9.46381ZM133.024 9.46381C132.355 9.46381 131.714 9.7292 131.242 10.2015C130.769 10.6739 130.504 11.3146 130.504 11.9826C130.504 12.65 130.77 13.2897 131.243 13.7613C131.715 14.233 132.356 14.4979 133.024 14.4979C133.691 14.4979 134.332 14.233 134.804 13.7613C135.277 13.2897 135.543 12.65 135.544 11.9826C135.544 11.6517 135.479 11.3239 135.353 11.0182C135.226 10.7124 135.041 10.4345 134.807 10.2006C134.573 9.96659 134.295 9.78115 133.989 9.65473C133.683 9.52832 133.355 9.46337 133.024 9.46381ZM122.629 9.46381C121.96 9.46381 121.319 9.7292 120.847 10.2015C120.374 10.6739 120.108 11.3146 120.108 11.9826C120.109 12.65 120.375 13.2897 120.848 13.7613C121.32 14.233 121.961 14.4979 122.629 14.4979C123.296 14.4979 123.937 14.233 124.409 13.7613C124.882 13.2897 125.148 12.65 125.149 11.9826C125.149 11.6517 125.084 11.3239 124.958 11.0182C124.831 10.7124 124.646 10.4345 124.412 10.2006C124.177 9.96659 123.899 9.78115 123.594 9.65473C123.288 9.52832 122.96 9.46337 122.629 9.46381ZM112.237 9.46381C111.906 9.46337 111.578 9.52832 111.272 9.65473C110.966 9.78115 110.688 9.96659 110.454 10.2006C110.22 10.4345 110.034 10.7124 109.908 11.0182C109.781 11.3239 109.716 11.6517 109.717 11.9826C109.718 12.65 109.984 13.2897 110.456 13.7613C110.929 14.233 111.569 14.4979 112.237 14.4979C112.905 14.4979 113.545 14.233 114.018 13.7613C114.49 13.2897 114.756 12.65 114.757 11.9826C114.757 11.3146 114.491 10.6739 114.019 10.2015C113.546 9.7292 112.905 9.46381 112.237 9.46381ZM41.2116 9.62109H15.2908C14.9798 9.61841 14.6713 9.67763 14.3835 9.79536C14.0956 9.91308 13.834 10.0869 13.6141 10.3067C13.3942 10.5265 13.2202 10.7879 13.1024 11.0756C12.9846 11.3634 12.9253 11.6717 12.928 11.9826C12.928 12.2918 12.9893 12.5978 13.1082 12.8832C13.2272 13.1685 13.4016 13.4277 13.6213 13.6454C13.841 13.8631 14.1016 14.035 14.3881 14.1515C14.6747 14.268 14.9815 14.3266 15.2908 14.324H41.2116C41.8329 14.324 42.4288 14.0773 42.8682 13.6382C43.3075 13.1991 43.5543 12.6036 43.5543 11.9826C43.557 11.6734 43.4983 11.3668 43.3818 11.0804C43.2653 10.794 43.0931 10.5335 42.8753 10.3139C42.6575 10.0944 42.3983 9.92016 42.1128 9.80124C41.8272 9.68232 41.5209 9.62108 41.2116 9.62109ZM41.2116 9.62109H15.2908C14.9798 9.61841 14.6713 9.67763 14.3835 9.79536C14.0956 9.91308 13.834 10.0869 13.6141 10.3067C13.3942 10.5265 13.2202 10.7879 13.1024 11.0756C12.9846 11.3634 12.9253 11.6717 12.928 11.9826C12.928 12.2918 12.9893 12.5978 13.1082 12.8832C13.2272 13.1685 13.4016 13.4277 13.6213 13.6454C13.841 13.8631 14.1016 14.035 14.3881 14.1515C14.6747 14.268 14.9815 14.3266 15.2908 14.324H41.2116C41.8329 14.324 42.4288 14.0773 42.8682 13.6382C43.3075 13.1991 43.5543 12.6036 43.5543 11.9826C43.557 11.6734 43.4983 11.3668 43.3818 11.0804C43.2653 10.794 43.0931 10.5335 42.8753 10.3139C42.6575 10.0944 42.3983 9.92016 42.1128 9.80124C41.8272 9.68232 41.5209 9.62108 41.2116 9.62109ZM112.237 9.46381C111.906 9.46337 111.578 9.52832 111.272 9.65473C110.966 9.78115 110.688 9.96659 110.454 10.2006C110.22 10.4345 110.034 10.7124 109.908 11.0182C109.781 11.3239 109.716 11.6517 109.717 11.9826C109.718 12.65 109.984 13.2897 110.456 13.7613C110.929 14.233 111.569 14.4979 112.237 14.4979C112.905 14.4979 113.545 14.233 114.018 13.7613C114.49 13.2897 114.756 12.65 114.757 11.9826C114.757 11.3146 114.491 10.6739 114.019 10.2015C113.546 9.7292 112.905 9.46381 112.237 9.46381ZM122.629 9.46381C121.96 9.46381 121.319 9.7292 120.847 10.2015C120.374 10.6739 120.108 11.3146 120.108 11.9826C120.109 12.65 120.375 13.2897 120.848 13.7613C121.32 14.233 121.961 14.4979 122.629 14.4979C123.296 14.4979 123.937 14.233 124.409 13.7613C124.882 13.2897 125.148 12.65 125.149 11.9826C125.149 11.6517 125.084 11.3239 124.958 11.0182C124.831 10.7124 124.646 10.4345 124.412 10.2006C124.177 9.96659 123.899 9.78115 123.594 9.65473C123.288 9.52832 122.96 9.46337 122.629 9.46381ZM133.024 9.46381C132.355 9.46381 131.714 9.7292 131.242 10.2015C130.769 10.6739 130.504 11.3146 130.504 11.9826C130.504 12.65 130.77 13.2897 131.243 13.7613C131.715 14.233 132.356 14.4979 133.024 14.4979C133.691 14.4979 134.332 14.233 134.804 13.7613C135.277 13.2897 135.543 12.65 135.544 11.9826C135.544 11.6517 135.479 11.3239 135.353 11.0182C135.226 10.7124 135.041 10.4345 134.807 10.2006C134.573 9.96659 134.295 9.78115 133.989 9.65473C133.683 9.52832 133.355 9.46337 133.024 9.46381ZM133.024 9.46381C132.355 9.46381 131.714 9.7292 131.242 10.2015C130.769 10.6739 130.504 11.3146 130.504 11.9826C130.504 12.65 130.77 13.2897 131.243 13.7613C131.715 14.233 132.356 14.4979 133.024 14.4979C133.691 14.4979 134.332 14.233 134.804 13.7613C135.277 13.2897 135.543 12.65 135.544 11.9826C135.544 11.6517 135.479 11.3239 135.353 11.0182C135.226 10.7124 135.041 10.4345 134.807 10.2006C134.573 9.96659 134.295 9.78115 133.989 9.65473C133.683 9.52832 133.355 9.46337 133.024 9.46381ZM122.629 9.46381C121.96 9.46381 121.319 9.7292 120.847 10.2015C120.374 10.6739 120.108 11.3146 120.108 11.9826C120.109 12.65 120.375 13.2897 120.848 13.7613C121.32 14.233 121.961 14.4979 122.629 14.4979C123.296 14.4979 123.937 14.233 124.409 13.7613C124.882 13.2897 125.148 12.65 125.149 11.9826C125.149 11.6517 125.084 11.3239 124.958 11.0182C124.831 10.7124 124.646 10.4345 124.412 10.2006C124.177 9.96659 123.899 9.78115 123.594 9.65473C123.288 9.52832 122.96 9.46337 122.629 9.46381ZM112.237 9.46381C111.906 9.46337 111.578 9.52832 111.272 9.65473C110.966 9.78115 110.688 9.96659 110.454 10.2006C110.22 10.4345 110.034 10.7124 109.908 11.0182C109.781 11.3239 109.716 11.6517 109.717 11.9826C109.718 12.65 109.984 13.2897 110.456 13.7613C110.929 14.233 111.569 14.4979 112.237 14.4979C112.905 14.4979 113.545 14.233 114.018 13.7613C114.49 13.2897 114.756 12.65 114.757 11.9826C114.757 11.3146 114.491 10.6739 114.019 10.2015C113.546 9.7292 112.905 9.46381 112.237 9.46381ZM41.2116 9.62109H15.2908C14.9798 9.61841 14.6713 9.67763 14.3835 9.79536C14.0956 9.91308 13.834 10.0869 13.6141 10.3067C13.3942 10.5265 13.2202 10.7879 13.1024 11.0756C12.9846 11.3634 12.9253 11.6717 12.928 11.9826C12.928 12.2918 12.9893 12.5978 13.1082 12.8832C13.2272 13.1685 13.4016 13.4277 13.6213 13.6454C13.841 13.8631 14.1016 14.035 14.3881 14.1515C14.6747 14.268 14.9815 14.3266 15.2908 14.324H41.2116C41.8329 14.324 42.4288 14.0773 42.8682 13.6382C43.3075 13.1991 43.5543 12.6036 43.5543 11.9826C43.557 11.6734 43.4983 11.3668 43.3818 11.0804C43.2653 10.794 43.0931 10.5335 42.8753 10.3139C42.6575 10.0944 42.3983 9.92016 42.1128 9.80124C41.8272 9.68232 41.5209 9.62108 41.2116 9.62109ZM155.26 119.503L147.535 112.994C147.535 112.84 147.562 112.686 147.562 112.533V14.1501C147.552 10.5105 146.101 7.02281 143.526 4.44929C140.951 1.87576 137.462 0.425727 133.82 0.416016H14.6349C10.9936 0.426605 7.50441 1.87693 4.9296 4.45027C2.3548 7.0236 0.903601 10.5108 0.893005 14.1501V59.4829C0.893892 60.1495 1.15943 60.7884 1.63132 61.2594C2.10321 61.7304 2.74288 61.995 3.40979 61.995C4.07639 61.995 4.71571 61.7303 5.18707 61.2592C5.65842 60.7881 5.92322 60.1492 5.92322 59.4829V23.5425H73.5013C74.1714 23.5425 74.8141 23.2764 75.288 22.8028C75.7619 22.3292 76.0281 21.6868 76.0281 21.017C76.0281 20.3472 75.7619 19.705 75.288 19.2314C74.8141 18.7578 74.1714 18.4917 73.5013 18.4917H5.92322V14.1434C5.92322 11.8369 6.83999 9.62484 8.47186 7.9939C10.1037 6.36296 12.317 5.44671 14.6248 5.44671H133.81C136.118 5.44671 138.331 6.36296 139.963 7.9939C141.595 9.62484 142.512 11.8369 142.512 14.1434V18.4917H123.633C123.301 18.4917 122.973 18.557 122.666 18.6839C122.36 18.8109 122.081 18.997 121.847 19.2315C121.613 19.4661 121.427 19.7446 121.3 20.0509C121.174 20.3573 121.109 20.6855 121.109 21.017C121.109 21.3485 121.174 21.6768 121.3 21.9832C121.427 22.2896 121.613 22.5681 121.847 22.8026C122.081 23.0371 122.36 23.2231 122.666 23.3501C122.973 23.477 123.301 23.5425 123.633 23.5425H142.535V108.78L128.917 97.3101C128.166 96.6695 127.247 96.2592 126.268 96.1286C125.29 95.9981 124.294 96.1528 123.402 96.5742C122.505 96.9842 121.746 97.6441 121.215 98.4748C120.684 99.3054 120.405 100.271 120.41 101.257V121.209H14.6282C12.3204 121.209 10.1071 120.293 8.47521 118.662C6.84335 117.031 5.92657 114.819 5.92657 112.512V109.75C5.92657 109.083 5.66184 108.444 5.19058 107.972C4.71932 107.501 4.08005 107.235 3.41314 107.234C2.74565 107.234 2.10547 107.499 1.63349 107.971C1.1615 108.443 0.896355 109.083 0.896355 109.75V112.512C0.906951 116.152 2.35815 119.639 4.93295 122.212C7.50776 124.786 10.9969 126.236 14.6382 126.246H120.42V135.702C120.414 136.687 120.693 137.652 121.221 138.482C121.75 139.313 122.507 139.973 123.402 140.385C124.292 140.804 125.283 140.961 126.259 140.835C127.235 140.71 128.155 140.309 128.91 139.679L133.629 135.759L136.257 141.402C136.654 142.267 137.218 143.045 137.918 143.69C138.618 144.335 139.439 144.835 140.333 145.162C141.134 145.451 141.978 145.6 142.83 145.603C143.886 145.607 144.93 145.379 145.889 144.934C146.756 144.535 147.535 143.967 148.18 143.264C148.826 142.561 149.326 141.737 149.65 140.84C149.981 139.946 150.13 138.995 150.089 138.043C150.047 137.091 149.816 136.156 149.409 135.294L146.786 129.648L152.827 128.571C153.797 128.401 154.698 127.955 155.423 127.288C156.148 126.621 156.666 125.761 156.916 124.808C157.179 123.858 157.163 122.853 156.869 121.912C156.576 120.971 156.017 120.135 155.26 119.503ZM151.943 123.604L142.686 125.256C142.307 125.326 141.948 125.48 141.638 125.708C141.328 125.937 141.074 126.233 140.895 126.574C140.717 126.916 140.62 127.294 140.612 127.679C140.604 128.065 140.685 128.446 140.848 128.795L144.865 137.412C144.988 137.675 145.058 137.96 145.071 138.251C145.083 138.541 145.038 138.831 144.938 139.104C144.733 139.656 144.322 140.105 143.79 140.358C143.525 140.482 143.238 140.552 142.946 140.564C142.653 140.576 142.361 140.53 142.087 140.429C141.811 140.331 141.557 140.178 141.341 139.98C141.126 139.781 140.952 139.542 140.832 139.275L136.816 130.672C136.653 130.321 136.413 130.013 136.112 129.77C135.811 129.528 135.459 129.358 135.082 129.273C134.901 129.234 134.715 129.214 134.53 129.213C133.941 129.213 133.372 129.419 132.92 129.795L125.457 135.696L125.664 101.153L152.01 123.353L151.943 123.604ZM135.544 11.9826C135.544 11.6517 135.479 11.3239 135.353 11.0182C135.226 10.7124 135.041 10.4345 134.807 10.2006C134.573 9.96659 134.295 9.78115 133.989 9.65473C133.683 9.52832 133.355 9.46337 133.024 9.46381C132.355 9.46381 131.714 9.7292 131.242 10.2015C130.769 10.6739 130.504 11.3146 130.504 11.9826C130.504 12.65 130.77 13.2897 131.243 13.7613C131.715 14.233 132.356 14.4979 133.024 14.4979C133.691 14.4979 134.332 14.233 134.804 13.7613C135.277 13.2897 135.543 12.65 135.544 11.9826ZM122.629 14.4979C123.296 14.4979 123.937 14.233 124.409 13.7613C124.882 13.2897 125.148 12.65 125.149 11.9826C125.149 11.6517 125.084 11.3239 124.958 11.0182C124.831 10.7124 124.646 10.4345 124.412 10.2006C124.177 9.96659 123.899 9.78115 123.594 9.65473C123.288 9.52832 122.96 9.46337 122.629 9.46381C121.96 9.46381 121.319 9.7292 120.847 10.2015C120.374 10.6739 120.108 11.3146 120.108 11.9826C120.109 12.65 120.375 13.2897 120.848 13.7613C121.32 14.233 121.961 14.4979 122.629 14.4979ZM114.757 11.9826C114.757 11.3146 114.491 10.6739 114.019 10.2015C113.546 9.7292 112.905 9.46381 112.237 9.46381C111.906 9.46337 111.578 9.52832 111.272 9.65473C110.966 9.78115 110.688 9.96659 110.454 10.2006C110.22 10.4345 110.034 10.7124 109.908 11.0182C109.781 11.3239 109.716 11.6517 109.717 11.9826C109.718 12.65 109.984 13.2897 110.456 13.7613C110.929 14.233 111.569 14.4979 112.237 14.4979C112.905 14.4979 113.545 14.233 114.018 13.7613C114.49 13.2897 114.756 12.65 114.757 11.9826ZM15.2908 9.62109C14.9798 9.61841 14.6713 9.67763 14.3835 9.79536C14.0956 9.91308 13.834 10.0869 13.6141 10.3067C13.3942 10.5265 13.2202 10.7879 13.1024 11.0756C12.9846 11.3634 12.9253 11.6717 12.928 11.9826C12.928 12.2918 12.9893 12.5978 13.1082 12.8832C13.2272 13.1685 13.4016 13.4277 13.6213 13.6454C13.841 13.8631 14.1016 14.035 14.3881 14.1515C14.6747 14.268 14.9815 14.3266 15.2908 14.324H41.2116C41.8329 14.324 42.4288 14.0773 42.8682 13.6382C43.3075 13.1991 43.5543 12.6036 43.5543 11.9826C43.557 11.6734 43.4983 11.3668 43.3818 11.0804C43.2653 10.794 43.0931 10.5335 42.8753 10.3139C42.6575 10.0944 42.3983 9.92016 42.1128 9.80124C41.8272 9.68232 41.5209 9.62108 41.2116 9.62109H15.2908ZM41.2116 9.62109H15.2908C14.9798 9.61841 14.6713 9.67763 14.3835 9.79536C14.0956 9.91308 13.834 10.0869 13.6141 10.3067C13.3942 10.5265 13.2202 10.7879 13.1024 11.0756C12.9846 11.3634 12.9253 11.6717 12.928 11.9826C12.928 12.2918 12.9893 12.5978 13.1082 12.8832C13.2272 13.1685 13.4016 13.4277 13.6213 13.6454C13.841 13.8631 14.1016 14.035 14.3881 14.1515C14.6747 14.268 14.9815 14.3266 15.2908 14.324H41.2116C41.8329 14.324 42.4288 14.0773 42.8682 13.6382C43.3075 13.1991 43.5543 12.6036 43.5543 11.9826C43.557 11.6734 43.4983 11.3668 43.3818 11.0804C43.2653 10.794 43.0931 10.5335 42.8753 10.3139C42.6575 10.0944 42.3983 9.92016 42.1128 9.80124C41.8272 9.68232 41.5209 9.62108 41.2116 9.62109ZM112.237 9.46381C111.906 9.46337 111.578 9.52832 111.272 9.65473C110.966 9.78115 110.688 9.96659 110.454 10.2006C110.22 10.4345 110.034 10.7124 109.908 11.0182C109.781 11.3239 109.716 11.6517 109.717 11.9826C109.718 12.65 109.984 13.2897 110.456 13.7613C110.929 14.233 111.569 14.4979 112.237 14.4979C112.905 14.4979 113.545 14.233 114.018 13.7613C114.49 13.2897 114.756 12.65 114.757 11.9826C114.757 11.3146 114.491 10.6739 114.019 10.2015C113.546 9.7292 112.905 9.46381 112.237 9.46381ZM122.629 9.46381C121.96 9.46381 121.319 9.7292 120.847 10.2015C120.374 10.6739 120.108 11.3146 120.108 11.9826C120.109 12.65 120.375 13.2897 120.848 13.7613C121.32 14.233 121.961 14.4979 122.629 14.4979C123.296 14.4979 123.937 14.233 124.409 13.7613C124.882 13.2897 125.148 12.65 125.149 11.9826C125.149 11.6517 125.084 11.3239 124.958 11.0182C124.831 10.7124 124.646 10.4345 124.412 10.2006C124.177 9.96659 123.899 9.78115 123.594 9.65473C123.288 9.52832 122.96 9.46337 122.629 9.46381ZM133.024 9.46381C132.355 9.46381 131.714 9.7292 131.242 10.2015C130.769 10.6739 130.504 11.3146 130.504 11.9826C130.504 12.65 130.77 13.2897 131.243 13.7613C131.715 14.233 132.356 14.4979 133.024 14.4979C133.691 14.4979 134.332 14.233 134.804 13.7613C135.277 13.2897 135.543 12.65 135.544 11.9826C135.544 11.6517 135.479 11.3239 135.353 11.0182C135.226 10.7124 135.041 10.4345 134.807 10.2006C134.573 9.96659 134.295 9.78115 133.989 9.65473C133.683 9.52832 133.355 9.46337 133.024 9.46381ZM133.024 9.46381C132.355 9.46381 131.714 9.7292 131.242 10.2015C130.769 10.6739 130.504 11.3146 130.504 11.9826C130.504 12.65 130.77 13.2897 131.243 13.7613C131.715 14.233 132.356 14.4979 133.024 14.4979C133.691 14.4979 134.332 14.233 134.804 13.7613C135.277 13.2897 135.543 12.65 135.544 11.9826C135.544 11.6517 135.479 11.3239 135.353 11.0182C135.226 10.7124 135.041 10.4345 134.807 10.2006C134.573 9.96659 134.295 9.78115 133.989 9.65473C133.683 9.52832 133.355 9.46337 133.024 9.46381ZM122.629 9.46381C121.96 9.46381 121.319 9.7292 120.847 10.2015C120.374 10.6739 120.108 11.3146 120.108 11.9826C120.109 12.65 120.375 13.2897 120.848 13.7613C121.32 14.233 121.961 14.4979 122.629 14.4979C123.296 14.4979 123.937 14.233 124.409 13.7613C124.882 13.2897 125.148 12.65 125.149 11.9826C125.149 11.6517 125.084 11.3239 124.958 11.0182C124.831 10.7124 124.646 10.4345 124.412 10.2006C124.177 9.96659 123.899 9.78115 123.594 9.65473C123.288 9.52832 122.96 9.46337 122.629 9.46381ZM112.237 9.46381C111.906 9.46337 111.578 9.52832 111.272 9.65473C110.966 9.78115 110.688 9.96659 110.454 10.2006C110.22 10.4345 110.034 10.7124 109.908 11.0182C109.781 11.3239 109.716 11.6517 109.717 11.9826C109.718 12.65 109.984 13.2897 110.456 13.7613C110.929 14.233 111.569 14.4979 112.237 14.4979C112.905 14.4979 113.545 14.233 114.018 13.7613C114.49 13.2897 114.756 12.65 114.757 11.9826C114.757 11.3146 114.491 10.6739 114.019 10.2015C113.546 9.7292 112.905 9.46381 112.237 9.46381ZM41.2116 9.62109H15.2908C14.9798 9.61841 14.6713 9.67763 14.3835 9.79536C14.0956 9.91308 13.834 10.0869 13.6141 10.3067C13.3942 10.5265 13.2202 10.7879 13.1024 11.0756C12.9846 11.3634 12.9253 11.6717 12.928 11.9826C12.928 12.2918 12.9893 12.5978 13.1082 12.8832C13.2272 13.1685 13.4016 13.4277 13.6213 13.6454C13.841 13.8631 14.1016 14.035 14.3881 14.1515C14.6747 14.268 14.9815 14.3266 15.2908 14.324H41.2116C41.8329 14.324 42.4288 14.0773 42.8682 13.6382C43.3075 13.1991 43.5543 12.6036 43.5543 11.9826C43.557 11.6734 43.4983 11.3668 43.3818 11.0804C43.2653 10.794 43.0931 10.5335 42.8753 10.3139C42.6575 10.0944 42.3983 9.92016 42.1128 9.80124C41.8272 9.68232 41.5209 9.62108 41.2116 9.62109ZM41.2116 9.62109H15.2908C14.9798 9.61841 14.6713 9.67763 14.3835 9.79536C14.0956 9.91308 13.834 10.0869 13.6141 10.3067C13.3942 10.5265 13.2202 10.7879 13.1024 11.0756C12.9846 11.3634 12.9253 11.6717 12.928 11.9826C12.928 12.2918 12.9893 12.5978 13.1082 12.8832C13.2272 13.1685 13.4016 13.4277 13.6213 13.6454C13.841 13.8631 14.1016 14.035 14.3881 14.1515C14.6747 14.268 14.9815 14.3266 15.2908 14.324H41.2116C41.8329 14.324 42.4288 14.0773 42.8682 13.6382C43.3075 13.1991 43.5543 12.6036 43.5543 11.9826C43.557 11.6734 43.4983 11.3668 43.3818 11.0804C43.2653 10.794 43.0931 10.5335 42.8753 10.3139C42.6575 10.0944 42.3983 9.92016 42.1128 9.80124C41.8272 9.68232 41.5209 9.62108 41.2116 9.62109ZM112.237 9.46381C111.906 9.46337 111.578 9.52832 111.272 9.65473C110.966 9.78115 110.688 9.96659 110.454 10.2006C110.22 10.4345 110.034 10.7124 109.908 11.0182C109.781 11.3239 109.716 11.6517 109.717 11.9826C109.718 12.65 109.984 13.2897 110.456 13.7613C110.929 14.233 111.569 14.4979 112.237 14.4979C112.905 14.4979 113.545 14.233 114.018 13.7613C114.49 13.2897 114.756 12.65 114.757 11.9826C114.757 11.3146 114.491 10.6739 114.019 10.2015C113.546 9.7292 112.905 9.46381 112.237 9.46381ZM122.629 9.46381C121.96 9.46381 121.319 9.7292 120.847 10.2015C120.374 10.6739 120.108 11.3146 120.108 11.9826C120.109 12.65 120.375 13.2897 120.848 13.7613C121.32 14.233 121.961 14.4979 122.629 14.4979C123.296 14.4979 123.937 14.233 124.409 13.7613C124.882 13.2897 125.148 12.65 125.149 11.9826C125.149 11.6517 125.084 11.3239 124.958 11.0182C124.831 10.7124 124.646 10.4345 124.412 10.2006C124.177 9.96659 123.899 9.78115 123.594 9.65473C123.288 9.52832 122.96 9.46337 122.629 9.46381ZM133.024 9.46381C132.355 9.46381 131.714 9.7292 131.242 10.2015C130.769 10.6739 130.504 11.3146 130.504 11.9826C130.504 12.65 130.77 13.2897 131.243 13.7613C131.715 14.233 132.356 14.4979 133.024 14.4979C133.691 14.4979 134.332 14.233 134.804 13.7613C135.277 13.2897 135.543 12.65 135.544 11.9826C135.544 11.6517 135.479 11.3239 135.353 11.0182C135.226 10.7124 135.041 10.4345 134.807 10.2006C134.573 9.96659 134.295 9.78115 133.989 9.65473C133.683 9.52832 133.355 9.46337 133.024 9.46381ZM133.024 9.46381C132.355 9.46381 131.714 9.7292 131.242 10.2015C130.769 10.6739 130.504 11.3146 130.504 11.9826C130.504 12.65 130.77 13.2897 131.243 13.7613C131.715 14.233 132.356 14.4979 133.024 14.4979C133.691 14.4979 134.332 14.233 134.804 13.7613C135.277 13.2897 135.543 12.65 135.544 11.9826C135.544 11.6517 135.479 11.3239 135.353 11.0182C135.226 10.7124 135.041 10.4345 134.807 10.2006C134.573 9.96659 134.295 9.78115 133.989 9.65473C133.683 9.52832 133.355 9.46337 133.024 9.46381ZM122.629 9.46381C121.96 9.46381 121.319 9.7292 120.847 10.2015C120.374 10.6739 120.108 11.3146 120.108 11.9826C120.109 12.65 120.375 13.2897 120.848 13.7613C121.32 14.233 121.961 14.4979 122.629 14.4979C123.296 14.4979 123.937 14.233 124.409 13.7613C124.882 13.2897 125.148 12.65 125.149 11.9826C125.149 11.6517 125.084 11.3239 124.958 11.0182C124.831 10.7124 124.646 10.4345 124.412 10.2006C124.177 9.96659 123.899 9.78115 123.594 9.65473C123.288 9.52832 122.96 9.46337 122.629 9.46381ZM112.237 9.46381C111.906 9.46337 111.578 9.52832 111.272 9.65473C110.966 9.78115 110.688 9.96659 110.454 10.2006C110.22 10.4345 110.034 10.7124 109.908 11.0182C109.781 11.3239 109.716 11.6517 109.717 11.9826C109.718 12.65 109.984 13.2897 110.456 13.7613C110.929 14.233 111.569 14.4979 112.237 14.4979C112.905 14.4979 113.545 14.233 114.018 13.7613C114.49 13.2897 114.756 12.65 114.757 11.9826C114.757 11.3146 114.491 10.6739 114.019 10.2015C113.546 9.7292 112.905 9.46381 112.237 9.46381ZM41.2116 9.62109H15.2908C14.9798 9.61841 14.6713 9.67763 14.3835 9.79536C14.0956 9.91308 13.834 10.0869 13.6141 10.3067C13.3942 10.5265 13.2202 10.7879 13.1024 11.0756C12.9846 11.3634 12.9253 11.6717 12.928 11.9826C12.928 12.2918 12.9893 12.5978 13.1082 12.8832C13.2272 13.1685 13.4016 13.4277 13.6213 13.6454C13.841 13.8631 14.1016 14.035 14.3881 14.1515C14.6747 14.268 14.9815 14.3266 15.2908 14.324H41.2116C41.8329 14.324 42.4288 14.0773 42.8682 13.6382C43.3075 13.1991 43.5543 12.6036 43.5543 11.9826C43.557 11.6734 43.4983 11.3668 43.3818 11.0804C43.2653 10.794 43.0931 10.5335 42.8753 10.3139C42.6575 10.0944 42.3983 9.92016 42.1128 9.80124C41.8272 9.68232 41.5209 9.62108 41.2116 9.62109Z" fill="#9BE500"/>
<path d="M43.5677 11.9827C43.5677 12.6037 43.3209 13.1992 42.8815 13.6383C42.4422 14.0774 41.8463 14.3241 41.225 14.3241H15.3042C14.9949 14.3267 14.6881 14.2681 14.4015 14.1516C14.1149 14.0351 13.8543 13.8632 13.6346 13.6455C13.415 13.4278 13.2406 13.1686 13.1216 12.8832C13.0026 12.5979 12.9414 12.2918 12.9414 11.9827C12.9387 11.6718 12.998 11.3635 13.1158 11.0757C13.2336 10.788 13.4075 10.5266 13.6275 10.3068C13.8474 10.087 14.109 9.91317 14.3968 9.79545C14.6847 9.67772 14.9932 9.6185 15.3042 9.62118H41.225C41.5343 9.62117 41.8406 9.68241 42.1262 9.80133C42.4117 9.92025 42.6709 10.0944 42.8887 10.314C43.1065 10.5335 43.2786 10.7941 43.3952 11.0805C43.5117 11.3669 43.5704 11.6735 43.5677 11.9827Z" fill="#9BE500"/>
<path d="M114.757 11.9817C114.756 12.6491 114.49 13.2888 114.018 13.7604C113.545 14.232 112.905 14.497 112.237 14.497C111.569 14.497 110.928 14.232 110.456 13.7604C109.983 13.2888 109.718 12.6491 109.717 11.9817C109.716 11.6508 109.781 11.323 109.908 11.0172C110.034 10.7115 110.22 10.4336 110.454 10.1996C110.688 9.96568 110.966 9.78024 111.272 9.65382C111.578 9.5274 111.906 9.46245 112.237 9.46289C112.905 9.46289 113.546 9.72828 114.019 10.2006C114.491 10.673 114.757 11.3137 114.757 11.9817Z" fill="#9BE500"/>
<path d="M125.149 11.9817C125.148 12.6491 124.882 13.2888 124.409 13.7604C123.937 14.232 123.296 14.497 122.629 14.497C121.961 14.497 121.32 14.232 120.848 13.7604C120.375 13.2888 120.109 12.6491 120.108 11.9817C120.108 11.3137 120.374 10.673 120.847 10.2006C121.319 9.72828 121.96 9.46289 122.629 9.46289C122.96 9.46245 123.288 9.5274 123.594 9.65382C123.899 9.78024 124.177 9.96568 124.412 10.1996C124.646 10.4336 124.831 10.7115 124.958 11.0172C125.084 11.323 125.149 11.6508 125.149 11.9817Z" fill="#9BE500"/>
<path d="M135.544 11.9817C135.543 12.6491 135.277 13.2888 134.804 13.7604C134.332 14.232 133.691 14.497 133.024 14.497C132.356 14.497 131.715 14.232 131.243 13.7604C130.77 13.2888 130.504 12.6491 130.504 11.9817C130.504 11.3137 130.769 10.673 131.242 10.2006C131.714 9.72828 132.355 9.46289 133.024 9.46289C133.355 9.46245 133.683 9.5274 133.989 9.65382C134.295 9.78024 134.573 9.96568 134.807 10.1996C135.041 10.4336 135.226 10.7115 135.353 11.0172C135.479 11.323 135.544 11.6508 135.544 11.9817Z" fill="#9BE500"/>
<path d="M125.015 21.2505V20.625L71.2923 20.625V21.2505L125.015 21.2505Z" fill="#9BE500"/>
<path d="M3.58379 56.9473H2.95795V110.639H3.58379V56.9473Z" fill="#9BE500"/>
</svg>
