<svg width="155" height="122" viewBox="0 0 155 122" fill="none" xmlns="http://www.w3.org/2000/svg">
<g clip-path="url(#clip0_946_7562)">
<path d="M35.2923 75.4382L29.4474 78.1427C28.9318 78.3793 28.4952 78.7575 28.1895 79.2325C27.8838 79.7076 27.7217 80.2596 27.7223 80.8232C27.7223 81.6115 28.0359 82.368 28.595 82.9281C29.154 83.4883 29.9134 83.807 30.7081 83.8148C31.1459 83.8134 31.5781 83.7175 31.9748 83.5336L37.8075 80.8232C38.3206 80.5871 38.7551 80.2104 39.0597 79.7377C39.3642 79.2649 39.5262 78.7157 39.5266 78.1546C39.5343 77.6545 39.4137 77.1606 39.176 76.7194C38.9384 76.2783 38.5915 75.9044 38.1681 75.6328C37.7447 75.3611 37.2586 75.2007 36.7556 75.1666C36.2525 75.1326 35.7489 75.2261 35.2923 75.4382ZM153.739 8.42494C152.607 6.2206 150.945 4.32674 148.9 2.91067C146.855 1.4946 144.49 0.599859 142.013 0.305526C136.425 -0.532113 130.712 0.340462 125.637 2.80666L121.632 4.66739C121.109 4.90901 120.666 5.29453 120.357 5.77816C120.048 6.2618 119.886 6.82325 119.889 7.39582C119.884 7.90404 120.009 8.40511 120.253 8.85192C120.497 9.29873 120.852 9.67653 121.284 9.94955C121.717 10.2226 122.212 10.3819 122.723 10.4125C123.235 10.443 123.745 10.3438 124.208 10.1243L128.182 8.28135C132.149 6.33762 136.615 5.63056 140.994 6.25306C142.506 6.39184 143.962 6.89213 145.236 7.71121C146.51 8.53028 147.565 9.64365 148.311 10.9559C150.826 16.3409 145.898 24.1192 137.514 28.0084L102.957 44.0736L105.056 37.9108C105.31 37.1499 105.25 36.3201 104.888 35.6033C104.526 34.8866 103.893 34.3414 103.126 34.0874C102.358 33.8354 101.519 33.8962 100.796 34.2562C100.072 34.6163 99.522 35.2463 99.2659 36.0081L74.5836 108.873C73.1119 113.013 71.2842 115.455 69.2454 116.017C67.9819 116.256 66.6743 116.012 65.5841 115.335L71.5858 52.8511C71.6232 52.4598 71.5825 52.0649 71.466 51.6892C71.3495 51.3135 71.1595 50.9643 70.9069 50.6614C70.6542 50.3586 70.3439 50.1081 69.9936 49.9243C69.6433 49.7405 69.26 49.627 68.8654 49.5902C68.0706 49.5169 67.2789 49.7591 66.6639 50.2638C66.0488 50.7685 65.6605 51.4946 65.5841 52.2827L64.6552 61.8561L57.6643 65.087C57.1519 65.3249 56.7185 65.703 56.4151 66.1767C56.1116 66.6505 55.9507 67.2002 55.9513 67.7615C55.9513 68.5454 56.2652 69.2973 56.824 69.8516C57.3828 70.4059 58.1407 70.7174 58.931 70.7174C59.3649 70.716 59.7933 70.6198 60.1856 70.4361L64.0581 68.6411L59.4377 116.544C59.3946 117.008 59.4616 117.476 59.6333 117.91C59.8051 118.345 60.0769 118.733 60.4269 119.045C62.6574 120.889 65.4446 121.941 68.3467 122.036C69.144 122.035 69.938 121.936 70.7112 121.743C74.855 120.672 78.064 117.01 80.2535 110.764L100.321 51.822L140.059 33.4293C151.761 27.9845 157.787 17.005 153.739 8.42494ZM81.6469 23.2636L79.771 24.1372L30.4608 4.99052C24.254 2.66899 19.332 2.72888 15.8818 5.19999C14.4546 6.36371 13.3112 7.8325 12.5371 9.49656C11.7631 11.1606 11.3786 12.9768 11.4122 14.8091C11.4285 15.2736 11.5536 15.7279 11.7776 16.1361C12.0017 16.5442 12.3185 16.8951 12.703 17.1607L45.9083 39.8015L26.8899 48.7287L3.75182 42.8949C3.30742 42.784 2.84335 42.7749 2.39491 42.8685C1.94648 42.9621 1.52547 43.1558 1.16381 43.435C0.802146 43.7141 0.509357 44.0714 0.307703 44.4796C0.106049 44.8878 0.000813326 45.3362 0 45.7908C0.00112564 46.4566 0.226125 47.103 0.639373 47.6277C1.05389 48.153 1.63352 48.5257 2.28609 48.6868L26.4737 54.6701C27.1347 54.8336 27.832 54.7703 28.4521 54.4906L84.1984 28.6666C84.7148 28.4254 85.1516 28.0437 85.458 27.566C85.7645 27.0884 85.9279 26.5343 85.9295 25.9681C85.9267 25.4672 85.7972 24.975 85.5528 24.5367C85.3084 24.0983 84.9569 23.7279 84.5307 23.4594C84.1045 23.1908 83.6171 23.0327 83.1132 22.9995C82.6093 22.9664 82.1051 23.0592 81.6469 23.2696V23.2636ZM52.2357 36.8996L17.5647 13.3372C17.7412 12.0793 18.3869 10.9329 19.3742 10.1243C21.0873 8.92759 24.1997 9.08306 28.3738 10.6268L72.2855 27.6195L52.2357 36.8996Z" fill="#9BE500"/>
<path d="M37.5356 76.969L38.0596 78.0801L57.6683 68.981L57.1443 67.8699L37.5356 76.969Z" fill="#9BE500"/>
<path d="M83.3556 24.925L83.8643 26.043L125.939 7.20685L125.431 6.08885L83.3556 24.925Z" fill="#9BE500"/>
</g>
<defs>
<clipPath id="clip0_946_7562">
<rect width="155" height="122" fill="white"/>
</clipPath>
</defs>
</svg>
