<svg width="32" height="31" viewBox="0 0 32 31" fill="none" xmlns="http://www.w3.org/2000/svg">
<path d="M18.5882 15.2304L14.9618 13.5383C14.6454 13.3914 14.3854 13.556 14.3854 13.9064V17.0936C14.3854 17.444 14.6454 17.6086 14.9618 17.4617L18.5866 15.7696C18.9046 15.6211 18.9046 15.3789 18.5882 15.2304ZM16 0C7.43948 0 0.5 6.93948 0.5 15.5C0.5 24.0605 7.43948 31 16 31C24.5605 31 31.5 24.0605 31.5 15.5C31.5 6.93948 24.5605 0 16 0ZM16 21.7969C8.06594 21.7969 7.92708 21.0816 7.92708 15.5C7.92708 9.91839 8.06594 9.20312 16 9.20312C23.9341 9.20312 24.0729 9.91839 24.0729 15.5C24.0729 21.0816 23.9341 21.7969 16 21.7969Z" fill="white"/>
</svg>
