<svg width="32" height="32" viewBox="0 0 32 32" fill="none" xmlns="http://www.w3.org/2000/svg">
<path d="M18.5644 15.7329L14.9709 14.0561C14.6573 13.9105 14.3997 14.0737 14.3997 14.4209V17.5793C14.3997 17.9265 14.6573 18.0897 14.9709 17.9441L18.5629 16.2673C18.8781 16.1201 18.878 15.8801 18.5644 15.7329ZM15.9997 0.640137C7.51645 0.640137 0.639648 7.51694 0.639648 16.0001C0.639648 24.4833 7.51645 31.3601 15.9997 31.3601C24.4829 31.3601 31.3597 24.4833 31.3597 16.0001C31.3597 7.51694 24.4829 0.640137 15.9997 0.640137ZM15.9997 22.2401C8.13725 22.2401 7.99965 21.5313 7.99965 16.0001C7.99965 10.4689 8.13725 9.76014 15.9997 9.76014C23.8621 9.76014 23.9997 10.4689 23.9997 16.0001C23.9997 21.5313 23.8621 22.2401 15.9997 22.2401Z" fill="white"/>
</svg>
